<?xml version="1.0" encoding="utf-8"?>
<!-- Generator: Adobe Illustrator 25.2.1, SVG Export Plug-In . SVG Version: 6.00 Build 0)  -->
<svg version="1.1" id="layer" xmlns="http://www.w3.org/2000/svg" xmlns:xlink="http://www.w3.org/1999/xlink" x="0px" y="0px"
	 viewBox="0 0 335 511" style="enable-background:new 0 0 335 511;" xml:space="preserve">
<style type="text/css">
	.st0{fill:#7EBB00;}
	.st1{fill:#FFFFFF;}
</style>
<g>
	<path class="st0" d="M328.5,449.8c0,31.4-25.7,57.1-57.1,57.1h-208c-31.4,0-57.1-25.7-57.1-57.1V63.9C6.3,32.5,32,6.8,63.4,6.8h208
		c31.4,0,57.1,25.7,57.1,57.1V449.8z"/>
	<path class="st1" d="M35.6,240.4h43.2c11.8,0,20.2,3.5,25.1,10.5c2.9,4.1,4.4,8.9,4.4,14.3c0,6.3-1.8,11.5-5.4,15.5
		c-1.9,2.1-4.5,4.1-8,5.9c5.1,2,9,4.1,11.5,6.6c4.5,4.4,6.7,10.4,6.7,18c0,6.4-2,12.3-6.1,17.5c-6.1,7.8-15.7,11.7-29,11.7H35.5
		v-100H35.6z M73.7,282.7c5.8,0,10.3-0.8,13.5-2.4c5-2.5,7.6-7,7.6-13.5s-2.7-10.9-8-13.2c-3-1.3-7.5-1.9-13.5-1.9H48.9v31H73.7z
		 M78.3,328.8c8.4,0,14.3-2.4,17.9-7.2c2.2-3,3.4-6.7,3.4-11c0-7.3-3.3-12.2-9.8-14.8c-3.5-1.4-8.1-2.1-13.8-2.1H48.9v35.2h29.4
		V328.8z"/>
	<path class="st1" d="M123.5,240.4h45.4c7.5,0,13.6,1.1,18.5,3.3c9.2,4.3,13.8,12.1,13.8,23.6c0,6-1.2,10.9-3.7,14.7
		c-2.5,3.8-5.9,6.9-10.4,9.2c3.9,1.6,6.8,3.7,8.8,6.3c2,2.6,3.1,6.8,3.3,12.6l0.5,13.4c0.1,3.8,0.5,6.6,1,8.5
		c0.8,3.2,2.3,5.2,4.4,6.1v2.2h-16.6c-0.5-0.9-0.8-2-1.1-3.3c-0.3-1.4-0.5-4-0.7-7.9l-0.8-16.7c-0.3-6.5-2.7-10.9-7.1-13.1
		c-2.5-1.2-6.5-1.8-11.8-1.8h-30v42.9h-13.5V240.4z M167.4,286.2c6.2,0,11.1-1.3,14.7-3.8s5.4-7.1,5.4-13.7c0-7.1-2.5-12-7.5-14.5
		c-2.7-1.4-6.3-2-10.8-2H137v34.2h30.4V286.2z"/>
	<path class="st1" d="M286.2,247.7c6.9,6.7,10.7,14.2,11.5,22.7h-13.2c-1.5-6.4-4.4-11.5-8.8-15.3s-10.5-5.6-18.5-5.6
		c-9.7,0-17.5,3.5-23.4,10.4s-8.9,17.5-8.9,31.8c0,11.7,2.7,21.2,8,28.5c5.4,7.3,13.4,10.9,24,10.9c9.8,0,17.3-3.8,22.4-11.5
		c2.7-4,4.7-9.3,6.1-15.9h13.2c-1.2,10.5-5,19.3-11.6,26.5c-7.9,8.6-18.4,12.9-31.7,12.9c-11.5,0-21.1-3.5-28.9-10.5
		c-10.3-9.3-15.4-23.7-15.4-43.1c0-14.7,3.9-26.8,11.6-36.3c8.3-10.3,19.8-15.4,34.5-15.4C269.6,237.7,279.3,241,286.2,247.7"/>
	<polygon class="st1" points="88.5,349.5 88.5,364.9 54.7,364.9 54.7,386.7 86.5,386.7 86.5,402.1 54.7,402.1 54.7,442.4 
		35.6,442.4 35.6,349.5 	"/>
	<path class="st1" d="M92.7,376.5c0.7-6,2.1-11,4.4-15.3c2.2-4.2,5.5-7.6,9.7-10c4.2-2.4,10-3.6,17.1-3.6c7.2,0,12.9,1.2,17.1,3.6
		s7.5,5.7,9.7,10c2.2,4.2,3.7,9.3,4.4,15.3c0.7,5.9,1,12.4,1,19.5s-0.3,13.6-1,19.5s-2.1,11-4.4,15.2c-2.2,4.2-5.5,7.5-9.7,9.8
		s-9.9,3.4-17.1,3.4s-12.9-1.1-17.1-3.4c-4.2-2.2-7.5-5.5-9.7-9.8c-2.2-4.2-3.7-9.3-4.4-15.2c-0.7-5.9-1-12.4-1-19.5
		S92,382.5,92.7,376.5 M111.3,411.9c0.3,4.4,0.9,7.9,1.9,10.7c0.9,2.7,2.2,4.7,4,6c1.7,1.3,4,1.9,6.8,1.9s5.1-0.6,6.8-1.9
		c1.7-1.3,3-3.3,4-6c0.9-2.7,1.5-6.3,1.9-10.7c0.3-4.4,0.5-9.7,0.5-15.9c0-6.2-0.2-11.5-0.5-15.9c-0.3-4.3-0.9-7.9-1.9-10.7
		c-0.9-2.8-2.3-4.8-4-6.1c-1.7-1.2-4-1.9-6.8-1.9s-5.1,0.6-6.8,1.9c-1.7,1.3-3,3.3-4,6.1c-0.9,2.8-1.5,6.3-1.9,10.7
		c-0.3,4.3-0.5,9.6-0.5,15.9C110.8,402.2,110.9,407.5,111.3,411.9"/>
	<path class="st1" d="M163.1,376.5c0.7-6,2.1-11,4.4-15.3c2.3-4.2,5.5-7.6,9.7-10s9.9-3.6,17.1-3.6s12.9,1.2,17.1,3.6
		s7.5,5.7,9.7,10c2.3,4.2,3.7,9.3,4.4,15.3c0.7,5.9,1,12.4,1,19.5s-0.3,13.6-1,19.5s-2.1,11-4.4,15.2c-2.2,4.2-5.5,7.5-9.7,9.8
		s-9.9,3.4-17.1,3.4s-12.9-1.1-17.1-3.4c-4.2-2.2-7.5-5.5-9.7-9.8c-2.2-4.2-3.7-9.3-4.4-15.2c-0.7-5.9-1-12.4-1-19.5
		S162.4,382.5,163.1,376.5 M181.6,411.9c0.3,4.4,0.9,7.9,1.9,10.7c0.9,2.7,2.2,4.7,4,6c1.7,1.3,4,1.9,6.8,1.9s5.1-0.6,6.8-1.9
		c1.7-1.3,3-3.3,4-6c0.9-2.7,1.5-6.3,1.9-10.7c0.3-4.4,0.5-9.7,0.5-15.9c0-6.2-0.2-11.5-0.5-15.9c-0.3-4.3-0.9-7.9-1.9-10.7
		c-0.9-2.8-2.2-4.8-4-6.1c-1.7-1.2-4-1.9-6.8-1.9s-5.1,0.6-6.8,1.9c-1.7,1.3-3.1,3.3-4,6.1c-0.9,2.8-1.5,6.3-1.9,10.7
		c-0.3,4.3-0.5,9.6-0.5,15.9C181.2,402.2,181.3,407.5,181.6,411.9"/>
	<path class="st1" d="M266.7,349.5c6.6,0,12,1.1,16,3.2s7.2,5.2,9.5,9.1c2.2,3.9,3.8,8.7,4.6,14.2c0.8,5.5,1.2,11.8,1.2,18.6
		c0,8.2-0.5,15.2-1.5,21.3c-1,6-2.8,11-5.2,14.9c-2.5,3.9-5.8,6.8-9.9,8.7c-4.2,1.9-9.4,2.9-15.8,2.9h-30.1v-92.9L266.7,349.5
		L266.7,349.5z M263,428.6c3.4,0,6-0.6,8.1-1.7c2-1.1,3.6-3,4.8-5.6c1.2-2.6,2-6,2.4-10.3c0.4-4.2,0.6-9.5,0.6-15.9
		c0-5.3-0.2-9.9-0.5-13.9s-1.1-7.3-2.2-10c-1.1-2.6-2.7-4.6-4.9-6c-2.2-1.3-5.1-2-8.7-2h-8.1v65.3h8.5V428.6z"/>
	<path class="st1" d="M50.4,458.7c-0.6-1.2-1.7-1.7-3.4-1.7c-0.9,0-1.6,0.2-2.2,0.7c-0.6,0.5-1,1.2-1.4,2.3
		c-0.3,1.1-0.6,2.4-0.7,4.2c-0.1,1.7-0.2,3.8-0.2,6.3c0,2.6,0.1,4.8,0.3,6.4c0.2,1.6,0.5,2.9,0.8,3.8c0.4,0.9,0.9,1.5,1.4,1.8
		c0.6,0.3,1.2,0.5,2,0.5c0.6,0,1.2-0.1,1.8-0.3s1-0.6,1.4-1.3c0.4-0.6,0.7-1.5,1-2.7c0.2-1.2,0.3-2.7,0.3-4.6h7.2
		c0,1.9-0.1,3.7-0.4,5.4c-0.3,1.7-0.9,3.2-1.7,4.5s-2,2.3-3.4,3c-1.5,0.7-3.4,1.1-5.7,1.1c-2.7,0-4.8-0.4-6.4-1.3
		c-1.6-0.8-2.8-2.1-3.7-3.7c-0.8-1.6-1.4-3.5-1.6-5.7c-0.2-2.2-0.4-4.7-0.4-7.3s0.1-5.1,0.4-7.3c0.2-2.2,0.8-4.1,1.6-5.7
		c0.8-1.6,2.1-2.8,3.7-3.7c1.6-0.9,3.7-1.3,6.4-1.3c2.6,0,4.6,0.4,6,1.2c1.5,0.8,2.6,1.8,3.3,3.1c0.7,1.2,1.2,2.6,1.4,4.1
		c0.2,1.4,0.3,2.8,0.3,4.1h-7.2C51.3,461.7,51,459.8,50.4,458.7"/>
	<polygon class="st1" points="81.5,458.2 68.8,458.2 68.8,466.4 80.7,466.4 80.7,472.2 68.8,472.2 68.8,481.6 82,481.6 82,487.3 
		61.6,487.3 61.6,452.4 81.5,452.4 	"/>
	<path class="st1" d="M97.6,452.4c3,0,5.3,0.7,7,2.2c1.7,1.5,2.5,3.7,2.5,6.8c0,2.4-0.5,4.3-1.4,5.7c-1,1.5-2.5,2.4-4.5,2.9v0.1
		c1.8,0.3,3.1,0.8,3.9,1.7s1.3,2.3,1.5,4.2c0.1,0.7,0.1,1.4,0.2,2.1c0,0.8,0.1,1.6,0.1,2.6c0.1,1.9,0.2,3.3,0.3,4.3
		c0.2,1,0.6,1.6,1.3,2v0.3h-7.8c-0.4-0.5-0.6-1.1-0.7-1.7c-0.1-0.6-0.2-1.3-0.2-2l-0.2-6.7c-0.1-1.4-0.4-2.4-1-3.2s-1.7-1.2-3.2-1.2
		h-3.8v14.8h-7.2v-34.9L97.6,452.4L97.6,452.4z M94.5,467.7c1.7,0,3-0.4,4-1.2c0.9-0.8,1.4-2.1,1.4-4c0-3.2-1.7-4.8-5-4.8h-3.4v10.1
		h3V467.7z"/>
	<polygon class="st1" points="130.7,458.2 122.9,458.2 122.9,487.3 115.8,487.3 115.8,458.2 108,458.2 108,452.4 130.7,452.4 	"/>
	<rect x="132.9" y="452.4" class="st1" width="7.2" height="34.9"/>
	<polygon class="st1" points="164,452.4 164,458.2 151.3,458.2 151.3,466.4 163.2,466.4 163.2,472.2 151.3,472.2 151.3,487.3 
		144.1,487.3 144.1,452.4 	"/>
	<rect x="166.3" y="452.4" class="st1" width="7.2" height="34.9"/>
	<path class="st1" d="M191.8,458.7c-0.6-1.2-1.7-1.7-3.4-1.7c-0.9,0-1.6,0.2-2.2,0.7s-1,1.2-1.4,2.3c-0.3,1.1-0.6,2.4-0.7,4.2
		c-0.1,1.7-0.2,3.8-0.2,6.3c0,2.6,0.1,4.8,0.3,6.4c0.2,1.6,0.5,2.9,0.8,3.8c0.4,0.9,0.9,1.5,1.4,1.8c0.6,0.3,1.2,0.5,2,0.5
		c0.6,0,1.2-0.1,1.8-0.3c0.5-0.2,1-0.6,1.4-1.3c0.4-0.6,0.7-1.5,1-2.7c0.2-1.2,0.3-2.7,0.3-4.6h7.2c0,1.9-0.2,3.7-0.4,5.4
		c-0.3,1.7-0.9,3.2-1.7,4.5c-0.8,1.3-2,2.3-3.4,3c-1.5,0.7-3.4,1.1-5.7,1.1c-2.7,0-4.8-0.4-6.4-1.3c-1.6-0.8-2.8-2.1-3.7-3.7
		c-0.8-1.6-1.4-3.5-1.6-5.7s-0.4-4.7-0.4-7.3s0.1-5.1,0.4-7.3s0.8-4.1,1.6-5.7c0.8-1.6,2.1-2.8,3.7-3.7s3.7-1.3,6.4-1.3
		c2.6,0,4.6,0.4,6,1.2c1.5,0.8,2.6,1.8,3.3,3.1c0.7,1.2,1.2,2.6,1.4,4.1c0.2,1.4,0.3,2.8,0.3,4.1h-7.2
		C192.7,461.7,192.4,459.8,191.8,458.7"/>
	<path class="st1" d="M218.8,452.4l9.4,34.9h-7.5l-1.6-7.4h-9.5l-1.6,7.4h-7.5l9.4-34.9H218.8z M217.9,474.2l-3.4-15.7h-0.1
		l-3.4,15.7H217.9z"/>
	<polygon class="st1" points="247.5,458.2 239.8,458.2 239.8,487.3 232.6,487.3 232.6,458.2 224.8,458.2 224.8,452.4 247.5,452.4 	
		"/>
	<polygon class="st1" points="269.2,458.2 256.5,458.2 256.5,466.4 268.5,466.4 268.5,472.2 256.5,472.2 256.5,481.6 269.7,481.6 
		269.7,487.3 249.4,487.3 249.4,452.4 269.2,452.4 	"/>
	<path class="st1" d="M284.2,452.4c2.5,0,4.5,0.4,6,1.2s2.7,1.9,3.6,3.4c0.8,1.5,1.4,3.3,1.7,5.3c0.3,2.1,0.4,4.4,0.4,7
		c0,3.1-0.2,5.7-0.6,8s-1,4.1-2,5.6c-0.9,1.5-2.2,2.6-3.7,3.3c-1.6,0.7-3.5,1.1-5.9,1.1h-11.3v-34.9L284.2,452.4L284.2,452.4z
		 M282.8,482.1c1.3,0,2.3-0.2,3-0.6s1.4-1.1,1.8-2.1c0.5-1,0.7-2.3,0.9-3.9c0.2-1.6,0.2-3.6,0.2-6c0-2-0.1-3.7-0.2-5.2
		s-0.4-2.7-0.8-3.7s-1-1.7-1.8-2.2s-1.9-0.8-3.3-0.8h-3v24.5H282.8z"/>
	<path class="st1" d="M42.8,121.5c0,0,47.5,47.5,74.2,105.4c0,0,69.8-133.6,170.7-196c0,0-127.7,53.4-173.7,124.7
		C114.1,155.7,71,115.6,42.8,121.5"/>
</g>
</svg>
