<?xml version="1.0" encoding="utf-8"?>
<!-- Generator: Adobe Illustrator 25.2.1, SVG Export Plug-In . SVG Version: 6.00 Build 0)  -->
<svg version="1.1" id="Layer_1" xmlns="http://www.w3.org/2000/svg" xmlns:xlink="http://www.w3.org/1999/xlink" x="0px" y="0px"
	 viewBox="0 0 548.66 544.99" style="enable-background:new 0 0 548.66 544.99;" xml:space="preserve">
<style type="text/css">
	.st0{fill-rule:evenodd;clip-rule:evenodd;fill:#0E025C;}
	.st1{fill:none;stroke:#0F0264;stroke-width:1.8011;stroke-miterlimit:10;}
	.st2{fill:none;}
	.st3{fill:#0F0264;}
</style>
<g>
	<g>
		<polygon class="st0" points="294.52,509.85 273.79,495.41 273.79,493.63 294.52,508.07 294.52,509.85 		"/>
		<path class="st0" d="M267.9,503.01c-3.74,0-6.79-3.01-6.79-6.71v-9.58c0-3.7,3.05-6.71,6.79-6.71h14.7c3.74,0,6.72,3.01,6.72,6.71
			v11.57l-1.46-1.03v-10.54c0-2.94-2.36-5.27-5.27-5.27h-14.7c-2.91,0-5.34,2.33-5.34,5.27v9.58c0,2.88,2.43,5.27,5.34,5.27h13.38
			l2.08,1.44H267.9L267.9,503.01L267.9,503.01z"/>
		<polygon class="st0" points="294.52,507.18 273.79,492.74 273.79,490.96 294.52,505.4 294.52,507.18 		"/>
		<path class="st0" d="M273.86,488.36L273.86,488.36h-0.07v1.71l20.73,14.45v-1.78l-12.06-8.35h2.98v1.23l1.46,0.96v-9.79
			c0-2.4-1.94-4.38-4.44-4.38h-14.49c-2.43,0-4.44,1.99-4.44,4.38v9.45c0,2.39,2.01,4.38,4.44,4.38h11.99l-2.08-1.44h-9.91
			c-1.59,0-2.98-1.3-2.98-2.94v-9.45c0-1.64,1.39-2.94,2.98-2.94h14.49c1.66,0,2.98,1.3,2.98,2.94v1.58h-11.58V488.36L273.86,488.36
			z M285.44,489.8v0.89h-8.25l-1.25-0.89H285.44L285.44,489.8L285.44,489.8z M280.44,492.94L280.44,492.94l-1.25-0.82h6.24v0.82
			H280.44L280.44,492.94L280.44,492.94z"/>
		<path class="st0" d="M302.7,480.14c-1.59-1.57-3.67-2.4-5.89-2.4h-13.73c-0.69-0.41-1.11-1.16-1.11-1.99
			c0-0.62,0.21-1.23,0.69-1.64c0.42-0.41,0.97-0.68,1.59-0.68h20.87v-1.37h-20.87c-2.08,0-3.74,1.64-3.74,3.7
			c0,0.68,0.21,1.37,0.55,1.99h-1.04c-0.28-0.62-0.42-1.23-0.42-1.92c0-1.3,0.56-2.46,1.39-3.35c0.9-0.89,2.08-1.37,3.33-1.37h20.8
			v-1.44h-20.79c-3.4,0-6.17,2.81-6.17,6.16c0,0.62,0.14,1.3,0.35,1.92h-0.9c-0.21-0.62-0.35-1.3-0.35-1.99
			c0-1.85,0.76-3.63,2.08-4.93s3.05-2.05,4.92-2.05h20.87v-1.44h-20.87c-4.64,0-8.39,3.77-8.39,8.42c0,0.68,0.07,1.37,0.21,1.99
			h-0.97v-1.71c0-2.33-0.9-4.52-2.57-6.16c-1.66-1.64-3.81-2.53-6.1-2.53H245.5v1.44h20.94c1.94,0,3.74,0.75,5.06,2.12
			c1.39,1.37,2.15,3.22,2.15,5.13v1.71h-0.83v-1.3c0-1.85-0.76-3.56-2.01-4.79c-1.32-1.23-2.98-1.99-4.78-1.99h-20.52v1.44h20.52
			c1.46,0,2.77,0.55,3.74,1.57c1.04,0.96,1.59,2.33,1.59,3.77v1.3h-0.97v-1.3c0-1.16-0.49-2.33-1.32-3.15s-1.94-1.23-3.12-1.23
			H245.5v1.37h20.45c0.76,0,1.53,0.34,2.08,0.89s0.9,1.3,0.9,2.12v1.3h-1.46c-4.78,0-8.67,3.9-8.67,8.69v1.92h-7.07v-13.97h-1.46
			v15.33h0.69h7.83v0.96h-9.5v-16.29h-1.46v17.73h0.69h10.26v0.82h-11.85v-18.55h-1.46v19.99h0.69h12.62v2.19
			c0,4.79,3.88,8.69,8.67,8.69h19.13l-2.08-1.44h-17.05c-3.95,0-7.21-3.22-7.21-7.26v-10.13c0-4.04,3.26-7.26,7.21-7.26h15.53
			c3.95,0,7.21,3.22,7.21,7.26v12.46l1.46,1.03v-5.54h5.13c2.22,0,4.3-0.82,5.89-2.4c1.59-1.57,2.5-3.7,2.5-5.96
			C305.19,483.84,304.29,481.72,302.7,480.14L302.7,480.14L302.7,480.14z M290.08,481.44h6.59c1.25,0,2.43,0.48,3.33,1.3
			c0.9,0.89,1.39,2.05,1.39,3.35c0,2.53-2.08,4.65-4.71,4.65h-4.99v-0.96h5.13c0.97,0,1.87-0.41,2.63-1.1
			c0.69-0.68,1.11-1.64,1.11-2.6c0-1.03-0.42-1.98-1.11-2.67c-0.76-0.68-1.66-1.1-2.63-1.1h-6.17
			C290.5,482.06,290.29,481.72,290.08,481.44L290.08,481.44L290.08,481.44z M291.26,483.77h5.55c0.55,0,1.18,0.27,1.59,0.69
			c0.42,0.41,0.69,1.03,0.69,1.64c0,1.23-1.04,2.26-2.29,2.26h-5.13v-1.92C291.68,485.48,291.54,484.59,291.26,483.77L291.26,483.77
			L291.26,483.77z M296.81,492.94h-5.13v-0.82h4.99c1.66,0,3.19-0.62,4.37-1.71c1.11-1.17,1.8-2.67,1.8-4.31s-0.69-3.22-1.8-4.31
			c-1.18-1.16-2.7-1.78-4.37-1.78h-7.83c-0.35-0.34-0.69-0.62-1.11-0.82h9.08c1.8,0,3.54,0.68,4.85,1.99
			c1.32,1.3,2.08,3.01,2.08,4.86C303.74,489.86,300.62,492.94,296.81,492.94L296.81,492.94L296.81,492.94z"/>
		<polygon class="st0" points="242.88,468.57 215.02,468.57 215.02,467.22 242.88,467.22 		"/>
		<polygon class="st0" points="242.88,470.91 215.02,470.91 215.02,469.55 242.88,469.55 		"/>
		<polygon class="st0" points="242.88,473.24 215.02,473.24 215.02,471.89 242.88,471.89 		"/>
		<polygon class="st0" points="242.88,475.58 215.02,475.58 215.02,474.22 242.88,474.22 		"/>
		<polygon class="st0" points="242.88,477.91 215.02,477.91 215.02,476.56 242.88,476.56 		"/>
		<polygon class="st0" points="242.88,480.25 215.02,480.25 215.02,478.89 242.88,478.89 		"/>
		<polygon class="st0" points="242.88,482.58 215.02,482.58 215.02,481.23 242.88,481.23 		"/>
		<polygon class="st0" points="242.88,484.92 215.02,484.92 215.02,483.56 242.88,483.56 		"/>
		<polygon class="st0" points="242.88,487.25 215.02,487.25 215.02,485.9 242.88,485.9 		"/>
		<polygon class="st0" points="242.88,489.59 215.02,489.59 215.02,488.23 242.88,488.23 		"/>
		<polygon class="st0" points="242.88,491.92 215.02,491.92 215.02,490.57 242.88,490.57 		"/>
		<polygon class="st0" points="242.88,494.26 215.02,494.26 215.02,492.9 242.88,492.9 		"/>
		<polygon class="st0" points="336.12,468.64 308.26,468.64 308.26,467.29 336.12,467.29 		"/>
		<polygon class="st0" points="336.12,470.98 308.26,470.98 308.26,469.62 336.12,469.62 		"/>
		<polygon class="st0" points="336.12,473.31 308.26,473.31 308.26,471.96 336.12,471.96 		"/>
		<polygon class="st0" points="336.12,475.65 308.26,475.65 308.26,474.29 336.12,474.29 		"/>
		<polygon class="st0" points="336.12,477.98 308.26,477.98 308.26,476.63 336.12,476.63 		"/>
		<polygon class="st0" points="336.12,480.32 308.26,480.32 308.26,478.96 336.12,478.96 		"/>
		<polygon class="st0" points="336.12,482.65 308.26,482.65 308.26,481.3 336.12,481.3 		"/>
		<polygon class="st0" points="336.12,484.99 308.26,484.99 308.26,483.63 336.12,483.63 		"/>
		<polygon class="st0" points="336.12,487.32 308.26,487.32 308.26,485.97 336.12,485.97 		"/>
		<polygon class="st0" points="336.12,489.66 308.26,489.66 308.26,488.31 336.12,488.31 		"/>
		<polygon class="st0" points="336.12,491.99 308.26,491.99 308.26,490.64 336.12,490.64 		"/>
		<polygon class="st0" points="336.12,494.33 308.26,494.33 308.26,492.98 336.12,492.98 		"/>
		<path class="st0" d="M275.75,518.87c-16.12,0-29.92-9.94-35.62-24.02h-11.36c6.16,20.1,24.86,34.72,46.97,34.72
			c22.12,0,40.82-14.62,46.97-34.72h-11.36C305.67,508.93,291.87,518.87,275.75,518.87L275.75,518.87z M275.75,442.03
			c16.35,0,30.31,10.22,35.86,24.62h11.3c-5.96-20.41-24.81-35.32-47.15-35.32s-41.19,14.91-47.15,35.32h11.3
			C245.44,452.26,259.39,442.03,275.75,442.03L275.75,442.03z"/>
	</g>
</g>
<circle class="st1" cx="274.24" cy="272.99" r="268.18"/>
<g>
	<path class="st2" d="M337.62,457.06v13.23C421.15,443.2,479.74,364.3,479.74,274.8c0-113.31-92.19-205.5-205.5-205.5
		s-205.5,92.19-205.5,205.5c0,90.71,59.36,169.77,144.12,196.19v-13.92h124.76V457.06z"/>
	<path class="st3" d="M274.24,47.68c-125.23,0-227.11,101.88-227.11,227.11c0,102.53,68.62,191.59,165.73,218.72v-22.53
		C128.09,444.57,68.74,365.51,68.74,274.79c0-113.31,92.19-205.5,205.5-205.5s205.5,92.19,205.5,205.5
		c0,89.5-58.59,168.4-142.12,195.49v22.62c43.57-12.68,82.84-38.42,111.96-73.75c33.39-40.51,51.78-91.78,51.78-144.36
		C501.35,149.56,399.47,47.68,274.24,47.68z"/>
</g>
<g>
	<path class="st3" d="M175.09,388.18h-20.54v-35.97H132.4v35.97h-20.82V301h20.82v35.18h22.15V301h20.54V388.18z"/>
	<path class="st3" d="M258.88,388.18h-18.05l-5.82-19.98h-28.24l-5.72,19.98h-17.96L211.53,301h19.46L258.88,388.18z M230.42,355.09
		l-8.75-24.84c-0.56-1.57-0.96-3.65-1.19-6.25h-0.45c-0.2,2.1-0.65,4.12-1.34,6.06l-8.8,25.03H230.42z"/>
	<path class="st3" d="M326.95,385.03c-5.65,3.11-13.02,4.67-22.12,4.67c-11.7,0-20.99-3.93-27.86-11.79s-10.31-18.34-10.31-31.43
		c0-13.77,3.84-25.04,11.51-33.8s17.58-13.14,29.72-13.14c7.59,0,13.94,1.11,19.06,3.32v17.95c-5.25-3.45-11.2-5.18-17.86-5.18
		c-7.59,0-13.66,2.72-18.21,8.16c-4.55,5.44-6.82,12.55-6.82,21.33c0,8.56,2.16,15.44,6.47,20.66s10.15,7.82,17.5,7.82
		c6.92,0,13.22-1.88,18.91-5.63v17.06H326.95z"/>
	<path class="st3" d="M392.85,385.03c-5.65,3.11-13.02,4.67-22.12,4.67c-11.7,0-20.99-3.93-27.86-11.79s-10.31-18.34-10.31-31.43
		c0-13.77,3.84-25.04,11.51-33.8c7.67-8.76,17.58-13.14,29.72-13.14c7.59,0,13.94,1.11,19.06,3.32v17.95
		c-5.25-3.45-11.2-5.18-17.86-5.18c-7.59,0-13.66,2.72-18.21,8.16c-4.55,5.44-6.82,12.55-6.82,21.33c0,8.56,2.16,15.44,6.47,20.66
		c4.31,5.22,10.15,7.82,17.5,7.82c6.92,0,13.22-1.88,18.91-5.63L392.85,385.03L392.85,385.03z"/>
	<path class="st3" d="M423.15,357.79v30.39H406.6V301h26.73c19.33,0,28.99,9.19,28.99,27.58c0,8.93-2.92,16.09-8.75,21.47
		c-5.84,5.38-13.13,7.96-21.89,7.74L423.15,357.79L423.15,357.79z M423.15,315.41v28.14h7.17c9.73,0,14.6-4.75,14.6-14.24
		c0-9.27-4.81-13.9-14.44-13.9H423.15z"/>
</g>
<path class="st3" d="M183.1,281.48c0,0-17.32-52.32-62.57-87.63c0,0,33.06,4.49,57.46,22.79C236.73,155.33,326.93,97.88,358.7,96.27
	C358.69,96.27,248.92,149.23,183.1,281.48z"/>
<g>
	<path class="st3" d="M39.75,160.74l5.03-8.63c1.14-1.95,2.15-3.34,3.04-4.19c1.2-1.14,2.61-1.89,4.21-2.27
		c1.6-0.38,3.3-0.38,5.09-0.02c1.79,0.36,3.78,1.18,5.97,2.46c1.93,1.12,3.44,2.33,4.56,3.62c1.36,1.58,2.25,3.22,2.67,4.91
		c0.32,1.28,0.3,2.75-0.07,4.41c-0.28,1.23-0.93,2.72-1.94,4.47l-5.18,8.89L39.75,160.74z M46.46,158.32l15.49,9.03l2.06-3.53
		c0.77-1.32,1.25-2.31,1.44-2.99c0.26-0.88,0.3-1.7,0.14-2.47s-0.67-1.62-1.54-2.55c-0.86-0.93-2.2-1.92-4-2.98
		c-1.81-1.05-3.29-1.7-4.44-1.95s-2.17-0.24-3.05,0.02c-0.88,0.26-1.67,0.77-2.38,1.54c-0.53,0.57-1.36,1.82-2.48,3.75L46.46,158.32
		z"/>
	<path class="st3" d="M60.47,136.29l-3.93-2.76l2.98-4.25l3.93,2.76L60.47,136.29z M78.71,149.08l-16.06-11.26l2.98-4.25
		l16.06,11.26L78.71,149.08z"/>
	<path class="st3" d="M89.47,134.49l-3.21,4.08l-15.41-12.13l2.98-3.79l2.19,1.72c-0.53-1.46-0.75-2.58-0.67-3.36
		s0.38-1.49,0.89-2.15c0.73-0.93,1.69-1.62,2.88-2.08l2.56,4.06c-0.99,0.34-1.71,0.8-2.18,1.39c-0.45,0.57-0.67,1.18-0.67,1.82
		s0.33,1.4,0.97,2.28c0.64,0.88,2.28,2.34,4.9,4.41L89.47,134.49z"/>
	<path class="st3" d="M100.24,112.38l4.13-3.23c0.95,1.77,1.31,3.52,1.07,5.25s-1.08,3.39-2.53,4.98c-2.3,2.52-4.83,3.63-7.58,3.33
		c-2.19-0.25-4.29-1.29-6.3-3.13c-2.4-2.19-3.71-4.54-3.92-7.03c-0.21-2.5,0.56-4.7,2.31-6.62c1.97-2.15,4.23-3.2,6.79-3.15
		c2.56,0.06,5.28,1.45,8.17,4.19l-8.77,9.6c1.16,1.01,2.33,1.51,3.5,1.5s2.16-0.46,2.97-1.34c0.55-0.6,0.85-1.25,0.89-1.96
		C101.02,114.05,100.77,113.26,100.24,112.38z M96.56,108.63c-1.13-0.99-2.24-1.47-3.31-1.45c-1.08,0.02-1.97,0.42-2.68,1.2
		c-0.76,0.84-1.09,1.81-0.98,2.91c0.11,1.1,0.69,2.13,1.75,3.07L96.56,108.63z"/>
	<path class="st3" d="M116.54,86.13l-3.15,4.14c-0.82-0.64-1.63-0.94-2.42-0.91c-0.8,0.03-1.56,0.37-2.27,1.03
		c-0.95,0.87-1.41,1.9-1.38,3.08c0.04,1.18,0.76,2.54,2.18,4.08c1.57,1.71,2.97,2.66,4.2,2.84c1.23,0.18,2.32-0.18,3.29-1.07
		c0.73-0.67,1.13-1.42,1.21-2.25c0.08-0.84-0.24-1.85-0.97-3.03l4.34-2.81c1.19,2.08,1.64,4.07,1.34,5.97s-1.38,3.7-3.24,5.4
		c-2.11,1.94-4.41,2.82-6.89,2.64c-2.48-0.18-4.8-1.45-6.97-3.81c-2.19-2.39-3.26-4.82-3.22-7.31c0.04-2.49,1.14-4.71,3.29-6.69
		c1.76-1.61,3.51-2.52,5.24-2.71C112.86,84.53,114.66,85,116.54,86.13z"/>
	<path class="st3" d="M125.86,71.34l2.56,3.25l-2.79,2.19l4.88,6.21c0.99,1.26,1.59,1.97,1.81,2.14s0.47,0.24,0.77,0.23
		c0.3-0.01,0.58-0.13,0.85-0.34c0.38-0.3,0.82-0.86,1.33-1.68l2.84,2.89c-0.63,1.15-1.54,2.2-2.74,3.14
		c-0.74,0.58-1.5,0.98-2.28,1.19c-0.78,0.22-1.47,0.24-2.05,0.06s-1.19-0.55-1.82-1.14c-0.46-0.41-1.26-1.33-2.39-2.77l-5.28-6.72
		l-1.87,1.47l-2.56-3.25l1.87-1.47l-2.41-3.06l2.22-5.6l4.28,5.45L125.86,71.34z"/>
	<path class="st3" d="M130.31,64.85l-2.74-3.94l4.26-2.96l2.74,3.94L130.31,64.85z M143.03,83.13l-11.2-16.1l4.26-2.96l11.2,16.1
		L143.03,83.13z"/>
	<path class="st3" d="M158.41,73.06l-16.73-12.93l4.7-2.75l8.25,6.77l2.61,2.34c-0.18-0.88-0.31-1.45-0.39-1.72
		c-0.13-0.56-0.25-1.14-0.36-1.71l-1.84-10.52l4.61-2.7l3.19,20.86L158.41,73.06z"/>
	<path class="st3" d="M181.85,53.95l5.07-1.35c0.18,2-0.18,3.75-1.07,5.25c-0.9,1.5-2.32,2.69-4.29,3.58
		c-3.11,1.41-5.86,1.44-8.28,0.09c-1.92-1.09-3.44-2.87-4.56-5.35c-1.34-2.96-1.62-5.63-0.84-8.01c0.79-2.38,2.36-4.11,4.73-5.18
		c2.66-1.21,5.15-1.28,7.48-0.23c2.33,1.06,4.29,3.41,5.87,7.06l-11.84,5.38c0.67,1.39,1.55,2.3,2.63,2.75s2.17,0.42,3.25-0.07
		c0.74-0.34,1.27-0.82,1.59-1.45C181.91,55.79,182,54.96,181.85,53.95z M179.95,49.05c-0.66-1.35-1.48-2.23-2.48-2.64
		s-1.98-0.39-2.94,0.05c-1.03,0.47-1.71,1.23-2.04,2.29c-0.33,1.06-0.2,2.23,0.4,3.51L179.95,49.05z"/>
	<path class="st3" d="M205.35,45.05l4.71-1.83c0.38,0.96,0.89,1.6,1.52,1.95c0.63,0.34,1.35,0.4,2.17,0.18
		c1.03-0.28,1.79-0.99,2.26-2.13c0.47-1.15,0.41-3.24-0.19-6.3c-0.87,1.8-2.25,2.95-4.14,3.46c-2.06,0.55-4.05,0.23-5.96-0.96
		c-1.92-1.19-3.22-3.06-3.9-5.6c-0.71-2.65-0.5-5,0.65-7.05c1.14-2.05,2.93-3.39,5.37-4.05c2.65-0.71,5.1-0.27,7.35,1.33
		c2.25,1.6,4,4.74,5.26,9.44c1.28,4.78,1.32,8.47,0.11,11.06s-3.23,4.27-6.07,5.03c-2.05,0.55-3.84,0.45-5.4-0.3
		C207.53,48.53,206.28,47.12,205.35,45.05z M213.76,31.06c-0.43-1.62-1.14-2.77-2.12-3.47c-0.98-0.69-1.96-0.91-2.94-0.65
		c-0.93,0.25-1.6,0.82-2.02,1.72c-0.42,0.9-0.4,2.18,0.04,3.84c0.45,1.69,1.12,2.84,2,3.45c0.88,0.61,1.82,0.78,2.82,0.52
		c0.96-0.26,1.67-0.86,2.13-1.79C214.12,33.74,214.15,32.53,213.76,31.06z"/>
	<path class="st3" d="M228.18,38.3l4.87-1.39c0.36,1.24,0.94,2.14,1.74,2.7s1.69,0.76,2.68,0.6c1.06-0.17,1.88-0.71,2.48-1.63
		s0.79-2.06,0.57-3.42c-0.2-1.29-0.71-2.25-1.53-2.9c-0.81-0.64-1.72-0.89-2.71-0.73c-0.66,0.1-1.42,0.36-2.29,0.76l-0.1-4.27
		c1.39-0.18,2.4-0.65,3.03-1.41c0.63-0.75,0.86-1.66,0.69-2.72c-0.14-0.9-0.53-1.57-1.15-2.02c-0.62-0.45-1.37-0.6-2.26-0.46
		c-0.88,0.14-1.58,0.56-2.1,1.27c-0.52,0.71-0.76,1.65-0.71,2.84l-4.85-0.05c0.07-1.67,0.36-3.04,0.87-4.11
		c0.51-1.07,1.31-1.98,2.41-2.72s2.38-1.23,3.85-1.46c2.52-0.4,4.66,0.08,6.44,1.44c1.46,1.11,2.32,2.5,2.59,4.15
		c0.37,2.35-0.61,4.42-2.96,6.23c1.58,0.08,2.93,0.63,4.03,1.62c1.1,1,1.78,2.3,2.04,3.92c0.37,2.35-0.17,4.48-1.62,6.41
		s-3.45,3.09-6.01,3.5c-2.42,0.39-4.54,0.01-6.35-1.13C230.01,42.18,228.8,40.51,228.18,38.3z"/>
	<path class="st3" d="M251.16,42.7l4.47-28.44l3.88-0.31l-4.54,28.45L251.16,42.7z"/>
	<path class="st3" d="M275.91,41.04l-0.1-5.45l-11.08,0.2l-0.08-4.54l11.43-17.4l4.36-0.08l0.31,17.17l3.36-0.06l0.08,4.56
		l-3.36,0.06l0.1,5.45L275.91,41.04z M275.73,31.03l-0.17-9.25l-6.06,9.36L275.73,31.03z"/>
	<path class="st3" d="M289.63,34.09l5.06-0.15c0.04,1.29,0.38,2.3,1.02,3.04c0.64,0.74,1.45,1.15,2.44,1.25
		c1.07,0.1,2-0.22,2.81-0.97c0.8-0.74,1.27-1.8,1.4-3.17c0.12-1.3-0.14-2.36-0.76-3.19c-0.63-0.82-1.45-1.28-2.45-1.38
		c-0.66-0.06-1.46-0.01-2.41,0.17l0.96-4.16c1.39,0.17,2.49-0.04,3.28-0.62c0.79-0.58,1.24-1.4,1.34-2.46
		c0.08-0.91-0.12-1.66-0.61-2.25s-1.18-0.93-2.08-1.01c-0.88-0.08-1.66,0.16-2.35,0.71c-0.68,0.56-1.14,1.42-1.39,2.58l-4.69-1.25
		c0.48-1.6,1.1-2.86,1.86-3.77s1.76-1.59,3.01-2.04s2.61-0.6,4.1-0.47c2.54,0.23,4.5,1.23,5.88,2.99c1.14,1.44,1.63,2.99,1.48,4.66
		c-0.22,2.37-1.69,4.14-4.4,5.31c1.51,0.47,2.68,1.33,3.5,2.57c0.82,1.24,1.15,2.67,1,4.3c-0.22,2.37-1.27,4.3-3.15,5.81
		s-4.11,2.14-6.69,1.91c-2.44-0.23-4.4-1.11-5.87-2.66C290.44,38.3,289.68,36.38,289.63,34.09z"/>
	<path class="st3" d="M310.83,44.02l11.39-26.44l3.84,0.67L314.6,44.68L310.83,44.02z"/>
	<path class="st3" d="M326.38,46.26l7.05-26.14l19.38,5.22l-1.19,4.42l-14.1-3.8l-1.56,5.79l13.12,3.54l-1.19,4.4l-13.12-3.54
		l-1.92,7.11l14.6,3.94l-1.19,4.4L326.38,46.26z"/>
	<path class="st3" d="M352.69,53.86l10.29-25.04l18.57,7.63l-1.74,4.24l-13.51-5.55l-2.28,5.55l12.57,5.17l-1.73,4.22l-12.57-5.16
		l-2.8,6.82l13.99,5.75l-1.73,4.22L352.69,53.86z"/>
	<path class="st3" d="M397.86,64.65l3.76,4.09c-2.17,2.16-4.44,3.39-6.79,3.7c-2.35,0.31-4.79-0.26-7.31-1.71
		c-3.12-1.79-5.07-4.32-5.86-7.6c-0.79-3.28-0.12-6.77,1.99-10.47c2.24-3.91,4.99-6.37,8.25-7.38s6.53-0.57,9.82,1.31
		c2.87,1.65,4.72,3.83,5.54,6.56c0.49,1.62,0.47,3.52-0.07,5.7l-5.34-1.57c0.42-1.38,0.39-2.67-0.09-3.88s-1.35-2.18-2.61-2.9
		c-1.74-1-3.51-1.18-5.31-0.55s-3.5,2.34-5.1,5.14c-1.7,2.97-2.38,5.39-2.03,7.26c0.35,1.87,1.37,3.3,3.08,4.28
		c1.26,0.72,2.57,0.94,3.94,0.66C395.11,67.03,396.48,66.14,397.86,64.65z"/>
	<path class="st3" d="M406.9,73.81l3.01-4.23l8.31,5.91l-3.01,4.23L406.9,73.81z"/>
	<path class="st3" d="M415.53,88.98L432.9,68.5l4.17,3.54l-14.42,17l10.36,8.79l-2.95,3.48L415.53,88.98z"/>
	<path class="st3" d="M434.55,105.39l19.8-18.46l5.58,5.98l-10.16,16.19l16.82-9.04l5.59,6l-19.8,18.46l-3.46-3.71l15.59-14.53
		l-19.25,10.6l-3.59-3.85l11.94-18.45l-15.59,14.53L434.55,105.39z"/>
	<path class="st3" d="M457.18,130.54l21.85-15.99l3.23,4.41l-8.6,6.29l6.33,8.64l8.6-6.3l3.23,4.41l-21.84,15.99l-3.23-4.41
		l9.55-6.99l-6.33-8.64l-9.55,6.99L457.18,130.54z"/>
	<path class="st3" d="M477.72,160.66l18.68-21.86l2.95,5.14l-13.98,15.91l20.68-4.21l2.88,5.03l-28.31,5.05L477.72,160.66z"/>
</g>
</svg>
