<?xml version="1.0" encoding="utf-8"?>
<!-- Generator: Adobe Illustrator 25.2.1, SVG Export Plug-In . SVG Version: 6.00 Build 0)  -->
<svg version="1.1" id="Capa_1" xmlns="http://www.w3.org/2000/svg" xmlns:xlink="http://www.w3.org/1999/xlink" x="0px" y="0px"
	 viewBox="0 0 200 200" style="enable-background:new 0 0 200 200;" xml:space="preserve">
<style type="text/css">
	.st0{fill:#FFFFFF;}
</style>
<g>
	<g id="gHAfzi_4_">
		<g>
			<path class="st0" d="M134.1,149.85c-1.4,0.17-2.82,0.24-4.22,0.24c-12.91,0.04-25.82,0.02-38.73,0.02
				c-13.16,0-26.31,0.04-39.47-0.01c-12.99-0.05-23.57-8.74-26.12-21.45c-0.37-1.84-0.51-3.75-0.51-5.63
				c-0.03-26.01-0.04-52.02-0.02-78.04C25.06,29.4,36.6,17.89,52.2,17.89c25.94-0.02,51.89-0.01,77.83,0
				c15.62,0.01,27.18,11.5,27.19,27.08c0.02,20.44,0.01,40.88,0,61.32h6.61c0.01-20.5,0.01-40.99-0.02-61.49
				c0-2.06-0.15-4.15-0.53-6.17c-3.12-16.32-16.47-27.32-33.1-27.34c-12.97-0.01-25.94,0-38.91,0c-13.03,0-26.06-0.01-39.1,0
				C33.06,11.3,18.47,25.82,18.45,44.89c-0.03,26.07-0.03,52.14,0,78.21c0.02,18.98,14.61,33.58,33.55,33.6
				c26.12,0.02,52.25,0.02,78.37-0.02c1.24,0,2.49-0.06,3.73-0.19V149.85z"/>
			<path class="st0" d="M84.5,57.67c2.31,0,4.35,0,6.52,0c0,17.55,0,35.05,0,52.73c-1.95,0-3.83,0.11-5.69-0.06
				c-0.6-0.06-1.3-0.77-1.66-1.37c-7.88-12.8-15.71-25.63-23.56-38.45c-0.4-0.66-0.82-1.31-1.62-1.9c0,13.87,0,27.75,0,41.68
				c-2.45,0-4.62,0-6.88,0c0-17.56,0-35.01,0-52.69c2.49,0,4.91-0.08,7.31,0.07c0.5,0.03,1.06,0.88,1.4,1.46
				c7.65,13.22,15.27,26.46,22.9,39.69c0.32,0.55,0.68,1.09,1.28,2.06C84.5,86.21,84.5,72.05,84.5,57.67z"/>
			<path class="st0" d="M104.47,83.23c-1.59,0-3.57,0-5.66,0c-0.01-3.72,1.42-6.76,4.35-8.67c2.28-1.49,4.95-2.64,7.61-3.25
				c4.18-0.96,8.48-0.84,12.61,0.62c4.39,1.56,6.58,4.58,6.62,9.23c0.05,6.21,0.01,12.42,0.02,18.64c0,0.73,0.01,1.46,0.07,2.19
				c0.18,2.26,0.52,2.55,2.84,2.53c0.3,0,0.6,0,1.18,0c0,1.46,0.04,2.9-0.04,4.32c-0.02,0.3-0.43,0.73-0.76,0.85
				c-2.12,0.79-4.42,1.21-6.33-0.1c-1.3-0.9-2.08-2.57-3.17-4c-2.64,1.84-5.75,4.08-9.6,4.46c-2.69,0.26-5.5,0.32-8.14-0.16
				c-4.94-0.89-8.1-4.85-8.3-9.75c-0.19-4.68,2.7-9.05,7.35-10.38c4.14-1.18,8.41-1.9,12.63-2.81c0.59-0.13,1.19-0.25,1.79-0.34
				c1.74-0.27,3.18-1.02,3.69-2.81c0.57-2,0.22-3.87-1.31-5.4c-3.25-3.24-11.94-3.33-15.05,0.06
				C105.75,79.65,105.31,81.48,104.47,83.23z M124.66,90.42c-3.89,0.63-7.71,1.23-11.52,1.89c-1.31,0.22-2.65,0.44-3.89,0.9
				c-2.7,1.01-4.13,3.36-3.91,6.13c0.2,2.55,1.93,4.52,4.77,5.01c4.18,0.72,8.24,0.13,11.49-2.74c1.37-1.2,2.51-3.06,2.94-4.82
				C125.04,94.74,124.66,92.47,124.66,90.42z"/>
		</g>
	</g>
	<polygon class="st0" points="147.67,111.54 147.67,150.25 137.21,150.25 159.39,188.72 181.58,150.25 171.13,150.25 171.13,111.54 
			"/>
</g>
</svg>
