<?xml version="1.0" encoding="utf-8"?>
<!-- Generator: Adobe Illustrator 25.2.1, SVG Export Plug-In . SVG Version: 6.00 Build 0)  -->
<svg version="1.1" id="Capa_1" xmlns="http://www.w3.org/2000/svg" xmlns:xlink="http://www.w3.org/1999/xlink" x="0px" y="0px"
	 viewBox="0 0 200 200" style="enable-background:new 0 0 200 200;" xml:space="preserve">
<style type="text/css">
	.st0{fill:#FFFFFF;}
</style>
<g>
	<g id="gHAfzi_3_">
		<g>
			<path class="st0" d="M134.1,149.85c-1.4,0.17-2.82,0.24-4.22,0.24c-12.91,0.04-25.82,0.02-38.73,0.02
				c-13.16,0-26.31,0.04-39.47-0.01c-12.99-0.05-23.57-8.74-26.12-21.45c-0.37-1.84-0.51-3.75-0.51-5.63
				c-0.03-26.01-0.04-52.02-0.02-78.04C25.06,29.4,36.6,17.89,52.2,17.89c25.94-0.02,51.89-0.01,77.83,0
				c15.62,0.01,27.18,11.5,27.19,27.08c0.02,20.44,0.01,40.88,0,61.32h6.61c0.01-20.5,0.01-40.99-0.02-61.49
				c0-2.06-0.15-4.15-0.53-6.17c-3.12-16.32-16.47-27.32-33.1-27.34c-12.97-0.01-25.94,0-38.91,0c-13.03,0-26.06-0.01-39.1,0
				C33.06,11.3,18.47,25.82,18.45,44.89c-0.03,26.07-0.03,52.14,0,78.21c0.02,18.98,14.61,33.58,33.55,33.6
				c26.12,0.02,52.25,0.02,78.37-0.02c1.24,0,2.49-0.06,3.73-0.19V149.85z"/>
		</g>
	</g>
	<g>
		<path class="st0" d="M72.27,49.61c4.7-0.78,10.85-1.45,18.68-1.45c9.62,0,16.67,2.24,21.15,6.27c4.03,3.58,6.6,9.06,6.6,15.78
			c0,6.83-2.01,12.2-5.82,16.11c-5.26,5.48-13.54,8.28-23.05,8.28c-2.91,0-5.6-0.11-7.83-0.67v30.21h-9.73V49.61z M82,85.97
			c2.13,0.56,4.81,0.78,8.06,0.78c11.75,0,18.91-5.82,18.91-16c0-10.07-7.16-14.88-17.79-14.88c-4.25,0-7.5,0.34-9.18,0.78V85.97z"
			/>
	</g>
	<polygon class="st0" points="147.67,188.72 147.67,150.01 137.21,150.01 159.39,111.54 181.58,150.01 171.13,150.01 171.13,188.72 
			"/>
</g>
</svg>
