<?xml version="1.0" encoding="utf-8"?>
<!-- Generator: Adobe Illustrator 25.2.1, SVG Export Plug-In . SVG Version: 6.00 Build 0)  -->
<svg version="1.1" id="Capa_1" xmlns="http://www.w3.org/2000/svg" xmlns:xlink="http://www.w3.org/1999/xlink" x="0px" y="0px"
	 viewBox="0 0 200 200" style="enable-background:new 0 0 200 200;" xml:space="preserve">
<style type="text/css">
	.st0{fill:#FFFFFF;}
</style>
<path class="st0" d="M133.18,59.46c0-1.93,0.37-3.97-0.11-5.77c-0.46-1.75-1.42-3.83-2.82-4.79c-6.4-4.37-9.14-10.86-7.09-17.94
	c1.8-6.2,7.93-10.79,14.48-10.84c6.7-0.05,13.04,4.65,14.87,11.02c1.98,6.91-0.91,13.51-7.37,17.87c-1.38,0.94-2.29,3.04-2.74,4.77
	c-0.46,1.81-0.03,3.84-0.12,5.77c-0.24,5.01-0.28,9.26,5.33,12.49c2.87,1.65,4.3,6.86,5.1,10.73c0.58,2.78,1.06,4.76,3.72,5.94
	c1.61,0.72,3.13,1.66,4.62,2.62c4.2,2.69,7.67,4.54,13.37,1.61c7.84-4.02,17.24,1.73,19.56,10.34c2.27,8.46-3.39,17.34-12.05,18.89
	c-8.79,1.57-17.34-4.38-17.83-13.35c-0.24-4.45-1.86-6.69-5.57-8.28c-1.76-0.76-3.41-1.83-5.02-2.88c-3.05-1.99-5.61-3.11-9.49-0.7
	c-4.43,2.76-9.54,1.84-14.32-0.62c-1.36-0.7-3.47-0.54-5.03-0.07c-1.8,0.53-3.32,1.95-5.06,2.77c-4.92,2.34-8.79,4.83-8.59,11.56
	c0.14,4.62-3.47,8.36-7.92,10.12c-3.07,1.22-4.15,3.13-4.21,6.14c-0.04,1.77-0.12,3.56-0.43,5.29c-0.86,4.69-0.96,8.37,3.75,12.03
	c6.43,5,5.88,15.31,0.11,21.18c-5.88,5.98-15.95,6.23-21.63-0.05c-2.39-2.64-4.51-3.01-7.49-2.17c-1.55,0.44-3.13,0.8-4.72,1.01
	c-4.89,0.66-8.47,1.95-10.62,7.59c-2.98,7.81-13.17,10.23-20.62,6.14c-7.28-4-10.18-13.09-5.98-20.39c1.64-2.85,1.55-4.85-0.18-7.33
	c-1.28-1.84-2.4-3.82-3.41-5.83c-1.86-3.68-3.78-6.06-8.87-6.28c-8.7-0.39-14.37-8.58-13.12-17.01c1.29-8.72,9.03-14.51,17.83-12.79
	c3.02,0.59,4.83,0.09,6.54-2.26c1.13-1.55,2.5-2.96,3.87-4.31c3.38-3.33,5.57-6.36,4-12.01c-2.17-7.8,3.83-15.36,11.92-17.05
	c7.58-1.58,15.89,3.17,17.46,10.87c0.8,3.94,2.66,5.84,6,7.15c1.79,0.7,3.53,1.58,5.2,2.54c3.86,2.23,7.16,3.52,11.66,0.23
	c4.25-3.11,9.48-1.89,14.25,0.54c1.38,0.7,3.53,0.64,5.06,0.12c2.09-0.7,3.85-2.34,5.9-3.26c4.63-2.06,7.71-4.63,7.74-10.55
	c0.01-2.88,2.49-6.28,4.76-8.52C132.94,66.79,133.18,67.03,133.18,59.46z M90.12,122.85c-0.33-0.47-0.91-1.96-2-2.77
	c-4.28-3.18-6.72-7.17-6.96-12.6c-0.14-3.09-14.73-10.53-17.38-9.02c-0.83,0.47-1.43,1.46-2.29,1.74c-3.15,1.03-6.65,3.13-9.48,2.49
	c-5.28-1.19-8.01,1.12-10.75,4.69c-1.47,1.91-3.5,3.43-4.72,5.46c-0.91,1.52-1.04,3.56-1.28,5.39c-0.56,4.32-0.92,8.67-1.47,12.99
	c-0.13,1.03-1.35,2.32-1.02,2.94c2.64,4.96,5.44,9.85,8.47,14.58c0.44,0.69,2.39,0.3,3.56,0.65c3.03,0.9,7.19,1.02,8.78,3.08
	c3.99,5.19,8.43,3.91,13.27,2.7c2.03-0.51,4.22-0.63,6.07-1.49c1.48-0.69,2.73-2.11,3.79-3.43c2.17-2.7,3.59-6.96,6.33-8.05
	c5.64-2.26,5.95-6.34,6.21-11.05C89.37,128.76,89.74,126.36,90.12,122.85z"/>
<g id="CqRSB9_2_">
	<g>
		<path class="st0" d="M785.72-417.57c-1.16,3.05-2.03,6.25-3.52,9.12c-3.22,6.16-8.54,10.19-14.63,13.26
			c-3.52,1.77-7.07,3.5-10.65,5.16c-6.94,3.22-12.25,8.27-16.32,14.64c-4.19,6.56-7.99,13.37-12.33,19.82
			c-6.75,10.02-14.98,18.66-25.53,24.79c-11.82,6.87-24.57,9.15-38.05,6.93c-11.67-1.92-22.08-6.68-31.12-14.35
			c-8.82-7.48-14.37-16.92-15.71-28.38c-0.84-7.21-0.67-14.56-0.71-21.85c-0.02-3.71,0.21-7.47,0.8-11.14
			c1.45-9.08,5.92-16.66,12.37-23.1c6.13-6.13,13.36-10.63,21.28-14.08c10.98-4.78,22.42-7.9,34.31-9.29
			c4.63-0.54,9.29-0.96,13.94-1.1c7.64-0.23,14.98-1.61,22.2-4.15c9.87-3.47,19.78-6.87,30.08-8.9c5.44-1.08,10.89-1.85,16.44-0.29
			c9,2.52,16.17,11.12,16.85,20.42c0.03,0.47,0.21,0.94,0.31,1.4C785.72-431.62,785.72-424.6,785.72-417.57z M674.76-350.23
			c2.55-0.3,5.46-0.49,8.31-1.02c10.6-1.97,19.35-7.34,26.96-14.82c6.8-6.68,12.02-14.46,16.79-22.66
			c3.22-5.53,6.94-10.79,10.76-15.93c4.15-5.58,10.01-9.12,16.14-12.19c4.02-2.01,8.11-3.89,12.05-6.03
			c3.99-2.17,7.17-5.24,9.13-9.41c3.15-6.7,1.06-13.68-5.17-17.75c-4.26-2.78-8.86-2.45-13.52-1.66
			c-8.63,1.45-16.96,4.04-25.15,7.01c-11.01,3.98-22.18,6.7-33.99,6.86c-8.67,0.12-17.25,1.51-25.65,3.8
			c-11.62,3.17-22.67,7.52-32.06,15.37c-16.21,13.54-16.77,34.27-6.04,48.52C643.47-356.69,657.83-350.98,674.76-350.23z"/>
		<path class="st0" d="M672.43-359.49c-11.58-0.53-23.38-5.01-31.71-15.93c-7.53-9.88-7.94-24.21,2.52-34.42
			c6.23-6.08,13.79-9.81,21.84-12.72c11.56-4.17,23.56-6.08,35.78-6.39c10.5-0.27,20.47-2.66,30.29-6.18c8.81-3.16,17.75-6,27-7.63
			c1.19-0.21,2.39-0.4,3.59-0.42c2.13-0.03,3.75,0.94,4.92,2.76c1.13,1.75,0.65,3.28-0.3,4.9c-1.73,2.95-4.52,4.57-7.42,6.03
			c-4.54,2.3-9.17,4.44-13.67,6.83c-8.14,4.32-14.41,10.73-19.41,18.35c-4.48,6.82-8.41,14.01-13,20.75
			c-4.8,7.06-10.57,13.32-17.86,17.97C688.51-361.45,682.01-359.6,672.43-359.49z M673.43-379.89c5.23-0.04,10.13-1.27,14.66-4.05
			c8.85-5.43,9.11-16.39,0.24-21.75c-9.86-5.96-19.99-5.94-29.86,0c-8.33,5.02-8.75,14.87-1.06,20.78
			C662.1-381.3,667.57-379.94,673.43-379.89z"/>
	</g>
</g>
</svg>
