<?xml version="1.0" encoding="utf-8"?>
<!-- Generator: Adobe Illustrator 25.2.1, SVG Export Plug-In . SVG Version: 6.00 Build 0)  -->
<svg version="1.1" id="Capa_1" xmlns="http://www.w3.org/2000/svg" xmlns:xlink="http://www.w3.org/1999/xlink" x="0px" y="0px"
	 viewBox="0 0 200 200" style="enable-background:new 0 0 200 200;" xml:space="preserve">
<style type="text/css">
	.st0{fill:#FFFFFF;}
</style>
<g id="CqRSB9_2_">
	<g>
		<path class="st0" d="M188.13,73.46c-1.21,3.19-2.12,6.54-3.68,9.54c-3.36,6.44-8.93,10.66-15.3,13.86
			c-3.69,1.85-7.39,3.66-11.14,5.4c-7.25,3.37-12.81,8.65-17.06,15.31c-4.38,6.86-8.35,13.98-12.9,20.73
			c-7.06,10.48-15.66,19.51-26.69,25.92c-12.36,7.18-25.69,9.56-39.78,7.24c-12.2-2.01-23.08-6.99-32.54-15
			c-9.23-7.82-15.03-17.7-16.43-29.68c-0.88-7.54-0.7-15.22-0.74-22.84c-0.02-3.88,0.22-7.81,0.84-11.64
			c1.52-9.49,6.19-17.42,12.93-24.15c6.41-6.41,13.97-11.12,22.25-14.72c11.48-5,23.44-8.26,35.87-9.71c4.84-0.57,9.71-1,14.58-1.15
			c7.99-0.24,15.67-1.69,23.22-4.34c10.32-3.63,20.69-7.18,31.45-9.31c5.69-1.13,11.39-1.93,17.19-0.31
			c9.41,2.64,16.91,11.63,17.62,21.35c0.04,0.49,0.21,0.98,0.33,1.47C188.13,58.77,188.13,66.12,188.13,73.46z M72.11,143.87
			c2.67-0.32,5.71-0.51,8.69-1.06c11.09-2.06,20.23-7.67,28.19-15.49c7.11-6.98,12.57-15.12,17.56-23.69
			c3.36-5.78,7.26-11.28,11.25-16.65c4.34-5.84,10.46-9.54,16.88-12.74c4.2-2.1,8.48-4.07,12.6-6.31c4.17-2.26,7.5-5.48,9.55-9.84
			c3.3-7.01,1.11-14.31-5.41-18.55c-4.45-2.9-9.26-2.56-14.14-1.74c-9.02,1.52-17.73,4.23-26.29,7.33
			c-11.52,4.16-23.19,7.01-35.54,7.17c-9.07,0.12-18.04,1.57-26.82,3.97c-12.15,3.32-23.7,7.87-33.52,16.07
			c-16.95,14.15-17.54,35.83-6.31,50.73C39.39,137.12,54.41,143.09,72.11,143.87z"/>
		<path class="st0" d="M69.67,134.19c-12.11-0.56-24.45-5.24-33.15-16.65c-7.87-10.33-8.31-25.32,2.64-35.99
			c6.51-6.36,14.42-10.26,22.84-13.3c12.09-4.36,24.63-6.36,37.42-6.68c10.98-0.28,21.4-2.78,31.67-6.46
			c9.22-3.31,18.56-6.27,28.24-7.98c1.24-0.22,2.5-0.42,3.75-0.44c2.23-0.03,3.92,0.99,5.14,2.88c1.18,1.83,0.67,3.43-0.32,5.12
			c-1.81,3.08-4.72,4.77-7.75,6.31c-4.75,2.41-9.59,4.64-14.3,7.14c-8.52,4.51-15.07,11.22-20.3,19.18
			c-4.69,7.13-8.79,14.65-13.59,21.7c-5.02,7.38-11.06,13.93-18.68,18.79C86.49,132.14,79.69,134.08,69.67,134.19z M70.71,112.86
			c5.47-0.04,10.59-1.33,15.33-4.23c9.26-5.68,9.53-17.14,0.25-22.74c-10.31-6.23-20.91-6.21-31.23,0
			c-8.71,5.25-9.15,15.55-1.11,21.73C58.87,111.39,64.59,112.81,70.71,112.86z"/>
	</g>
</g>
</svg>
