<?xml version="1.0" encoding="utf-8"?>
<!-- Generator: Adobe Illustrator 25.2.1, SVG Export Plug-In . SVG Version: 6.00 Build 0)  -->
<svg version="1.1" id="Capa_1" xmlns="http://www.w3.org/2000/svg" xmlns:xlink="http://www.w3.org/1999/xlink" x="0px" y="0px"
	 viewBox="0 0 44.33 49.96" style="enable-background:new 0 0 44.33 49.96;" xml:space="preserve">
<style type="text/css">
	.st0{fill:#728292;}
</style>
<g>
	<g>
		<path class="st0" d="M0.48,24.99c0-3.68,0.02-7.37-0.01-11.05c-0.01-0.94,0.29-1.53,1.14-2.02c6.46-3.68,12.91-7.4,19.34-11.14
			c0.87-0.51,1.58-0.5,2.44,0c6.43,3.74,12.87,7.46,19.33,11.15c0.79,0.45,1.13,1,1.13,1.9c-0.02,7.49-0.02,14.97,0,22.46
			c0,0.92-0.38,1.45-1.16,1.9c-6.32,3.61-12.63,7.24-18.92,10.91c-1.03,0.6-1.81,0.62-2.85,0.01c-6.11-3.58-12.25-7.1-18.39-10.63
			C2.27,38.32,2,38.1,1.7,38.03c-1.05-0.23-1.24-0.94-1.23-1.88C0.5,32.43,0.48,28.71,0.48,24.99z M40.42,36.89
			c-0.45-0.31-0.71-0.53-1.01-0.7c-5.36-3.11-10.75-6.18-16.09-9.33c-0.87-0.51-1.48-0.42-2.28,0.05
			c-5.21,3.05-10.45,6.06-15.68,9.08c-0.36,0.21-0.71,0.44-1.18,0.74C4.57,37,4.77,37.19,5,37.32c5.54,3.2,11.07,6.42,16.64,9.57
			c0.4,0.23,1.17,0.15,1.6-0.09c3.25-1.81,6.45-3.7,9.67-5.56C35.36,39.82,37.81,38.4,40.42,36.89z M20.91,3.49
			c-0.48,0.23-0.83,0.37-1.16,0.56c-5.44,3.13-10.88,6.26-16.29,9.44c-0.41,0.24-0.78,0.92-0.79,1.4
			c-0.05,6.28-0.04,12.56-0.03,18.84c0,0.29,0.09,0.59,0.15,0.97c0.37-0.16,0.63-0.24,0.86-0.37c5.51-3.17,11.01-6.35,16.52-9.51
			c0.65-0.37,0.85-0.82,0.84-1.54c-0.02-6.2-0.01-12.4-0.01-18.6C21.02,4.35,20.96,4,20.91,3.49z M27.55,26.76c0-0.76,0-1.2,0-1.63
			c0-2.88-0.01-5.77-0.01-8.65c0-1.88,0.73-2.29,2.38-1.35c2.09,1.19,4.14,2.43,6.25,3.57c0.92,0.5,1.31,1.13,1.29,2.19
			c-0.05,3.48-0.02,6.97-0.01,10.45c0,0.39-0.03,0.97,0.19,1.12c1.23,0.83,2.52,1.55,3.91,2.37c0.07-0.5,0.12-0.7,0.12-0.89
			c0.01-6.37,0.02-12.73-0.03-19.1c0-0.47-0.42-1.13-0.83-1.37c-5.38-3.17-10.79-6.28-16.19-9.4c-0.35-0.2-0.74-0.34-1.12-0.52
			c-0.1,0.25-0.15,0.32-0.15,0.4c-0.01,6.57-0.03,13.13-0.01,19.7c0,0.31,0.19,0.74,0.44,0.9C24.91,25.27,26.1,25.92,27.55,26.76z
			 M29.8,17.61c0,3.54,0,6.73,0.01,9.92c0,0.22,0.09,0.53,0.25,0.63c1.62,0.98,3.26,1.93,5.13,3.02c0-3.59,0.01-6.82-0.02-10.05
			c0-0.2-0.17-0.47-0.34-0.58C33.26,19.62,31.68,18.71,29.8,17.61z"/>
		<path class="st0" d="M6.49,19.47c0-1.08-0.1-2.18,0.04-3.24c0.07-0.54,0.44-1.23,0.89-1.51c2.52-1.56,5.09-3.02,7.67-4.48
			c1.37-0.78,2.14-0.32,2.16,1.27c0.03,2.2,0.08,4.41-0.04,6.61c-0.03,0.6-0.49,1.39-1,1.7c-2.51,1.57-5.1,3.01-7.67,4.48
			c-1.29,0.74-1.96,0.39-2.05-1.11c-0.07-1.24-0.01-2.48-0.01-3.72C6.48,19.47,6.48,19.47,6.49,19.47z M8.67,21.65
			c2.17-1.26,4.04-2.32,5.88-3.42c0.2-0.12,0.41-0.43,0.42-0.65c0.04-1.46,0.02-2.93,0.02-4.71c-2.19,1.28-4.13,2.41-6.07,3.56
			c-0.14,0.08-0.24,0.34-0.25,0.51C8.66,18.39,8.67,19.86,8.67,21.65z"/>
	</g>
	
		<ellipse transform="matrix(0.0504 -0.9987 0.9987 0.0504 5.6642 54.4147)" class="st0" cx="31.45" cy="24.23" rx="1.05" ry="0.81"/>
</g>
</svg>
