<?xml version="1.0" encoding="utf-8"?>
<!-- Generator: Adobe Illustrator 25.2.1, SVG Export Plug-In . SVG Version: 6.00 Build 0)  -->
<svg version="1.1" id="Capa_1" xmlns="http://www.w3.org/2000/svg" xmlns:xlink="http://www.w3.org/1999/xlink" x="0px" y="0px"
	 viewBox="0 0 723 167" style="enable-background:new 0 0 723 167;" xml:space="preserve">
<style type="text/css">
	.st0{fill:#002F87;}
	.st1{fill:#E77512;}
</style>
<g>
	<g>
		<path class="st0" d="M8.08,51.43l9.78-10.09c5.32,4.93,10.88,7.43,16.9,7.43c3.6,0,6.18-1.56,6.18-4.07
			c0-2.11-1.49-3.21-9.15-6.18c-8.69-3.29-14.24-7.04-14.24-15.1c0-10.88,9.86-18.62,23.24-18.62c9.62,0,17.21,3.13,22.46,8.14
			l-9.39,10.49c-4.15-3.6-8.92-6.03-14.48-6.03c-3.68,0-5.95,1.72-5.95,3.91c0,2.19,1.64,2.97,9.16,5.95
			c8.45,3.21,14.24,7.04,14.24,15.26c0,11.27-9.7,18.94-23.32,18.94C22.79,61.44,13.95,57.76,8.08,51.43z"/>
		<path class="st0" d="M69.43,5.73h15.26l-5.95,21.91l22.61-21.91h19.33L94.86,29.75l12.21,30.75H90.63l-7.9-21.13l-9.47,8.69
			L69.98,60.5H54.72L69.43,5.73z"/>
		<path class="st0" d="M123.66,39.3L112.63,5.73h16.35l5.4,20.5l16.51-20.5h18.15l-30.59,35.21L133.2,60.5h-15.26L123.66,39.3z"/>
		<path class="st0" d="M179.3,5.73h16.59l3.05,34.43l21.52-34.43h17.14l-36.85,55.16h-14.16L179.3,5.73z"/>
		<path class="st0" d="M238.07,5.73h15.18L238.53,60.5h-15.18L238.07,5.73z"/>
		<path class="st0" d="M258.41,5.73h43.9l-3.52,12.91h-28.79l-2.27,8.29h26.14l-3.21,11.97h-26.13l-2.35,8.68h29.26l-3.44,12.91
			H243.7L258.41,5.73z"/>
		<path class="st0" d="M301.45,5.73h15.73l1.02,31.69l18.93-31.85h13.15l2.11,31.85l18-31.69h16.51l-33.1,55.16h-13.61l-2.5-31.14
			l-19.17,31.14h-13.54L301.45,5.73z"/>
		<path class="st0" d="M399.34,5.73h16.59l3.05,34.43L440.5,5.73h17.14l-36.85,55.16h-14.16L399.34,5.73z"/>
		<path class="st0" d="M458.11,5.73h15.18L458.58,60.5H443.4L458.11,5.73z"/>
		<path class="st0" d="M478.46,5.73h20.66c9.16,0,15.18,2.04,18.86,5.71c2.89,2.89,4.22,6.81,4.22,11.19
			c0,9.16-5.24,16.35-16.43,19.4l8.45,18.47h-16.75l-7.28-16.59h-6.73l-4.46,16.59h-15.26L478.46,5.73z M495.28,32.02
			c6.81,0,11.27-2.9,11.27-7.59c0-1.49-0.47-2.66-1.41-3.68c-1.25-1.25-3.52-1.88-6.73-1.88h-8.22l-3.6,13.15H495.28z"/>
		<path class="st0" d="M537.78,19.03h-16.43l3.6-13.3h47.96l-3.52,13.3h-16.43L541.85,60.5h-15.26L537.78,19.03z"/>
		<path class="st0" d="M565.17,42.35c0-2.74,0.47-5.79,1.25-8.76l7.51-27.86h15.34l-7.75,28.95c-0.47,1.72-0.78,3.36-0.78,5.16
			c0,4.93,3.05,7.98,8.53,7.98c2.9,0,5.48-1.02,7.36-2.9c2.03-1.96,3.44-4.69,4.62-9.08l8.14-30.13h15.34l-8.68,32.39
			c-1.96,7.2-4.69,12.52-8.53,16.35c-4.85,4.85-11.74,7.04-20.19,7.04C573.22,61.52,565.17,54.4,565.17,42.35z"/>
		<path class="st0" d="M646.31,5.34h14.87l8.53,55.16h-15.96l-1.33-9.78h-21.12l-6.57,9.78h-16.51L646.31,5.34z M651.16,38.91
			l-1.96-15.73l-10.25,15.73H651.16z"/>
		<path class="st0" d="M683.72,5.73h15.26L687.87,47.2H714l-3.6,13.3h-41.39L683.72,5.73z"/>
	</g>
	<path class="st1" d="M576.91,68.27c-0.01-0.01-0.01-0.02-0.02-0.03c0,0,0,0,0-0.01c-5.99-10.12-17.67-16.99-31.1-16.99
		c-10.59,0-20.08,4.27-26.56,11.04c-50.89,43.16-118.93,69.54-193.68,69.54c-66.68,0-128.02-20.99-176.61-56.15
		c52.11,51.26,126.36,83.31,208.76,83.31c46.62,0,91.07-9.7,129.8-28.07c0.55-0.29,0.89-0.46,0.89-0.46s36.73-15.34,61.66-42.4
		c0,0-11.91,27.65-49.17,41.87c1.45,0.14,2.93,0.29,4.4,0.42c0,0,32.72,5.73,59.04-17.18c3.88-3.59,9.53-9.81,13.48-18.52
		c0,0,0,0,0,0C582.62,83.29,580.3,74.31,576.91,68.27z"/>
</g>
</svg>
