<?xml version="1.0" encoding="utf-8"?>
<!-- Generator: Adobe Illustrator 25.2.1, SVG Export Plug-In . SVG Version: 6.00 Build 0)  -->
<svg version="1.1" id="Capa_1" xmlns="http://www.w3.org/2000/svg" xmlns:xlink="http://www.w3.org/1999/xlink" x="0px" y="0px"
	 viewBox="0 0 128.22 39.55" style="enable-background:new 0 0 128.22 39.55;" xml:space="preserve">
<style type="text/css">
	.st0{fill:#002F87;}
	.st1{fill:#EE7623;}
</style>
<g>
	<path class="st0" d="M125.08,12.6h0.85c0.39,0,0.59,0.18,0.59,0.48c0,0.34-0.23,0.43-0.29,0.45v0.01c0.11,0.01,0.26,0.1,0.26,0.37
		c0,0.21,0.03,0.39,0.1,0.47h-0.33c-0.05-0.08-0.05-0.17-0.05-0.26c0-0.33-0.07-0.47-0.35-0.47h-0.46v0.73h-0.31V12.6z
		 M125.39,13.41h0.51c0.2,0,0.3-0.09,0.3-0.28c0-0.23-0.15-0.27-0.31-0.27h-0.5V13.41z"/>
	<path class="st0" d="M125.78,15.29c-0.99,0-1.8-0.81-1.8-1.8s0.81-1.8,1.8-1.8c0.99,0,1.8,0.81,1.8,1.8S126.78,15.29,125.78,15.29
		 M125.78,12.02c-0.81,0-1.47,0.66-1.47,1.47c0,0.81,0.66,1.47,1.47,1.47c0.81,0,1.47-0.66,1.47-1.47
		C127.25,12.68,126.59,12.02,125.78,12.02"/>
	<path class="st0" d="M10.78,0.85h3.87l2.22,14.37h-4.16l-0.35-2.55h-5.5l-1.92,2.55h-4.3L10.78,0.85z M12.04,9.6l-0.51-4.1
		L8.86,9.6H12.04z"/>
	<path class="st0" d="M16.83,9.21c0-4.55,3.71-8.54,9.15-8.54c2.85,0,4.93,1.16,5.91,2.43l-2.65,2.57c-0.84-0.84-2-1.47-3.53-1.47
		c-2.87,0-4.85,2.22-4.85,4.85c0,2,1.45,3.04,3.2,3.04c0.79,0,1.41-0.16,1.9-0.39l0.57-1.92h-2.75l0.75-2.89h6.54l-2.04,7.2
		c-1.41,0.82-3.24,1.43-5.34,1.43C20.3,15.51,16.83,13.59,16.83,9.21"/>
	<path class="st0" d="M33.71,0.95h5.38c2.38,0,3.95,0.53,4.91,1.49c0.75,0.75,1.1,1.77,1.1,2.92c0,2.39-1.37,4.26-4.28,5.06
		l2.2,4.81h-4.36l-1.9-4.32h-1.75l-1.16,4.32h-3.98L33.71,0.95z M38.09,7.8c1.77,0,2.94-0.75,2.94-1.98c0-0.39-0.12-0.69-0.37-0.96
		c-0.33-0.33-0.92-0.49-1.75-0.49h-2.14L35.83,7.8H38.09z"/>
	<path class="st0" d="M44.74,9.09c0-4.34,3.55-8.4,8.5-8.4c4.06,0,6.81,2.77,6.81,6.4c0,4.34-3.55,8.4-8.5,8.4
		C47.49,15.49,44.74,12.72,44.74,9.09 M56.01,7.39c0-1.81-1.1-3.16-3.12-3.16c-2.49,0-4.12,2.43-4.12,4.55
		c0,1.81,1.1,3.16,3.12,3.16C54.4,11.94,56.01,9.51,56.01,7.39"/>
	<path class="st0" d="M58.36,12.86l2.55-2.63c1.39,1.28,2.83,1.94,4.4,1.94c0.94,0,1.61-0.41,1.61-1.06c0-0.55-0.39-0.84-2.39-1.61
		c-2.26-0.86-3.71-1.83-3.71-3.93c0-2.83,2.57-4.85,6.05-4.85c2.51,0,4.48,0.82,5.85,2.12l-2.45,2.73
		c-1.08-0.94-2.32-1.57-3.77-1.57c-0.96,0-1.55,0.45-1.55,1.02c0,0.57,0.43,0.77,2.39,1.55c2.2,0.84,3.71,1.83,3.71,3.98
		c0,2.94-2.53,4.93-6.08,4.93C62.19,15.47,59.88,14.51,58.36,12.86"/>
	<path class="st0" d="M71.65,10.49c0-0.71,0.12-1.51,0.33-2.28l1.96-7.26h4L75.91,8.5c-0.12,0.45-0.2,0.88-0.2,1.35
		c0,1.28,0.79,2.08,2.22,2.08c0.75,0,1.43-0.26,1.92-0.75c0.53-0.51,0.9-1.22,1.2-2.36l2.12-7.85h4L84.9,9.39
		c-0.51,1.88-1.22,3.26-2.22,4.26c-1.26,1.26-3.06,1.83-5.26,1.83C73.75,15.49,71.65,13.63,71.65,10.49"/>
	<path class="st0" d="M88.3,0.95h4.67c2.32,0,3.85,0.47,4.89,1.51c0.75,0.75,1.12,1.73,1.12,2.92c0,3.55-2.87,5.75-7.09,5.75h-2.34
		l-1.1,4.1h-3.98L88.3,0.95z M91.85,8.05c1.96,0,3.08-0.88,3.08-2.22c0-0.39-0.14-0.73-0.41-1c-0.39-0.39-0.96-0.55-1.69-0.55h-1.47
		l-1,3.77H91.85z"/>
	<polygon class="st0" points="100.78,0.95 112.21,0.95 111.29,4.32 103.79,4.32 103.2,6.48 110.01,6.48 109.17,9.6 102.37,9.6 
		101.75,11.86 109.38,11.86 108.48,15.22 96.94,15.22 	"/>
	<path class="st0" d="M113.19,0.95h5.38c2.38,0,3.95,0.53,4.91,1.49c0.75,0.75,1.1,1.77,1.1,2.92c0,2.39-1.37,4.26-4.28,5.06
		l2.2,4.81h-4.36l-1.9-4.32h-1.75l-1.16,4.32h-3.98L113.19,0.95z M117.57,7.8c1.77,0,2.94-0.75,2.94-1.98
		c0-0.39-0.12-0.69-0.37-0.96c-0.33-0.33-0.92-0.49-1.75-0.49h-2.14l-0.94,3.42H117.57z"/>
	<path class="st1" d="M116.33,16.12C116.33,16.11,116.33,16.11,116.33,16.12C116.33,16.11,116.33,16.11,116.33,16.12
		c-1.52-2.57-4.47-4.3-7.87-4.3c-2.68,0-5.07,1.08-6.71,2.79C88.89,25.51,71.7,32.18,52.8,32.18c-16.85,0-32.36-5.3-44.64-14.19
		C21.34,30.94,40.1,39.04,60.93,39.04c11.78,0,23.02-2.45,32.81-7.09c0.14-0.07,0.22-0.12,0.22-0.12s9.28-3.88,15.58-10.72
		c0,0-3.01,6.99-12.43,10.58c0.37,0.03,0.74,0.07,1.11,0.11c0,0,8.27,1.45,14.92-4.34c0.98-0.91,2.41-2.48,3.41-4.68c0,0,0,0,0,0
		C117.78,19.91,117.19,17.64,116.33,16.12"/>
</g>
</svg>
