<?xml version="1.0" encoding="utf-8"?>
<!-- Generator: Adobe Illustrator 25.2.1, SVG Export Plug-In . SVG Version: 6.00 Build 0)  -->
<svg version="1.1" id="Capa_1" xmlns="http://www.w3.org/2000/svg" xmlns:xlink="http://www.w3.org/1999/xlink" x="0px" y="0px"
	 viewBox="0 0 200 200" style="enable-background:new 0 0 200 200;" xml:space="preserve">
<style type="text/css">
	.st0{fill:none;stroke:#485C6D;stroke-width:1.5433;stroke-miterlimit:10;}
	.st1{fill:none;stroke:#485C6D;stroke-width:2.8176;stroke-miterlimit:10;}
	.st2{fill:#485C6D;}
</style>
<g>
	<circle class="st0" cx="99.54" cy="99.81" r="85"/>
	<circle class="st1" cx="99.54" cy="99.81" r="77.62"/>
</g>
<path class="st2" d="M123.59,61.08c-1.58,1.12-3.02,1.28-4.53,2.65c-1.32,1.19-2.86,2.08-4.24,3.23c-2.7,2.24-4.86,5.04-7.01,7.81
	c-4.3,5.59-8.78,11.28-16.08,12.63c-4.87,0.9-11.1,1.45-15.63-0.81c-4.62-2.31-7-7.91-12.75-7.41c0.21,0.66,0.48,1.58,0.26,2.4
	c-3.42,0.87-5.16-6.06-8.74-2.58c-2.58,2.49,1.24,5.08,2.41,7.4c-1.82-1.47-4.86-3.8-5.53-0.04c-0.46,2.57,2.53,5.5,3.52,7.82
	c-2.04-1.82-3.94-0.27-4.68,1.69c-0.71,1.9-0.3,3.75,0.91,5.3c1.94,2.52,7.2,5.43,7.74,8.35c0.3,1.64-0.64,3.37,0.34,5.05
	c0.84,1.43,0.16,0.59,1.79,1.26c0.92,0.38,1.65,0.61,2.48,1.27c2.29,1.86,2.69,4.33,4.23,6.54c0.39,0.56,1.23,1.81,2.19,1.66
	c1.16-0.18,0.88-1.34,1.41-2.15c1.27,0.59,1.36,1.93,2.14,2.9c1.14,1.44,2.35,0.95,3.77,2c1.87,1.4,3.28,6.41,6.63,4.22
	c1.06,2.16,2.73-0.06,4.22-0.3c3.11-0.5,3.98,2.3,3.05,4.48c-1.34,3.13-1.35,4.53-0.7,8.01c5.52-0.41,1.41,4.88,1.42,7.3
	c1.76-1.23,3.88-0.16,5.62,0.06c-0.19-0.29-0.17-0.63-0.29-0.89c0.33,0,0.69-0.08,1.02-0.11c1.13-1.55-0.82-2.03-1.44-3.28
	c-0.66-1.34-1.05-7.13,2.17-5.16c1.76,1.07,0.38,4.59,0,6.07c-0.41,1.62-0.6,3.23-0.69,5c2.55-3.67,10.81-1.15,14.27,0.07
	c-0.12-1.04-1.42-1.58-2.16-2.23c1.38-0.3,2.94-1.08,4.06-1.67c-1.78-0.72-3.77-0.43-5.49-0.08c1.18-0.73,3.08-0.45,4.07-1.35
	c-0.88-0.98-2.46-0.6-3.82-0.67c-1.85-0.09-3.11-0.46-4.43-1.77c-1.28-1.28-3.55-4.55-3.47-6.28c0.08-2.02,2.49-3.87,3.39-5.68
	c1.21-2.45,2.21-4.18,4.5-6.06c1.26-1.02,2.84-1.46,4.06-2.34c1.25-0.89,2.01-2.26,3.07-3.36c2.45-2.54,5.68-4.12,8.29-6.39
	c4.78-4.18,6.5-8.96,7.53-14.41c0.99-5.19,0.88-11.22-0.41-16.37c-0.68-2.73-2.86-8.75,0.3-10.71c1.19,2.53,4.63,0.72,5.29-1.19
	c0.68-2.01-1.2-3.94-0.69-5.72c0.51-1.84,2.65-0.84,4.09,0.4c0.46-1.48-0.32-2.32-1.51-3.25c-2.49-1.92-1.12-2.38-0.19-4.7
	c0.84-2.13-0.22-3.36-2.7-3.53c0.81-1.05-0.06-2.63-1.29-3.2c-1.54-0.71-2.7,0.02-3.37,1.3c-1.85-1.82-6.56-1.56-5.38,1.65
	c-5.05-0.78-1.79,3.36-2.7,4.82C123.83,60.89,123.73,60.99,123.59,61.08z"/>
</svg>
