<?xml version="1.0" encoding="utf-8"?>
<!-- Generator: Adobe Illustrator 25.2.1, SVG Export Plug-In . SVG Version: 6.00 Build 0)  -->
<svg version="1.1" id="Capa_1" xmlns="http://www.w3.org/2000/svg" xmlns:xlink="http://www.w3.org/1999/xlink" x="0px" y="0px"
	 viewBox="0 0 200 200" style="enable-background:new 0 0 200 200;" xml:space="preserve">
<style type="text/css">
	.st0{fill:none;stroke:#485C6D;stroke-width:1.5433;stroke-miterlimit:10;}
	.st1{fill:none;stroke:#485C6D;stroke-width:2.8176;stroke-miterlimit:10;}
	.st2{fill:#485C6D;}
</style>
<g>
	<circle class="st0" cx="99.54" cy="99.81" r="85"/>
	<circle class="st1" cx="99.54" cy="99.81" r="77.62"/>
	<path class="st2" d="M136.66,79.46c0-4.2,0.15-7.37-1.95-10.92c-2.06-3.49-3.68-6.48-8.23-6.5c-4.29-0.03-6.05,4.86-4.29,8.32
		c0.94,1.85,1.65,3.07,2.2,5.08c0.53,1.93,2.09,3.23,1.77,5.31c-1.4,1.01-2.56-1.39-3.45-2.16c-1.19-1.04-2.33-1.84-3.27-3.08
		c-1.05-1.4-5-8.03-6.58-4.64c-0.15-2.47-2.95-2.68-4.42-1.14c-0.33-1.09-1.19-1.59-2.34-1.52c-1.47,0.1-1.23,1.02-2.35,1.57
		c-0.61-1.06-2.14-1.42-3.27-1.31c-1.66,0.17-1.23,0.89-1.95,2.05c-0.47-2.95-3.86-0.06-4.42,1.15c-0.17-0.66-0.31-1.28-0.67-1.81
		c-0.75,0.34-1.39,1.05-2.02,1.54c-0.1-1-0.22-2.69-1.62-2.42c-0.17-2.14-1.61-4.08-2.19-6.13c-0.58-2.03-3.14-4.32-5.29-2.45
		c-1.27-1.38-0.92-2.64-2.81-3.64c-1.41-0.75-4.62-2.59-4.71,0.17c0.57-0.72-0.88-1.96-1.66-2.32c-1.19-0.56-1.99-0.01-3.17-0.01
		c-0.19,0.6-0.43,1.13-0.58,1.73c-1.3-1.47-3.71-1.45-5.16-0.51c-2.16,1.4-2.2,2.46-2.4,4.86c-1.23,0.33-1.54-0.27-2.63,0.3
		c-0.96,0.5-1.79,1.85-2.36,2.67c-0.99,1.45-3.09,4.7-0.41,5.66c-2.59-0.04-3.69,1.13-4.15,3.74c-0.45,2.53,0.3,4,2.34,4.76
		c-2.55,0.03-3.8,0.95-3.73,3.54c0.06,1.89,1.03,4.7,3.19,4.88c-3.15,3.62-1.12,7.64,2.61,9.88c-2.74-0.17-3.44,2.76-2.38,4.6
		c0.45,0.77,0.96,1.8,1.59,2.41c1.07,1.05,1.96,0.93,3.27,1.33c-1.93,2.04-1.53,4.42-0.04,6.71c1.07,1.65,5.05,3.1,6.71,1.31
		c0.25,2.32-0.63,5.01,1.68,6.41c2.2,1.34,3.67-0.56,5.29-1.86c-0.13,1.28,0.71,1.81,1.72,1.34c0.91-0.43,1.55-2.04,1.88-2.9
		c0.45-1.15,1.3-5.08,2.84-5.12c0.37,1.59-0.58,3.36-0.49,5.06c0.17,3.25,0.9,0.61,2.64,1.11c-0.09,0.39,0.11,0.69-0.12,1.11
		c1.04,0.65-2.71,3.11-3.26,4.21c-0.99,1.98-1.64,4.29-2.27,6.45c-0.36,1.24-1.79,5.58,0.33,5.63c2.07,0.04,3.03-3.35,4.64-4.21
		c0.24,1.04-0.95,2.8-1.12,3.88c1,0.07,1.35,0.45,2.32-0.02c0.7-0.34,1.28-1.36,1.89-1.78c-0.07,0.93-0.69,1.87-0.72,2.88
		c2.54,0.64,7.94-3.54,8.96-5.56c-0.76,1.5-3.88,5.56-1.01,5.35c2.31-0.16,2.6-0.53,4.53,0.85c1.5,1.07,2.79,1.63,3.03,3.69
		c0.13,1.12,0.08,2.55-0.2,3.54c-0.29,1.04-1.33,1.75-1.1,2.85c0.35-0.08,0.91,0.16,1.26,0.08c0.02,0.81-0.03,1.61,0.35,2.32
		c2.07,0.2,4.16,0.88,6.12,0.85c2.16-0.04,4.31-1.15,6.61-0.25c-2.08-1.6-4.95-2.67-7.6-2.7c0.46,0.09,1.03-0.01,1.49-0.04
		c0.26-1.13-1.6-1.73-2.3-2.44c-0.98-0.98-1.53-2.3-2.14-3.48c-0.69-1.34-1.24-2.23-0.34-3.69c0.79-1.29,2.17-1.02,3.46-1.25
		c3.69-0.66,7.05-2.39,8.62,2.13c0.97,2.79,0.88,6.03,0.77,8.94c2.04-0.82,4.31,0.72,6.18,1.23c2.62,0.72,4.9,1.77,7.74,1.5
		c-0.25-1.14-3.03-0.89-3.2-2.09c-0.2-1.45,2.69-1.31,3.49-1.39c-0.74-1.29-5.64-1.33-7.22-1.57c-1.04-0.16-1.98-0.35-2.95-0.79
		c-1.57-0.71-1.03-0.76-1.33-2.41c-0.4-2.19-1.85-4.19-1.09-6.7c0.72-2.4,3.15-2.04,4.81-3.28c1.75-1.3,2.47-3.3,4.6-4.37
		c1.99-1,3.75-0.99,5.55-2.65c0.53-0.49,1.28-2.29,1.65-2.52c0.99-0.6,1.02,0.77,2.15,0.77c1.71,0,1.84-2.81,2.47-4.01
		c2.1,2.87,3.23-2.81,3.2-4.54c1.22-0.04,2.04,0.65,2.98-0.51c0.61-0.76,0.89-2.53-0.3-2.8c0.15-1.06,1.47-1.62,1.24-2.9
		c-0.24-1.34-1.16-1.62-1.02-3.21c0.19-2.19,0.06-4.35-1.13-6.37c-0.94-1.6-2.37-3.35-3.62-4.67c-1.8-1.91-2.31-2.27-2.49-5.03
		c-0.22-3.48-2.6-7.61-4.01-10.71c-0.54-1.18-2.77-4.38-1.09-5.39c1.45-0.87,3.76,1.64,4.3,2.68c0.79,1.53,0.77,3.93,1.88,5.1
		L136.66,79.46z"/>
</g>
</svg>
