<?xml version="1.0" encoding="utf-8"?>
<!-- Generator: Adobe Illustrator 25.2.1, SVG Export Plug-In . SVG Version: 6.00 Build 0)  -->
<svg version="1.1" id="Capa_1" xmlns="http://www.w3.org/2000/svg" xmlns:xlink="http://www.w3.org/1999/xlink" x="0px" y="0px"
	 viewBox="0 0 200 200" style="enable-background:new 0 0 200 200;" xml:space="preserve">
<style type="text/css">
	.st0{fill:none;stroke:#485C6D;stroke-width:1.4756;stroke-miterlimit:10;}
	.st1{fill:none;stroke:#485C6D;stroke-width:2.8175;stroke-miterlimit:10;}
	.st2{fill:#485C6D;}
</style>
<circle class="st0" cx="99.54" cy="99.81" r="85"/>
<circle class="st1" cx="99.54" cy="99.81" r="77.62"/>
<g id="SfSvxK_00000007410595782183541060000002387250189016666010_">
	<g>
		<path class="st2" d="M60.9,53.01c0.17,0,0.34,0,0.51,0c0.57,0.66,1.2,1.27,1.7,1.99c1.99,2.8,4.39,5.16,7.39,6.84
			c2.79,1.56,5.15,3.6,7.07,6.16c0.78,1.04,1.47,2.14,2.19,3.2c0.8-0.61,1.59-1.28,2.43-1.87c3.84-2.65,8.17-3.92,12.76-4.39
			c3.67-0.38,7.34-0.32,10.98,0.29c3.65,0.6,7.08,1.79,10.15,3.88c1,0.69,1.93,1.47,2.92,2.24c0.2-0.33,0.41-0.7,0.62-1.06
			c2.04-3.33,4.6-6.16,8.02-8.1c3.11-1.77,5.74-4.05,7.94-6.86c0.64-0.82,1.41-1.53,2.11-2.3c0.14,0,0.27,0,0.41,0
			c0.44,0.63,0.98,1.21,1.31,1.9c1.12,2.38,1.79,4.92,2.3,7.49c0.71,3.54,1.06,7.09,0.75,10.7c-0.12,1.34-0.35,2.64-0.93,3.88
			c-1.64,3.55-4.38,6.01-7.84,7.69c-0.99,0.48-2.06,0.81-3.11,1.22c-1.29-3.36-2.84-6.36-5.99-8.21c0.03,0.32,0.13,0.6,0.22,0.88
			c0.52,1.61,1.13,3.19,1.53,4.82c0.34,1.34,0.44,2.75,0.68,4.12c0.17,0.97,0.5,1.91,0.57,2.88c0.09,1.28,0.67,2.23,1.49,3.16
			c2.43,2.78,4.8,5.6,6.79,8.73c2.05,3.21,3.67,6.61,4.76,10.27c0.84,2.83,1.37,5.72,1.52,8.67c0.07,1.46,0.13,2.95-0.05,4.4
			c-0.36,3.01-1.86,5.48-3.95,7.61c-2.84,2.89-6.33,4.72-10.09,6.07c-4.49,1.62-9.15,2.5-13.9,2.97c-0.36,0.04-0.77,0.09-1.05,0.29
			c-2.9,2.09-6.15,3.23-9.65,3.75c-0.83,0.13-1.67,0.21-2.5,0.31c-1.08,0-2.17,0-3.26,0c-1.02-0.14-2.04-0.23-3.05-0.4
			c-3.3-0.55-6.37-1.68-9.09-3.66c-0.15-0.11-0.36-0.19-0.55-0.22c-1.29-0.17-2.59-0.32-3.87-0.5c-4.23-0.6-8.37-1.58-12.32-3.25
			c-3.13-1.32-6.02-3.01-8.4-5.48c-2.04-2.11-3.51-4.56-3.84-7.5c-0.18-1.67-0.08-3.38,0.01-5.06c0.2-3.52,0.98-6.93,2.19-10.23
			c1.78-4.91,4.54-9.25,7.83-13.26c1.31-1.6,2.65-3.17,3.97-4.76c0.12-0.14,0.22-0.32,0.24-0.48c0.25-1.48,0.51-2.96,0.72-4.45
			c0.45-3.18,1.25-6.25,2.46-9.23c0.06-0.14,0.07-0.31,0.13-0.59c-3.2,1.99-4.78,4.99-6.02,8.25c-0.13-0.03-0.21-0.04-0.29-0.05
			c-2.96-0.79-5.52-2.28-7.67-4.47c-1.73-1.77-2.96-3.83-3.37-6.3c-0.45-2.79-0.43-5.6-0.14-8.4c0.38-3.56,1.14-7.04,2.4-10.4
			C59.54,55.02,59.99,53.88,60.9,53.01z M100.07,103.72c-3.74,0.01-6.63,0.43-9.44,1.4c-2.94,1.01-5.59,2.51-7.61,4.95
			c-2.89,3.48-3.6,7.54-2.95,11.89c0.68,4.53,3.2,7.81,7.15,10.04c2.99,1.69,6.23,2.5,9.61,2.81c3.65,0.33,7.24-0.02,10.73-1.12
			c2.97-0.94,5.64-2.37,7.76-4.7c1.93-2.11,3.01-4.62,3.38-7.45c0.34-2.72,0.13-5.37-0.89-7.93c-1.42-3.56-4.06-5.94-7.45-7.55
			C106.88,104.38,103.15,103.74,100.07,103.72z M114.94,92.06c0.02-2.36-1.49-3.93-3.81-3.94c-2.36-0.02-3.94,1.5-3.95,3.8
			c-0.02,2.43,1.5,3.99,3.86,4.01C113.37,95.94,114.93,94.39,114.94,92.06z M83.77,92.02c0.01,2.33,1.57,3.93,3.81,3.9
			c2.46-0.03,3.96-1.53,3.95-3.96c-0.01-2.27-1.57-3.84-3.82-3.84C85.3,88.11,83.77,89.63,83.77,92.02z"/>
		<path class="st2" d="M87.65,117.25c0.02-1.37,0.28-2.83,1.16-4.1c1.59-2.29,4.29-2.21,5.63,0.23c1.44,2.62,1.4,5.32,0.02,7.95
			c-0.73,1.39-2.14,2.08-3.38,1.84c-1.35-0.26-2.13-1.18-2.69-2.33C87.86,119.76,87.65,118.6,87.65,117.25z"/>
		<path class="st2" d="M111.06,117.72c-0.04,1.22-0.32,2.78-1.34,4.12c-1.36,1.79-3.61,1.85-5.03,0.1c-1.1-1.35-1.43-2.97-1.43-4.66
			c0.01-1.51,0.33-2.95,1.21-4.22c1.39-2.02,3.84-2.08,5.31-0.1C110.59,114.07,111.06,115.65,111.06,117.72z"/>
	</g>
</g>
</svg>
