<?xml version="1.0" encoding="utf-8"?>
<!-- Generator: Adobe Illustrator 25.2.1, SVG Export Plug-In . SVG Version: 6.00 Build 0)  -->
<svg version="1.1" id="Capa_1" xmlns="http://www.w3.org/2000/svg" xmlns:xlink="http://www.w3.org/1999/xlink" x="0px" y="0px"
	 viewBox="0 0 200 200" style="enable-background:new 0 0 200 200;" xml:space="preserve">
<style type="text/css">
	.st0{fill:none;stroke:#485C6D;stroke-width:1.5433;stroke-miterlimit:10;}
	.st1{fill:none;stroke:#485C6D;stroke-width:2.8176;stroke-miterlimit:10;}
	.st2{fill:#485C6D;}
</style>
<g>
	<circle class="st0" cx="99.54" cy="99.81" r="85"/>
	<circle class="st1" cx="99.54" cy="99.81" r="77.62"/>
</g>
<g id="Ijx4ns_00000019663545627277686380000017110863454493154190_">
	<g>
		<path class="st2" d="M52.23,48.44c0.07,0.16,0.16,0.31,0.2,0.47c2.39,9.26,4.78,18.52,7.17,27.79c0.39,1.51,0.76,3.03,1.11,4.56
			c0.49,2.16,1.65,3.91,3.22,5.41c4.67,4.48,10.12,7.32,16.59,8.22c2.29,0.32,4.56,0.68,6.89,0.61c2.45-0.07,3.86-1.58,3.39-3.98
			c-0.27-1.36-0.83-2.68-1.32-3.99c-0.78-2.1-1.62-4.19-2.43-6.28c-0.01-0.04,0-0.09,0-0.25c0.36,0.33,0.69,0.57,0.95,0.88
			c2.1,2.57,4.93,3.87,8.06,4.59c2.54,0.58,5.11,1.01,7.67,1.48c0.48,0.09,1.02,0.15,1.49,0.03c0.86-0.22,1.3,0.21,1.81,0.78
			c3.56,4.05,7.15,8.09,10.75,12.11c0.27,0.3,0.67,0.55,1.06,0.66c4.73,1.29,9.41,2.76,13.84,4.86c5.99,2.84,11.57,6.34,16.6,10.68
			c1.65,1.42,3.17,2.98,4.72,4.51c1.11,1.1,1.58,2.5,1.74,4.09c-1.08,0.33-2.14,0.65-3.2,0.98c-3.48,1.07-6.79,2.54-10.03,4.18
			c-0.1,0.05-0.23,0.09-0.29,0.17c-0.17,0.25-0.43,0.51-0.44,0.77c0,0.16,0.39,0.41,0.64,0.46c1.65,0.3,3.32,0.49,4.96,0.86
			c2.03,0.45,4.04,1.03,6.05,1.56c0.21,0.06,0.41,0.15,0.79,0.3c-1.51,0.37-2.85,0.7-4.18,1.03c-3.79,0.94-7.58,1.84-11.35,2.82
			c-2.59,0.67-5.03,0.17-7.33-0.92c-4.27-2.03-7.27-5.32-9.1-9.68c-1.04-2.48-1.51-5.07-1.6-7.75c-0.01-0.16-0.02-0.31-0.04-0.56
			c-1.35-0.13-2.7-0.25-4.04-0.4c-7.25-0.81-14.55-1.44-21.55-3.69c-2.61-0.84-5.17-1.82-7.76-2.74c-0.21-0.07-0.41-0.16-0.66-0.14
			c0.33,0.17,0.65,0.35,0.99,0.5c4.65,1.93,9.28,3.94,14.26,4.88c4.41,0.83,8.86,1.43,13.3,2.13c0.94,0.15,1.88,0.29,2.83,0.38
			c0.47,0.04,0.58,0.26,0.64,0.68c0.19,1.35,0.43,2.68,0.65,4.02c0.44,2.62,1.71,4.85,3.29,6.94c1.63,2.15,3.56,3.99,5.78,5.52
			c0.14,0.1,0.26,0.22,0.44,0.38c-1.6,0-3.11,0.05-4.61-0.01c-6.15-0.24-12.26-0.81-18.33-1.83c-1.2-0.2-2.38-0.56-3.58-0.79
			c-0.28-0.05-0.68,0.03-0.88,0.22c-2.63,2.41-5.79,3.96-8.97,5.46c-0.84,0.4-1.49,0.27-2.2-0.48c-4.24-4.47-8.85-8.52-13.95-12
			c-0.1-0.07-0.2-0.16-0.16-0.13c1.93-0.43,3.93-0.87,6.1-1.35c-0.3-0.21-0.49-0.34-0.68-0.46c-3.26-2.06-6.49-4.17-9.33-6.8
			c-4.78-4.41-7.86-9.92-10.14-15.92c-1.4-3.71-2.17-7.56-2.72-11.49c-0.39-2.75-1.21-5.44-1.93-8.13c-0.6-2.23-2.01-3.97-3.68-5.52
			c-0.71-0.66-1.44-1.32-2.05-2.07c-1.58-1.93-3.09-3.9-4.55-5.75c0.83-0.75,1.74-1.51,2.59-2.34c0.82-0.8,1.15-1.83,1.21-2.95
			c0.29-5.57,0.58-11.14,0.89-16.71c0.02-0.29,0.13-0.58,0.19-0.87C52.06,48.43,52.15,48.44,52.23,48.44z M141.61,119.87
			c-0.01,0-0.02,0-0.03,0c0.04,0.43,0.06,0.86,0.14,1.28c0.18,1.05,0.62,1.5,1.49,1.56c0.94,0.07,1.76-0.38,1.96-1.32
			c0.19-0.89,0.21-1.84,0.12-2.75c-0.03-0.37-0.47-0.87-0.84-1.02c-1.63-0.67-2.79,0.15-2.83,1.9
			C141.61,119.64,141.61,119.76,141.61,119.87z"/>
	</g>
</g>
</svg>
