<?xml version="1.0" encoding="utf-8"?>
<!-- Generator: Adobe Illustrator 25.2.1, SVG Export Plug-In . SVG Version: 6.00 Build 0)  -->
<svg version="1.1" id="Capa_1" xmlns="http://www.w3.org/2000/svg" xmlns:xlink="http://www.w3.org/1999/xlink" x="0px" y="0px"
	 viewBox="0 0 200 200" style="enable-background:new 0 0 200 200;" xml:space="preserve">
<style type="text/css">
	.st0{fill:#FFFFFF;}
</style>
<g>
	<g>
		<path class="st0" d="M47.81,91.84c1,4.7,1.8,8.48,2.61,12.27c0.32,0,0.65-0.01,0.97-0.01c0.46-0.79,0.92-1.58,1.45-2.5
			c0.48,2.02,0.93,3.89,1.38,5.76c0.28-0.03,0.55-0.05,0.83-0.08c0.09-1.4,0.18-2.81,0.3-4.54c3.86,2.81,3.74,9.22,9.69,10.21
			c-1.48-2.88-2.53-5.42-4.03-7.67c-0.88-1.32-2.31-2.59-3.77-3.14c-4.68-1.73-8.04-7.04-8.52-12.09c-0.63-6.61,2.08-12.07,5-17.44
			c1.01-1.86,3.37-3.34,5.45-4.22c7.94-3.37,16.31-2,24.56-1.69c3.15,0.12,6.3,0.48,9.45,0.48c12.73,0.01,25.46-0.13,38.19-0.12
			c6.71,0.01,11.54,2.65,14.59,9.13c3.13,6.63,7.55,12.65,10.85,19.21c1.79,3.56,2.64,7.67,3.48,11.62
			c0.64,3.05-0.45,5.59-2.61,8.24c-2.52,3.1-4.67,7.04-5.45,10.92c-2.5,12.32-4.31,24.78-6.34,37.19
			c-0.79,4.83-1.13,9.76-2.33,14.47c-0.59,2.31-2.66,4.25-4.1,6.33c-0.69,1-1.78,1.82-2.15,2.91c-2.51,7.4-4.77,9.42-12.89,9.74
			c-16.22,0.63-32.45,1.19-48.68,1.33c-5.95,0.05-13.15-2.81-14.48-10.37c-0.41-2.34-2.19-4.66-3.87-6.53
			c-4.65-5.16-5.99-11.45-6.19-17.96c-0.33-10.52-0.44-21.06-0.15-31.58c0.17-6.11-2.03-10.96-6.4-14.71
			c-4.51-3.86-6.34-8.13-4.22-13.82c0.93-2.5,1.5-5.2,2.83-7.46C44.17,94.19,46.11,93.24,47.81,91.84z M152.19,117.99
			c-34.58-0.47-68.91-0.94-103.23-1.41c-0.16,0.34-0.33,0.67-0.49,1.01c4.75,3.57,4.77,8.52,4.61,13.6
			c-0.15,4.91-0.01,9.83-0.04,14.74c-0.05,8.07,0.03,16.06,2.01,24.02c1.99,7.96,3.82,10.46,11.9,11.61
			c3.6,0.51,7.35-0.1,11.03-0.11c13.21-0.03,26.42,0.1,39.62-0.07c5.13-0.06,10.25-0.83,15.38-1.1c6.58-0.35,7.29-0.41,8.64-7.07
			c1.77-8.77,2.74-17.7,4.17-26.55c1.3-8.02,2.7-16.03,4.23-24.01C150.33,121.07,151.42,119.61,152.19,117.99z M96.15,68.74
			c0-0.11,0-0.23,0-0.34c-9.35,0-18.7,0.02-28.05-0.01c-5.88-0.01-10.23,2.36-12.66,7.86c-1.31,2.96-2.69,5.89-3.91,8.88
			c-1.91,4.66,1.59,13.5,5.99,14.01c4.05,0.47,5.25,2.73,6.05,5.99c0.24,0.99,0.68,1.97,1.23,2.83c3.73,5.8,9.84,6.62,15.81,6.68
			c23.02,0.23,46.05,0.19,69.07,0.08c6.91-0.03,8.65-2.42,7.38-9.18c-0.3-1.58-0.64-3.23-1.36-4.64
			c-4.54-8.83-9.22-17.6-13.81-26.41c-1.54-2.96-4.1-4.4-7.22-4.67c-5.93-0.5-11.88-0.9-17.83-1.05
			C109.95,68.61,103.04,68.74,96.15,68.74z M45.73,97.91c-0.32,0.07-0.64,0.15-0.96,0.22c-0.83,2.63-1.7,5.25-2.45,7.9
			c-0.16,0.56-0.08,1.38,0.24,1.85c1.28,1.91,2.7,3.73,4.62,6.34c3.87,0.2,8.78,0.46,13.69,0.72
			C53.87,110.85,47.71,106.39,45.73,97.91z M129.64,185.63c-2.61,0-4.21-0.01-5.82,0c-5.36,0.03-7.16,3.01-4.67,7.86
			c0.3,0.58,1.13,1.15,1.78,1.23c1.93,0.23,3.91,0.35,5.85,0.23c0.73-0.05,1.4-0.88,2.1-1.35c-0.46-0.47-0.89-0.97-1.39-1.39
			c-1.55-1.32-2.32-2.5,0.12-3.79C128.32,188.04,128.67,187.01,129.64,185.63z M87.11,185.74c0.78,3.36,0.71,6.78,2.36,8.77
			c1.08,1.29,4.67,0.49,7.14,0.63c0.12-0.34,0.23-0.68,0.35-1.02c-3.3-2.43-3.98-5.14-0.55-8.39
			C93.27,185.74,90.76,185.74,87.11,185.74z M107.26,194.77c-2.24-1.81-3.45-2.79-4.66-3.78c0.88-0.73,1.77-1.45,2.65-2.19
			c0.53-0.45,1.05-0.92,1.57-1.38c-0.63-0.58-1.22-1.6-1.9-1.67c-2.14-0.22-4.32-0.08-7.33-0.08c0.68,3.6,0.63,6.92,2.09,9.35
			C100.26,195.99,104.17,194.94,107.26,194.77z M116.76,185.51c-2.69,0.39-6.03-0.08-7.37,1.34c-1.41,1.49-0.92,4.79-1.25,7.31
			c2.49,0.2,4.98,0.5,7.47,0.51c0.34,0,0.69-1.4,1.03-2.15c-0.21-0.1-0.41-0.2-0.62-0.31c-0.61,0.65-1.21,1.31-1.92,2.07
			C110.63,190,116.32,189.19,116.76,185.51z M69.9,184.29c0,2.48-0.08,4.56,0.02,6.64c0.17,3.46,3.09,4.65,6.25,2.59
			c-2.87-1.97-3.31-4.05-1.3-5.73c0.57-0.47,1.35-1.5,1.18-1.86c-0.33-0.7-1.21-1.4-1.98-1.57C72.85,184.1,71.54,184.29,69.9,184.29
			z M78.95,185.57c-2.1,7.17,0.33,10.08,7.25,8.9c-3.97-1.3-4.38-3.07-1.44-6c0.51-0.51,0.73-1.32,1.09-1.99
			c-0.8-0.3-1.58-0.79-2.4-0.87C81.95,185.46,80.42,185.57,78.95,185.57z M130.68,192.66c0.42,0.14,0.85,0.28,1.27,0.42
			c0.48-2.48,0.97-4.96,1.47-7.53C131.37,184.9,131.37,184.9,130.68,192.66z M67.55,184.41c-1.26-0.34-2.72-0.72-4.9-1.3
			c1.01,2.57,1.73,4.39,2.45,6.23C65.94,187.67,66.59,186.36,67.55,184.41z"/>
		<path class="st0" d="M59.48,157.24c-0.25,1.57-0.51,3.13-0.74,4.7c-0.69,4.76-0.67,9.45,3.78,12.49c1.74,1.19,4.15,1.4,6.53,2.14
			c-4.02,1.41-6.87,0.43-9.43-2.97C56.72,169.75,56.23,160.66,59.48,157.24z"/>
		<path class="st0" d="M58.22,135.64c-0.91-5.28-1.82-10.56-2.72-15.77c2.56,1.7,4.25,8.82,3.62,15.59
			C58.82,135.52,58.52,135.58,58.22,135.64z"/>
		<path class="st0" d="M121.43,177.05c2.89,0,5.79,0,8.68,0c0,0.22,0.01,0.44,0.01,0.66c-5.07,0.65-10.14,1.31-15.21,1.96
			c-0.07-0.37-0.14-0.73-0.21-1.1c2.27-0.52,4.54-1.05,6.82-1.57L121.43,177.05z"/>
		<path class="st0" d="M140.29,151.02c-0.79,5.44-1.59,10.87-2.38,16.31c-0.28-0.05-0.56-0.09-0.84-0.14
			c0.75-5.41,1.5-10.83,2.25-16.24C139.64,150.97,139.97,151,140.29,151.02z"/>
		<path class="st0" d="M122.92,122.99c-6.07,0-12.14,0-18.21,0c0-0.15,0-0.3,0-0.46c6.07,0,12.14,0,18.21,0
			C122.92,122.69,122.92,122.84,122.92,122.99z"/>
		<path class="st0" d="M121.51,177c-2.91,0-5.82,0-8.73,0c2.92-1.1,5.82-1.79,8.64,0.06C121.43,177.05,121.51,177,121.51,177z"/>
		<path class="st0" d="M100.87,109.01c12.31,0,24.51,0,36.87,0C133.81,111.15,103.86,111.11,100.87,109.01z"/>
		<path class="st0" d="M97.45,73.16c-7.39,0.4-14.78,0.81-22.17,1.21c-0.03-0.45-0.06-0.9-0.09-1.34c7.4,0,14.79,0,22.19,0
			C97.41,73.07,97.43,73.12,97.45,73.16z"/>
		<path class="st0" d="M116.01,73.53c-4.66,0-9.32,0-13.98,0c0-0.19,0-0.39,0-0.58c4.67,0,9.33,0,14,0
			C116.03,73.14,116.02,73.34,116.01,73.53z"/>
		<path class="st0" d="M150.09,99.19c1,2.21,2.32,4.35,2.86,6.67c0.21,0.89-1.34,2.2-2.66,3.17c3.53-3.54-0.37-6.47-0.46-9.61
			L150.09,99.19z"/>
		<path class="st0" d="M149.84,99.43c-1.84-3.65-3.68-7.31-5.52-10.96c0.4-0.18,0.8-0.36,1.2-0.55c1.52,3.76,3.05,7.52,4.57,11.28
			L149.84,99.43z"/>
	</g>
	<g id="_x32__00000074401963975808233630000012712772594381740463_">
		<g>
			<path class="st0" d="M101.35,133.18c-0.01-0.03-0.02-0.07-0.06-0.09c-2.26-1.82-4.7-3.38-7.3-4.66c0.01-0.12-0.12-0.26-0.27-0.19
				c-3.89,1.82-7.35,4.42-10.18,7.66c-0.01,0.01-0.01,0.02-0.01,0.02c-0.18-0.09-0.33,0.2-0.15,0.32c0.52,0.37,1.04,0.75,1.55,1.14
				c-0.03,0.1-0.07,0.19-0.1,0.29c-0.03,0.09,0.11,0.12,0.14,0.04c0.03-0.08,0.05-0.16,0.08-0.23c0.68,0.51,1.36,1.04,2.02,1.57
				c0.01,0.04,0.04,0.06,0.07,0.06c1.21,0.98,2.4,1.98,3.56,3.02c-0.01,0.02-0.02,0.04-0.03,0.06c-0.04,0.08,0.08,0.15,0.12,0.07
				c0-0.01,0.01-0.02,0.01-0.03c0.27,0.24,0.54,0.48,0.8,0.73c-0.04,0.16,0.21,0.28,0.34,0.12c2.72-3.58,5.99-6.75,9.43-9.63
				C101.49,133.35,101.44,133.23,101.35,133.18z M83.82,136.12c0.33-0.38,0.67-0.74,1.01-1.1c-0.24,0.45-0.43,0.93-0.57,1.43
				C84.12,136.34,83.97,136.23,83.82,136.12z M84.39,136.54c0.19-0.68,0.46-1.32,0.83-1.91c0.56-0.56,1.15-1.11,1.76-1.62
				c-0.78,1.27-1.42,2.62-1.93,4.02C84.83,136.86,84.61,136.7,84.39,136.54z M85.16,137.11c0.51-1.42,1.16-2.78,1.95-4.06
				c0.03-0.06-0.02-0.11-0.07-0.1c0.4-0.34,0.82-0.67,1.24-1c-0.71,1.81-1.42,3.63-2.13,5.44c-0.03,0.09,0.1,0.12,0.14,0.04
				c0.72-1.83,1.44-3.66,2.15-5.49c0.02-0.04-0.01-0.07-0.04-0.08c0.89-0.67,1.81-1.29,2.76-1.86c-1.32,2.9-2.64,5.8-3.96,8.7
				C86.53,138.16,85.85,137.63,85.16,137.11z M87.32,138.79c1.33-2.93,2.67-5.86,4-8.79c0.01-0.03,0-0.06-0.02-0.08
				c0.33-0.2,0.66-0.38,1-0.57c-1.16,3.43-2.62,6.76-4.35,9.95C87.74,139.13,87.53,138.96,87.32,138.79z M88.06,139.39
				c1.76-3.25,3.25-6.64,4.42-10.14c0.36-0.19,0.72-0.37,1.08-0.55c-1.29,3.86-2.87,7.61-4.72,11.23c-0.04,0.08,0.08,0.15,0.12,0.07
				c1.87-3.64,3.46-7.43,4.75-11.31c0.25,0.12,0.51,0.25,0.76,0.38c-0.01,0.01-0.01,0.02-0.02,0.03c-1.15,4.07-2.7,8.03-4.61,11.81
				C89.27,140.39,88.67,139.89,88.06,139.39z M89.97,141c1.92-3.8,3.48-7.77,4.63-11.87c0,0,0,0,0,0c0.31,0.16,0.62,0.33,0.92,0.49
				c0,0,0,0,0,0c-1.26,4.16-2.82,8.22-4.67,12.15C90.57,141.52,90.27,141.26,89.97,141z M91.83,142.66
				c-0.28-0.26-0.57-0.52-0.86-0.78c1.85-3.94,3.42-8.02,4.69-12.19c0.79,0.44,1.57,0.92,2.33,1.42c-0.91,2.52-1.83,5.04-2.74,7.56
				C94.04,139.95,92.89,141.27,91.83,142.66z M95.49,138.42c0.87-2.41,1.74-4.82,2.62-7.23c0.24,0.16,0.47,0.32,0.7,0.48
				c-0.69,1.83-1.38,3.66-2.07,5.48C96.32,137.57,95.9,137.99,95.49,138.42z M96.98,136.92c0.65-1.72,1.3-3.45,1.95-5.17
				c0.26,0.18,0.51,0.36,0.77,0.55c-0.36,1.02-0.72,2.05-1.07,3.07C98.07,135.88,97.52,136.4,96.98,136.92z M99.77,134.35
				c-0.31,0.27-0.62,0.54-0.92,0.82c0.32-0.93,0.65-1.86,0.97-2.78c0.22,0.17,0.44,0.33,0.66,0.51c-0.04-0.02-0.09-0.01-0.1,0.04
				C100.3,133.46,100.09,133.93,99.77,134.35C99.77,134.35,99.77,134.35,99.77,134.35z M100.15,134.02
				c0.18-0.32,0.31-0.67,0.37-1.04c0-0.02,0-0.04-0.02-0.06c0.16,0.13,0.33,0.25,0.49,0.38
				C100.72,133.54,100.43,133.78,100.15,134.02z"/>
			<path class="st0" d="M91.8,143.34c-0.06,0-0.12-0.02-0.18-0.04c-0.11-0.06-0.18-0.15-0.2-0.26c-0.2-0.18-0.4-0.36-0.6-0.55
				l-0.02-0.02c-0.06,0.02-0.11,0.01-0.17-0.02c-0.11-0.05-0.17-0.16-0.15-0.27c-1.1-0.98-2.25-1.96-3.42-2.9
				c-0.06-0.02-0.11-0.06-0.15-0.12c-0.59-0.48-1.19-0.94-1.77-1.38c-0.03,0.08-0.1,0.14-0.19,0.16c-0.1,0.02-0.2-0.01-0.26-0.08
				c-0.06-0.07-0.08-0.16-0.05-0.25l0.05-0.16c-0.47-0.35-0.95-0.71-1.43-1.05c-0.16-0.12-0.21-0.34-0.1-0.51
				c0.07-0.11,0.18-0.18,0.29-0.18c2.86-3.26,6.28-5.83,10.18-7.65c0.12-0.06,0.27-0.05,0.38,0.03c0.07,0.05,0.12,0.12,0.15,0.2
				c2.58,1.27,5.01,2.83,7.25,4.64c0.05,0.04,0.08,0.09,0.1,0.13c0.07,0.06,0.11,0.15,0.12,0.24c0.01,0.11-0.04,0.21-0.13,0.29
				c-3.89,3.26-6.97,6.4-9.4,9.6C92.03,143.29,91.92,143.34,91.8,143.34z M91.21,141.83c0.2,0.18,0.4,0.36,0.6,0.54
				c0.99-1.27,2.09-2.55,3.28-3.8l2.67-7.38c-0.67-0.43-1.33-0.84-1.98-1.21C94.54,134.01,93.01,137.99,91.21,141.83z M90.81,142.22
				l0.05,0.02c0-0.01,0-0.03,0-0.04l-0.19-0.03l0.12,0.06L90.81,142.22z M90.21,140.95c0.19,0.17,0.39,0.34,0.58,0.51
				c1.77-3.8,3.29-7.75,4.5-11.75c-0.19-0.1-0.38-0.21-0.57-0.31C93.6,133.37,92.08,137.25,90.21,140.95z M89.16,140.05
				c0.22,0.18,0.43,0.36,0.64,0.54c1.83-3.65,3.33-7.5,4.45-11.43c-0.14-0.07-0.27-0.14-0.41-0.21
				C92.56,132.76,90.99,136.49,89.16,140.05z M88.31,139.34c0.15,0.12,0.29,0.24,0.44,0.36c1.74-3.41,3.25-6.98,4.49-10.63
				c-0.2,0.1-0.4,0.2-0.59,0.3C91.49,132.8,90.03,136.15,88.31,139.34z M87.56,138.73l0.34,0.27c1.59-2.96,2.96-6.06,4.06-9.24
				c-0.15,0.08-0.3,0.17-0.44,0.26c0,0.02-0.01,0.04-0.02,0.06L87.56,138.73z M86.21,137.67c0.31,0.24,0.62,0.48,0.92,0.72l3.6-7.9
				c-0.72,0.45-1.42,0.93-2.09,1.43c0,0.03-0.01,0.06-0.02,0.08l-2.15,5.5c-0.03,0.09-0.11,0.15-0.21,0.17
				C86.24,137.67,86.23,137.67,86.21,137.67z M84.78,137.64C84.78,137.64,84.78,137.64,84.78,137.64L84.78,137.64z M98.21,131.49
				l-2.23,6.15c0.2-0.2,0.4-0.4,0.6-0.6l2-5.3C98.45,131.66,98.33,131.57,98.21,131.49z M85.4,137.05c0.19,0.14,0.37,0.28,0.56,0.42
				c-0.01-0.05-0.01-0.1,0.01-0.15l1.87-4.78c-0.18,0.14-0.35,0.29-0.53,0.43c0.01,0.06,0,0.13-0.04,0.18
				C86.52,134.38,85.89,135.69,85.4,137.05z M86.33,137.46L86.33,137.46C86.33,137.46,86.33,137.46,86.33,137.46z M86.1,137.36
				C86.1,137.36,86.1,137.36,86.1,137.36L86.1,137.36z M84.61,136.46c0.11,0.08,0.23,0.17,0.34,0.25c0.35-0.95,0.78-1.88,1.26-2.77
				c-0.29,0.27-0.58,0.54-0.86,0.82C85.05,135.27,84.79,135.85,84.61,136.46z M99.02,132.05l-1.56,4.14c0.34-0.32,0.67-0.63,1-0.93
				l1.01-2.89C99.32,132.27,99.17,132.16,99.02,132.05z M84.1,136.09l0.06,0.04c0.02-0.05,0.04-0.11,0.06-0.16
				C84.18,136.01,84.14,136.05,84.1,136.09z M83.44,136.09C83.45,136.09,83.45,136.09,83.44,136.09L83.44,136.09z M99.92,132.7
				l-0.15,0.43c-0.16,0.46-0.32,0.93-0.49,1.39c0.11-0.1,0.22-0.2,0.34-0.3l0.02-0.02c0.28-0.37,0.47-0.81,0.56-1.29
				C100.1,132.85,100.01,132.77,99.92,132.7z M100.66,133.28c-0.01,0.03-0.01,0.05-0.02,0.08c0.02-0.02,0.04-0.03,0.06-0.05
				C100.68,133.3,100.67,133.29,100.66,133.28z M100.59,132.77l-0.08,0.12l0.1-0.11C100.6,132.78,100.59,132.77,100.59,132.77z"/>
		</g>
		<g>
			<path class="st0" d="M126.54,154.14c0.01-0.13-0.19-0.26-0.32-0.14c-3.82,3.38-8.67,5.44-13.77,5.85c-0.04,0-0.07,0.02-0.1,0.04
				c-0.33-1.05-0.47-2.11-0.45-3.21c0-0.17-0.21-0.19-0.31-0.1c-1.44,1.28-2.87,2.55-4.31,3.83c-0.75,0.66-1.49,1.33-2.24,1.99
				c-0.42,0.37-1.26,1-1.48,1.51c-0.21,0.49,0.37,0.66,0.77,0.93c0.18,0.12,0.35,0.24,0.53,0.36c-0.01,0.06,0.06,0.12,0.11,0.07
				c0.2,0.14,0.41,0.27,0.61,0.41c0.01,0.03,0.04,0.05,0.08,0.05c0.75,0.5,1.5,1,2.26,1.49c0.43,0.28,0.86,0.56,1.29,0.84
				c0.01,0.04,0.05,0.07,0.09,0.06c0.23,0.15,0.47,0.3,0.7,0.46c0,0.04,0.05,0.08,0.1,0.06c0.26,0.17,0.52,0.35,0.78,0.52
				c-0.02,0.03-0.05,0.06-0.07,0.09c-0.06,0.07,0.07,0.14,0.12,0.07c0.02-0.03,0.04-0.06,0.06-0.08c0.63,0.42,1.25,0.84,1.88,1.27
				c0.1,0.07,0.27,0.05,0.29-0.1c0.1-0.77,0.21-1.54,0.31-2.31c7.45-0.18,13.36-6.37,13.2-13.78
				C126.66,154.21,126.6,154.16,126.54,154.14z M117.69,166.91C117.69,166.91,117.69,166.91,117.69,166.91
				c1.02-1.54,2.04-3.07,3.06-4.61c0.05-0.08-0.07-0.15-0.12-0.07c-1.02,1.54-2.04,3.07-3.06,4.61c-0.03,0.05,0,0.09,0.04,0.1
				c-1.08,0.39-2.22,0.65-3.41,0.74c1.34-1.89,2.68-3.78,4.02-5.68c0.05-0.07-0.07-0.15-0.12-0.07c-1.36,1.92-2.71,3.83-4.07,5.75
				c0,0,0,0.01-0.01,0.01c-0.19,0.01-0.37,0.02-0.56,0.03c-0.09-0.1-0.29-0.1-0.31,0.07c-0.1,0.75-0.2,1.5-0.3,2.26
				c-0.31-0.21-0.63-0.42-0.94-0.63c0,0,0.01-0.01,0.01-0.01c0.5-0.68,1.01-1.37,1.51-2.05c0.05-0.07-0.07-0.15-0.12-0.07
				c-0.5,0.68-1.01,1.37-1.51,2.05c0,0,0,0,0,0c-0.2-0.13-0.39-0.26-0.59-0.4c1.19-1.59,2.39-3.18,3.58-4.78
				c0.06-0.07-0.07-0.14-0.12-0.07c-1.19,1.59-2.38,3.18-3.58,4.77c-0.25-0.17-0.5-0.33-0.75-0.5c1.56-1.72,3.01-3.54,4.35-5.45
				c0.05-0.08-0.07-0.15-0.12-0.07c-1.33,1.91-2.78,3.73-4.34,5.45c-0.22-0.14-0.44-0.28-0.65-0.43c1.47-1.46,2.79-3.06,3.95-4.78
				c0.05-0.08-0.07-0.15-0.12-0.07c-1.16,1.71-2.48,3.31-3.95,4.77c-0.23-0.15-0.45-0.3-0.68-0.45c1.49-1.41,2.84-2.95,4.05-4.61
				c0.05-0.07-0.07-0.15-0.12-0.07c-1.2,1.66-2.56,3.2-4.05,4.6c-0.19-0.13-0.39-0.25-0.58-0.38c1.71-1.7,3.24-3.57,4.57-5.58
				c0.05-0.08-0.07-0.15-0.12-0.07c-1.33,2.01-2.87,3.87-4.57,5.57c-0.2-0.13-0.39-0.25-0.59-0.37c1.19-0.94,2.25-2.03,3.14-3.26
				c0.05-0.07-0.07-0.15-0.12-0.07c-0.9,1.22-1.96,2.31-3.15,3.25c-0.18-0.11-0.36-0.23-0.54-0.34c1.3-1.38,2.6-2.76,3.9-4.15
				c0.06-0.07-0.04-0.17-0.1-0.1c-1.31,1.39-2.62,2.78-3.92,4.17c-0.22-0.14-0.44-0.28-0.66-0.41c1.68-1.54,3.18-3.25,4.48-5.12
				c0.05-0.08-0.07-0.15-0.12-0.07c-1.3,1.87-2.81,3.58-4.49,5.11c-0.2-0.13-0.41-0.25-0.62-0.38c1.28-1.44,2.65-2.81,4.09-4.09
				c0.07-0.06-0.03-0.16-0.1-0.1c-1.45,1.29-2.82,2.67-4.11,4.11c-0.24-0.15-0.49-0.3-0.73-0.45c1.59-1.54,3.19-3.08,4.78-4.61
				c0.07-0.06-0.03-0.16-0.1-0.1c-1.6,1.55-3.21,3.09-4.81,4.64c-0.18-0.11-0.36-0.22-0.54-0.33c2.63-2.35,5.27-4.69,7.9-7.04
				c0.01,1.04,0.18,2.05,0.5,3.04c0.05,0.16,0.23,0.14,0.31,0.04c0.03,0.02,0.07,0.04,0.11,0.03c5.12-0.41,9.98-2.46,13.84-5.82
				C126.41,160.1,122.79,165.03,117.69,166.91z"/>
			<path class="st0" d="M112.99,170.73c-0.08,0-0.16-0.02-0.23-0.07c-0.55-0.38-1.11-0.75-1.67-1.13l-0.07-0.04
				c-0.05,0.04-0.12,0.06-0.19,0.05c-0.1-0.01-0.18-0.07-0.22-0.16c-0.02-0.05-0.03-0.11-0.01-0.17l-0.57-0.38
				c-0.03,0-0.07-0.02-0.1-0.03c-0.04-0.02-0.08-0.06-0.1-0.1l-0.6-0.4c-0.07-0.01-0.13-0.05-0.17-0.11l-0.35-0.23
				c-0.3-0.2-0.6-0.39-0.9-0.59c-0.75-0.48-1.49-0.97-2.23-1.46c-0.06-0.02-0.11-0.05-0.15-0.1l-0.5-0.33
				c-0.02,0-0.09-0.01-0.13-0.04c-0.05-0.03-0.09-0.08-0.11-0.13l-0.47-0.31c-0.08-0.05-0.16-0.1-0.24-0.15
				c-0.27-0.15-0.62-0.35-0.65-0.69l-0.01-0.01l0.01-0.01c-0.01-0.09,0.01-0.2,0.06-0.31c0.2-0.46,0.78-0.94,1.24-1.33
				c0.11-0.09,0.21-0.18,0.29-0.25l2.46-2.19c1.36-1.21,2.72-2.42,4.08-3.63c0.12-0.1,0.3-0.13,0.44-0.06
				c0.12,0.06,0.19,0.18,0.19,0.32c-0.03,1.02,0.1,2,0.38,2.97c5.03-0.41,9.86-2.47,13.61-5.79c0.12-0.11,0.29-0.13,0.44-0.05
				c0.09,0.05,0.15,0.11,0.19,0.2c0.09,0.06,0.15,0.16,0.15,0.29c0.17,7.47-5.75,13.71-13.22,13.97l-0.29,2.15
				c-0.02,0.12-0.09,0.23-0.2,0.27C113.1,170.72,113.05,170.73,112.99,170.73z M112.18,169.37l0.16,0.11
				c0.12,0.08,0.24,0.16,0.36,0.24c0.06-0.42,0.11-0.84,0.17-1.26L112.18,169.37z M111.48,168.9l0.27,0.18l1.4-1.9
				c0.09-0.12,0.26-0.14,0.38-0.05c0.12,0.09,0.14,0.24,0.05,0.36l-0.04,0.05c0.12,0,0.24-0.01,0.37-0.02l4.02-5.69
				c0.09-0.12,0.25-0.15,0.38-0.06c0.12,0.08,0.14,0.24,0.06,0.36l-3.77,5.33c0.94-0.11,1.87-0.32,2.77-0.63
				c0.01-0.03,0.02-0.06,0.04-0.09l3.06-4.61c0.05-0.08,0.15-0.11,0.24-0.12c0.1,0.01,0.18,0.06,0.23,0.15
				c0.04,0.08,0.03,0.18-0.02,0.26l-2.72,4.1c4.73-2,7.85-6.59,7.92-11.7c-3.83,3.21-8.66,5.19-13.63,5.59c-0.03,0-0.07,0-0.1-0.01
				c-0.08,0.04-0.16,0.06-0.25,0.04c-0.13-0.02-0.23-0.11-0.27-0.24c-0.29-0.87-0.45-1.77-0.5-2.68l-2.36,2.1
				c0.08-0.01,0.17,0.02,0.23,0.08c0.1,0.1,0.1,0.27,0,0.37l-4.6,4.44l0.38,0.23c1.27-1.42,2.62-2.76,4.02-4.01
				c0.11-0.1,0.28-0.09,0.38,0.03c0.04,0.05,0.06,0.11,0.06,0.17c0,0.07-0.03,0.14-0.09,0.19c-1.36,1.21-2.68,2.52-3.91,3.9
				l0.29,0.18c1.63-1.51,3.09-3.18,4.35-4.98c0.05-0.08,0.14-0.11,0.24-0.11c0.1,0.01,0.18,0.07,0.22,0.15
				c0.04,0.08,0.03,0.18-0.02,0.25c-1.26,1.8-2.71,3.47-4.32,4.98c0.06,0.04,0.13,0.08,0.19,0.12l0.11,0.07l3.81-4.05
				c0.06-0.07,0.16-0.1,0.25-0.08c0.09,0.02,0.17,0.09,0.2,0.19c0.03,0.09,0,0.19-0.06,0.25l-3.74,3.98l0.22,0.14
				c1.14-0.91,2.15-1.96,3.01-3.13c0.05-0.08,0.14-0.1,0.24-0.11c0.1,0.01,0.18,0.07,0.22,0.16c0.04,0.08,0.03,0.18-0.03,0.25
				c-0.85,1.16-1.85,2.21-2.97,3.13l0.23,0.14c1.66-1.66,3.15-3.49,4.44-5.43c0.08-0.12,0.25-0.16,0.37-0.07
				c0.12,0.08,0.15,0.24,0.07,0.36c-1.29,1.94-2.78,3.77-4.43,5.44c0.08,0.05,0.17,0.11,0.25,0.16c1.45-1.37,2.76-2.88,3.91-4.47
				c0.09-0.12,0.26-0.15,0.38-0.06c0.12,0.08,0.14,0.24,0.06,0.36c-1.16,1.6-2.47,3.1-3.89,4.47l0.35,0.23
				c1.42-1.42,2.7-2.98,3.82-4.63c0.06-0.08,0.16-0.12,0.24-0.12c0.1,0.01,0.18,0.07,0.23,0.15c0.04,0.08,0.03,0.18-0.02,0.25
				c-1.11,1.65-2.4,3.21-3.81,4.63l0.32,0.21c1.51-1.68,2.93-3.47,4.22-5.31c0.05-0.08,0.12-0.11,0.24-0.11
				c0.1,0.01,0.18,0.07,0.23,0.15c0.04,0.08,0.03,0.18-0.02,0.25c-1.28,1.84-2.7,3.63-4.21,5.31l0.41,0.27l3.47-4.62
				c0.09-0.12,0.26-0.14,0.38-0.05c0.11,0.09,0.14,0.24,0.05,0.35L111.48,168.9z M113.32,167.85c0,0.01,0,0.03,0,0.04h0.04
				L113.32,167.85z M103.96,164.1l0.19,0.12l3.91-3.77L103.96,164.1z M110.52,163.21C110.52,163.21,110.52,163.21,110.52,163.21
				C110.52,163.21,110.52,163.21,110.52,163.21z M113.35,162.98C113.35,162.98,113.35,162.98,113.35,162.98
				C113.35,162.98,113.35,162.98,113.35,162.98z M114.72,162.95L114.72,162.95L114.72,162.95z M110.62,161.9L110.62,161.9
				C110.62,161.9,110.62,161.9,110.62,161.9z M110.44,161.73L110.44,161.73L110.44,161.73z"/>
		</g>
		<g>
			<path class="st0" d="M99.42,157.96c-4.45,0.65-9,0.63-13.48,0.29c-0.14-0.01-0.19,0.11-0.16,0.22c-0.02,0.03-0.03,0.06-0.03,0.1
				c0.03,0.29,0.07,0.58,0.11,0.87c-0.01,0.05-0.01,0.11,0.02,0.15c0.36,2.53,0.97,5.01,1.82,7.42c-0.09,0.08-0.09,0.27,0.06,0.32
				c0.41,0.14,0.82,0.28,1.24,0.4c0.02,0.02,0.05,0.04,0.08,0.02c3.66,1.1,7.49,1.52,11.31,1.22c0.01,0,0.02-0.01,0.03-0.01
				c0.06,0.19,0.37,0.09,0.33-0.12c-0.62-3.49-1.02-7.02-1.2-10.56C99.71,158.2,99.62,157.93,99.42,157.96z M86.85,162.79
				c1.17-1.25,2.35-2.51,3.52-3.76c0.06-0.07-0.04-0.17-0.1-0.1c-1.15,1.23-2.31,2.46-3.46,3.69c-0.04-0.16-0.07-0.32-0.11-0.49
				c0.03,0.01,0.07,0.01,0.09-0.03c0.62-1.03,1.42-1.93,2.39-2.64c0.07-0.05,0-0.18-0.07-0.12c-0.98,0.73-1.81,1.63-2.43,2.68
				c-0.04-0.17-0.07-0.34-0.1-0.51c0.63-0.83,1.39-1.55,2.25-2.14c0.08-0.05,0-0.18-0.07-0.12c-0.84,0.58-1.58,1.27-2.21,2.08
				c-0.02-0.12-0.05-0.25-0.07-0.37c0.51-0.69,1.12-1.27,1.83-1.75c0.08-0.05,0-0.18-0.07-0.12c-0.69,0.47-1.28,1.03-1.79,1.69
				c-0.04-0.22-0.07-0.45-0.11-0.67c0.28-0.47,0.67-0.83,1.17-1.06c0.08-0.04,0.01-0.16-0.07-0.12c-0.47,0.22-0.85,0.55-1.13,0.97
				c-0.06-0.42-0.12-0.84-0.17-1.26c1.79,0.14,3.6,0.22,5.4,0.22c-0.27,0.26-0.53,0.53-0.79,0.8c-0.02-0.04-0.07-0.06-0.11-0.02
				c-1.28,1.22-2.48,2.53-3.58,3.92C86.97,163.29,86.91,163.04,86.85,162.79z M87.08,163.71c0.87-1.1,1.79-2.14,2.78-3.14
				c-0.96,1.05-1.87,2.15-2.74,3.29C87.1,163.81,87.09,163.76,87.08,163.71z M88.26,167.12c-0.05-0.02-0.1-0.03-0.15-0.05
				c0-0.01,0-0.01,0-0.02c-0.06-0.18-0.12-0.36-0.18-0.54c1.98-2.31,3.97-4.61,5.99-6.88c0.06-0.07-0.04-0.17-0.1-0.1
				c-2,2.26-3.99,4.53-5.95,6.83c-0.05-0.16-0.11-0.32-0.16-0.49c0.02,0,0.05,0,0.07-0.03c1.81-2.4,3.77-4.69,5.87-6.84
				c0.06-0.07-0.04-0.17-0.1-0.1c-2.1,2.16-4.06,4.44-5.87,6.85c-0.1-0.32-0.2-0.65-0.3-0.98c1.53-1.71,3.06-3.42,4.6-5.13
				c0.06-0.07-0.04-0.17-0.1-0.1c-1.51,1.69-3.03,3.38-4.54,5.07c-0.05-0.19-0.11-0.38-0.16-0.57c1.39-1.84,2.92-3.57,4.56-5.19
				c1.08,0,2.15-0.03,3.22-0.09c-1.95,2.98-4.18,5.77-6.67,8.32C88.26,167.09,88.26,167.1,88.26,167.12z M88.39,167.16
				c2.51-2.57,4.76-5.38,6.72-8.39c0.01-0.01,0.01-0.02,0.01-0.02c0.54-0.03,1.08-0.07,1.62-0.12c-2.42,3-4.93,5.93-7.52,8.79
				C88.94,167.34,88.66,167.25,88.39,167.16z M89.36,167.46c2.57-2.84,5.07-5.75,7.48-8.74c0.03-0.04,0.02-0.08-0.01-0.11
				c0.49-0.04,0.97-0.1,1.46-0.15c-2.64,3.09-5.27,6.19-7.91,9.28C90.04,167.66,89.7,167.56,89.36,167.46z M91.5,168.01
				c0.01-0.01,0.01-0.02,0.02-0.04c0.02-0.06-0.04-0.1-0.09-0.08c2.46-2.98,4.91-5.95,7.37-8.93c0.06-0.07-0.04-0.17-0.1-0.1
				c-2.5,3.03-5,6.05-7.5,9.08c-0.22-0.05-0.45-0.11-0.67-0.16c2.63-3.09,5.26-6.17,7.89-9.26c0.02-0.02,0.02-0.05,0.01-0.07
				c0.26-0.03,0.52-0.07,0.78-0.1c0.01,0.29,0.03,0.58,0.05,0.86c0,0,0,0,0,0c-2.33,3.11-4.87,6.06-7.58,8.84
				C91.63,168.04,91.57,168.02,91.5,168.01z M93.55,168.38c-0.57-0.08-1.13-0.18-1.7-0.3c2.66-2.73,5.14-5.62,7.43-8.66
				c0.02,0.34,0.05,0.67,0.07,1.01c-0.03-0.01-0.06,0-0.08,0.03c-1.97,2.73-4.19,5.27-6.63,7.6c-0.07,0.06,0.03,0.16,0.1,0.1
				c2.43-2.32,4.64-4.86,6.62-7.59c0.04,0.47,0.08,0.95,0.12,1.42c-1.98,2.12-3.95,4.24-5.93,6.36
				C93.55,168.37,93.55,168.38,93.55,168.38z M100.37,168.62c-0.45,0.03-0.9,0.06-1.35,0.07c0.38-0.46,0.76-0.93,1.14-1.39
				C100.22,167.74,100.29,168.18,100.37,168.62z M100.13,167.11c-0.43,0.53-0.86,1.06-1.3,1.59c-0.48,0.01-0.96,0.01-1.43,0
				c0.74-0.86,1.48-1.72,2.22-2.57c0.06-0.07-0.04-0.17-0.1-0.1c-0.74,0.86-1.48,1.72-2.23,2.58c-0.03,0.03-0.02,0.07,0,0.09
				c-0.46-0.01-0.91-0.03-1.36-0.06c1.18-1.28,2.42-2.49,3.71-3.64c0.07-0.06-0.03-0.16-0.1-0.1c-1.3,1.16-2.55,2.38-3.73,3.66
				c-0.02,0.02-0.02,0.05-0.01,0.07c-0.7-0.05-1.39-0.13-2.08-0.22c1.93-2.07,3.86-4.15,5.79-6.22
				C99.66,163.84,99.87,165.48,100.13,167.11z"/>
			<path class="st0" d="M97.98,169.26c-3.01,0-5.99-0.44-8.9-1.31c-0.04,0.02-0.12-0.02-0.16-0.05c-0.4-0.12-0.81-0.25-1.21-0.39
				c-0.13-0.05-0.22-0.15-0.25-0.29c-0.02-0.09,0-0.18,0.03-0.25c-0.83-2.36-1.43-4.83-1.8-7.33c-0.03-0.07-0.04-0.14-0.03-0.22
				c-0.04-0.28-0.08-0.56-0.11-0.84c-0.01-0.06,0-0.11,0.02-0.16c-0.01-0.1,0.02-0.19,0.08-0.26c0.07-0.08,0.16-0.12,0.29-0.12
				c5.06,0.4,9.45,0.3,13.43-0.29h0c0.18-0.01,0.36,0.08,0.42,0.26c0.04,0.12,0.02,0.24-0.04,0.33c0.18,3.5,0.58,7.02,1.19,10.45
				c0.03,0.2-0.09,0.39-0.29,0.43c-0.12,0.03-0.24,0-0.33-0.07C99.56,169.23,98.77,169.26,97.98,169.26z M100.62,168.9L100.62,168.9
				C100.62,168.9,100.62,168.9,100.62,168.9z M97.81,168.52c0.3,0,0.61,0,0.92-0.01l1.19-1.45c-0.04-0.28-0.09-0.56-0.13-0.85
				c-0.01,0.02-0.02,0.03-0.03,0.05L97.81,168.52z M96.34,168.47c0.26,0.01,0.52,0.03,0.78,0.03c0,0,0.01-0.01,0.01-0.02l2.23-2.59
				c0.1-0.11,0.26-0.12,0.36-0.02c0.01,0,0.01,0.01,0.02,0.02c-0.03-0.22-0.06-0.44-0.09-0.66
				C98.51,166.26,97.4,167.35,96.34,168.47z M100.03,167.76l-0.59,0.72c0.23-0.01,0.47-0.02,0.71-0.04
				C100.11,168.22,100.07,167.99,100.03,167.76z M94.11,168.27c0.52,0.07,1.04,0.12,1.55,0.16l0,0c1.18-1.28,2.44-2.52,3.75-3.68
				c0.05-0.05,0.11-0.07,0.18-0.07c0,0,0,0,0,0c-0.09-0.68-0.16-1.37-0.23-2.05L94.11,168.27z M93.08,168.11
				c0.13,0.02,0.26,0.04,0.39,0.06l5.82-6.25c-0.02-0.27-0.05-0.55-0.07-0.82C97.37,163.61,95.31,165.96,93.08,168.11z
				 M92.24,167.96c0.07,0.02,0.14,0.03,0.22,0.04c0.01-0.03,0.03-0.06,0.06-0.09c2.42-2.31,4.64-4.86,6.6-7.57
				c0.01-0.02,0.02-0.03,0.03-0.04c-0.01-0.12-0.02-0.24-0.03-0.36C96.99,162.75,94.67,165.44,92.24,167.96z M90.89,167.67
				c0.08,0.02,0.16,0.04,0.25,0.06l7.42-8.99c0.06-0.07,0.15-0.11,0.24-0.09c0.09,0.02,0.17,0.08,0.21,0.18
				c0.03,0.09,0.02,0.19-0.05,0.26l-6.59,7.98c2.39-2.52,4.65-5.18,6.71-7.92c-0.01-0.2-0.02-0.39-0.03-0.58
				c-0.15,0.02-0.3,0.04-0.45,0.06c0,0.01-0.01,0.01-0.02,0.02L90.89,167.67z M89.71,167.36c0.2,0.06,0.4,0.11,0.6,0.16l7.51-8.81
				c-0.27,0.03-0.53,0.06-0.8,0.08c-0.01,0.02-0.02,0.03-0.03,0.05C94.68,161.72,92.23,164.58,89.71,167.36z M88.75,167.07
				c0.13,0.04,0.27,0.09,0.4,0.13c2.45-2.7,4.85-5.5,7.15-8.34c-0.36,0.03-0.71,0.05-1.07,0.07
				C93.33,161.84,91.15,164.58,88.75,167.07z M87.91,167.09l-0.08,0.06c0.03,0.01,0.06,0.02,0.1,0.03l-0.02-0.08
				C87.92,167.1,87.91,167.1,87.91,167.09z M88.14,166.55l0.03,0.1c0.02,0.06,0.04,0.13,0.06,0.19c2.11-2.17,4.04-4.53,5.77-7.02
				C92.05,162.01,90.08,164.27,88.14,166.55z M87.93,165.95l0.01,0.02c1.91-2.24,3.84-4.45,5.72-6.57c0.1-0.11,0.26-0.11,0.37-0.02
				c0.08,0.07,0.11,0.18,0.08,0.28c0.16-0.23,0.31-0.46,0.46-0.69c-0.24,0.01-0.48,0.02-0.72,0.03c-0.01,0.05-0.03,0.1-0.07,0.13
				C91.69,161.28,89.72,163.57,87.93,165.95z M87.59,164.82c0.05,0.17,0.1,0.34,0.15,0.51c1.68-2.2,3.5-4.32,5.42-6.31
				c-0.45,0.01-0.9,0.02-1.35,0.02c-1.59,1.57-3.08,3.27-4.43,5.04c0.01,0.05,0.03,0.09,0.04,0.14l4.31-4.81
				c0.06-0.07,0.16-0.1,0.24-0.08c0.09,0.02,0.17,0.09,0.2,0.18c0.03,0.09,0.01,0.19-0.05,0.26L87.59,164.82z M87.06,162.84
				c0.02,0.09,0.05,0.18,0.07,0.28c1.05-1.29,2.17-2.51,3.35-3.63c0.06-0.05,0.14-0.07,0.2-0.07c0.12-0.13,0.25-0.26,0.37-0.38
				c-0.16,0-0.32,0-0.48-0.01c-0.01,0.05-0.03,0.09-0.07,0.13L87.06,162.84z M89.07,159.13l0.21,0.02l0.08,0.08
				c0.04,0.05,0.06,0.12,0.05,0.19c-0.01,0.08-0.05,0.15-0.11,0.19c-0.92,0.68-1.69,1.52-2.29,2.51l2.92-3.12
				c-0.49-0.01-0.98-0.03-1.48-0.05c0.01,0.01,0.02,0.02,0.03,0.03c0.04,0.06,0.05,0.13,0.04,0.19c0.04-0.03,0.09-0.06,0.13-0.09
				c0.07-0.05,0.17-0.06,0.25-0.02c0.05,0.02,0.09,0.06,0.11,0.1L89.07,159.13z M86.53,160.13c0.01,0.06,0.02,0.12,0.03,0.18
				c0.45-0.53,0.96-0.99,1.53-1.38c-0.12-0.01-0.24-0.01-0.37-0.02c0.01,0.03,0.01,0.05,0.01,0.08c-0.01,0.09-0.06,0.17-0.15,0.21
				C87.14,159.41,86.78,159.73,86.53,160.13z M92.01,159.66L92.01,159.66L92.01,159.66z M86.34,158.83
				c0.02,0.19,0.05,0.39,0.08,0.58c0.19-0.21,0.41-0.39,0.65-0.53C86.83,158.86,86.58,158.85,86.34,158.83z M87.51,159.08
				C87.51,159.08,87.51,159.08,87.51,159.08C87.51,159.08,87.51,159.08,87.51,159.08z M93.68,159.03
				C93.68,159.03,93.68,159.03,93.68,159.03C93.68,159.03,93.68,159.03,93.68,159.03z M98.65,158.84
				C98.65,158.84,98.65,158.84,98.65,158.84L98.65,158.84z"/>
		</g>
		<g>
			<path class="st0" d="M85.88,151.66c0.01-0.04,0-0.07-0.01-0.1c1.1,0.03,2.15,0.23,3.18,0.61c0.16,0.06,0.25-0.14,0.2-0.26
				c-0.76-1.76-1.51-3.52-2.27-5.28c-0.39-0.91-0.78-1.83-1.18-2.74c-0.22-0.52-0.54-1.51-0.96-1.88c-0.4-0.35-0.74,0.14-1.12,0.43
				c-1.13,0.87-2.27,1.74-3.39,2.63c-1.54,1.23-3.1,2.44-4.68,3.62c-0.1,0.07-0.13,0.24,0,0.31c0.7,0.34,1.4,0.69,2.1,1.03
				c0,0,0,0,0,0.01c-0.16,0.15-0.31,0.31-0.47,0.47c-0.06,0.07,0.04,0.17,0.1,0.1c0.09-0.1,0.19-0.2,0.29-0.29
				c-0.14,0.5-0.25,0.99-0.34,1.49c-0.07,0.08-0.14,0.16-0.2,0.24c-0.06,0.07,0.04,0.17,0.1,0.1c0.02-0.02,0.04-0.04,0.06-0.07
				c-0.06,0.41-0.1,0.82-0.12,1.23c-0.03,0.03-0.04,0.08,0,0.11c-0.02,0.5-0.01,0.99,0.02,1.48c-0.02,0.02-0.04,0.05-0.07,0.07
				c-0.06,0.06,0.02,0.15,0.08,0.11c0.1,1.21,0.36,2.39,0.77,3.51c-0.01,0.01-0.03,0.03-0.04,0.04c-0.06,0.06,0.03,0.16,0.09,0.11
				c0.2,0.53,0.43,1.05,0.69,1.55c-0.02,0.02-0.04,0.04-0.06,0.06c-0.06,0.07,0.04,0.17,0.1,0.1c0.01-0.01,0.02-0.02,0.03-0.03
				c0.31,0.58,0.67,1.13,1.06,1.66c-0.03,0.03-0.05,0.06-0.08,0.09c-0.06,0.07,0.04,0.17,0.1,0.1c0.02-0.02,0.04-0.05,0.07-0.07
				c0.46,0.6,0.96,1.16,1.51,1.68c-0.02,0.03-0.05,0.05-0.07,0.08c-0.06,0.07,0.04,0.17,0.1,0.1c0.03-0.03,0.05-0.06,0.08-0.09
				c1.41,1.29,3.12,2.31,5.06,2.91c0.09,0.03,0.15-0.01,0.19-0.07c0.12,0.05,0.3-0.09,0.23-0.26
				C85.06,161.84,84.65,156.6,85.88,151.66z M85.74,166.15c0.09-0.13,0.18-0.26,0.27-0.38c0.05-0.07-0.07-0.15-0.12-0.07
				c-0.1,0.13-0.19,0.27-0.29,0.4c-0.26-0.11-0.51-0.22-0.76-0.34c0.11-0.11,0.23-0.23,0.34-0.34c0.06-0.06-0.04-0.17-0.1-0.1
				c-0.12,0.12-0.25,0.25-0.37,0.37c-0.57-0.29-1.11-0.61-1.62-0.97c0.02,0,0.04-0.01,0.06-0.03c0.47-0.62,0.95-1.25,1.42-1.87
				c0.06-0.07-0.07-0.14-0.12-0.07c-0.47,0.62-0.95,1.25-1.42,1.87c-0.01,0.02-0.01,0.03-0.01,0.04c-0.27-0.2-0.54-0.4-0.79-0.61
				c0.64-0.41,1.14-0.98,1.45-1.68c0.04-0.08-0.09-0.16-0.12-0.07c-0.31,0.69-0.79,1.26-1.44,1.65c0,0,0,0,0,0
				c-0.11-0.09-0.21-0.19-0.31-0.28c0.57-0.66,1.14-1.32,1.71-1.98c0.06-0.07-0.04-0.17-0.1-0.1c-0.57,0.66-1.15,1.33-1.72,1.99
				c-0.19-0.18-0.38-0.37-0.56-0.56c0.52-0.62,1.05-1.24,1.57-1.87c0.06-0.07-0.04-0.17-0.1-0.1c-0.52,0.62-1.05,1.24-1.57,1.86
				c-0.19-0.2-0.37-0.41-0.54-0.62c0.72-0.52,1.32-1.18,1.76-1.96c0.05-0.08-0.08-0.15-0.12-0.07c-0.43,0.76-1.02,1.41-1.73,1.93
				c-0.07-0.09-0.14-0.19-0.21-0.28c0.63-0.72,1.27-1.44,1.9-2.16c0.06-0.07-0.04-0.17-0.1-0.1c-0.63,0.72-1.26,1.43-1.89,2.15
				c-0.19-0.25-0.36-0.51-0.53-0.77c0.54-0.49,1.08-0.97,1.62-1.46c0.07-0.06-0.03-0.16-0.1-0.1c-0.53,0.48-1.06,0.96-1.6,1.44
				c-0.15-0.25-0.3-0.5-0.44-0.76c0.83-0.85,1.65-1.7,2.47-2.55c0.06-0.07-0.04-0.17-0.1-0.1c-0.81,0.84-1.63,1.68-2.44,2.52
				c-0.12-0.23-0.23-0.46-0.33-0.69c0.54-0.54,1.09-1.09,1.63-1.63c0.07-0.06-0.04-0.17-0.1-0.1c-0.53,0.53-1.06,1.06-1.6,1.6
				c-0.1-0.24-0.2-0.48-0.29-0.72c0.86-0.86,1.72-1.72,2.58-2.58c0.06-0.06-0.04-0.17-0.1-0.1c-0.84,0.84-1.69,1.69-2.53,2.53
				c-0.1-0.29-0.19-0.59-0.27-0.89c0.02,0.01,0.05,0.01,0.07-0.02c0.71-0.71,1.42-1.43,2.13-2.14c0.06-0.06-0.04-0.17-0.1-0.1
				c-0.71,0.71-1.42,1.43-2.13,2.14c0,0,0,0,0,0c-0.1-0.37-0.18-0.76-0.25-1.14c0.02,0.01,0.05,0.01,0.08-0.01
				c0.02-0.02,0.03-0.04,0.05-0.05c0,0,0,0,0,0c0.05,0,0.07-0.04,0.07-0.07c0.91-0.93,1.82-1.87,2.73-2.81
				c0.06-0.07-0.04-0.17-0.1-0.1c-0.95,0.98-1.9,1.95-2.85,2.93c-0.07-0.44-0.12-0.88-0.15-1.32c0.82-0.86,1.65-1.72,2.47-2.59
				c0.06-0.07-0.04-0.17-0.1-0.1c-0.79,0.83-1.59,1.66-2.38,2.49c-0.02-0.51-0.01-1.01,0.03-1.53c0.99-0.92,1.98-1.84,2.97-2.75
				c0.07-0.06-0.03-0.16-0.1-0.1c-0.95,0.88-1.9,1.76-2.86,2.65c0.04-0.42,0.1-0.84,0.18-1.26c0.85-0.95,1.81-1.79,2.88-2.49
				c0.08-0.05,0.01-0.17-0.07-0.12c-1.01,0.66-1.94,1.45-2.76,2.34c0.08-0.38,0.18-0.76,0.29-1.14c0.11-0.04,0.17-0.21,0.07-0.29
				c0.78-0.73,1.61-1.39,2.49-1.99c0.08-0.05,0-0.17-0.07-0.12c-0.91,0.61-1.76,1.29-2.55,2.04c-0.24-0.12-0.48-0.24-0.72-0.35
				c1.36-1.02,2.72-2.04,4.09-3.06c0.07-0.05,0-0.18-0.07-0.12c-1.39,1.04-2.77,2.08-4.16,3.12c-0.17-0.08-0.34-0.17-0.5-0.25
				c1.26-1.08,2.62-2.04,4.06-2.87c0.08-0.05,0.01-0.17-0.07-0.12c-1.47,0.84-2.84,1.82-4.13,2.92c-0.15-0.07-0.3-0.15-0.45-0.22
				c2.91-2.18,5.75-4.45,8.53-6.79c1.39,3.23,2.77,6.47,4.16,9.7c-0.99-0.32-2-0.48-3.04-0.5c-0.16,0-0.21,0.18-0.14,0.28
				c-0.03,0.02-0.06,0.05-0.07,0.1c-1.24,4.96-0.83,10.19,1.12,14.91C86.35,166.39,86.04,166.28,85.74,166.15z"/>
			<path class="st0" d="M86.69,167.06c-0.04,0-0.08-0.01-0.12-0.02c-1.86-0.58-3.54-1.53-4.99-2.83c-0.09,0.06-0.21,0.05-0.3-0.03
				c-0.1-0.08-0.12-0.21-0.07-0.32c-0.45-0.43-0.88-0.91-1.29-1.42c-0.04,0.01-0.09,0.02-0.13,0.01c-0.09-0.02-0.17-0.09-0.2-0.18
				c-0.03-0.08-0.02-0.16,0.03-0.23c-0.33-0.45-0.63-0.92-0.9-1.41c-0.06,0-0.12-0.03-0.17-0.07c-0.09-0.09-0.11-0.22-0.05-0.32
				c-0.21-0.42-0.41-0.86-0.59-1.33c-0.04-0.02-0.08-0.04-0.11-0.07c-0.08-0.09-0.09-0.21-0.04-0.3c-0.38-1.07-0.63-2.19-0.73-3.32
				c-0.02-0.02-0.04-0.03-0.06-0.06c-0.08-0.11-0.07-0.25,0.02-0.34l0.01-0.01c-0.03-0.46-0.03-0.92-0.02-1.36
				c-0.02-0.04-0.02-0.08-0.02-0.12s0.01-0.08,0.03-0.11c0.02-0.31,0.05-0.61,0.08-0.91c-0.01-0.01-0.02-0.02-0.03-0.03
				c-0.05-0.04-0.09-0.1-0.1-0.16c-0.02-0.08,0.01-0.16,0.05-0.22c0.05-0.06,0.09-0.11,0.14-0.17l0.03-0.04
				c0.05-0.3,0.11-0.6,0.18-0.9l0,0c0,0-0.01,0-0.01,0c-0.06,0-0.12-0.03-0.17-0.07c-0.11-0.1-0.11-0.27-0.01-0.37
				c0.09-0.1,0.19-0.19,0.29-0.29l-1.86-0.91c-0.11-0.05-0.18-0.16-0.2-0.28c-0.01-0.13,0.05-0.27,0.16-0.36
				c1.59-1.19,3.16-2.4,4.68-3.62c1.11-0.88,2.25-1.76,3.36-2.6c0.1-0.08,0.18-0.14,0.25-0.21c0.23-0.21,0.54-0.47,0.86-0.4
				l0.01-0.01l0.01,0.01c0.09,0.02,0.18,0.07,0.27,0.16c0.37,0.33,0.64,1.03,0.87,1.59c0.05,0.13,0.1,0.26,0.15,0.36l3.44,8.03
				c0.06,0.14,0.03,0.32-0.08,0.44c-0.1,0.1-0.23,0.13-0.36,0.08c-0.96-0.35-1.92-0.54-2.93-0.59c-1.2,4.87-0.79,10.08,1.17,14.68
				c0.06,0.15,0.03,0.31-0.09,0.43c-0.07,0.07-0.16,0.11-0.25,0.11C86.84,167.03,86.77,167.06,86.69,167.06z M86.04,166.07
				c0.1,0.04,0.19,0.07,0.28,0.1c-0.04-0.11-0.08-0.21-0.13-0.32c0,0.01-0.01,0.02-0.02,0.03L86.04,166.07z M85.18,165.7
				c0.12,0.05,0.24,0.11,0.36,0.16l0.2-0.28c0.08-0.11,0.21-0.14,0.33-0.09c-1.6-4.47-1.86-9.38-0.72-13.97
				c0.01-0.03,0.02-0.06,0.03-0.09c-0.02-0.08,0-0.18,0.04-0.25c0.06-0.11,0.18-0.18,0.32-0.18c0,0,0,0,0,0
				c0.93,0.01,1.82,0.14,2.7,0.39l-3.89-9.08c-2.64,2.22-5.36,4.38-8.09,6.44l0.05,0.03c1.27-1.08,2.64-2.04,4.06-2.86
				c0.13-0.08,0.29-0.03,0.36,0.1c0.05,0.08,0.05,0.17,0.01,0.24l0.28-0.21c0.12-0.09,0.27-0.06,0.36,0.05
				c0.09,0.12,0.07,0.29-0.05,0.38l-3.83,2.88l0.31,0.15c0.77-0.72,1.6-1.38,2.48-1.97l0.07-0.05l0.2,0.03l0.08,0.09
				c0.08,0.13,0.05,0.29-0.07,0.37c-0.83,0.56-1.62,1.18-2.36,1.87c0.01,0.04,0.01,0.09,0,0.14c-0.02,0.1-0.07,0.19-0.15,0.24
				c-0.04,0.12-0.07,0.25-0.11,0.38c0.7-0.69,1.47-1.32,2.3-1.86c0.08-0.05,0.17-0.06,0.26-0.02c0.09,0.04,0.14,0.13,0.15,0.23
				c0,0.1-0.04,0.18-0.12,0.24c-1.03,0.68-1.98,1.49-2.81,2.41c-0.04,0.23-0.08,0.45-0.11,0.68c0.82-0.77,1.65-1.53,2.48-2.29
				c0.11-0.1,0.27-0.09,0.37,0.02c0.1,0.11,0.1,0.27-0.01,0.37l-2.91,2.7c-0.02,0.32-0.03,0.64-0.03,0.96l2.06-2.15
				c0.05-0.06,0.12-0.09,0.2-0.08c0.06,0,0.12,0.03,0.17,0.07c0.11,0.1,0.11,0.27,0.01,0.37l-2.41,2.52
				c0.02,0.27,0.05,0.55,0.08,0.83l2.58-2.65c0.05-0.05,0.13-0.09,0.2-0.08c0.06,0,0.12,0.03,0.17,0.07
				c0.11,0.1,0.11,0.27,0.01,0.37l-2.7,2.77c-0.01,0.03-0.03,0.06-0.06,0.09c-0.03,0.03-0.07,0.05-0.11,0.07l0,0l0,0l0,0
				c0.04,0.22,0.08,0.43,0.13,0.64l1.9-1.9c0.07-0.07,0.16-0.09,0.25-0.07c0.09,0.03,0.17,0.1,0.19,0.19c0.02,0.09,0,0.18-0.07,0.25
				l-2.11,2.12c0.04,0.14,0.08,0.29,0.13,0.43l2.31-2.31c0.07-0.07,0.16-0.09,0.25-0.07c0.09,0.03,0.17,0.1,0.19,0.19
				c0.02,0.09,0,0.18-0.07,0.25l-2.49,2.49c0.04,0.11,0.08,0.22,0.13,0.33l1.39-1.39c0.05-0.05,0.13-0.07,0.2-0.08
				c0.06,0,0.12,0.03,0.17,0.08c0.05,0.05,0.07,0.11,0.08,0.17c0,0.07-0.02,0.15-0.08,0.2l-1.54,1.54c0.05,0.11,0.1,0.21,0.15,0.32
				l2.25-2.33c0.05-0.05,0.12-0.07,0.2-0.08c0.06,0,0.12,0.03,0.17,0.07c0.05,0.05,0.08,0.1,0.08,0.17
				c0.01,0.08-0.02,0.15-0.07,0.21c-0.79,0.82-1.59,1.64-2.38,2.45c0.08,0.14,0.16,0.28,0.24,0.42l1.42-1.28
				c0.11-0.1,0.27-0.09,0.38,0.02c0.04,0.05,0.07,0.11,0.07,0.17c0,0.07-0.03,0.14-0.09,0.2c-0.5,0.45-1,0.9-1.5,1.35
				c0.09,0.14,0.19,0.29,0.29,0.43l1.79-2.03l0.21-0.02l0.1,0.06c0.11,0.1,0.13,0.27,0.03,0.38l-0.16,0.19
				c0.07-0.03,0.17-0.03,0.24,0.01c0.06,0.03,0.1,0.08,0.12,0.14c0.03,0.07,0.02,0.15-0.02,0.22c-0.42,0.74-0.97,1.38-1.65,1.9
				c0.08,0.1,0.17,0.2,0.26,0.3l1.48-1.76l0.21-0.03l0.1,0.06c0.12,0.1,0.13,0.27,0.03,0.38l-1.46,1.73c0.1,0.1,0.19,0.2,0.29,0.29
				l1.64-1.9l0.21-0.02l0.1,0.06c0.11,0.1,0.13,0.27,0.03,0.38l-1.59,1.84c0.02,0.02,0.04,0.04,0.06,0.06
				c0.55-0.37,0.97-0.87,1.25-1.49c0.06-0.13,0.2-0.19,0.34-0.13c0.14,0.06,0.2,0.22,0.14,0.35c-0.29,0.65-0.74,1.2-1.31,1.62
				c0.13,0.11,0.27,0.22,0.42,0.32l1.33-1.75c0.09-0.12,0.26-0.14,0.38-0.05c0.11,0.09,0.14,0.24,0.05,0.35l-1.34,1.75
				c0.41,0.28,0.84,0.53,1.28,0.76l0.27-0.27c0.1-0.1,0.27-0.1,0.37,0c0.1,0.11,0.1,0.27,0,0.37L85.18,165.7z M81.93,160.21
				l-1.49,1.69C81.04,161.44,81.54,160.88,81.93,160.21z M82.55,161.02L82.55,161.02L82.55,161.02z M82.14,159.76L82.14,159.76
				C82.14,159.76,82.14,159.76,82.14,159.76z M81.22,159.59L81.22,159.59L81.22,159.59z M81.57,157.61L81.57,157.61
				C81.57,157.61,81.57,157.61,81.57,157.61z M80.75,155.73C80.75,155.73,80.75,155.73,80.75,155.73L80.75,155.73z M80.05,155.12
				C80.05,155.12,80.05,155.12,80.05,155.12L80.05,155.12z M77.27,155.08L77.27,155.08C77.27,155.08,77.27,155.08,77.27,155.08z
				 M80.68,153.24L80.68,153.24C80.68,153.25,80.68,153.25,80.68,153.24z M77.29,152.15C77.29,152.15,77.29,152.15,77.29,152.15
				C77.29,152.15,77.29,152.15,77.29,152.15z M77.09,152C77.09,152,77.09,152.01,77.09,152L77.09,152z M80.56,150.29L80.56,150.29
				L80.56,150.29z M77.02,149.03l0.13,0.06l3.47-2.6C79.36,147.23,78.16,148.09,77.02,149.03z M80.67,149.08L80.67,149.08
				L80.67,149.08z M80.53,148.88L80.53,148.88L80.53,148.88z"/>
		</g>
		<g>
			<path class="st0" d="M113.34,148.28c-0.04,0.06-0.04,0.14,0.02,0.21c0.16,0.17,0.31,0.35,0.45,0.53
				c-0.02,0.04-0.04,0.08-0.05,0.12c-0.04,0.08,0.08,0.16,0.12,0.07c0.01-0.02,0.02-0.04,0.03-0.06c2.01,2.48,3.29,5.41,5,8.1
				c0.01,0.01,0.02,0.02,0.03,0.03c-0.02,0.02-0.03,0.04-0.05,0.07c0,0,0,0.01,0,0.01c-0.05,0.12,0.1,0.27,0.22,0.22
				c0.35-0.14,0.54-0.32,0.91-0.44c0.79-0.25,1.55-0.58,2.29-0.96c1.5-0.78,2.85-1.81,4.03-3.03c0.03-0.03,0.04-0.06,0.05-0.09
				c0.1,0.01,0.2-0.04,0.19-0.17c-0.41-4.65-2.04-9.1-4.77-12.89c-0.12-0.16-0.37-0.05-0.34,0.11c-0.02,0.01-0.05,0.03-0.07,0.06
				c-2.17,3.15-4.95,5.79-8.2,7.8C113.02,148.07,113.16,148.34,113.34,148.28z M116.9,145.68c-0.58,1.39-1.16,2.78-1.75,4.17
				c-0.04,0.08,0.1,0.12,0.14,0.04c0.59-1.4,1.17-2.8,1.76-4.19c0.02-0.05-0.02-0.08-0.07-0.08c0.54-0.47,1.06-0.96,1.56-1.47
				c-1.2,2.09-2.14,4.3-2.8,6.62c-0.03,0.09,0.11,0.13,0.14,0.04c0.69-2.42,1.69-4.74,2.97-6.91c0.01-0.02,0.01-0.05,0-0.07
				c1.02-1.06,1.95-2.21,2.8-3.43c0.57,0.81,1.09,1.65,1.56,2.52c-1.59,3.5-3.18,7.01-4.77,10.51c-0.04,0.08,0.09,0.16,0.12,0.07
				c1.58-3.48,3.15-6.95,4.73-10.43c0.17,0.31,0.32,0.63,0.47,0.94c-0.08,0.01-0.08,0.14,0.01,0.14c0.02,0,0.04-0.01,0.05-0.02
				c0.19,0.4,0.37,0.81,0.54,1.22c-0.06,0.03-0.05,0.14,0.03,0.14c0.01,0,0.02,0,0.02,0c0.95,2.34,1.55,4.81,1.78,7.34
				c-0.04,0-0.08,0.01-0.12,0.05c-1.12,1.16-2.4,2.15-3.83,2.9c-0.75,0.4-1.53,0.73-2.33,0.99c-0.21,0.07-0.44,0.11-0.63,0.21
				c-0.03,0.02-0.06,0.04-0.08,0.06c0,0,0,0,0,0c-1.59-2.5-2.81-5.2-4.59-7.57c0.29-0.97,0.65-1.92,1.08-2.84
				C116.12,146.34,116.52,146.02,116.9,145.68z M115.48,146.83c-0.37,0.82-0.69,1.66-0.95,2.52c-0.15-0.19-0.3-0.38-0.45-0.57
				c0.22-0.47,0.44-0.94,0.66-1.41C114.99,147.19,115.24,147.01,115.48,146.83z M114.51,147.53c-0.18,0.38-0.35,0.75-0.53,1.13
				c-0.12-0.14-0.24-0.28-0.37-0.42c-0.03-0.04-0.07-0.05-0.11-0.05C113.84,147.97,114.18,147.75,114.51,147.53z"/>
			<path class="st0" d="M119.06,157.77c-0.1,0-0.19-0.04-0.26-0.12c-0.1-0.11-0.14-0.25-0.09-0.38c-0.61-0.96-1.18-1.98-1.73-2.96
				c-0.93-1.66-1.88-3.37-3.09-4.89c-0.02,0-0.04,0.01-0.06,0.01c-0.09,0-0.17-0.04-0.22-0.12c-0.05-0.08-0.06-0.18-0.02-0.27l0,0
				c-0.12-0.14-0.24-0.29-0.37-0.43c-0.05-0.05-0.08-0.11-0.09-0.18c-0.05-0.03-0.1-0.06-0.13-0.11l-0.11-0.01l0.08-0.05
				c0,0,0,0,0-0.01c-0.08-0.17-0.03-0.37,0.14-0.47c3.25-2.01,5.99-4.61,8.14-7.75c0.01-0.02,0.02-0.03,0.04-0.05
				c0.03-0.11,0.11-0.2,0.22-0.25c0.16-0.07,0.35-0.02,0.46,0.13c2.73,3.81,4.39,8.3,4.8,12.99c0.01,0.11-0.03,0.21-0.1,0.28
				c-0.04,0.04-0.09,0.07-0.14,0.08c-0.01,0.02-0.02,0.03-0.04,0.05c-1.22,1.26-2.6,2.29-4.08,3.07c-0.79,0.41-1.56,0.74-2.31,0.97
				c-0.18,0.06-0.32,0.14-0.47,0.22c-0.13,0.07-0.26,0.15-0.43,0.22C119.14,157.76,119.1,157.77,119.06,157.77z M119.21,157.29
				l-0.13,0.12c0.05-0.04,0.1-0.07,0.16-0.1L119.21,157.29z M119.68,157.06c-0.1,0.03-0.2,0.06-0.28,0.11l-0.08,0.09
				c0.03-0.02,0.07-0.04,0.11-0.06C119.51,157.15,119.59,157.1,119.68,157.06z M115.92,151.02c0.61,0.96,1.16,1.95,1.7,2.91
				c0.53,0.94,1.07,1.92,1.66,2.85c0.13-0.06,0.26-0.1,0.4-0.13c0.06-0.02,0.13-0.03,0.19-0.06c0.79-0.26,1.57-0.59,2.3-0.98
				c1.37-0.73,2.65-1.69,3.78-2.87c0.02-0.02,0.04-0.03,0.06-0.05c-0.23-2.42-0.81-4.79-1.71-7.05c-0.07-0.03-0.12-0.1-0.14-0.18
				c-0.01-0.05-0.01-0.1,0.01-0.14c-0.13-0.32-0.28-0.65-0.44-1c-0.11-0.03-0.19-0.12-0.19-0.24c0-0.04,0.01-0.09,0.02-0.12
				c-0.08-0.16-0.15-0.31-0.23-0.46l-4.57,10.07c-0.04,0.08-0.11,0.14-0.2,0.15c-0.11,0-0.19-0.03-0.25-0.11
				c-0.06-0.08-0.07-0.18-0.03-0.27l4.73-10.42c-0.41-0.74-0.86-1.48-1.35-2.19c-0.79,1.11-1.66,2.18-2.6,3.16
				c0,0.03-0.02,0.06-0.03,0.09c-1.27,2.15-2.27,4.46-2.96,6.86C116.05,150.93,115.99,150.99,115.92,151.02z M118.4,153.42
				L118.4,153.42L118.4,153.42z M115.32,150.11c0.1,0.14,0.2,0.29,0.29,0.43c0.54-1.85,1.27-3.65,2.16-5.38
				c-0.17,0.16-0.35,0.32-0.52,0.47c0,0.04,0,0.09-0.02,0.13l-1.76,4.19C115.44,150.03,115.39,150.09,115.32,150.11z M114.85,149.45
				c0.06,0.08,0.11,0.16,0.17,0.23l1.4-3.34c-0.18,0.15-0.36,0.29-0.55,0.43C115.47,147.63,115.13,148.53,114.85,149.45z
				 M113.71,149.12C113.71,149.12,113.71,149.12,113.71,149.12L113.71,149.12z M114.31,148.75c0.05,0.06,0.1,0.13,0.15,0.19
				c0.17-0.52,0.35-1.03,0.56-1.54c-0.04,0.03-0.09,0.06-0.13,0.09L114.31,148.75z M113.84,148.2c0.03,0.03,0.06,0.07,0.09,0.1
				l0.11-0.23C113.97,148.11,113.91,148.16,113.84,148.2z"/>
		</g>
		<g>
			<path class="st0" d="M99.06,163.88c-1.49,1.42-2.97,2.85-4.46,4.27c-0.07,0.06,0.03,0.16,0.1,0.1c1.49-1.42,2.97-2.85,4.46-4.27
				C99.23,163.92,99.13,163.82,99.06,163.88z"/>
			<path class="st0" d="M94.66,168.47c-0.01,0-0.02,0-0.03,0c-0.06-0.01-0.12-0.03-0.17-0.08c-0.05-0.05-0.07-0.11-0.07-0.17
				c0-0.08,0.02-0.15,0.08-0.2l4.45-4.27c0.07-0.06,0.16-0.09,0.25-0.06c0.09,0.03,0.17,0.1,0.19,0.2c0.02,0.09,0,0.18-0.07,0.25
				l-4.45,4.27C94.79,168.44,94.73,168.47,94.66,168.47z"/>
		</g>
		<g>
			<path class="st0" d="M84.1,165.07c-0.05,0.08,0.07,0.15,0.12,0.07c0.24-0.39,0.47-0.77,0.71-1.16c0.05-0.08-0.08-0.15-0.12-0.07
				C84.58,164.29,84.34,164.68,84.1,165.07z"/>
			<path class="st0" d="M84.16,165.36c-0.05,0-0.1-0.01-0.14-0.04c-0.13-0.08-0.16-0.24-0.09-0.36l0.71-1.16
				c0.08-0.13,0.24-0.16,0.37-0.09c0.05,0.03,0.1,0.09,0.11,0.15c0.02,0.07,0.01,0.15-0.03,0.21l-0.71,1.16
				C84.34,165.32,84.25,165.36,84.16,165.36z"/>
		</g>
		<g>
			<path class="st0" d="M89.87,131c-1.01,2.12-2.03,4.24-3.04,6.36c-0.04,0.08,0.08,0.15,0.12,0.07c1.01-2.12,2.03-4.24,3.04-6.36
				C90.04,130.99,89.91,130.92,89.87,131z"/>
			<path class="st0" d="M86.9,137.67l-0.11-0.04c-0.14-0.06-0.19-0.22-0.13-0.36l3.04-6.36c0.04-0.08,0.12-0.14,0.21-0.15
				c0.1,0,0.19,0.04,0.24,0.12c0.05,0.08,0.06,0.18,0.02,0.27c-1.01,2.12-2.03,4.24-3.04,6.36l-0.04,0.08L86.9,137.67z
				 M86.78,137.35C86.78,137.35,86.78,137.35,86.78,137.35C86.78,137.35,86.78,137.35,86.78,137.35z"/>
		</g>
		<g>
			<path class="st0" d="M95.19,133.18c0.15-0.49,0.28-0.99,0.42-1.48c0.07-0.26,0.14-0.52,0.2-0.78c0.03-0.13,0.05-0.27,0.1-0.39
				c0.07-0.17,0.14-0.19,0.31-0.24c0.09-0.03,0.05-0.16-0.04-0.14c-0.1,0.03-0.29,0.04-0.36,0.13c-0.11,0.15-0.14,0.55-0.18,0.72
				c-0.14,0.54-0.28,1.08-0.44,1.62c-0.3,1.05-0.63,2.1-0.98,3.13c-0.73,2.13-1.58,4.22-2.53,6.25c-0.04,0.08,0.08,0.16,0.12,0.07
				c0.89-1.91,1.7-3.86,2.4-5.84C94.56,135.23,94.89,134.21,95.19,133.18z"/>
			<path class="st0" d="M91.75,142.31c-0.04,0-0.07-0.01-0.11-0.02c-0.14-0.06-0.2-0.22-0.13-0.36c0.96-2.05,1.81-4.15,2.53-6.24
				c0.35-1.03,0.68-2.08,0.98-3.12c0.15-0.53,0.3-1.07,0.43-1.61c0.01-0.05,0.02-0.12,0.04-0.19c0.03-0.21,0.08-0.46,0.18-0.6
				c0.09-0.13,0.26-0.16,0.39-0.19c0.03-0.01,0.05-0.01,0.07-0.02c0.14-0.04,0.28,0.03,0.32,0.18c0.04,0.14-0.03,0.29-0.17,0.33
				c-0.16,0.05-0.16,0.05-0.19,0.13c-0.03,0.07-0.04,0.15-0.06,0.23c-0.01,0.05-0.02,0.09-0.03,0.14c-0.07,0.26-0.13,0.52-0.2,0.78
				c-0.13,0.5-0.27,0.99-0.42,1.49l0,0c-0.29,1-0.63,2.04-0.99,3.07c-0.69,1.96-1.5,3.93-2.4,5.86
				C91.94,142.26,91.85,142.31,91.75,142.31z M96.23,130.33C96.23,130.33,96.23,130.33,96.23,130.33
				C96.23,130.33,96.23,130.33,96.23,130.33z"/>
		</g>
		<g>
			<path class="st0" d="M96.81,130.69c-0.78,3.6-2.14,7.06-4.03,10.22c-0.05,0.08,0.08,0.15,0.12,0.07
				c1.89-3.18,3.26-6.64,4.04-10.26C96.97,130.64,96.83,130.6,96.81,130.69z"/>
			<path class="st0" d="M92.85,141.21c-0.05,0-0.09-0.01-0.14-0.04c-0.13-0.08-0.17-0.23-0.09-0.36c1.88-3.15,3.22-6.57,4-10.16
				c0.03-0.14,0.15-0.24,0.31-0.2c0.15,0.03,0.24,0.17,0.21,0.32c-0.79,3.64-2.15,7.11-4.06,10.32
				C93.03,141.16,92.94,141.21,92.85,141.21z M97,130.73L97,130.73L97,130.73L97,130.73z"/>
		</g>
		<g>
			<path class="st0" d="M93.87,129.55c-0.94,2.53-1.87,5.06-2.81,7.58c-0.03,0.09,0.11,0.12,0.14,0.04
				c0.94-2.53,1.87-5.06,2.81-7.58C94.04,129.5,93.91,129.46,93.87,129.55z"/>
			<path class="st0" d="M91.13,137.41c-0.03,0-0.06-0.01-0.1-0.02c-0.06-0.02-0.11-0.06-0.14-0.12c-0.03-0.06-0.04-0.14-0.01-0.21
				l2.81-7.58c0.03-0.09,0.11-0.15,0.2-0.17c0.1-0.02,0.19,0.02,0.26,0.09c0.06,0.07,0.08,0.16,0.04,0.25l-2.81,7.58
				C91.34,137.35,91.24,137.41,91.13,137.41z"/>
		</g>
		<g>
			<path class="st0" d="M94.41,130.59c-1.18,3.31-2.35,6.62-3.53,9.93c-0.03,0.09,0.11,0.12,0.14,0.04
				c1.18-3.31,2.35-6.62,3.53-9.93C94.58,130.54,94.44,130.5,94.41,130.59z"/>
			<path class="st0" d="M90.95,140.79c-0.03,0-0.06-0.01-0.09-0.02c-0.06-0.02-0.11-0.06-0.14-0.12c-0.04-0.06-0.04-0.14-0.02-0.21
				l3.53-9.93c0.05-0.14,0.2-0.22,0.35-0.16c0.06,0.02,0.11,0.06,0.14,0.12c0.03,0.06,0.04,0.14,0.01,0.21
				c-1.17,3.31-2.35,6.62-3.53,9.93C91.16,140.73,91.06,140.79,90.95,140.79z"/>
		</g>
		<g>
			<path class="st0" d="M104.5,140.72c1.42,0.59,2.85,1.17,4.27,1.76c0.16,0.07,0.32,0.13,0.48,0.2c-0.04,0.05-0.07,0.09-0.11,0.14
				c-0.06,0.07,0.07,0.14,0.12,0.07c0.04-0.05,0.08-0.1,0.12-0.16c0.15,0.06,0.3,0.12,0.45,0.18c-0.02,0.02-0.04,0.04-0.06,0.06
				c-0.06,0.06,0.04,0.17,0.1,0.1c0.03-0.04,0.07-0.07,0.1-0.11c0.23,0.09,0.46,0.19,0.68,0.28c-0.05,0.06-0.1,0.12-0.15,0.19
				c-0.06,0.07,0.04,0.17,0.1,0.1c0.06-0.08,0.12-0.15,0.18-0.23c0.24,0.1,0.49,0.2,0.73,0.3c0.28,0.12,0.69,0.32,1.09,0.47
				c0.02,0.03,0.05,0.05,0.1,0.03c0.3,0.11,0.59,0.18,0.82,0.17c0.53-0.02,0.44-0.62,0.5-1.09c0.2-1.41,0.41-2.83,0.58-4.25
				c0.24-1.96,0.51-3.91,0.81-5.86c0.02-0.12-0.08-0.27-0.22-0.22c-0.74,0.24-1.48,0.49-2.22,0.73c-3.38-6.59-11.52-9.2-18.13-5.83
				c-0.08,0.04-0.1,0.11-0.08,0.18c-0.12,0.05-0.15,0.28,0.02,0.35c0.9,0.37,1.77,0.8,2.62,1.29c0.01,0.02,0.03,0.03,0.05,0.03
				c0.14,0.08,0.28,0.17,0.43,0.25c0.01,0.04,0.05,0.07,0.09,0.05c0.5,0.31,0.99,0.63,1.47,0.98c-0.04,0.06-0.08,0.12-0.12,0.19
				c-0.05,0.08,0.07,0.15,0.12,0.07c0.04-0.06,0.08-0.12,0.11-0.18c0.16,0.12,0.32,0.24,0.48,0.36c-0.04,0.05-0.07,0.1-0.11,0.15
				c-0.06,0.07,0.07,0.14,0.12,0.07c0.03-0.04,0.07-0.09,0.1-0.13c0.8,0.62,1.56,1.29,2.27,2.01c-0.01,0.01-0.02,0.03-0.04,0.04
				c-0.06,0.07,0.04,0.17,0.1,0.1c0.01-0.02,0.02-0.03,0.04-0.05c0.15,0.15,0.3,0.31,0.44,0.47c-0.04,0.04-0.07,0.08-0.11,0.12
				c-0.06,0.07,0.04,0.17,0.1,0.1c0.04-0.04,0.07-0.08,0.11-0.12c0.6,0.66,1.16,1.35,1.69,2.07c-0.03,0.03-0.06,0.07-0.09,0.1
				c-0.06,0.07,0.04,0.17,0.1,0.1c0.03-0.03,0.05-0.06,0.08-0.08c0.28,0.39,0.55,0.79,0.8,1.2c-0.01,0.04,0.02,0.07,0.05,0.09
				c0.11,0.17,0.22,0.34,0.32,0.52c0.02,0.04,0.05,0.06,0.08,0.07c-0.8,0.75-1.7,1.34-2.7,1.79c-0.16,0.07-0.08,0.27,0.04,0.33
				c0.33,0.14,0.66,0.27,0.98,0.41C104.45,140.71,104.47,140.72,104.5,140.72z M113.7,144.13c-0.2-0.08-0.4-0.16-0.59-0.24
				c0.27-0.2,0.51-0.44,0.69-0.72C113.77,143.49,113.73,143.81,113.7,144.13z M106.46,138.34c0.12-0.11,0.02-0.27-0.1-0.3
				c0.01-0.04,0-0.07-0.02-0.12c-0.02-0.03-0.04-0.06-0.05-0.09c0.01,0,0.01,0,0.02-0.01c0.95-0.81,1.81-1.7,2.57-2.69
				c0.06-0.07-0.04-0.17-0.1-0.1c-0.76,0.98-1.61,1.87-2.56,2.68c-0.07-0.12-0.15-0.24-0.22-0.36c0.73-0.74,1.45-1.47,2.18-2.21
				c0.06-0.07-0.04-0.17-0.1-0.1c-0.72,0.73-1.44,1.45-2.15,2.18c-0.14-0.21-0.27-0.42-0.42-0.63c0.89-0.9,1.78-1.8,2.67-2.7
				c0.06-0.07-0.04-0.17-0.1-0.1c-0.88,0.89-1.77,1.78-2.65,2.68c-0.1-0.15-0.21-0.29-0.31-0.44c0.64-0.68,1.28-1.36,1.91-2.04
				c0.06-0.07-0.04-0.17-0.1-0.1c-0.63,0.67-1.27,1.35-1.9,2.02c-0.07-0.09-0.14-0.19-0.21-0.28c0.58-0.73,1.17-1.46,1.75-2.19
				c0.06-0.07-0.04-0.17-0.1-0.1c-0.58,0.72-1.16,1.45-1.74,2.17c-0.09-0.11-0.18-0.22-0.27-0.33c0.64-0.7,1.27-1.41,1.91-2.11
				c0.06-0.07-0.04-0.17-0.1-0.1c-0.63,0.7-1.26,1.4-1.89,2.1c-0.17-0.21-0.33-0.41-0.51-0.61c0.78-0.66,1.45-1.42,1.99-2.28
				c0.05-0.08-0.07-0.15-0.12-0.07c-0.54,0.85-1.2,1.59-1.96,2.24c-0.15-0.17-0.3-0.34-0.45-0.5c0.75-0.82,1.5-1.64,2.24-2.47
				c0.06-0.07-0.04-0.17-0.1-0.1c-0.75,0.82-1.49,1.64-2.24,2.46c-0.15-0.16-0.3-0.32-0.46-0.48c0.7-0.86,1.4-1.72,2.1-2.58
				c0.06-0.07-0.04-0.17-0.1-0.1c-0.7,0.86-1.4,1.72-2.1,2.58c-0.15-0.15-0.29-0.3-0.44-0.44c0.85-1.04,1.7-2.08,2.55-3.12
				c0.06-0.07-0.04-0.17-0.1-0.1c-0.85,1.04-1.7,2.08-2.55,3.12c-0.17-0.16-0.34-0.32-0.51-0.47c0.52-0.59,1.04-1.17,1.56-1.76
				c0.06-0.07-0.04-0.17-0.1-0.1c-0.52,0.59-1.04,1.17-1.56,1.76c-0.17-0.15-0.34-0.29-0.51-0.43c0.59-0.73,1.18-1.45,1.76-2.18
				c0.06-0.07-0.04-0.17-0.1-0.1c-0.59,0.73-1.18,1.46-1.77,2.19c-0.16-0.13-0.33-0.26-0.49-0.39c0.58-0.75,1.16-1.51,1.74-2.26
				c0.06-0.07-0.07-0.14-0.12-0.07c-0.57,0.75-1.15,1.5-1.72,2.25c-0.17-0.13-0.33-0.25-0.5-0.37c0.62-0.92,1.32-1.78,2.09-2.57
				c0.06-0.07-0.04-0.17-0.1-0.1c-0.78,0.8-1.48,1.66-2.11,2.59c-0.14-0.1-0.28-0.2-0.42-0.3c0.56-0.78,1.13-1.56,1.69-2.34
				c0.05-0.07-0.07-0.15-0.12-0.07c-0.56,0.78-1.13,1.55-1.69,2.33c-0.11-0.08-0.23-0.15-0.34-0.22c0.43-0.61,0.86-1.23,1.28-1.84
				c0.05-0.08-0.07-0.15-0.12-0.07c-0.43,0.61-0.85,1.22-1.28,1.83c-0.15-0.09-0.3-0.19-0.45-0.28c0.49-0.64,0.99-1.28,1.48-1.91
				c0.06-0.07-0.04-0.17-0.1-0.1c-0.5,0.65-1,1.29-1.5,1.94c-0.14-0.08-0.28-0.17-0.42-0.25c0.34-0.63,0.79-1.19,1.33-1.66
				c0.07-0.06-0.03-0.16-0.1-0.1c-0.56,0.48-1.01,1.05-1.36,1.69c-0.2-0.12-0.41-0.23-0.62-0.34c0.01-0.01,0.02-0.01,0.03-0.03
				c0.25-0.52,0.61-0.96,1.06-1.32c0.07-0.06-0.03-0.16-0.1-0.1c-0.46,0.37-0.82,0.82-1.08,1.35c-0.01,0.02-0.01,0.03-0.01,0.04
				c-0.21-0.11-0.43-0.22-0.65-0.32c0.2-0.2,0.4-0.4,0.6-0.6c0.06-0.06-0.04-0.17-0.1-0.1c-0.21,0.21-0.42,0.43-0.63,0.64
				c-0.31-0.15-0.62-0.29-0.94-0.42c6.42-3.23,14.28-0.67,17.57,5.71c-0.06,0.12,0.04,0.3,0.2,0.25c0.72-0.24,1.44-0.47,2.16-0.71
				c-0.48,3.16-0.88,6.33-1.21,9.51c-0.2,0.41-0.51,0.75-0.89,1c-0.34-0.14-0.68-0.28-1.02-0.42c0.59-0.63,1.13-1.31,1.59-2.04
				c0.05-0.08-0.07-0.15-0.12-0.07c-0.46,0.74-1,1.43-1.6,2.06c-0.25-0.1-0.5-0.21-0.76-0.31c0.53-0.67,1.07-1.33,1.6-2
				c0.06-0.07-0.04-0.17-0.1-0.1c-0.55,0.68-1.09,1.36-1.64,2.04c-0.22-0.09-0.43-0.18-0.65-0.27c0.78-0.83,1.49-1.73,2.11-2.68
				c0.05-0.08-0.07-0.15-0.12-0.07c-0.63,0.97-1.34,1.87-2.13,2.7c-0.16-0.07-0.33-0.13-0.49-0.2c0.62-0.81,1.24-1.61,1.86-2.42
				c0.06-0.07-0.07-0.14-0.12-0.07c-0.62,0.81-1.25,1.62-1.87,2.43c-0.29-0.12-0.58-0.24-0.87-0.36c0.81-0.9,1.61-1.79,2.42-2.69
				c0.06-0.07-0.04-0.17-0.1-0.1c-0.82,0.91-1.64,1.82-2.46,2.73c-0.28-0.11-0.55-0.23-0.83-0.34c0.88-1.11,1.75-2.21,2.63-3.32
				c0.06-0.07-0.04-0.17-0.1-0.1c-0.89,1.12-1.77,2.24-2.66,3.36c-0.89-0.37-1.77-0.73-2.66-1.1c1.21-0.9,2.29-1.94,3.23-3.11
				c0.06-0.07-0.04-0.17-0.1-0.1c-0.95,1.19-2.06,2.25-3.28,3.15c-0.25-0.1-0.5-0.2-0.74-0.31
				C104.87,139.65,105.7,139.06,106.46,138.34z"/>
			<path class="st0" d="M113.49,144.49c-0.21,0-0.47-0.05-0.79-0.16c-0.07,0-0.15-0.02-0.2-0.07c-0.24-0.09-0.49-0.2-0.7-0.3
				c-0.13-0.06-0.24-0.11-0.34-0.15c-0.2-0.08-0.4-0.16-0.6-0.25l-0.09,0.12c-0.1,0.11-0.25,0.13-0.36,0.04
				c-0.11-0.09-0.13-0.25-0.05-0.36l-0.32-0.13l-0.01,0.01c-0.06,0.06-0.11,0.1-0.21,0.08c-0.06,0-0.12-0.03-0.17-0.08
				c-0.05-0.05-0.07-0.11-0.08-0.17c0-0.01,0-0.02,0-0.03l-0.11-0.04l-0.03,0.04c-0.05,0.06-0.12,0.1-0.2,0.11
				c-0.05-0.01-0.13-0.02-0.18-0.06c-0.09-0.07-0.12-0.19-0.08-0.29l-0.26-0.11l-4.24-1.75c-0.04,0-0.08-0.02-0.12-0.05l-0.96-0.4
				c-0.14-0.06-0.25-0.21-0.25-0.37c0-0.14,0.07-0.25,0.2-0.31c0.93-0.42,1.76-0.95,2.51-1.63c-0.09-0.14-0.18-0.29-0.26-0.43
				c-0.06-0.04-0.1-0.1-0.11-0.17c-0.2-0.32-0.42-0.65-0.65-0.97c-0.09,0.03-0.2,0.02-0.27-0.05c-0.1-0.1-0.11-0.25-0.03-0.36
				c-0.45-0.61-0.93-1.2-1.44-1.77c-0.05,0.03-0.09,0.05-0.16,0.05s-0.12-0.03-0.17-0.07c-0.11-0.1-0.12-0.26-0.03-0.37
				c-0.07-0.07-0.13-0.14-0.2-0.21c-0.03,0.01-0.06,0.01-0.1,0c-0.09-0.02-0.17-0.08-0.21-0.17c-0.02-0.05-0.02-0.1-0.01-0.15
				c-0.63-0.62-1.3-1.22-2-1.77c-0.1,0.1-0.25,0.11-0.36,0.03c-0.11-0.09-0.13-0.23-0.05-0.35c-0.05-0.04-0.11-0.08-0.16-0.12
				c0,0,0,0,0,0c-0.08,0.12-0.24,0.16-0.37,0.08c-0.05-0.03-0.09-0.09-0.11-0.14c-0.02-0.07-0.01-0.15,0.03-0.21l0.02-0.03
				c-0.41-0.29-0.83-0.57-1.25-0.83l-0.08-0.02c-0.05-0.02-0.08-0.05-0.11-0.09c-0.12-0.07-0.23-0.14-0.35-0.21
				c-0.04-0.01-0.08-0.03-0.11-0.06c-0.83-0.47-1.7-0.9-2.57-1.26c-0.15-0.06-0.24-0.2-0.24-0.37c0-0.1,0.04-0.19,0.1-0.25
				c0.01-0.11,0.08-0.21,0.19-0.26c6.66-3.4,14.83-0.8,18.31,5.77l2.06-0.68c0.12-0.04,0.24-0.02,0.34,0.06
				c0.1,0.09,0.16,0.23,0.13,0.37c-0.3,1.95-0.57,3.92-0.81,5.86c-0.16,1.29-0.35,2.6-0.53,3.86l-0.05,0.39
				c-0.01,0.09-0.02,0.19-0.03,0.29c-0.02,0.31-0.05,0.71-0.34,0.88v0.02l-0.01-0.01c-0.08,0.05-0.18,0.07-0.31,0.08
				C113.53,144.49,113.51,144.49,113.49,144.49z M113.48,143.83c0.02,0.01,0.03,0.01,0.05,0.02l0.01-0.08
				C113.52,143.8,113.5,143.82,113.48,143.83z M112.26,143.33l0.67,0.27c0.31-0.22,0.55-0.5,0.72-0.84
				c0.32-3.12,0.71-6.21,1.16-9.18l-1.86,0.61c-0.13,0.04-0.28,0.01-0.37-0.1c-0.08-0.09-0.11-0.2-0.09-0.32
				c-3.19-6.11-10.69-8.63-16.9-5.75c0.14,0.07,0.29,0.13,0.43,0.2c0.18-0.18,0.36-0.36,0.54-0.54c0.06-0.06,0.16-0.09,0.25-0.07
				c0.09,0.02,0.17,0.1,0.19,0.19c0.02,0.09,0,0.19-0.07,0.25l-0.41,0.41c0.08,0.04,0.15,0.07,0.23,0.11
				c0.26-0.5,0.62-0.93,1.06-1.28c0.08-0.06,0.18-0.07,0.27-0.04c0.09,0.03,0.16,0.11,0.17,0.21c0.01,0.09-0.02,0.18-0.1,0.23
				c-0.39,0.31-0.7,0.69-0.93,1.12c0.09,0.05,0.18,0.1,0.27,0.15c0.35-0.59,0.79-1.12,1.3-1.57c0.11-0.1,0.28-0.08,0.38,0.03
				c0.09,0.11,0.08,0.27-0.03,0.36c-0.48,0.41-0.88,0.9-1.2,1.44c0.04,0.02,0.07,0.05,0.11,0.07l1.4-1.8
				c0.06-0.08,0.15-0.11,0.23-0.1c0.09,0.01,0.17,0.08,0.21,0.17c0.04,0.09,0.02,0.19-0.04,0.27c-0.45,0.58-0.9,1.16-1.35,1.74
				c0.03,0.02,0.07,0.05,0.11,0.07l1.17-1.68c0.09-0.13,0.26-0.15,0.38-0.06c0.12,0.08,0.14,0.24,0.06,0.36l-1.17,1.68
				c0.01,0,0.01,0.01,0.02,0.01l1.58-2.18c0.09-0.13,0.26-0.15,0.38-0.06c0.12,0.08,0.14,0.24,0.06,0.35l-1.58,2.18
				c0.03,0.02,0.07,0.05,0.1,0.07c0.6-0.87,1.28-1.69,2.02-2.45c0.07-0.07,0.16-0.1,0.25-0.07c0.09,0.02,0.17,0.1,0.2,0.19
				c0.03,0.09,0,0.18-0.06,0.25c-0.72,0.74-1.38,1.54-1.97,2.39c0.07,0.05,0.13,0.1,0.2,0.15l1.61-2.09
				c0.06-0.08,0.17-0.11,0.25-0.1c0.1,0.01,0.18,0.07,0.22,0.16c0.03,0.08,0.02,0.18-0.04,0.25l-1.62,2.11
				c0.06,0.05,0.13,0.1,0.19,0.15l1.65-2.04c0.06-0.07,0.16-0.1,0.23-0.09c0.09,0.02,0.17,0.08,0.21,0.17
				c0.03,0.09,0.02,0.19-0.04,0.26l-1.64,2.03c0.07,0.06,0.15,0.12,0.22,0.19l1.44-1.62c0.06-0.07,0.16-0.1,0.24-0.08
				c0.1,0.02,0.17,0.09,0.2,0.18c0.03,0.09,0.01,0.19-0.05,0.26l-1.43,1.61c0.08,0.07,0.15,0.13,0.22,0.2l2.42-2.96
				c0.09-0.11,0.25-0.13,0.36-0.04c0.12,0.1,0.13,0.26,0.04,0.38l-2.44,2.98c0.06,0.05,0.11,0.11,0.17,0.17l1.96-2.42
				c0.09-0.11,0.25-0.13,0.36-0.04c0.12,0.1,0.14,0.26,0.04,0.38l-1.99,2.45c0.07,0.07,0.13,0.14,0.2,0.21l2.1-2.31
				c0.05-0.06,0.12-0.09,0.19-0.09c0,0,0,0,0.01,0c0.06,0,0.12,0.03,0.17,0.07c0.11,0.1,0.12,0.27,0.02,0.38l-2.12,2.34
				c0.07,0.08,0.14,0.15,0.21,0.23c0.69-0.61,1.29-1.31,1.78-2.07c0.05-0.08,0.13-0.13,0.23-0.12c0.1,0,0.19,0.06,0.23,0.14
				c0.04,0.08,0.04,0.18-0.02,0.26c-0.52,0.82-1.16,1.56-1.88,2.19c0.08,0.1,0.16,0.19,0.24,0.29l1.74-1.93
				c0.06-0.07,0.15-0.1,0.24-0.08c0.09,0.02,0.17,0.09,0.2,0.18c0.02,0.06,0.02,0.13-0.01,0.19c0.09,0.02,0.17,0.08,0.2,0.17
				s0.02,0.19-0.04,0.27c-0.47,0.58-0.93,1.17-1.4,1.75l1.47-1.56c0.1-0.11,0.26-0.11,0.37-0.01c0.11,0.1,0.11,0.27,0.02,0.37
				l-1.81,1.93c0.03,0.04,0.06,0.08,0.09,0.12l2.49-2.51c0.1-0.1,0.27-0.1,0.37,0c0.11,0.1,0.11,0.27,0.01,0.37l-2.56,2.59
				c0.07,0.1,0.13,0.2,0.2,0.3l1.99-2.01c0.1-0.1,0.27-0.1,0.37,0c0.11,0.1,0.11,0.27,0.01,0.37l-2.07,2.1
				c0.01,0.01,0.02,0.02,0.02,0.04c0.86-0.75,1.66-1.59,2.36-2.5c0.09-0.11,0.24-0.13,0.35-0.05c0.12,0.09,0.14,0.26,0.05,0.38
				c-0.74,0.96-1.58,1.84-2.49,2.63c0,0.01,0.01,0.02,0.01,0.03c0.07,0.05,0.13,0.13,0.15,0.21c0.03,0.13,0,0.26-0.1,0.35l0,0
				c-0.66,0.64-1.4,1.18-2.2,1.61l0.26,0.11c1.18-0.88,2.24-1.91,3.16-3.05c0.09-0.11,0.24-0.13,0.36-0.04
				c0.12,0.09,0.14,0.27,0.05,0.38c-0.87,1.09-1.88,2.08-3,2.94c0.74,0.31,1.48,0.61,2.22,0.91l2.57-3.25
				c0.09-0.11,0.24-0.13,0.36-0.04c0.12,0.1,0.14,0.26,0.05,0.38l-2.47,3.12l0.47,0.19l2.37-2.63c0.06-0.07,0.16-0.1,0.24-0.08
				c0.09,0.02,0.17,0.09,0.2,0.18c0.03,0.09,0.01,0.19-0.06,0.26l-2.24,2.49l0.48,0.2l1.78-2.32c0.09-0.12,0.26-0.14,0.39-0.05
				c0.11,0.09,0.13,0.24,0.04,0.35l-1.71,2.22l0.13,0.05c0.74-0.79,1.42-1.66,2.02-2.57c0.05-0.08,0.14-0.12,0.24-0.12
				c0.1,0.01,0.18,0.06,0.23,0.15c0.04,0.08,0.03,0.18-0.02,0.26c-0.57,0.88-1.22,1.72-1.94,2.51l0.26,0.11l1.55-1.93
				c0.06-0.07,0.15-0.11,0.23-0.1c0.09,0.02,0.17,0.08,0.21,0.17c0.03,0.09,0.02,0.19-0.04,0.27l-1.44,1.8l0.39,0.16
				c0.56-0.6,1.06-1.25,1.49-1.93c0.08-0.12,0.24-0.16,0.37-0.08c0.13,0.08,0.16,0.24,0.09,0.36
				C113.26,142.11,112.79,142.74,112.26,143.33z M109.92,143.12L109.92,143.12L109.92,143.12z M112.68,141.05L112.68,141.05
				C112.68,141.05,112.68,141.05,112.68,141.05z M112.19,139.92C112.19,139.92,112.19,139.92,112.19,139.92
				C112.19,139.92,112.19,139.92,112.19,139.92z M111.07,139.37L111.07,139.37C111.07,139.37,111.07,139.37,111.07,139.37z
				 M110.88,139.21C110.88,139.21,110.88,139.21,110.88,139.21L110.88,139.21z M106.35,138.22l0.11,0.11L106.35,138.22
				L106.35,138.22z M108.12,137.38C108.12,137.38,108.12,137.38,108.12,137.38C108.12,137.38,108.12,137.38,108.12,137.38z
				 M104.72,135.2c0,0,0.01,0.01,0.01,0.02l0.21-0.26L104.72,135.2z M112.88,133.8l-0.02,0.05l0.04-0.01L112.88,133.8z
				 M106.62,133.48L106.62,133.48C106.62,133.48,106.62,133.48,106.62,133.48z M106.42,133.34
				C106.42,133.34,106.41,133.34,106.42,133.34C106.41,133.34,106.42,133.34,106.42,133.34z M106.41,133.11L106.41,133.11
				C106.41,133.11,106.41,133.11,106.41,133.11z M105.9,132.22L105.9,132.22L105.9,132.22z M105.7,132.09
				C105.7,132.09,105.7,132.09,105.7,132.09S105.7,132.09,105.7,132.09z M99.3,131.06L99.3,131.06L99.3,131.06z M103.21,130.44
				L103.21,130.44C103.21,130.44,103.21,130.44,103.21,130.44z M102.8,129.48L102.8,129.48C102.8,129.48,102.8,129.48,102.8,129.48z
				 M102.15,128.94L102.15,128.94C102.15,128.94,102.15,128.94,102.15,128.94z M101.9,128.16
				C101.9,128.16,101.9,128.16,101.9,128.16C101.9,128.16,101.9,128.16,101.9,128.16z M96.82,127.97
				C96.82,127.98,96.81,127.98,96.82,127.97C96.81,127.98,96.82,127.98,96.82,127.97z M96.64,127.81
				C96.64,127.81,96.64,127.81,96.64,127.81L96.64,127.81z M99.54,127.63C99.54,127.63,99.54,127.63,99.54,127.63
				C99.54,127.63,99.54,127.63,99.54,127.63z M98.03,127.63L98.03,127.63L98.03,127.63z M97.89,127.42L97.89,127.42L97.89,127.42z"
				/>
		</g>
		<g>
			<path class="st0" d="M106.06,140.79c1.24-1.25,2.49-2.5,3.73-3.75c0.06-0.06-0.04-0.17-0.1-0.1c-1.24,1.25-2.49,2.5-3.73,3.75
				C105.89,140.75,105.99,140.85,106.06,140.79z"/>
			<path class="st0" d="M106.01,141c-0.07,0-0.13-0.03-0.19-0.08c-0.11-0.1-0.11-0.27-0.01-0.37l3.73-3.75
				c0.07-0.07,0.16-0.1,0.25-0.07c0.09,0.02,0.17,0.1,0.19,0.19c0.02,0.09,0,0.18-0.07,0.25l-3.73,3.75
				C106.14,140.97,106.08,141,106.01,141z M105.92,140.65C105.92,140.65,105.92,140.65,105.92,140.65L105.92,140.65z M109.83,137.07
				L109.83,137.07C109.83,137.07,109.83,137.07,109.83,137.07z"/>
		</g>
		<g>
			<path class="st0" d="M109.3,138.24c-0.82,0.93-1.7,1.81-2.62,2.64c-0.07,0.06,0.03,0.16,0.1,0.1c0.92-0.83,1.79-1.71,2.62-2.64
				C109.46,138.27,109.36,138.17,109.3,138.24z"/>
			<path class="st0" d="M106.73,141.19c-0.07,0-0.14-0.03-0.2-0.09c-0.04-0.05-0.07-0.11-0.07-0.17c0-0.08,0.03-0.14,0.09-0.2
				c0.91-0.82,1.79-1.7,2.6-2.62c0.06-0.07,0.15-0.1,0.24-0.08c0.09,0.02,0.17,0.09,0.2,0.18c0.03,0.09,0.01,0.19-0.05,0.26
				c-0.83,0.93-1.72,1.83-2.63,2.65C106.86,141.17,106.8,141.19,106.73,141.19z"/>
		</g>
		<g>
			<path class="st0" d="M115.91,167.29c1.32-1.55,2.49-3.23,3.49-5c0.05-0.08-0.08-0.15-0.12-0.07c-1,1.76-2.16,3.43-3.47,4.97
				C115.75,167.26,115.85,167.36,115.91,167.29z"/>
			<path class="st0" d="M115.8,167.51l-0.1-0.06c-0.12-0.1-0.13-0.27-0.03-0.38c1.3-1.53,2.46-3.19,3.45-4.94
				c0.05-0.08,0.13-0.13,0.22-0.13c0,0,0,0,0,0c0.1,0,0.18,0.05,0.23,0.13c0.05,0.08,0.05,0.18,0,0.26c-1,1.77-2.18,3.47-3.51,5.03
				l-0.06,0.07L115.8,167.51z M115.76,167.16C115.76,167.16,115.76,167.16,115.76,167.16L115.76,167.16
				C115.76,167.16,115.76,167.16,115.76,167.16z M119.23,162.19C119.23,162.19,119.23,162.2,119.23,162.19
				C119.23,162.2,119.23,162.19,119.23,162.19z"/>
		</g>
		<g>
			<path class="st0" d="M113.49,167.61c1.07-1.39,2.14-2.79,3.21-4.18c0.06-0.07-0.07-0.14-0.12-0.07
				c-1.07,1.39-2.14,2.79-3.21,4.18C113.31,167.61,113.44,167.68,113.49,167.61z"/>
			<path class="st0" d="M113.43,167.83c-0.01,0-0.02,0-0.04,0c-0.1-0.01-0.18-0.08-0.22-0.16c-0.03-0.08-0.02-0.18,0.04-0.25
				l3.21-4.18c0.06-0.08,0.15-0.11,0.25-0.1c0.1,0.01,0.18,0.07,0.22,0.16c0.03,0.08,0.02,0.18-0.04,0.25l-3.21,4.18
				C113.59,167.79,113.51,167.83,113.43,167.83z M113.34,167.49C113.34,167.49,113.34,167.49,113.34,167.49L113.34,167.49z
				 M116.74,163.48L116.74,163.48C116.74,163.48,116.74,163.48,116.74,163.48z M116.55,163.31L116.55,163.31L116.55,163.31z"/>
		</g>
		<g>
			<path class="st0" d="M119.52,166.05c1-1.73,2-3.45,3-5.18c0.05-0.08-0.08-0.15-0.12-0.07c-1,1.73-2,3.45-3,5.18
				C119.35,166.06,119.48,166.13,119.52,166.05z"/>
			<path class="st0" d="M119.46,166.28L119.46,166.28c-0.1,0-0.19-0.05-0.23-0.14c-0.05-0.08-0.05-0.18,0-0.26l3-5.18
				c0.07-0.13,0.23-0.17,0.36-0.1c0.06,0.03,0.1,0.08,0.12,0.14c0.02,0.07,0.02,0.15-0.02,0.22l-3,5.18
				C119.64,166.23,119.56,166.28,119.46,166.28z M122.35,160.77L122.35,160.77L122.35,160.77z"/>
		</g>
		<g>
			<path class="st0" d="M123.52,159.12c0.09,0,0.09-0.14,0-0.14C123.43,158.98,123.43,159.12,123.52,159.12z"/>
			<path class="st0" d="M123.52,159.31c-0.15,0-0.26-0.12-0.26-0.27c0-0.15,0.12-0.26,0.26-0.26c0.15,0,0.26,0.12,0.26,0.26
				C123.78,159.2,123.67,159.31,123.52,159.31z M123.52,158.93c-0.07,0-0.12,0.06-0.12,0.12c0,0.06,0.06,0.12,0.12,0.12
				s0.12-0.06,0.12-0.12C123.64,158.98,123.59,158.93,123.52,158.93z"/>
		</g>
		<g>
			<path class="st0" d="M121.54,163.98c0.74-1.44,1.36-2.94,1.86-4.48c0.03-0.09-0.11-0.12-0.14-0.04
				c-0.49,1.53-1.11,3.01-1.85,4.44C121.37,163.99,121.5,164.07,121.54,163.98z"/>
			<path class="st0" d="M121.48,164.21c-0.04,0-0.08-0.01-0.12-0.03c-0.13-0.07-0.19-0.23-0.12-0.36c0.72-1.41,1.34-2.89,1.84-4.41
				c0.05-0.14,0.2-0.21,0.34-0.17c0.06,0.02,0.11,0.06,0.14,0.11c0.04,0.06,0.05,0.14,0.02,0.21c-0.5,1.55-1.13,3.06-1.87,4.5l0,0
				C121.66,164.16,121.58,164.21,121.48,164.21z"/>
		</g>
		<g>
			<path class="st0" d="M122.87,162.82c0.84-1.65,1.49-3.39,1.95-5.19c0.02-0.09-0.11-0.13-0.14-0.04
				c-0.46,1.78-1.11,3.51-1.94,5.15C122.71,162.83,122.83,162.91,122.87,162.82z"/>
			<path class="st0" d="M122.82,163.05c-0.04,0-0.08-0.01-0.12-0.03c-0.13-0.07-0.19-0.22-0.12-0.36c0.82-1.63,1.47-3.35,1.92-5.11
				c0.04-0.14,0.18-0.23,0.32-0.19c0.06,0.02,0.12,0.05,0.16,0.11c0.04,0.06,0.06,0.14,0.04,0.22c-0.46,1.8-1.12,3.56-1.96,5.22l0,0
				C123,163,122.91,163.05,122.82,163.05z M122.7,162.74L122.7,162.74L122.7,162.74z"/>
		</g>
		<g>
			<path class="st0" d="M124.29,161.31c0.73-1.46,1.19-3.04,1.35-4.66c0.01-0.09-0.13-0.09-0.14,0c-0.16,1.6-0.61,3.15-1.33,4.59
				C124.13,161.32,124.25,161.39,124.29,161.31z"/>
			<path class="st0" d="M124.23,161.55l-0.11-0.04c-0.13-0.07-0.19-0.23-0.12-0.36c0.71-1.42,1.15-2.95,1.31-4.53
				c0.02-0.15,0.15-0.24,0.3-0.24c0.14,0.02,0.24,0.14,0.22,0.28c-0.17,1.66-0.63,3.25-1.37,4.73l-0.04,0.08L124.23,161.55z"/>
		</g>
		<g>
			<path class="st0" d="M116.47,151.32c1.2-2.9,2.5-5.77,3.89-8.59c0.04-0.08-0.08-0.15-0.12-0.07c-1.39,2.83-2.69,5.71-3.9,8.62
				C116.3,151.37,116.43,151.4,116.47,151.32z"/>
			<path class="st0" d="M116.39,151.56c-0.08,0-0.16-0.04-0.21-0.1c-0.06-0.07-0.07-0.16-0.03-0.25c1.21-2.92,2.52-5.82,3.91-8.63
				c0.04-0.08,0.12-0.14,0.21-0.14c0.01,0,0.01,0,0.02,0c0.09,0,0.18,0.05,0.23,0.12c0.05,0.08,0.06,0.18,0.02,0.26
				c-1.38,2.82-2.69,5.7-3.88,8.58c-0.04,0.09-0.11,0.15-0.21,0.16C116.42,151.56,116.41,151.56,116.39,151.56z M116.29,151.25
				C116.29,151.25,116.29,151.25,116.29,151.25L116.29,151.25L116.29,151.25z M120.18,142.65
				C120.18,142.65,120.18,142.65,120.18,142.65C120.18,142.65,120.18,142.65,120.18,142.65z"/>
		</g>
		<g>
			<path class="st0" d="M117.22,151.76c1.51-3.29,3.03-6.59,4.54-9.88c0.04-0.08-0.08-0.16-0.12-0.07
				c-1.51,3.29-3.03,6.59-4.54,9.88C117.06,151.77,117.18,151.85,117.22,151.76z"/>
			<path class="st0" d="M117.17,152l-0.11-0.03c-0.06-0.03-0.11-0.07-0.14-0.13c-0.03-0.07-0.03-0.15,0-0.22l4.55-9.88
				c0.04-0.08,0.11-0.14,0.2-0.15c0.11-0.01,0.19,0.03,0.24,0.11c0.06,0.08,0.07,0.18,0.03,0.27l-4.58,9.96L117.17,152z
				 M121.82,141.89L121.82,141.89C121.82,141.89,121.82,141.89,121.82,141.89z"/>
		</g>
		<g>
			<path class="st0" d="M118.24,152.14c1.78-3.16,3.26-6.48,4.41-9.92c0.03-0.09-0.11-0.12-0.14-0.04c-1.15,3.43-2.62,6.74-4.4,9.88
				C118.07,152.15,118.19,152.22,118.24,152.14z"/>
			<path class="st0" d="M118.18,152.37c-0.05,0-0.09-0.01-0.13-0.04c-0.13-0.07-0.17-0.23-0.1-0.36c1.77-3.13,3.24-6.44,4.38-9.85
				c0.03-0.09,0.1-0.16,0.2-0.18c0.1-0.03,0.19,0.01,0.26,0.08c0.06,0.07,0.08,0.16,0.05,0.25c-1.15,3.44-2.64,6.78-4.43,9.95v0
				C118.36,152.32,118.27,152.37,118.18,152.37z M122.7,142.24C122.7,142.24,122.7,142.24,122.7,142.24
				C122.7,142.24,122.7,142.24,122.7,142.24z M122.47,142.16C122.47,142.16,122.47,142.16,122.47,142.16
				C122.47,142.16,122.47,142.16,122.47,142.16z"/>
		</g>
		<g>
			<path class="st0" d="M118.76,155.51c1.9-3.64,3.58-7.39,5.01-11.23c0.03-0.09-0.11-0.12-0.14-0.04c-1.44,3.83-3.11,7.57-5,11.19
				C118.59,155.52,118.72,155.6,118.76,155.51z"/>
			<path class="st0" d="M118.7,155.74c-0.09,0-0.18-0.05-0.23-0.13c-0.05-0.08-0.05-0.18-0.01-0.26c1.88-3.61,3.56-7.37,4.99-11.17
				c0.05-0.14,0.21-0.21,0.35-0.16c0.14,0.05,0.2,0.19,0.15,0.33c-1.44,3.84-3.13,7.63-5.03,11.25l0,0
				c-0.04,0.08-0.12,0.14-0.21,0.14C118.71,155.74,118.71,155.74,118.7,155.74z M118.81,155.53
				C118.81,155.53,118.81,155.53,118.81,155.53S118.81,155.53,118.81,155.53z"/>
		</g>
		<g>
			<path class="st0" d="M119.82,155.86c1.83-3.27,3.36-6.7,4.59-10.24c0.03-0.09-0.11-0.12-0.14-0.04
				c-1.22,3.53-2.76,6.94-4.58,10.2C119.65,155.87,119.77,155.94,119.82,155.86z"/>
			<path class="st0" d="M119.76,156.09c-0.1,0-0.18-0.05-0.23-0.13c-0.05-0.08-0.05-0.18,0-0.26c1.81-3.25,3.34-6.67,4.56-10.17
				c0.05-0.14,0.2-0.21,0.34-0.16c0.06,0.02,0.11,0.06,0.14,0.12c0.04,0.06,0.04,0.14,0.02,0.21c-1.23,3.54-2.78,7-4.6,10.27l0,0
				C119.94,156.04,119.86,156.09,119.76,156.09C119.76,156.09,119.76,156.09,119.76,156.09z M119.86,155.89L119.86,155.89
				L119.86,155.89z M119.65,155.77C119.65,155.77,119.65,155.77,119.65,155.77L119.65,155.77z"/>
		</g>
		<g>
			<path class="st0" d="M121.24,154.93c1.18-2.53,2.36-5.05,3.54-7.58c0.04-0.08-0.08-0.16-0.12-0.07
				c-1.18,2.53-2.36,5.05-3.54,7.58C121.08,154.94,121.2,155.01,121.24,154.93z"/>
			<path class="st0" d="M121.18,155.17l-0.11-0.04c-0.14-0.06-0.19-0.22-0.13-0.36l3.54-7.58c0.06-0.13,0.21-0.18,0.34-0.12
				c0.14,0.06,0.2,0.22,0.14,0.36l-3.58,7.66L121.18,155.17z M121.29,154.94L121.29,154.94L121.29,154.94z"/>
		</g>
		<g>
			<path class="st0" d="M122.15,155.05c0.84-2.07,1.85-4.06,3.02-5.95c0.05-0.08-0.07-0.15-0.12-0.07
				c-1.18,1.91-2.19,3.91-3.03,5.99C121.98,155.1,122.12,155.14,122.15,155.05z"/>
			<path class="st0" d="M122.08,155.29c-0.08,0-0.16-0.04-0.21-0.1c-0.06-0.07-0.07-0.16-0.03-0.25c0.85-2.09,1.87-4.12,3.05-6.01
				c0.08-0.13,0.24-0.16,0.37-0.08c0.12,0.08,0.16,0.23,0.09,0.36c-1.17,1.89-2.18,3.88-3,5.92c-0.04,0.09-0.12,0.15-0.21,0.16
				C122.11,155.29,122.09,155.29,122.08,155.29z"/>
		</g>
		<g>
			<path class="st0" d="M125.05,150.01c-0.64,1.34-1.28,2.68-1.92,4.03c-0.04,0.08,0.08,0.15,0.12,0.07
				c0.64-1.34,1.28-2.68,1.92-4.03C125.21,150,125.09,149.93,125.05,150.01z"/>
			<path class="st0" d="M123.2,154.34c-0.09,0-0.17-0.05-0.23-0.12c-0.05-0.08-0.06-0.18-0.02-0.27l1.92-4.03
				c0.06-0.13,0.21-0.18,0.34-0.12c0.14,0.07,0.19,0.22,0.13,0.36l-1.92,4.02c-0.04,0.08-0.12,0.14-0.21,0.15
				C123.21,154.34,123.21,154.34,123.2,154.34z M123.31,154.12L123.31,154.12C123.31,154.12,123.31,154.12,123.31,154.12z"/>
		</g>
		<g>
			<path class="st0" d="M124.7,152.07c-0.24,0.47-0.47,0.95-0.71,1.42c-0.04,0.08,0.08,0.15,0.12,0.07
				c0.24-0.47,0.47-0.95,0.71-1.42C124.87,152.06,124.75,151.98,124.7,152.07z"/>
			<path class="st0" d="M124.06,153.79c-0.09,0-0.18-0.05-0.23-0.12c-0.05-0.08-0.06-0.18-0.02-0.26l0.75-1.5l0.19-0.07l0.11,0.04
				c0.13,0.07,0.19,0.23,0.12,0.36l-0.71,1.43c-0.04,0.08-0.12,0.14-0.21,0.14C124.07,153.79,124.06,153.79,124.06,153.79z
				 M123.94,153.48C123.94,153.48,123.94,153.48,123.94,153.48L123.94,153.48z"/>
		</g>
	</g>
	<path class="st0" d="M90.89,58.84c-3.19-2.8-4.8-5.33-4.92-7.72c-0.15-3.01,1.98-5.3,4.23-7.72c3-3.23,6.11-6.57,3.7-11.94
		c-1.05-2.34-3.72-4.23-6.54-6.23c-4.13-2.93-8.4-5.96-8.34-10.92c0.06-4.48,3.41-6.47,6.65-8.4c1.95-1.16,3.96-2.36,5.14-4.08
		l0.96,0.65c-1.32,1.93-3.44,3.2-5.5,4.42c-3.1,1.85-6.03,3.59-6.08,7.42c-0.05,4.36,3.97,7.21,7.85,9.96
		c2.95,2.09,5.74,4.07,6.93,6.7c2.73,6.07-0.8,9.86-3.91,13.2c-2.08,2.24-4.05,4.35-3.92,6.87c0.1,2.06,1.59,4.32,4.53,6.91
		L90.89,58.84z"/>
	<path class="st0" d="M109.13,62.35c-0.56-5.03,1.98-9.97,4.22-14.33c2.26-4.4,4.22-8.2,2.71-11.08c-1.2-2.29-3.19-3.23-5.12-4.15
		c-2.84-1.34-5.78-2.73-4.74-8.46c0.47-2.56,2.04-3.83,3.42-4.95c1.84-1.49,3.29-2.67,2.43-6.42l1.13-0.26
		c1.03,4.46-0.93,6.05-2.83,7.58c-1.35,1.09-2.62,2.12-3.01,4.26c-0.88,4.85,1.21,5.84,4.09,7.2c2,0.95,4.27,2.02,5.65,4.66
		c1.78,3.41-0.4,7.66-2.71,12.15c-2.17,4.22-4.62,8.99-4.1,13.67L109.13,62.35z"/>
	<path class="st0" d="M69.38,60.5c-0.23-0.83-0.32-2.09-0.42-3.41c-0.13-1.75-0.28-3.73-0.75-5.06c-0.3-0.84-1.3-2.08-2.19-3.18
		c-1.02-1.26-1.65-2.07-1.78-2.67c-1.01-4.61,0.08-8.95,1.13-13.14c1.06-4.23,2.15-8.61,1.1-13.31l1.13-0.25
		c1.11,4.97-0.02,9.48-1.11,13.84c-1.06,4.25-2.06,8.26-1.12,12.61c0.08,0.36,0.9,1.37,1.55,2.18c0.99,1.23,2.01,2.49,2.38,3.52
		c0.52,1.48,0.68,3.54,0.82,5.36c0.1,1.27,0.18,2.47,0.38,3.19L69.38,60.5z"/>
</g>
</svg>
