<?xml version="1.0" encoding="utf-8"?>
<!-- Generator: Adobe Illustrator 25.2.1, SVG Export Plug-In . SVG Version: 6.00 Build 0)  -->
<svg version="1.1" id="Capa_1" xmlns="http://www.w3.org/2000/svg" xmlns:xlink="http://www.w3.org/1999/xlink" x="0px" y="0px"
	 viewBox="0 0 200 200" style="enable-background:new 0 0 200 200;" xml:space="preserve">
<style type="text/css">
	.st0{fill:#FFFFFF;}
</style>
<g id="_x31__00000089548858871989921410000009437733156074162824_">
	<path class="st0" d="M161.76,84.82c0.37-3.84-1.73-8.44-6.22-11.1c5.14-0.14,10.26-1.49,10.88-5.94c0.64-4.59-2.86-9.73-7.86-13.13
		c2.91-0.01,5.54-0.68,7.27-2.16c0.27,0.1,0.59,0.1,0.73-0.13c0.48-0.77,0.8-1.56,0.99-2.38c0.07-0.22,0.14-0.43,0.19-0.66
		c0.02-0.1,0-0.18-0.04-0.26c0.58-5.35-4.21-11.38-9.49-16.03c-8.43-7.43-18.53-13.77-29.04-18.59c-5.07-2.32-10.29-4.31-15.56-5.91
		c-4.55-1.38-9.59-2.9-14.02-2.66c-3.35,0.18-6.56,1.61-7.05,4.44c-0.25,1.46,0.28,3.05,1.39,4.4c-0.67-0.3-1.33-0.59-2.01-0.86
		c-4.52-1.83-10.27-3.3-13.84-1.24c-2.95,1.69-2.82,5.38-0.63,8.5c1.15,1.64,2.83,3.16,4.68,4.54c-0.02,0-0.04-0.01-0.07,0
		c-3.43,0.34-4.32,3.32-2.32,5.84c-1.63-0.86-3.28-1.62-4.99-2.16c-5.07-1.58-10.5-0.25-10.43,4.17c0.03,1.77,0.78,3.47,1.97,5.05
		c0,0.09,0.07,0.2,0.18,0.24c0.34,0.43,0.71,0.86,1.11,1.27c-0.09,0.13,0.09,0.38,0.32,0.33c0,0,0.01,0,0.01,0
		c2.24,2.21,5.22,4.1,8.02,5.48c0.3,0.14,0.59,0.29,0.89,0.43c-1.26,0.33-1.91,1.44-1.67,2.7c0.35,1.82,2.01,3.34,3.48,4.9
		c-0.16,0.13,0.1,0.35,0.31,0.34c0.08,0.08,0.15,0.17,0.22,0.25c-0.03-0.01-0.06-0.03-0.09-0.04c-0.05-0.06-0.13-0.11-0.23-0.11
		c-0.43-0.2-0.86-0.41-1.29-0.62c-0.82-0.4-1.62-0.83-2.42-1.27c-0.06-0.07-0.15-0.12-0.25-0.14c-1.98-1.08-3.94-2.2-6.01-3.08
		c-4.42-1.89-8.25-1.51-8.81,2.33c-0.26,1.84,0.41,3.73,1.62,5.53c-0.12,0.11,0.04,0.28,0.22,0.33c0.61,0.85,1.33,1.67,2.13,2.44
		c-0.04,0.12-0.02,0.27,0.1,0.44c0.2,0.27,0.4,0.54,0.58,0.81c0.01,0.07,0.06,0.14,0.13,0.19c2.2,3.26,3.14,6.65,2.75,9.76
		c-0.04-0.15-0.15-0.29-0.39-0.38c-2.6-1.07-5.44-2.23-8.05-2.02c-1.59,0.12-2.91,0.75-3.54,1.81c-0.2-0.02-0.38,0.03-0.48,0.19
		c-0.22,0.36-0.37,0.72-0.48,1.09c-0.24-0.28-0.71-0.46-1-0.22c-10.68,9.24-13.05,23.5-6.99,37.78c0,0.05,0.02,0.1,0.07,0.15
		c1.13,2.65,2.56,5.29,4.27,7.91c-0.13,0.04-0.23,0.14-0.26,0.29c-0.77,4.76-2.24,9.22-4.39,13.42c-0.07,0.15-0.04,0.29,0.06,0.42
		c-0.32,0.11-0.45,0.49-0.05,0.82c0.01,0.01,0.02,0.02,0.04,0.03c-0.03,0.05-0.05,0.12-0.04,0.2c0.21,3.15-0.34,6.03-1.24,8.79
		c-0.23-0.11-0.46-0.22-0.7-0.33c-0.36-0.18-0.64-0.07-0.75,0.12c-0.52-0.12-1.04-0.24-1.56-0.36c-0.44-0.1-0.85,0.18-0.61,0.57
		c0.49,0.81,1.21,1.47,2.13,2c0.73,0.41,1.14-0.43,0.42-0.84c-0.23-0.13-0.43-0.28-0.62-0.44c0.3,0.07,0.6,0.14,0.9,0.21
		c-0.17,0.04-0.22,0.26,0.02,0.36c0.09,0.04,0.19,0.07,0.28,0.1c-0.66,1.78-1.43,3.52-2.22,5.27c-0.33-0.12-0.67-0.24-1-0.37
		c0.1-0.3-0.17-0.75-0.68-0.75c-0.33,0-0.62,0.07-0.87,0.18c-0.01,0-0.01,0-0.02-0.01c-0.51-0.19-0.72,0.16-0.59,0.5
		c-0.16,0.26-0.22,0.57-0.13,0.93c0.09,0.35,0.3,0.68,0.6,0.95c-0.14,0.12-0.27,0.25-0.38,0.4c-0.14,0.2,0.33,0.43,0.47,0.23
		c0.09-0.12,0.19-0.23,0.31-0.32c0.37,0.25,0.79,0.42,1.22,0.49c-0.1,0.2-0.19,0.39-0.29,0.59c-0.11,0.04-0.22,0.07-0.33,0.11
		c-0.19,0.06-0.08,0.26,0.1,0.35c-0.68,1.31-1.4,2.63-2.08,3.97c-0.59-0.15-1.17-0.3-1.76-0.46c-0.42-0.11-0.64,0.11-0.64,0.37
		c-0.07-0.03-0.14-0.07-0.21-0.1c-0.75-0.37-1.17,0.47-0.42,0.84c0.26,0.13,0.53,0.26,0.79,0.39c0.35,0.17,0.7,0.34,1.05,0.52
		c-0.5,0.43-1,0.87-1.49,1.3c-0.19,0.17,0.22,0.48,0.41,0.31c0.43-0.38,0.87-0.75,1.3-1.13c-0.67,1.49-1.24,3.03-1.59,4.63
		c-0.2-0.06-0.4-0.11-0.6-0.17c-0.37-0.11-0.58,0.04-0.63,0.26c-0.42-0.17-0.97-0.08-0.82,0.36c0.17,0.51,0.73,0.91,1.28,1.03
		c0.16,0.1,0.32,0.21,0.48,0.31c-0.06,0.58-0.08,1.17-0.07,1.77c-0.4,0.25-0.8,0.51-1.2,0.76c-0.22,0.14,0.1,0.51,0.32,0.37
		c0.3-0.19,0.59-0.38,0.89-0.56c0.02,0.4,0.06,0.8,0.12,1.21c0.09,0.65,1.31,0.72,1.22,0.08c-0.1-0.7-0.13-1.38-0.12-2.06
		c0.54-0.34,1.07-0.68,1.61-1.02c0.22-0.14-0.1-0.51-0.32-0.37c-0.43,0.27-0.85,0.54-1.28,0.81c0.01-0.27,0.04-0.54,0.07-0.81
		c0.05-0.09,0.06-0.19,0.03-0.31c0.02-0.13,0.04-0.25,0.06-0.38c1.87,0.54,3.74,1.06,5.61,1.57c-1.86,1.18-3.73,2.37-5.59,3.55
		c-0.04,0.03-0.06,0.06-0.07,0.1c-1.19-0.3-2.38-0.61-3.56-0.91c-0.42-0.11-0.64,0.11-0.64,0.37c-0.58-0.19-1,0.3-0.46,0.78
		c0.23,0.2,0.45,0.4,0.68,0.6c0.24,0.21,0.49,0.24,0.68,0.16c1.26,0.61,2.58,1,3.91,1.13c-0.62,2.78,0.38,5.97,2.81,8.77
		c-0.12,0.05-0.2,0.14-0.21,0.29c-0.11,1.99-0.17,4.25,1.1,6.35c-0.18,0.05-0.36,0.1-0.55,0.14c-0.28,0.07-0.07,0.47,0.21,0.4
		c0.2-0.05,0.39-0.1,0.58-0.15c0.04,0.05,0.06,0.11,0.1,0.16c0.24,0.32,0.5,0.62,0.8,0.91c-0.15,0.12,0.13,0.42,0.37,0.34l0,0
		c2.04,1.76,5.08,2.91,7.42,4.12c2.72,1.41,5.54,2.57,8.34,2.22c2.71-0.34,4.49-2.03,6.34-3.36c0.26-0.19,0.13-0.48-0.13-0.68
		c0.13-0.09,0.17-0.24,0.14-0.4c0.05,0,0.1,0.01,0.15-0.01c5.85-1.42,10.05-4.7,11.97-9.4c0.3,0.02,0.6,0.09,0.91,0.22
		c-0.07-0.01-0.13-0.01-0.2-0.03c-0.79-0.17-0.89,0.79-0.09,0.97c1.31,0.28,2.56,0.18,3.52-0.33c0.29-0.15,0.24-0.46,0.04-0.69
		c0.12-0.25-0.03-0.65-0.51-0.77c-0.58-0.15-1.15-0.3-1.73-0.44c1.5-1.38,2.99-2.76,4.49-4.14c1.02,0.04,2.04,0.07,3.06,0.11
		c0.63,0.02,0.59-0.64,0.14-0.91c0.77,0.1,0.53-0.89-0.25-1.02c-0.13-0.02-0.26-0.04-0.39-0.06c0.61-0.69,1.06-1.47,1.36-2.36
		c0.08-0.23-0.39-0.46-0.47-0.23c-0.27,0.8-0.67,1.51-1.2,2.15c-0.09-0.11-0.28-0.19-0.4-0.08c-0.12,0.11-0.25,0.23-0.37,0.34
		c-0.57-0.09-1.14-0.19-1.71-0.29c0.33-0.52,0.66-1.04,0.98-1.56c1.25-1.01,2.51-2.02,3.76-3.03c0.29,0.04,0.58,0.05,0.86,0.05
		c-1.45,1.27-2.9,2.53-4.35,3.8c-0.19,0.17,0.22,0.48,0.41,0.31c1.58-1.39,3.17-2.77,4.76-4.16c0.01-0.01,0.02-0.03,0.03-0.04
		c0.69-0.13,1.31-0.42,1.76-0.86c0.45-0.43-0.57-1.21-1.02-0.78c0,0-0.01,0.01-0.02,0.01c-0.12-0.18-0.33-0.34-0.61-0.39
		c-0.32-0.05-0.63-0.11-0.95-0.16c1.76-0.7,3.22-1.69,4.38-2.93c0.54-0.02,1.07-0.07,1.58-0.17c0.44-0.08,0.4-0.49,0.15-0.76
		c-0.03-0.27-0.29-0.59-0.71-0.65c-0.91-0.14-1.82-0.29-2.73-0.44c0.52-0.7,1.03-1.4,1.51-2.12c1.17,0.33,2.27,0.2,3.07-0.3
		c0.01,0,0.02-0.01,0.02-0.01c0,0,0,0,0,0c0.04-0.02,0.08-0.04,0.11-0.07c0.44-0.31-0.22-0.91-0.75-0.88
		c-0.12-0.15-0.31-0.28-0.55-0.31c-0.27-0.04-0.54-0.09-0.82-0.14c0.32-0.53,0.62-1.07,0.91-1.62c0.03-0.05,0.03-0.1,0.03-0.15
		c0.16,0.03,0.31,0.07,0.47,0.1c0.18,0.03,0.32,0.01,0.42-0.05c0.3,0.16,0.66,0.18,0.77-0.11c1.37-3.77,2.96-7.42,4.78-10.97
		c0.01-0.03,0.01-0.06,0.02-0.09c0.01,0,0.02,0,0.03,0c0.12-0.03,0.25-0.06,0.37-0.09c0.79,0.18,1.58,0.36,2.38,0.52
		c0.71,0.15,0.86-0.61,0.31-0.88c17.84-4.48,30.03-16.61,32.46-32.39c0.03-0.21-0.09-0.38-0.27-0.49c2.21-2.5,1.4-6.37-2.12-9.41
		c-0.03-0.02-0.05-0.03-0.08-0.05c0.01-0.04,0.03-0.09,0.05-0.13c0.07-0.03,0.14-0.06,0.21-0.08c0.16-0.07,0.08-0.25-0.06-0.33
		c0.95-2.55,2.67-4.69,5.02-6.3c0.03-0.01,0.07-0.02,0.1-0.03c0.07-0.02,0.1-0.06,0.1-0.1c2.94-1.94,6.82-3.05,11.35-3.05
		c0.21,0,0.34-0.08,0.41-0.19C157.49,91.66,161.31,89.39,161.76,84.82z M38.2,156.1c0.04,0.01,0.07,0.02,0.11,0.03
		c-0.01,0.01-0.01,0.02-0.02,0.03C38.27,156.14,38.23,156.12,38.2,156.1z M80.03,180.4c-0.27,0.09-0.56,0.13-0.87,0.15
		c0.06-0.1,0.08-0.23,0.04-0.36C79.48,180.26,79.76,180.33,80.03,180.4z M85.36,174.02c0.24,0.04,0.48,0.08,0.72,0.12
		c-0.28-0.01-0.55-0.02-0.83-0.03C85.29,174.08,85.32,174.05,85.36,174.02z M84.78,174.04c0.01,0.02,0.03,0.04,0.05,0.06
		c-0.04,0-0.07,0-0.11,0C84.74,174.07,84.76,174.05,84.78,174.04z M89.6,166.99c0.02,0,0.04,0.01,0.06,0.01
		c-0.03,0.01-0.07,0.02-0.1,0.03C89.57,167.01,89.59,167,89.6,166.99z M158.44,55.71c-0.55,0.81-1.11,1.63-1.66,2.44
		c0-0.02,0.01-0.04,0.01-0.06c0.18-1.31-0.73-2.58-2.4-3.13c-0.4-0.13-0.62,0.04-0.64,0.29c-0.69,0.2-1.39,0.39-2.08,0.59
		c-0.27,0.08-0.06,0.48,0.21,0.4c0.68-0.19,1.35-0.38,2.03-0.57c0.09,0.11,0.21,0.2,0.39,0.26c0.38,0.73,0.76,1.46,1.14,2.19
		c-1.05,0.83-2.36,1.02-3.93,0.56c-0.96-0.2-1.93-0.52-2.89-0.79c-1.36-0.39-2.71-0.79-4.07-1.18c0.57-0.29,1.14-0.58,1.71-0.86
		c0.24-0.12-0.08-0.49-0.32-0.37c-0.64,0.32-1.28,0.65-1.93,0.97c-0.04,0.02-0.06,0.05-0.07,0.09c-0.63-0.18-1.26-0.36-1.89-0.55
		c-0.56-0.16-1.13-0.33-1.69-0.5c0,0,0.01,0,0.01,0c0.85-0.57,1.7-1.14,2.55-1.71c0.21-0.14-0.2-0.45-0.41-0.31
		c-0.85,0.57-1.7,1.14-2.55,1.7c-0.08,0.05-0.07,0.13-0.03,0.19c-0.4-0.12-0.79-0.23-1.19-0.35c-0.01-0.01-0.01-0.01-0.02-0.02
		c-0.17-0.19-0.35-0.37-0.54-0.55c0.69-0.41,1.37-0.82,2.06-1.23c0.22-0.13-0.1-0.5-0.32-0.37c-0.69,0.41-1.38,0.83-2.07,1.24
		c-0.01,0.01-0.02,0.02-0.03,0.03c-0.3-0.27-0.61-0.53-0.93-0.78c0.91-0.43,1.82-0.87,2.72-1.3c0.24-0.12-0.08-0.49-0.32-0.37
		c-0.95,0.45-1.89,0.91-2.84,1.36c-0.41-0.29-0.84-0.57-1.29-0.82c0.44-0.42,0.88-0.84,1.32-1.26c0.18-0.17-0.23-0.48-0.41-0.31
		c-0.41,0.39-0.82,0.78-1.22,1.17c-0.07-0.04-0.16-0.06-0.24-0.01c-0.04,0.02-0.07,0.04-0.11,0.06c-0.44-0.22-0.89-0.41-1.36-0.6
		c0-0.15-0.22-0.34-0.4-0.25c-0.04,0.02-0.09,0.04-0.13,0.06c-0.21-0.02-0.36,0.08-0.44,0.21c-0.69,0.34-1.38,0.67-2.07,1.01
		c-0.04,0.02-0.06,0.05-0.07,0.09c-0.54-0.17-1.08-0.33-1.62-0.5c1.29-1.24,2.82-2.24,4.61-3c0.25-0.11-0.07-0.48-0.32-0.37
		c-1.87,0.8-3.47,1.84-4.8,3.15c-0.02,0.02-0.02,0.03-0.03,0.05c-0.06-0.02-0.11-0.03-0.17-0.05c-2.18-0.69-4.36-1.39-6.54-2.12
		c0,0,0.01,0,0.01,0c2.1-1.15,4.21-2.3,6.31-3.45c0.55,0.18,1.1,0.37,1.65,0.55c-0.23,0.11,0.08,0.48,0.33,0.37
		c0.11-0.05,0.22-0.1,0.33-0.15c0.15,0.05,0.31,0.1,0.46,0.15c-0.01,0-0.03,0-0.04,0.01c-1.96,1.01-3.91,2.02-5.87,3.03
		c-0.23,0.12,0.09,0.49,0.32,0.37c1.96-1.01,3.91-2.02,5.87-3.03c0.12-0.06,0.09-0.19,0.01-0.29c0.37,0.12,0.75,0.25,1.12,0.37
		c3.99,1.31,8.17,2.83,12.35,4.16c-0.18,0.12-0.36,0.23-0.55,0.35c-0.22,0.14,0.1,0.51,0.32,0.37c0.28-0.17,0.55-0.35,0.83-0.52
		c0.78,0.24,1.55,0.47,2.32,0.7c-0.45,0.23-0.91,0.46-1.36,0.69c-0.24,0.12,0.08,0.49,0.32,0.37c0.57-0.29,1.14-0.58,1.71-0.87
		c0.61,0.17,1.21,0.34,1.82,0.49c-0.4,0.14-0.79,0.28-1.19,0.43c-0.26,0.09,0.06,0.46,0.32,0.37c0.56-0.2,1.11-0.4,1.67-0.6
		c0.66,0.16,1.32,0.32,1.97,0.46c-0.93,0.29-1.66,0.79-2.16,1.49c-0.14,0.2,0.33,0.43,0.47,0.23c0.52-0.74,1.33-1.24,2.37-1.47
		c0.07-0.02,0.11-0.05,0.12-0.1c0.75,0.15,1.5,0.29,2.24,0.4c0.13,0.02,0.26,0.03,0.4,0.05c0.22,0.39,0.95,0.63,1.14,0.21
		C156.85,54.53,157.59,55.05,158.44,55.71z M135.23,53.3c0.53,0.33,1.03,0.7,1.5,1.1c-0.78-0.23-1.56-0.47-2.35-0.7
		C134.67,53.57,134.95,53.43,135.23,53.3z M133.8,53.46c-0.03,0.01-0.04,0.03-0.06,0.05c-0.23-0.07-0.47-0.14-0.7-0.21
		c0.35-0.21,0.7-0.42,1.05-0.63c0.22,0.11,0.44,0.23,0.66,0.35C134.43,53.16,134.11,53.31,133.8,53.46z M133.3,52.57
		c-0.25,0.15-0.5,0.3-0.75,0.45c-0.04,0.03-0.06,0.06-0.07,0.11c-0.62-0.19-1.23-0.38-1.85-0.57c0.52-0.25,1.04-0.51,1.55-0.76
		C132.36,52.21,132.83,52.49,133.3,52.57z M120.84,49.42c-4.31-1.44-8.6-2.96-12.86-4.59c2.15-1.02,4.29-2.04,6.44-3.06
		c0.1-0.05,0.1-0.15,0.05-0.23c0.84,0.31,1.68,0.62,2.52,0.92c-2.06,0.75-3.87,1.77-5.41,3.06c-0.19,0.16,0.21,0.47,0.41,0.31
		c1.57-1.31,3.43-2.34,5.55-3.09c0.04-0.01,0.06-0.03,0.08-0.06c0.84,0.3,1.67,0.59,2.51,0.89c-2.13,0.83-4.13,1.82-5.97,2.97
		c-0.22,0.14,0.1,0.51,0.32,0.37c1.94-1.22,4.05-2.25,6.31-3.11c0.78,0.27,1.57,0.54,2.35,0.81c-2.06,0.87-4.13,1.73-6.19,2.6
		c-0.25,0.1,0.07,0.47,0.32,0.37c2.18-0.91,4.36-1.83,6.54-2.74c1.03,0.35,2.05,0.69,3.07,1.03c-2,1.1-4.01,2.19-6.01,3.29
		C120.76,49.22,120.77,49.33,120.84,49.42z M90.55,37.29c-1.31-0.64-2.62-1.29-3.91-1.97c-1.55-0.81-3.1-1.72-4.68-2.62
		c0.01-0.02,0.03-0.03,0.03-0.05c2.07-1.15,4.3-2.1,6.69-2.85c0.72,0.41,1.45,0.83,2.18,1.23c-2.34,0.72-4.68,1.44-7.01,2.16
		c-0.27,0.08,0.06,0.45,0.32,0.37c2.42-0.75,4.83-1.49,7.25-2.23c0.91,0.49,1.82,0.97,2.74,1.44c-2.39,0.64-4.65,1.44-6.78,2.42
		c-0.24,0.11,0.08,0.48,0.32,0.37c2.15-0.99,4.43-1.8,6.85-2.44c0.1,0.06,0.24,0.1,0.33,0.03c0,0,0.01-0.01,0.02-0.01
		c0.46,0.23,0.91,0.46,1.37,0.68c-1.92,1.04-3.84,2.08-5.77,3.12C90.36,37.03,90.43,37.19,90.55,37.29z M81.85,32.19
		c-0.03-0.03-0.05-0.07-0.1-0.1c-0.66-0.5-1.13-1.05-1.44-1.6c0.01,0,0.03,0,0.04-0.01c1.77-0.9,3.73-1.53,5.89-1.88
		c0.1-0.02,0.14-0.08,0.13-0.15c0.53,0.32,1.06,0.64,1.57,0.93c0.07,0.04,0.14,0.08,0.2,0.11C85.91,30.23,83.81,31.12,81.85,32.19z
		 M90.82,37.32c1.99-1.08,3.99-2.16,5.98-3.23c1.04,0.5,2.08,1,3.13,1.48c-2.02,1.06-4.05,2.11-6.08,3.17
		c-0.05,0.02-0.06,0.06-0.07,0.1c-1.05-0.49-2.09-0.99-3.13-1.49C90.71,37.35,90.77,37.35,90.82,37.32z M100.48,35.81
		c0.67,0.3,1.34,0.6,2.01,0.89c-1.96,0.95-3.93,1.9-5.89,2.85c-0.24,0.12,0.08,0.49,0.32,0.37c2.02-0.98,4.04-1.96,6.06-2.93
		c0.02-0.01,0.04-0.03,0.06-0.05c0.78,0.34,1.56,0.67,2.34,1c-1.88,0.78-3.75,1.56-5.63,2.34c-0.25,0.1,0.07,0.47,0.32,0.37
		c1.97-0.82,3.94-1.64,5.91-2.46c0.83,0.34,1.65,0.68,2.48,1.01c-2.2,1.06-4.39,2.11-6.59,3.17c-0.74-0.31-1.47-0.61-2.2-0.92
		c-1.81-0.78-3.61-1.58-5.39-2.41C96.34,37.97,98.41,36.89,100.48,35.81z M109.05,39.45c0.79,0.31,1.57,0.62,2.36,0.92
		c-2.09,1.1-4.17,2.2-6.26,3.3c-0.02,0.01-0.03,0.02-0.04,0.03c-0.89-0.35-1.78-0.71-2.66-1.08
		C104.65,41.57,106.85,40.51,109.05,39.45z M112,40.6c0.7,0.27,1.4,0.53,2.1,0.79c0,0,0,0,0,0c-2.24,1.07-4.49,2.13-6.73,3.2
		c-0.56-0.22-1.13-0.44-1.69-0.66C107.79,42.82,109.9,41.71,112,40.6z M166.48,48.37c-0.03,0.49-0.12,0.98-0.25,1.46
		c-0.45,1.17-1.25,2.02-2.29,2.61C165.02,51.21,165.86,49.85,166.48,48.37z M80.94,23.45C80.94,23.45,80.94,23.45,80.94,23.45
		c1.24-1.14,2.83-1.89,4.74-2.26c0.29-0.05,0.07-0.46-0.21-0.4c-1.98,0.37-3.63,1.15-4.9,2.31c-0.77-0.72-1.46-1.47-2.01-2.25
		c-0.63-0.87-1.09-1.84-1.33-2.79c1.41,0.05,2.65-0.28,3.59-0.96c0.21-0.15-0.2-0.46-0.41-0.31c-0.86,0.61-2,0.9-3.28,0.86
		c-0.23-1.25-0.04-2.44,0.75-3.33c1.81-2.05,5.56-1.93,8.87-1.19c6.04,1.35,11.54,4.9,16.96,7.86c0.83,0.45,1.66,0.9,2.49,1.34
		c-0.31,0.15-0.63,0.3-0.94,0.45c-0.24,0.12,0.08,0.49,0.32,0.37c0.38-0.18,0.76-0.37,1.14-0.55c5.07,2.67,10.25,5.14,15.52,7.36
		c6.95,2.93,14.04,5.46,21.2,7.52c5.03,1.45,10.49,3.12,14.89,1.67c0.66-0.22-0.15-1.14-0.8-0.93c-3.1,1.02-6.79,0.23-10.4-0.71
		c-1.42-0.37-2.83-0.77-4.25-1.19c1.11-0.11,2.22-0.23,3.33-0.34c0.3-0.03,0.08-0.43-0.21-0.4c-1.16,0.12-2.32,0.24-3.48,0.36
		c-0.16,0.02-0.17,0.15-0.09,0.25c-2.4-0.71-4.8-1.47-7.18-2.28c-7.75-2.64-15.37-5.82-22.77-9.45c-1.55-0.76-3.09-1.58-4.62-2.41
		c0.85-0.41,1.7-0.82,2.54-1.23c0.24-0.12-0.08-0.49-0.32-0.37c-0.91,0.44-1.82,0.88-2.73,1.32c-0.99-0.54-1.98-1.1-2.97-1.65
		c1.31-0.91,3.09-1.26,5.06-1.02c1.19,1.29,3.63,4,1.7,3.6c-0.79-0.16-0.89,0.8-0.09,0.96c1.91,0.39,2.54-0.83,1.8-2.27
		c-0.44-0.85-1.38-1.59-2.09-2.33c-0.67-0.7-1.01-0.82-0.63-1.41c0.52-0.81,3.18-0.24,4.18,0.01c4.98,1.25,33.7,12.27,26.55,17.17
		c-0.53,0.36,0.5,1.14,1.02,0.78c2.15-1.47,1.31-3.68-0.45-5.67c1.05-0.63,2.34-0.98,3.79-1.03c0.3-0.01,0.21-0.42-0.09-0.41
		c-1.55,0.04-2.9,0.4-4.03,1.07c-0.67-0.7-1.44-1.37-2.22-1.95c0.86-0.2,1.73-0.4,2.59-0.6c0.28-0.06,0.07-0.47-0.21-0.4
		c-0.95,0.22-1.9,0.44-2.85,0.66c-0.04-0.02-0.07-0.05-0.11-0.08c-3.98-2.78-8.23-4.59-12.61-6.28c1.25-0.23,2.5-0.45,3.75-0.68
		c0.29-0.05,0.07-0.45-0.21-0.4c-1.31,0.24-2.62,0.48-3.93,0.72c-0.11,0.02-0.14,0.09-0.13,0.16c-1.75-0.67-3.52-1.32-5.29-2.01
		c-0.31-0.12-0.67-0.27-1.05-0.42c0.52-0.79,1.62-1.18,2.9-0.95c0.32,0.06,0.36-0.33,0.04-0.39c-1.52-0.28-2.84,0.16-3.42,1.14
		c-0.92-0.38-1.97-0.79-3.04-1.15c1.39-0.28,2.78-0.56,4.17-0.84c0.28-0.06,0.07-0.46-0.21-0.4c-1.61,0.32-3.21,0.64-4.82,0.97
		c-1.4-0.41-2.78-0.68-3.91-0.56c0.88-0.92,2.2-1.43,3.81-1.41c0.31,0,0.22-0.4-0.09-0.41c-1.83-0.02-3.34,0.56-4.28,1.66
		c-0.07,0.08-0.03,0.17,0.04,0.25c-0.43,0.1-0.82,0.27-1.14,0.53c-0.58,0.48-0.45,1,0,1.72c0.02,0.03,0.08,0.1,0.16,0.19
		c-2.01-0.19-3.81,0.24-5.13,1.2c-1.96-1.1-3.93-2.19-5.92-3.22c-0.05-0.13-0.16-0.26-0.37-0.36c-0.75-0.34-1.38-0.7-1.89-1.09
		c0.89-0.37,1.78-0.74,2.67-1.1c0.25-0.1-0.07-0.47-0.32-0.37c-0.92,0.38-1.84,0.76-2.76,1.14c-1.17-1.03-1.61-2.17-1.53-3.26
		c0.07,0.02,0.14,0.01,0.18-0.05c0.82-1.06,2.07-1.74,3.68-1.97c0.29-0.04,0.08-0.44-0.21-0.4c-1.46,0.21-2.65,0.77-3.51,1.64
		c0.37-1.25,1.39-2.37,2.71-3.09c-0.23,0.2-0.37,0.46-0.4,0.77c-0.02,0.25,0.47,0.38,0.5,0.13c0.05-0.49,0.45-0.81,1.04-0.85
		c0.3-0.02,0.09-0.42-0.21-0.4c-0.11,0.01-0.22,0.03-0.32,0.05c0.49-0.21,1-0.37,1.54-0.46c3.62-0.62,8.05,0.61,11.94,1.68
		c8.37,2.31,16.61,5.61,24.41,9.74c7.6,4.02,14.78,8.82,21.17,14.23c4.84,4.1,9.68,9.43,10.17,14.4c-0.03,0.01-0.05,0.04-0.06,0.07
		c-0.7,2.1-1.83,3.97-3.4,5.59c-0.05,0.05-0.05,0.12-0.02,0.18c-0.57,0.22-1.18,0.38-1.84,0.49c1.18-2.19,2.36-4.39,3.54-6.58
		c0.11-0.21-0.35-0.44-0.47-0.23c-1.24,2.3-2.48,4.6-3.72,6.9c-1.2,0.14-2.51,0.13-3.85,0.01c-0.01,0-0.02-0.01-0.03-0.02
		c-0.19-0.1-0.41-0.1-0.58-0.04c-1.37-0.15-2.77-0.4-4.12-0.71c0.02-0.14-0.21-0.34-0.41-0.27c-0.1,0.03-0.19,0.07-0.29,0.1
		c-0.64-0.16-1.26-0.32-1.87-0.5c-4.9-1.42-9.79-2.99-14.67-4.59c0.02-0.01,0.04-0.03,0.05-0.05c0.65-1.1,1.75-1.84,3.23-2.17
		c0.28-0.06,0.07-0.47-0.21-0.4c-1.59,0.36-2.78,1.16-3.48,2.34c-0.03,0.05-0.02,0.1,0,0.15c-1.07-0.35-2.14-0.7-3.2-1.06
		c1.03-0.46,2.06-0.93,3.09-1.4c0.25-0.11-0.08-0.48-0.32-0.37c-1.14,0.52-2.29,1.03-3.43,1.55c-0.15-0.05-0.3-0.1-0.45-0.15
		c-0.26-0.09-0.52-0.17-0.78-0.26c1.04-0.48,2.08-0.95,3.12-1.43c0.24-0.11-0.08-0.48-0.32-0.37c-1.1,0.5-2.2,1-3.3,1.51
		c-0.05,0.02-0.07,0.06-0.08,0.09c-0.71-0.24-1.42-0.47-2.13-0.71c0.01,0,0.02,0,0.03-0.01c1.16-0.65,2.33-1.3,3.49-1.95
		c0.23-0.13-0.09-0.5-0.32-0.37c-1.16,0.65-2.33,1.3-3.49,1.95c-0.11,0.06-0.09,0.19-0.01,0.28c-1.4-0.47-2.8-0.95-4.2-1.44
		c1.13-0.62,2.26-1.25,3.4-1.87c0.23-0.13-0.09-0.5-0.32-0.37c-1.17,0.64-2.33,1.29-3.5,1.93c-0.06,0.03-0.08,0.08-0.08,0.13
		c-2.88-1.01-5.76-2.06-8.62-3.16c-0.06-0.06-0.15-0.1-0.24-0.09l0,0c1.48-1.05,2.97-2.11,4.45-3.16c0.21-0.15-0.2-0.46-0.41-0.31
		c-1.52,1.08-3.03,2.16-4.55,3.23c-0.01,0.01-0.02,0.02-0.03,0.04c-1.11-0.43-2.22-0.87-3.33-1.32c0.84-1.05,2.12-1.72,3.74-1.97
		c0.29-0.05,0.08-0.45-0.21-0.4c-1.75,0.27-3.12,1.02-4.02,2.17c-0.97-0.39-1.94-0.8-2.9-1.2c0.83-1.19,2.09-2.04,3.74-2.48
		c0.27-0.07,0.06-0.48-0.21-0.4c-1.77,0.48-3.12,1.39-4.01,2.68c-1.15-0.49-2.3-0.99-3.44-1.51c1.14-0.63,2.29-1.26,3.43-1.9
		c0.23-0.13-0.09-0.5-0.32-0.37c-1.22,0.67-2.44,1.35-3.66,2.02c-0.78-0.35-1.56-0.71-2.33-1.08c1.13-0.67,2.26-1.34,3.39-2.01
		c0.22-0.13-0.1-0.5-0.32-0.37c-1.2,0.71-2.4,1.42-3.6,2.13c-0.72-0.34-1.43-0.69-2.14-1.04c1.17-0.77,2.34-1.54,3.52-2.32
		c0.22-0.14-0.19-0.45-0.41-0.31c-1.2,0.79-2.41,1.59-3.61,2.38c-0.89-0.44-1.78-0.89-2.66-1.35c1.13-0.67,2.41-1.17,3.84-1.46
		c0.28-0.06,0.07-0.46-0.21-0.4c-1.52,0.31-2.87,0.84-4.06,1.56c0,0,0,0-0.01,0c-0.03,0.01-0.06,0.02-0.1,0.03
		c-0.8-0.42-1.59-0.85-2.38-1.28c-0.08-0.04-0.16-0.09-0.24-0.13c0.94-0.94,2.17-1.6,3.69-1.94c0.28-0.06,0.07-0.46-0.21-0.4
		c-1.62,0.36-2.95,1.06-3.94,2.08C86.37,27.45,83.3,25.57,80.94,23.45z M83.19,26.4c-0.09,0.01-0.18,0.03-0.27,0.04
		c0.03-0.07,0.02-0.14,0.01-0.22C83.02,26.28,83.1,26.34,83.19,26.4z M80.12,30.08c-0.24-0.61-0.27-1.21-0.1-1.74
		c0.91-0.89,2.17-1.43,3.71-1.57c0.75,0.5,1.5,0.98,2.25,1.44C83.84,28.57,81.89,29.19,80.12,30.08z M82.75,44.21
		c-2.12,0.12-4.06,0.54-5.83,1.24c-1.02-0.5-2-1.04-2.95-1.6c2.22-0.49,4.44-0.98,6.65-1.47c0.28-0.06,0.07-0.46-0.21-0.4
		c-2.33,0.52-4.66,1.03-6.99,1.55c-0.88-0.55-1.71-1.13-2.5-1.74c2.33-0.42,4.65-0.85,6.98-1.27c0.29-0.05,0.07-0.45-0.21-0.4
		c-2.41,0.44-4.81,0.87-7.22,1.31c-0.49-0.4-0.94-0.82-1.38-1.25c2.05-0.39,4.1-0.77,6.15-1.16c0.29-0.05,0.07-0.46-0.21-0.4
		c-2.1,0.4-4.2,0.79-6.31,1.19c-0.07-0.07-0.15-0.14-0.21-0.21c-0.3-0.32-0.59-0.67-0.86-1.02c1.58-0.34,3.23-0.56,4.95-0.63
		c0.3-0.01,0.21-0.42-0.09-0.41c-1.79,0.07-3.5,0.29-5.14,0.65c-0.33-0.47-0.64-0.95-0.89-1.43c2.52-0.37,5.03-0.74,7.55-1.11
		c0.29-0.04,0.08-0.44-0.21-0.4c-2.51,0.37-5.02,0.74-7.53,1.11c-0.21-0.44-0.37-0.88-0.49-1.32c1.68-0.57,3.53-0.86,5.53-0.83
		c0.31,0,0.22-0.4-0.09-0.41c-1.99-0.03-3.84,0.25-5.53,0.8c-0.09-0.47-0.13-0.92-0.09-1.36c1.43-0.16,2.86-0.32,4.29-0.49
		c0.3-0.03,0.08-0.43-0.21-0.4c-1.34,0.15-2.67,0.3-4.01,0.45c0.16-0.78,0.57-1.48,1.31-2.04c3.28-2.49,8.7-0.35,12.8,1.88
		c7.03,3.82,14.13,7.21,21.33,10.27c0.05,0.13,0.24,0.26,0.39,0.19c0.01,0,0.01-0.01,0.02-0.01c8.32,3.52,16.8,6.59,25.51,9.35
		c4.57,1.45,9.16,2.82,13.74,4.17c3.73,1.09,7.91,2.71,11.67,3.24c1.29,0.18,2.6,0.13,3.45-0.38c-0.03,0.04-0.05,0.08-0.08,0.12
		c-0.14,0.2,0.33,0.43,0.47,0.23c0.86-1.26,1.72-2.52,2.58-3.78c0.79,0.62,1.58,1.28,1.97,1.63c-0.99,1.25-1.97,2.51-2.96,3.76
		c-0.15,0.19,0.26,0.5,0.41,0.31c0.97-1.24,1.95-2.47,2.92-3.71c0.47,0.48,0.9,0.99,1.3,1.5c-1.17,1.59-2.34,3.17-3.51,4.76
		c-0.14,0.2,0.33,0.43,0.47,0.23c1.12-1.52,2.24-3.04,3.36-4.56c0.44,0.61,0.83,1.23,1.16,1.86c0.58,1.12,0.98,2.28,1.14,3.39
		c-0.1-0.03-0.21-0.03-0.25,0.07c-0.45,1.12-1.15,2.09-2.09,2.91c0.04-0.07,0.09-0.14,0.13-0.22c0.12-0.21-0.35-0.44-0.47-0.23
		c-0.84,1.51-2.02,2.75-3.56,3.76c-0.21,0.14,0.2,0.45,0.41,0.31c1.39-0.92,2.5-2.03,3.33-3.35c0.06,0.14,0.3,0.27,0.44,0.16
		c0.95-0.79,1.65-1.72,2.13-2.8c0.16,2.16-0.58,4.11-2.58,5.29c-1.7,1-3.94,1.41-6.25,1.54c1.24-1.42,2.48-2.85,3.72-4.27
		c0.16-0.18-0.25-0.5-0.41-0.31c-1.34,1.54-2.68,3.08-4.02,4.61c-0.62,0.02-1.23,0.03-1.85,0.02c-0.6-0.01-1.19-0.05-1.78-0.12
		c1.41-1.46,2.81-2.91,4.22-4.37c0.17-0.18-0.24-0.49-0.41-0.31c-1.48,1.53-2.96,3.06-4.44,4.59c-1.03-0.16-2.04-0.4-3.04-0.69
		c1.66-1.42,3.19-2.93,4.57-4.56c0.16-0.19-0.25-0.5-0.41-0.31c-1.43,1.68-3.01,3.24-4.73,4.7c-1.05-0.32-2.1-0.7-3.16-1.09
		c1.63-1.15,3.27-2.3,4.9-3.45c0.21-0.15-0.2-0.46-0.41-0.31c-1.69,1.19-3.37,2.37-5.06,3.56c-0.58-0.21-1.17-0.43-1.78-0.64
		c-0.33-0.12-0.66-0.23-0.98-0.35c1.11-0.79,2.23-1.59,3.34-2.38c0.11,0.04,0.24,0.04,0.3-0.05c0.08-0.11,0.15-0.23,0.22-0.34
		c0.12-0.19-0.27-0.39-0.44-0.27c-1.33,0.95-2.66,1.9-3.99,2.85c-1.14-0.4-2.28-0.81-3.43-1.21c1.43-0.92,2.93-1.77,4.52-2.52
		c0.24-0.11-0.08-0.48-0.32-0.37c-1.69,0.8-3.28,1.7-4.78,2.69c-0.87-0.31-1.74-0.61-2.61-0.92c1.47-1.06,2.95-2.12,4.42-3.18
		c0.21-0.15-0.2-0.46-0.41-0.31c-1.53,1.1-3.05,2.2-4.58,3.3c-4.26-1.5-8.53-2.99-12.78-4.49c1.82-0.59,3.64-1.17,5.46-1.76
		c0.26-0.08-0.06-0.45-0.32-0.37c-1.92,0.62-3.85,1.24-5.77,1.86c-0.02,0.01-0.04,0.02-0.05,0.03c-0.96-0.34-1.93-0.68-2.89-1.02
		c2.06-0.62,4.11-1.24,6.17-1.86c0.27-0.08-0.06-0.45-0.32-0.37c-2.19,0.66-4.38,1.32-6.56,1.97c-0.79-0.28-1.58-0.57-2.37-0.85
		c1.7-0.59,3.41-1.19,5.11-1.78c0.26-0.09-0.06-0.46-0.32-0.37c-1.82,0.64-3.65,1.27-5.47,1.91c-0.7-0.25-1.41-0.5-2.11-0.75
		c1.86-0.61,3.73-1.22,5.59-1.83c0.27-0.09-0.06-0.46-0.32-0.37c-1.99,0.65-3.98,1.3-5.96,1.95c-0.76-0.27-1.52-0.55-2.28-0.83
		c1.84-0.63,3.68-1.25,5.52-1.88c0.26-0.09-0.06-0.46-0.32-0.37c-1.87,0.64-3.74,1.27-5.61,1.91c-0.09,0.03-0.11,0.09-0.09,0.16
		c-1.98-0.72-3.96-1.45-5.94-2.19c0.91-0.48,1.82-0.96,2.74-1.43c0.23-0.12-0.09-0.49-0.32-0.37c-1,0.53-2.01,1.05-3.01,1.58
		c-0.6-0.23-1.2-0.45-1.81-0.68c1.59-0.84,3.29-1.54,5.13-2.07c0.27-0.08,0.06-0.48-0.21-0.4c-1.98,0.58-3.81,1.33-5.51,2.25
		c-0.8-0.3-1.6-0.61-2.39-0.92c0.06,0.02,0.13,0.03,0.19,0.01c1.55-0.51,3.1-1.03,4.65-1.54c0.26-0.09-0.06-0.46-0.32-0.37
		c-1.55,0.51-3.1,1.03-4.65,1.54c-0.19,0.06-0.07,0.28,0.11,0.35c-1.16-0.45-2.33-0.89-3.49-1.34c1.36-0.83,2.72-1.65,4.09-2.48
		c0.22-0.13-0.1-0.51-0.32-0.37c-1.44,0.88-2.89,1.75-4.33,2.63c-0.45-0.18-0.91-0.35-1.37-0.53c-0.55-0.22-1.12-0.44-1.7-0.65
		c1.91-0.8,3.81-1.61,5.72-2.41c0.25-0.11-0.07-0.48-0.32-0.37c-1.91,0.81-3.83,1.61-5.75,2.42c-0.1,0.04-0.11,0.12-0.07,0.2
		c-0.55-0.21-1.1-0.41-1.66-0.62c-0.03-0.02-0.06-0.03-0.1-0.04c-0.68-0.25-1.36-0.51-2.06-0.78c1.87-1.03,3.95-1.79,6.26-2.24
		c0.28-0.06,0.07-0.46-0.21-0.4c-2.43,0.47-4.62,1.27-6.57,2.37c-0.02,0.01-0.04,0.03-0.05,0.05c-0.11-0.04-0.22-0.08-0.33-0.13
		c-0.02-0.14-0.23-0.3-0.41-0.23c-0.03,0.01-0.06,0.03-0.09,0.04c-0.95-0.37-1.91-0.75-2.87-1.15c1.38-0.46,2.81-0.85,4.29-1.17
		c0.28-0.06,0.07-0.46-0.21-0.4c-1.63,0.35-3.19,0.79-4.71,1.3c-0.94-0.4-1.88-0.82-2.79-1.26c1.68-0.62,3.5-1.01,5.49-1.11
		C83.27,44.59,83.05,44.19,82.75,44.21z M89.55,51.71c1.06,0.41,2.12,0.81,3.18,1.21c-2.48,1.38-4.9,2.82-7.26,4.32
		c-1.14-0.46-2.27-0.94-3.39-1.43C84.57,54.44,87.06,53.08,89.55,51.71z M81.68,55.48c-0.04-0.01-0.08-0.02-0.13-0.01
		c-0.05,0.01-0.1,0.02-0.15,0.04c-0.08-0.04-0.16-0.07-0.25-0.11c-0.4-0.59-0.86-1.15-1.36-1.69c2-1.29,4.18-2.37,6.55-3.26
		c0.87,0.35,1.74,0.69,2.62,1.04C86.54,52.82,84.11,54.15,81.68,55.48z M93.32,53.14c0.85,0.32,1.7,0.63,2.54,0.95
		c-0.02,0-0.04,0-0.05,0.01c-2.55,1.29-4.91,2.77-7.09,4.41c-0.54-0.21-1.08-0.42-1.61-0.63c-0.06-0.13-0.27-0.24-0.4-0.16
		c-0.23-0.09-0.45-0.18-0.68-0.27C88.4,55.97,90.83,54.52,93.32,53.14z M96.13,54.48c0.12-0.06,0.1-0.19,0.01-0.28
		c0.93,0.34,1.85,0.69,2.77,1.03c-2.32,1.34-4.64,2.67-6.96,4.01c-0.23,0.13,0.09,0.5,0.32,0.37c2.41-1.39,4.81-2.77,7.22-4.16
		c0.68,0.25,1.35,0.5,2.02,0.76c0.35,0.13,0.71,0.26,1.07,0.4c-2.5,1.4-4.99,2.8-7.49,4.2c-0.03,0.02-0.05,0.05-0.07,0.07
		c-1.49-0.55-2.99-1.09-4.47-1.65c-0.43-0.16-0.86-0.32-1.29-0.49C91.38,57.15,93.66,55.72,96.13,54.48z M103.17,56.81
		c1.02,0.38,2.04,0.76,3.07,1.14c-2.12,1.69-4.47,3.16-7.03,4.43c-1.21-0.44-2.42-0.87-3.63-1.32
		C98.11,59.65,100.64,58.23,103.17,56.81z M106.42,58.44c-0.07,0.15,0.19,0.4,0.39,0.3c0.24-0.12,0.33-0.28,0.28-0.47
		c0.73,0.27,1.45,0.54,2.18,0.8c0.02,0.13,0.23,0.3,0.41,0.24c0.04-0.01,0.09-0.03,0.13-0.04c0.25,0.09,0.51,0.18,0.76,0.27
		c-2.5,1.41-5.01,2.81-7.51,4.22c-1.08-0.38-2.16-0.77-3.24-1.16C102.21,61.4,104.41,60.01,106.42,58.44z M111.17,59.76
		c1.25,0.45,2.5,0.91,3.75,1.36c-2.49,1.4-4.98,2.8-7.47,4.2c-1.26-0.44-2.52-0.89-3.78-1.33
		C106.17,62.57,108.67,61.17,111.17,59.76z M115.51,61.33c0.88,0.32,1.77,0.63,2.65,0.94c-2.38,1.03-4.47,2.35-6.23,3.97
		c-0.18,0.17,0.22,0.48,0.41,0.31c1.82-1.67,3.99-3.02,6.47-4.05c0.95,0.34,1.89,0.68,2.84,1.01c-1.19,0.61-2.26,1.36-3.37,2.05
		c-1.22,0.76-2.45,1.52-3.67,2.27c-2.19-0.77-4.37-1.54-6.56-2.31C110.54,64.13,113.03,62.73,115.51,61.33z M118.6,65.93
		c1.2-0.74,2.36-1.56,3.67-2.19c0.82,0.29,1.64,0.58,2.46,0.86c-2.13,1.51-4.26,3.03-6.39,4.54c-0.17-0.06-0.34-0.12-0.51-0.18
		c0.01-0.15-0.22-0.35-0.4-0.26c-0.05,0.02-0.09,0.05-0.13,0.07c-0.7-0.25-1.41-0.49-2.11-0.74
		C116.33,67.34,117.47,66.63,118.6,65.93z M125.25,64.83c0.02-0.01,0.02-0.03,0.03-0.04c0.91,0.32,1.81,0.64,2.72,0.95
		c-2.23,1.46-4.45,2.92-6.68,4.38c-0.81-0.25-1.61-0.52-2.41-0.79C121.03,67.84,123.14,66.34,125.25,64.83z M128.59,65.95
		c0.14,0.05,0.28,0.1,0.42,0.15c0.52,0.18,1.04,0.36,1.56,0.54c-2.18,1.26-4.31,2.57-6.39,3.93c-0.08-0.09-0.22-0.15-0.34-0.1
		c-0.19,0.08-0.37,0.18-0.56,0.27c-0.45-0.14-0.9-0.27-1.35-0.42C124.15,68.86,126.37,67.4,128.59,65.95z M131.14,66.85
		c0.01,0,0.01-0.01,0.02-0.02c0.59,0.21,1.19,0.41,1.78,0.62c0.04,0.02,0.08,0.04,0.13,0.04c0.28,0.1,0.56,0.19,0.84,0.29
		c-2.16,1.38-4.31,2.75-6.47,4.13c-1.04-0.28-2.07-0.57-3.1-0.87C126.54,69.59,128.81,68.19,131.14,66.85z M134.28,68.11
		c0.07-0.04,0.08-0.11,0.06-0.18c1.07,0.37,2.14,0.74,3.21,1.11c-1.7,1.39-3.39,2.78-5.09,4.17c-1.47-0.36-2.94-0.74-4.41-1.13
		C130.13,70.76,132.21,69.44,134.28,68.11z M78.38,47.24c0.15,0.02,0.25-0.01,0.33-0.05c0.29,0.13,0.57,0.26,0.86,0.39
		c0.01,0.01,0.03,0.02,0.04,0.02c-1.05,0.45-2.1,0.91-3.15,1.36C76.2,47.86,76.56,47,78.38,47.24z M76.61,49.41
		c1.2-0.52,2.4-1.04,3.59-1.55c0.8,0.36,1.6,0.7,2.4,1.05c-1.7,0.73-3.39,1.47-5.09,2.2C77.15,50.58,76.81,49.98,76.61,49.41z
		 M79.47,53.34c-0.41-0.44-0.83-0.87-1.24-1.31c-0.13-0.14-0.26-0.29-0.39-0.47c0.09-0.27,0.71-0.4,0.99-0.52
		c0.61-0.27,1.23-0.53,1.84-0.8c0.84-0.36,1.68-0.73,2.52-1.09c0.84,0.35,1.68,0.7,2.53,1.04C83.47,51.06,81.38,52.11,79.47,53.34z
		 M68.49,63.51c-0.06,0.13-0.12,0.25-0.19,0.38c-0.01,0.03-0.02,0.05-0.01,0.08c-0.12,0.23-0.28,0.44-0.46,0.64
		c-0.36-0.89-0.81-1.79-1.34-2.68c0.74,0.55,1.51,1.06,2.28,1.52C68.67,63.41,68.55,63.41,68.49,63.51z M68.72,67.65
		C68.72,67.64,68.72,67.65,68.72,67.65c0.56-0.55,1.35-0.87,2.28-0.94c0.5,0.3,1.09,0.43,1.57,0.29c0.27-0.08,0.06-0.48-0.21-0.4
		c-0.22,0.06-0.46,0.06-0.69,0c0.05-0.12-0.05-0.31-0.27-0.31c-0.13,0-0.26,0-0.38,0.01c-0.1-0.04-0.19-0.03-0.25,0.02
		c-0.85,0.07-1.59,0.33-2.17,0.77c-0.1-0.45-0.22-0.91-0.36-1.36c0.92-0.11,1.84-0.22,2.76-0.34c0.29-0.04,0.08-0.44-0.21-0.4
		c-0.9,0.11-1.8,0.22-2.69,0.33c-0.02-0.05-0.04-0.11-0.06-0.16c0.43-0.39,0.74-0.86,0.93-1.41c0.03-0.09-0.02-0.17-0.09-0.24
		c0.11,0.07,0.22,0.14,0.33,0.2c3.95,2.27,8.36,3.84,12.59,5.44c-0.01,0-0.01,0-0.02,0c-0.84,0.23-1.67,0.46-2.51,0.69
		c-0.27,0.07-0.06,0.48,0.22,0.4c0.83-0.23,1.67-0.46,2.51-0.69c0.16-0.04,0.15-0.2,0.06-0.31c0.08,0.03,0.15,0.06,0.23,0.09
		c0.11,0.04,0.23,0.09,0.34,0.13c-0.14,0.1-0.21,0.26-0.11,0.48c0.06,0.14,0.11,0.27,0.17,0.41c-1.04,0.06-1.93,0.34-2.66,0.85
		c-0.21,0.15,0.2,0.46,0.41,0.31c0.65-0.46,1.48-0.72,2.42-0.76c0.07,0.18,0.13,0.35,0.2,0.53c-0.53,0.2-1.06,0.4-1.59,0.59
		c-0.26,0.1,0.06,0.47,0.32,0.37c0.48-0.18,0.95-0.36,1.43-0.53c0.07,0.2,0.13,0.4,0.19,0.6c-0.01,0.01-0.03,0.01-0.04,0.02
		c-0.61,0.48-1.39,0.77-2.3,0.86c-0.3,0.03-0.08,0.43,0.21,0.4c0.89-0.09,1.64-0.37,2.27-0.8c0.36,1.25,0.58,2.48,0.66,3.69
		c-0.05-0.01-0.1-0.01-0.14,0.01c-0.93,0.41-1.87,0.82-2.8,1.23c-0.25,0.11,0.07,0.48,0.32,0.37c0.88-0.39,1.77-0.78,2.65-1.16
		c0.03,0.64,0.01,1.27-0.03,1.9c-0.73,0.5-1.64,0.79-2.71,0.86c-0.3,0.02-0.09,0.42,0.21,0.4c0.92-0.06,1.74-0.29,2.44-0.66
		c-0.14,1.15-0.41,2.28-0.81,3.37c0.01-0.11-0.11-0.23-0.23-0.28c0.03-0.01,0.05-0.02,0.08-0.03c0.26-0.1-0.07-0.47-0.32-0.37
		c-0.87,0.34-1.74,0.67-2.61,1.01c-0.26,0.1,0.07,0.47,0.32,0.37c0.76-0.29,1.51-0.58,2.27-0.88c-0.53,0.65-1.27,1.11-2.23,1.35
		c-0.27,0.07-0.06,0.47,0.21,0.4c1.06-0.26,1.9-0.76,2.48-1.5c0.01-0.01,0.01-0.02,0.01-0.03c-0.06,0.17-0.12,0.34-0.19,0.5
		c-0.06,0.14-0.03,0.27,0.05,0.4c-0.17-0.01-0.32,0.05-0.38,0.23c-0.03,0.1-0.06,0.2-0.09,0.29c-0.76,0.27-1.52,0.54-2.27,0.81
		c-1.69-0.8-3.38-1.6-5.07-2.41c-1.96-0.94-4.18-1.96-6.25-3.15c0.04-0.01,0.08-0.01,0.12-0.02c0.29-0.05,0.08-0.45-0.21-0.4
		c-0.16,0.03-0.33,0.05-0.49,0.08c-0.23-0.14-0.46-0.28-0.69-0.43c0.17-0.1-0.02-0.42-0.28-0.38c-0.08,0.01-0.16,0.03-0.24,0.04
		c-0.34-0.22-0.66-0.45-0.98-0.69c0.44-0.07,0.89-0.15,1.33-0.22c0.29-0.05,0.08-0.45-0.21-0.4c-0.53,0.09-1.05,0.17-1.58,0.26
		c-0.34-0.26-0.66-0.54-0.96-0.82c0.64-0.11,1.29-0.21,1.93-0.32c0.29-0.05,0.08-0.45-0.21-0.4c-0.63,0.1-1.25,0.21-1.88,0.31
		c0.18-0.16-0.21-0.46-0.41-0.31c0.12-0.08,0.24-0.16,0.36-0.24c0.16-0.01,0.31-0.01,0.47-0.02c-0.05,0.13,0.12,0.36,0.34,0.31
		c1.17-0.23,2.34-0.47,3.51-0.7c0.28-0.06,0.07-0.46-0.21-0.4c-0.33,0.07-0.66,0.13-0.99,0.2c0.15-0.32,0.29-0.65,0.41-0.98
		c0.72-0.19,1.43-0.38,2.15-0.58c0.27-0.07,0.06-0.48-0.21-0.4c-0.59,0.16-1.18,0.32-1.77,0.47c0.04-0.14,0.08-0.28,0.12-0.41
		c0.43-0.28,0.85-0.56,1.27-0.84c0.06,0,0.12-0.01,0.18,0c0.31,0.02,0.22-0.39-0.09-0.41c-0.03,0-0.06,0-0.08,0
		c-0.09-0.04-0.19-0.05-0.27,0c-0.26,0-0.51,0.02-0.75,0.06c0.05-0.3,0.09-0.61,0.11-0.92c0.39-0.25,0.93-0.34,1.52-0.22
		c0.32,0.06,0.36-0.32,0.04-0.39c-0.55-0.11-1.08-0.08-1.52,0.07c0.01-0.3,0.01-0.6,0-0.91c0.9-0.4,1.94-0.56,3.1-0.46
		c0.32,0.03,0.22-0.38-0.09-0.41c-1.12-0.1-2.15,0.04-3.05,0.38C68.86,68.57,68.81,68.11,68.72,67.65z M116.43,100.49
		c-0.02,0.21,0.01,0.43,0.1,0.63c-0.53-0.22-1.07-0.45-1.6-0.67c-6.76-2.84-13.48-5.77-20.17-8.78c-3.81-1.71-7.6-3.46-11.38-5.22
		c0.02-0.03,0.04-0.04,0.05-0.08c0.18-0.61,0.37-1.22,0.55-1.82c0.04-0.14,0-0.29-0.08-0.41c0.18,0.01,0.34-0.05,0.41-0.22
		c1.77-4.27,1.55-9.07-0.62-14.07c3.94,1.49,7.9,2.92,11.87,4.3c9.57,3.33,19.2,6.4,28.83,9.36c2.52,0.77,5.04,1.54,7.57,2.3
		c-9.83-0.7-16.57,5.06-15.16,13.38c-0.19-0.03-0.39-0.02-0.54,0.05C115.72,99.48,115.92,100.12,116.43,100.49z M82.24,85.92
		c-0.41-0.19-0.82-0.38-1.22-0.57c0.51-0.18,1.02-0.36,1.52-0.54c-0.1,0.33-0.2,0.66-0.3,0.99C82.23,85.83,82.24,85.88,82.24,85.92z
		 M64.99,74.54c0.47-0.22,0.94-0.44,1.41-0.66c-0.32,0.21-0.64,0.42-0.96,0.64C65.29,74.53,65.14,74.53,64.99,74.54z M66.39,74.47
		c0.1-0.07,0.21-0.14,0.31-0.2c-0.02,0.04-0.04,0.09-0.06,0.13c-0.01,0.02,0,0.04-0.01,0.07c-0.02,0-0.04,0-0.06,0
		C66.5,74.47,66.45,74.47,66.39,74.47z M68.7,72.32c0.03-0.01,0.06-0.01,0.09-0.01c-0.03,0.02-0.07,0.04-0.1,0.07
		C68.7,72.36,68.7,72.34,68.7,72.32z M48.06,133.67c-0.15-0.1-0.29-0.14-0.43-0.13c0-0.08-0.01-0.15-0.01-0.23
		c0.15,0.12,0.3,0.24,0.45,0.36C48.07,133.67,48.06,133.67,48.06,133.67z M44.75,142.36c0.01,0,0.01,0,0.02,0.01l0,0
		C44.76,142.37,44.76,142.37,44.75,142.36z M47.59,135.79c0.1,0.26,0.21,0.52,0.31,0.79c0.06,0.16,0.22,0.28,0.4,0.35
		c0.01,0.11,0.05,0.22,0.13,0.31c0.03,0.04,0.08,0.07,0.11,0.1c-0.39,0.09-0.78,0.19-1.17,0.28
		C47.47,137.01,47.54,136.41,47.59,135.79z M48.96,135.61c-0.07,0.03-0.14,0.06-0.21,0.09c-0.05-0.13-0.1-0.25-0.15-0.38
		C48.72,135.43,48.84,135.52,48.96,135.61z M49.23,134.59c0.01,0,0.02,0,0.02,0c1.72,1.31,3.49,2.58,5.29,3.79
		c-0.06,0.02-0.11,0.03-0.17,0.05c-1.35-0.93-2.67-1.89-3.96-2.9c-0.05-0.05-0.1-0.09-0.16-0.13
		C49.91,135.14,49.57,134.86,49.23,134.59z M40.64,148.94c-0.21-0.21-0.31-0.48-0.25-0.69c0.46,0.17,0.92,0.33,1.38,0.5
		C41.36,148.75,40.98,148.82,40.64,148.94z M41.36,149.26c-0.06-0.01-0.12-0.01-0.18-0.03c0.21-0.05,0.44-0.07,0.67-0.08
		c-0.04,0.08-0.07,0.16-0.11,0.24C41.64,149.33,41.52,149.27,41.36,149.26z M46.63,140.89c1.19-0.31,2.37-0.61,3.55-0.92
		c0.27-0.07,0.06-0.47-0.21-0.4c-1.07,0.28-2.13,0.55-3.2,0.83c0.21-0.76,0.39-1.53,0.53-2.31c1.24-0.3,2.47-0.6,3.71-0.9
		c0.71,0.53,1.43,1.05,2.15,1.56c-0.07,0.02-0.14,0.03-0.2,0.05c-0.27,0.07-0.06,0.47,0.21,0.4c0.16-0.04,0.31-0.08,0.46-0.12
		c1.03,0.72,2.08,1.41,3.14,2.09c-0.39,0.06-0.78,0.13-1.17,0.19c-0.29,0.05-0.08,0.45,0.21,0.4c0.5-0.08,1.01-0.16,1.51-0.24
		c0.83,0.52,1.67,1.04,2.52,1.54c-0.29,0.06-0.58,0.12-0.88,0.19c-0.28,0.06-0.07,0.46,0.21,0.4c0.41-0.09,0.82-0.17,1.22-0.26
		c0.65,0.38,1.31,0.75,1.97,1.11c-0.04,0.01-0.07,0.02-0.11,0.02c-0.28,0.06-0.07,0.46,0.21,0.4c0.16-0.04,0.32-0.07,0.48-0.11
		c4.47,2.42,9.12,4.49,13.89,6.19c-1.38,0.23-2.76,0.46-4.15,0.69c-0.29,0.05-0.08,0.45,0.21,0.4c1.59-0.27,3.19-0.53,4.78-0.8
		c0.91,0.31,1.82,0.61,2.73,0.9c-1.09,0.18-2.19,0.37-3.28,0.55c-0.29,0.05-0.08,0.45,0.21,0.4c1.33-0.22,2.65-0.44,3.98-0.67
		c1.07,0.32,2.13,0.62,3.21,0.91c-1.11,0.18-2.21,0.36-3.32,0.55c-0.29,0.05-0.08,0.45,0.21,0.4c1.19-0.2,2.38-0.39,3.57-0.59
		c0.13-0.02,0.16-0.12,0.12-0.21c2.85,0.73,5.72,1.33,8.6,1.78c0.05,0.01,0.08,0,0.11,0c-0.29,0.53-0.59,1.06-0.91,1.58
		c-9.7-1.68-19.39-4.25-28.9-7.63c0.75-0.18,1.5-0.35,2.25-0.53c0.28-0.06,0.07-0.47-0.21-0.4c-0.87,0.2-1.75,0.41-2.62,0.61
		c-0.05,0.01-0.08,0.04-0.1,0.07c-1.11-0.4-2.21-0.8-3.31-1.23c0.55-0.12,1.11-0.24,1.66-0.37c0.28-0.06,0.07-0.46-0.21-0.4
		c-0.62,0.14-1.23,0.27-1.85,0.41c-0.1,0.02-0.13,0.08-0.13,0.15c-1.09-0.42-2.17-0.85-3.25-1.29c0.46-0.1,0.92-0.2,1.38-0.31
		c0.28-0.06,0.07-0.46-0.21-0.4c-0.62,0.14-1.24,0.28-1.87,0.42c-0.84-0.35-1.68-0.7-2.52-1.06c0.65-0.14,1.3-0.28,1.95-0.41
		c0.28-0.06,0.07-0.46-0.21-0.4c-0.81,0.17-1.62,0.34-2.42,0.52c-1.29-0.56-2.57-1.13-3.85-1.72c1.13-0.18,2.27-0.36,3.4-0.55
		c0.29-0.05,0.08-0.45-0.21-0.4c-1.3,0.21-2.59,0.42-3.89,0.63c-0.29-0.13-0.57-0.27-0.85-0.4c-0.06-0.12-0.23-0.21-0.36-0.17
		c-0.09-0.04-0.18-0.09-0.27-0.13C46.42,141.57,46.53,141.23,46.63,140.89z M54.86,138.76c0.06-0.02,0.13-0.03,0.19-0.05
		c2.92,1.94,5.93,3.74,9.02,5.4c-0.1,0.02-0.21,0.05-0.31,0.07c-0.73-0.39-1.45-0.8-2.17-1.21c-0.02-0.13-0.17-0.26-0.34-0.23
		c-0.02,0-0.03,0.01-0.05,0.01c-0.85-0.49-1.7-1-2.54-1.52c0.07-0.13-0.11-0.36-0.33-0.33c-0.05,0.01-0.1,0.02-0.15,0.02
		C57.05,140.24,55.95,139.51,54.86,138.76z M64.35,144.5c0.09-0.03,0.12-0.1,0.1-0.18c3.97,2.12,8.06,4,12.24,5.63
		C72.48,148.43,68.34,146.6,64.35,144.5z M45.99,142.84c0.02,0,0.04,0,0.06-0.01c0.15,0.07,0.29,0.14,0.43,0.21
		c0.05,0.1,0.18,0.2,0.33,0.17c0.01,0,0.02,0,0.02,0c1.3,0.61,2.61,1.21,3.93,1.79c-0.45,0.1-0.89,0.19-1.34,0.29
		c-0.28,0.06-0.07,0.46,0.21,0.4c0.46-0.1,0.91-0.19,1.37-0.29c-0.37,0.17-0.74,0.33-1.12,0.48c-0.26,0.1,0.07,0.47,0.32,0.37
		c0.58-0.23,1.15-0.48,1.69-0.74c0.68,0.3,1.37,0.59,2.05,0.88c-0.21,0.05-0.42,0.09-0.63,0.14c-0.28,0.06-0.07,0.46,0.21,0.4
		c0.37-0.08,0.75-0.17,1.12-0.25c0.97,0.4,1.95,0.8,2.92,1.19c-0.84,0.21-1.68,0.44-2.49,0.7c-0.27,0.08,0.06,0.45,0.32,0.37
		c0.93-0.3,1.89-0.56,2.87-0.79c0,0,0,0,0.01,0c2.29,0.9,4.59,1.74,6.89,2.54c-0.53,0.18-1.06,0.35-1.59,0.53
		c-0.26,0.09,0.06,0.46,0.32,0.37c0.59-0.2,1.19-0.39,1.78-0.59c0.06-0.02,0.09-0.06,0.09-0.1c7.24,2.48,14.58,4.49,21.94,6.01
		c-1.37,0.56-2.73,1.12-4.1,1.68c-0.25,0.1,0.07,0.47,0.32,0.37c1.53-0.63,3.06-1.26,4.59-1.88c1.28,0.26,2.56,0.5,3.84,0.73
		c-0.66,1-1.36,1.98-2.08,2.94c-2.2-0.38-4.4-0.79-6.6-1.22c-0.08-0.08-0.2-0.12-0.3-0.06c0,0,0,0,0,0
		c-9.06-1.81-18.12-4.09-27.12-6.84c0.06-0.02,0.11-0.04,0.17-0.06c0.26-0.1-0.06-0.46-0.32-0.37c-0.19,0.07-0.38,0.14-0.56,0.21
		c-1.63-0.5-3.25-1.02-4.88-1.55c0.36-0.18,0.71-0.35,1.08-0.52c0.25-0.11-0.07-0.48-0.32-0.37c-0.48,0.22-0.95,0.44-1.41,0.68
		c-0.9-0.3-1.79-0.6-2.69-0.9c0.69-0.32,1.41-0.62,2.15-0.89c0.26-0.09-0.06-0.46-0.32-0.37c-0.86,0.31-1.68,0.66-2.48,1.04
		c-1.01-0.35-2.02-0.7-3.03-1.06C44.49,146.58,45.31,144.73,45.99,142.84z M55.88,159.33c-0.03,0.04-0.06,0.08-0.09,0.12
		c-5.08-1.16-10.15-2.4-15.22-3.72c3.29-1.33,6.57-2.66,9.86-3.99c0.74,0.24,1.47,0.48,2.21,0.71c-3,1.19-6.01,2.37-9.01,3.56
		c-0.25,0.1,0.07,0.47,0.32,0.37c3.03-1.2,6.06-2.4,9.1-3.6c0.09-0.04,0.11-0.11,0.08-0.18c0.42,0.13,0.84,0.26,1.27,0.39
		c0.07,0.11,0.23,0.2,0.37,0.15c0.02-0.01,0.03-0.01,0.05-0.02c0.49,0.15,0.98,0.31,1.47,0.46c-3.04,0.87-5.87,2.01-8.47,3.44
		c-0.23,0.13,0.09,0.5,0.32,0.37c2.73-1.49,5.72-2.68,8.94-3.56c0.9,0.27,1.81,0.54,2.71,0.8c-2.61,0.95-5.22,1.9-7.83,2.85
		c-0.26,0.09,0.06,0.46,0.32,0.37c2.75-1,5.5-2,8.26-3.01c0.86,0.25,1.72,0.49,2.57,0.73c-2.19,1.06-4.38,2.13-6.56,3.19
		c-0.24,0.12,0.08,0.49,0.32,0.37c2.31-1.12,4.62-2.25,6.93-3.37c0.96,0.26,1.92,0.52,2.89,0.78c-1.72,1.12-3.65,2-5.79,2.64
		c-0.27,0.08,0.06,0.45,0.32,0.37c2.17-0.66,4.13-1.55,5.87-2.7c0.07-0.05,0.08-0.12,0.06-0.19c1.12,0.29,2.25,0.58,3.37,0.86
		c-2.14,0.8-4.28,1.6-6.42,2.4c-0.26,0.1,0.06,0.46,0.32,0.37c2.3-0.86,4.6-1.72,6.9-2.58c2.15,0.53,4.3,1.03,6.45,1.51
		c-1.81,1.24-3.62,2.49-5.43,3.73c-5.33-1.04-10.66-2.16-15.99-3.38c0-0.01,0.01-0.01,0.01-0.02
		C56.49,159.36,56.02,159.13,55.88,159.33z M46.66,150.74c-1.77,0.78-3.54,1.56-5.32,2.34c0.4-0.75,0.8-1.5,1.17-2.25
		c0.67-0.22,1.35-0.45,2.02-0.67c0.26-0.09-0.06-0.46-0.32-0.37c-0.47,0.16-0.95,0.31-1.42,0.47c0.14-0.29,0.27-0.58,0.4-0.87
		c0.02-0.04,0.01-0.08,0.02-0.12c0.78,0.28,1.56,0.55,2.34,0.82c-0.03,0.01-0.06,0.03-0.08,0.04c-0.23,0.13,0.09,0.5,0.32,0.37
		c0.12-0.07,0.25-0.13,0.38-0.2c0.91,0.31,1.82,0.62,2.73,0.92c-0.18,0.1-0.37,0.19-0.55,0.3c-0.23,0.13,0.09,0.5,0.32,0.37
		c0.28-0.16,0.56-0.31,0.85-0.46c0.08,0.03,0.16,0.06,0.25,0.08c-3.22,1.3-6.43,2.61-9.65,3.91c0.33-0.64,0.67-1.27,1.01-1.9
		c0.08,0.06,0.19,0.09,0.28,0.05c1.87-0.82,3.73-1.64,5.59-2.46C47.23,151,46.9,150.63,46.66,150.74z M78.41,159.37
		c1.23,0.27,2.46,0.53,3.69,0.78c-2.09,1.16-4.18,2.32-6.28,3.49c-0.94-0.18-1.88-0.36-2.83-0.54
		C74.8,161.85,76.61,160.61,78.41,159.37z M39.41,156.77c0.05,0.04,0.1,0.06,0.18,0.07c0.45,0.04,0.91,0.09,1.36,0.14
		c-0.84,1.21-1.84,2.3-3,3.28C38.35,159.07,38.85,157.91,39.41,156.77z M34.65,168.76c1.02,0.26,2.03,0.52,3.05,0.78
		C36.67,169.45,35.64,169.19,34.65,168.76z M41.84,182.18c-0.02-0.1-0.11-0.22-0.28-0.23c-0.01-0.59,0.01-1.17,0.04-1.73
		c0.22,0.06,0.44,0.02,0.57-0.09c0.74,0.46,1.49,0.91,2.24,1.36C43.57,181.71,42.71,181.94,41.84,182.18z M44.55,181.9
		c0.07,0.12,0.23,0.21,0.36,0.14c0.08-0.04,0.17-0.09,0.25-0.13c0.32,0.18,0.64,0.36,0.96,0.54c-0.41,0.09-0.77,0.25-1.12,0.46
		c-0.33,0.2-0.63,0.43-1.02,0.57c-0.62,0.22-1.88,0.14-2.06-0.74c-0.01-0.04-0.03-0.08-0.06-0.11
		C42.76,182.39,43.65,182.15,44.55,181.9z M41.67,183.2c0.38,0.5,1.12,0.83,1.79,0.83c1.39-0.01,1.94-1.2,3.29-1.23
		c0.37,0.2,0.73,0.4,1.1,0.59c-1.61,0.95-3.39,1.72-5.32,2.29C42.05,184.87,41.79,184.03,41.67,183.2z M43.27,186.67
		c-0.18-0.2-0.34-0.4-0.48-0.61c2.02-0.6,3.88-1.41,5.56-2.42c0.34,0.18,0.69,0.36,1.03,0.53c-1.77,1.11-3.69,2.06-5.75,2.85
		C43.5,186.91,43.38,186.79,43.27,186.67z M44.03,187.37c2.11-0.81,4.06-1.79,5.86-2.94c0.68,0.33,1.36,0.66,2.04,0.98
		c-2.26,0.91-4.53,1.83-6.79,2.74C44.74,187.9,44.36,187.64,44.03,187.37z M58.91,192.98c-0.71,0.16-1.42,0.19-2.13,0.13
		c2-1,4.01-2.01,6.01-3.01c0.24-0.12-0.08-0.49-0.32-0.37c-2.18,1.09-4.36,2.18-6.53,3.27c-1.7-0.31-3.41-1.09-5.09-1.96
		c-1.49-0.77-3.51-1.6-5.22-2.59c2.29-0.92,4.58-1.85,6.87-2.77c0.62,0.28,1.25,0.56,1.88,0.83c-2.1,0.87-4.19,1.75-6.29,2.62
		c-0.25,0.1,0.07,0.47,0.32,0.37c2.19-0.91,4.38-1.82,6.57-2.73c0.32,0.13,0.63,0.26,0.95,0.39c-2.12,0.9-4.25,1.8-6.37,2.7
		c-0.25,0.11,0.07,0.48,0.32,0.37c2.22-0.94,4.44-1.88,6.67-2.82c0.68,0.27,1.36,0.53,2.05,0.78c-2.1,1.09-4.32,2.05-6.68,2.84
		c-0.26,0.09,0.06,0.46,0.32,0.37c2.46-0.83,4.78-1.84,6.96-3c0.53,0.19,1.06,0.37,1.59,0.55c-1.88,0.95-3.77,1.91-5.65,2.86
		c-0.24,0.12,0.08,0.49,0.32,0.37c1.99-1.01,3.97-2.01,5.96-3.02c0.88,0.29,1.76,0.56,2.65,0.82
		C62.51,191.1,61.05,192.5,58.91,192.98z M64.74,188.66c-0.26,0.06-0.35,0.24-0.32,0.44c-0.73-0.21-1.46-0.44-2.19-0.67
		c-0.07-0.06-0.16-0.09-0.24-0.08c-0.56-0.18-1.12-0.37-1.68-0.56c0.09-0.05,0.18-0.1,0.27-0.15c0.23-0.13-0.09-0.5-0.32-0.37
		c-0.18,0.11-0.37,0.2-0.56,0.3c-0.67-0.24-1.33-0.48-2-0.74c0.02-0.15-0.21-0.35-0.41-0.27c-0.05,0.02-0.09,0.04-0.14,0.06
		c-2.15-0.84-4.27-1.77-6.35-2.79c0.01-0.01,0.02-0.01,0.03-0.02c0.21-0.15-0.2-0.46-0.41-0.31c-0.04,0.03-0.09,0.06-0.13,0.09
		c-0.27-0.13-0.54-0.27-0.82-0.41c0.51-0.15,1.03-0.3,1.54-0.45c0.27-0.08,0.06-0.48-0.21-0.4c-0.56,0.16-1.12,0.33-1.68,0.49
		c-0.07,0.02-0.11,0.07-0.12,0.12c-0.45-0.23-0.89-0.46-1.33-0.7c0.61-0.28,1.21-0.57,1.82-0.85c0.24-0.11-0.08-0.48-0.32-0.37
		c-0.63,0.3-1.27,0.59-1.9,0.89c-0.04,0.02-0.06,0.05-0.07,0.08c-0.35-0.19-0.7-0.39-1.05-0.59c0.54-0.28,1.08-0.56,1.62-0.84
		c0.24-0.12-0.08-0.49-0.32-0.37c-0.6,0.31-1.2,0.62-1.8,0.93c-0.51-0.29-1.01-0.59-1.51-0.89c1.16-0.21,2.09-0.75,2.7-1.57
		c0.15-0.19-0.32-0.42-0.47-0.23c-0.6,0.81-1.58,1.32-2.79,1.46c-0.34-0.21-0.68-0.42-1.01-0.63c0.87-0.52,1.73-1.04,2.6-1.56
		c0.22-0.13-0.1-0.5-0.32-0.37c-0.91,0.55-1.82,1.1-2.73,1.64c-0.13-0.09-0.27-0.17-0.41-0.26c-0.15-0.09-0.29-0.13-0.43-0.14
		c-0.33-0.4-0.63-0.81-0.89-1.23c1.08-0.86,2.16-1.72,3.24-2.58c0.2-0.16-0.21-0.47-0.41-0.31c-1.03,0.82-2.07,1.64-3.1,2.46
		c-0.82-1.41-1.26-2.86-1.3-4.25c0.52-0.33,1.03-0.66,1.55-0.99c0.03,0,0.07-0.01,0.1-0.03c0.2-0.14,0.39-0.27,0.59-0.41
		c0.18-0.13-0.17-0.46-0.36-0.34c-0.62,0.4-1.25,0.79-1.87,1.19c0.04-0.74,0.19-1.46,0.47-2.14c2.19,0.56,4.37,1.12,6.56,1.68
		c-0.96,0.46-1.92,0.93-2.87,1.39c-0.24,0.12,0.08,0.49,0.32,0.37c1.09-0.53,2.17-1.06,3.26-1.58c0.63,0.16,1.26,0.32,1.9,0.49
		c-1.15,0.75-2.3,1.51-3.45,2.26c-0.22,0.14,0.19,0.45,0.41,0.31c1.23-0.8,2.45-1.61,3.68-2.41c1.24,0.32,2.49,0.64,3.73,0.96
		c-1.47,1.03-2.94,2.06-4.41,3.09c-0.21,0.15,0.2,0.46,0.41,0.31c1.54-1.08,3.08-2.16,4.63-3.24c0.75,0.19,1.51,0.39,2.26,0.58
		c-0.68,0.69-1.36,1.38-2.04,2.08c-0.17,0.18,0.23,0.49,0.41,0.31c0.73-0.75,1.47-1.5,2.2-2.24c1.03,0.27,2.07,0.53,3.1,0.8
		c-0.69,0.63-1.38,1.26-2.07,1.89c-0.18,0.17,0.22,0.48,0.41,0.31c0.75-0.69,1.5-1.37,2.25-2.06c1.28,0.33,2.57,0.66,3.85,0.99
		c-0.63,0.58-1.26,1.15-1.89,1.73c-0.18,0.17,0.22,0.48,0.41,0.31c0.69-0.63,1.38-1.26,2.06-1.89c0.67,0.17,1.35,0.35,2.02,0.52
		c-0.71,0.74-1.43,1.49-2.14,2.23c-0.17,0.18,0.24,0.49,0.41,0.31c0.77-0.8,1.53-1.6,2.3-2.4c1.07,0.27,2.14,0.55,3.2,0.82
		c-0.73,0.69-1.46,1.39-2.19,2.08c-0.18,0.17,0.23,0.48,0.41,0.31c0.79-0.75,1.57-1.5,2.36-2.24c0.72,0.18,1.44,0.37,2.16,0.55
		c-0.6,0.71-1.19,1.41-1.79,2.12c-0.16,0.19,0.25,0.5,0.41,0.31c0.64-0.76,1.29-1.53,1.93-2.29c0.47,0.12,0.95,0.24,1.42,0.36
		c-0.95,1.4-1.91,2.8-2.86,4.21c-0.03,0.05-0.03,0.1,0,0.15c-0.57,0.44-1.14,0.88-1.71,1.32c-0.2,0.16,0.21,0.47,0.41,0.31
		c1.39-1.08,2.79-2.15,4.18-3.23C72.85,185.17,69.35,187.54,64.74,188.66z M73.19,182.59c0.76-1.12,1.52-2.24,2.28-3.35
		c0.15,0.04,0.3,0.08,0.45,0.12c-0.16,0.04-0.31,0.09-0.45,0.16c-0.43,0.2-0.15,0.72,0.26,0.9c-0.05,0.11-0.1,0.21-0.15,0.32
		C74.8,181.35,74,181.97,73.19,182.59z M79.48,174.91c0.03,0,0.06,0,0.09,0c-1.27,0.96-2.54,1.93-3.81,2.89
		c-0.2,0.15,0.21,0.47,0.41,0.31c1.39-1.05,2.77-2.11,4.16-3.16c-0.98,1.31-2.08,2.56-3.38,3.67c-0.92-0.24-1.83-0.47-2.75-0.71
		c0.01-0.01,0.02-0.02,0.03-0.04c0.16-0.19-0.25-0.5-0.41-0.31c-0.06,0.07-0.12,0.14-0.17,0.21c-1.96-0.5-3.91-1-5.87-1.51
		c0.06-0.06,0.11-0.11,0.16-0.17c0.17-0.18-0.24-0.49-0.41-0.31c-0.11,0.11-0.22,0.23-0.32,0.34c-0.65-0.17-1.3-0.33-1.94-0.5
		c0.14-0.13,0.29-0.26,0.43-0.39c0.18-0.17-0.22-0.48-0.41-0.31c-0.2,0.19-0.41,0.37-0.61,0.56c-0.65-0.17-1.29-0.33-1.94-0.5
		c0.48-0.46,0.98-0.9,1.53-1.31c0.2-0.15-0.2-0.46-0.41-0.31c-0.61,0.46-1.18,0.95-1.7,1.47c-0.44-0.11-0.88-0.23-1.33-0.34
		c0.08-0.08,0.17-0.15,0.25-0.23c0.18-0.17-0.22-0.48-0.41-0.31c-0.14,0.13-0.29,0.26-0.43,0.39c-1.06-0.27-2.12-0.54-3.18-0.82
		c0.08-0.18-0.27-0.43-0.43-0.27c-0.04,0.04-0.08,0.08-0.12,0.13c-2.1-0.54-4.21-1.08-6.31-1.62c0.07-0.05,0.15-0.09,0.22-0.14
		c0.22-0.14-0.19-0.45-0.41-0.31c-0.15,0.1-0.3,0.19-0.45,0.29c-0.55-0.14-1.1-0.28-1.65-0.42c0.07-0.03,0.14-0.07,0.21-0.1
		c0.24-0.12-0.08-0.49-0.32-0.37c-0.2,0.1-0.4,0.19-0.6,0.29c-2.63-0.68-5.26-1.35-7.88-2.02c-0.22-0.18-0.54-0.28-0.77-0.2
		c-0.27-0.07-0.54-0.14-0.81-0.21c1.91-1.21,3.81-2.42,5.72-3.63c0.77,0.21,1.54,0.41,2.31,0.61c-1.22,0.88-2.45,1.75-3.67,2.63
		c-0.21,0.15,0.2,0.46,0.41,0.31c1.29-0.93,2.58-1.85,3.88-2.78c0.85,0.22,1.7,0.45,2.54,0.67c-1.47,0.88-2.95,1.77-4.42,2.65
		c-0.22,0.13,0.1,0.5,0.32,0.37c1.59-0.95,3.17-1.9,4.76-2.85c0.62,0.16,1.24,0.31,1.86,0.46c-0.24,0.2-0.48,0.4-0.72,0.6
		c-0.19,0.16,0.21,0.47,0.41,0.31c0.31-0.25,0.61-0.51,0.92-0.76c2.28,0.57,4.56,1.11,6.84,1.64c-0.08,0.09-0.15,0.18-0.22,0.26
		c-0.16,0.18,0.24,0.5,0.41,0.31c0.13-0.14,0.25-0.3,0.38-0.45c0.65,0.15,1.3,0.31,1.96,0.45c-0.1,0.08-0.2,0.16-0.3,0.24
		c-0.2,0.16,0.21,0.47,0.41,0.31c0.17-0.14,0.34-0.28,0.52-0.41c0.75,0.17,1.5,0.33,2.25,0.49c-0.1,0.12-0.21,0.24-0.32,0.35
		c-0.17,0.18,0.24,0.49,0.41,0.31c0.17-0.17,0.33-0.36,0.48-0.54c2.11,0.46,4.22,0.89,6.33,1.31c-0.28,0.2-0.56,0.41-0.84,0.61
		c-0.21,0.15,0.2,0.46,0.41,0.31c0.36-0.26,0.73-0.53,1.09-0.79c1.35,0.27,2.71,0.53,4.06,0.78c-0.42,0.27-0.83,0.55-1.26,0.81
		c-0.22,0.13,0.1,0.5,0.32,0.37c0.56-0.34,1.1-0.69,1.64-1.05c0.82,0.15,1.64,0.3,2.45,0.45c-1.94,1.27-3.87,2.53-5.81,3.8
		c-0.21,0.14,0.11,0.51,0.32,0.37c2.06-1.35,4.12-2.7,6.18-4.04c0.57,0.1,1.14,0.2,1.7,0.3c-0.05,0.08-0.1,0.15-0.15,0.23
		c-0.16,0.12-0.31,0.24-0.47,0.36c-0.53-0.02-1.06-0.04-1.59-0.06C78.47,173.86,78.7,174.88,79.48,174.91z M79.41,172.02
		c1.83-1.34,3.65-2.68,5.48-4.03c-0.98,1.48-1.89,3-2.85,4.48C81.17,172.33,80.29,172.18,79.41,172.02z M78.7,178.95
		c-0.04,0.03-0.04,0.07-0.04,0.11c-0.08-0.02-0.15-0.04-0.22-0.06c1.34-1.22,2.46-2.58,3.48-4.01c0.35,0.01,0.69,0.03,1.04,0.04
		C81.53,176.34,80.11,177.64,78.7,178.95z M84.25,173.83c-0.08,0.08-0.17,0.15-0.25,0.23c-0.47-0.02-0.94-0.03-1.41-0.05
		c0.09-0.14,0.18-0.27,0.28-0.41C83.33,173.68,83.79,173.75,84.25,173.83z M87.98,163.75c-0.69,0.43-1.46,0.79-2.33,1.05
		c-0.27,0.08,0.06,0.45,0.32,0.37c0.46-0.14,0.89-0.3,1.3-0.49c-0.21,0.28-0.42,0.56-0.63,0.84c-1.45-0.24-2.91-0.47-4.36-0.72
		c-0.79-0.14-0.89,0.83-0.09,0.96c0.14,0.02,0.28,0.05,0.43,0.07c-1.63,1.87-3.63,3.44-6.01,4.68c-0.23,0.12,0.09,0.49,0.32,0.37
		c2.44-1.28,4.51-2.89,6.17-4.83c0.04-0.04,0.04-0.09,0.03-0.14c0.96,0.16,1.91,0.33,2.87,0.48c-0.04,0.06-0.08,0.12-0.12,0.17
		c-0.1,0.05-0.17,0.13-0.2,0.23c-2.24,1.64-4.48,3.29-6.72,4.94c-0.07,0.05-0.07,0.12-0.03,0.19c-0.4-0.07-0.81-0.15-1.21-0.22
		c0.26-0.19,0.53-0.37,0.78-0.56c0.2-0.15-0.21-0.47-0.41-0.31c-0.34,0.26-0.7,0.5-1.05,0.75c-1.38-0.26-2.76-0.51-4.14-0.78
		c0.46-0.33,0.92-0.67,1.37-1c0.14-0.1,0-0.27-0.17-0.33c1.17-0.66,2.35-1.31,3.52-1.97c0.23-0.13-0.09-0.5-0.32-0.37
		c-1.75,0.98-3.51,1.96-5.26,2.94c-0.23,0.13,0.09,0.5,0.32,0.37c0.26-0.15,0.53-0.3,0.79-0.44c-0.3,0.22-0.61,0.44-0.91,0.66
		c-0.86-0.17-1.72-0.34-2.57-0.52c1.36-0.97,2.72-1.93,4.08-2.9c0.21-0.15-0.2-0.46-0.41-0.31c-1.44,1.03-2.89,2.05-4.33,3.08
		c-1.24-0.25-2.48-0.52-3.71-0.78c1.3-0.71,2.59-1.42,3.89-2.14c0.23-0.13-0.09-0.5-0.32-0.37c-1.35,0.74-2.69,1.48-4.04,2.22
		c-0.07,0.04-0.09,0.11-0.07,0.17c-0.59-0.13-1.17-0.25-1.76-0.38c0.28-0.23,0.57-0.46,0.86-0.69c0.2-0.16-0.21-0.47-0.41-0.31
		c-0.36,0.29-0.72,0.58-1.08,0.86c-0.76-0.17-1.52-0.34-2.28-0.51c0.02-0.04,0.05-0.07,0.08-0.11c0.14-0.2-0.33-0.43-0.47-0.23
		c-0.05,0.07-0.1,0.14-0.15,0.21c-2.19-0.5-4.38-1.03-6.57-1.57c0.16-0.13,0.31-0.26,0.47-0.39c0.19-0.16-0.21-0.47-0.41-0.31
		c-0.22,0.18-0.44,0.37-0.67,0.55c-0.54-0.13-1.07-0.27-1.61-0.4c0.1-0.06,0.2-0.12,0.3-0.18c0.22-0.13-0.1-0.5-0.32-0.37
		c-0.21,0.13-0.43,0.25-0.64,0.38c-4.24-1.08-8.47-2.22-12.7-3.43c0.08-0.38,0.18-0.76,0.29-1.14c1.56-1.19,2.87-2.56,3.9-4.13
		c1.96,0.51,3.92,1,5.89,1.48c-0.53,0.49-1.05,0.99-1.58,1.48c-0.18,0.17,0.23,0.48,0.41,0.31c0.59-0.55,1.17-1.1,1.76-1.65
		c0.53,0.13,1.07,0.26,1.6,0.39c-0.55,0.52-1.09,1.05-1.64,1.57c-0.18,0.17,0.23,0.48,0.41,0.31c0.61-0.58,1.21-1.16,1.82-1.74
		c0.57,0.14,1.14,0.28,1.71,0.41c-0.33,0.56-0.68,1.11-1.08,1.62c-0.15,0.19,0.26,0.51,0.41,0.31c0.45-0.58,0.84-1.19,1.21-1.81
		c0.89,0.21,1.78,0.42,2.67,0.62c-0.41,0.52-0.85,1.03-1.32,1.5c-0.17,0.18,0.23,0.49,0.41,0.31c0.53-0.54,1.02-1.1,1.48-1.69
		c0.76,0.17,1.52,0.35,2.29,0.52c-0.22,0.55-0.51,1.07-0.88,1.54c-0.15,0.19,0.26,0.5,0.41,0.31c0.42-0.53,0.75-1.11,0.98-1.74
		c1.01,0.23,2.02,0.45,3.03,0.67c-0.63,0.4-1.26,0.8-1.89,1.19c-0.22,0.14,0.1,0.51,0.32,0.37c0.69-0.44,1.39-0.88,2.08-1.31
		c0.05-0.03,0.07-0.08,0.07-0.13c4.61,1,9.22,1.93,13.83,2.79c0.63,0.12,0.81-0.47,0.46-0.79c2.14-1.19,4.27-2.37,6.41-3.56
		c1.8,0.36,3.61,0.71,5.41,1.04c-1.51,1.03-3.02,2.07-4.53,3.1c-0.21,0.14,0.2,0.46,0.41,0.31c1.6-1.1,3.21-2.2,4.81-3.29
		c0.24,0.04,0.48,0.08,0.72,0.13C89.09,162.31,88.54,163.03,87.98,163.75z M85.24,169.86c0.31-0.49,0.63-0.98,0.95-1.47
		c0.15-0.22,0.31-0.44,0.46-0.66c0.29,0.11,0.59,0.21,0.89,0.28C86.77,168.62,86,169.24,85.24,169.86z M88.94,166.88
		c-0.11,0.09-0.22,0.18-0.34,0.27c-0.45,0-0.92-0.08-1.39-0.23c0.07-0.1,0.14-0.19,0.21-0.29C87.92,166.72,88.43,166.8,88.94,166.88
		z M88.12,165.76c-0.02,0-0.03-0.01-0.05-0.01c0.32-0.43,0.64-0.85,0.97-1.28c0.74-0.53,1.47-1.05,2.21-1.58
		c0.5,0.06,0.99,0.1,1.47,0.11C91.5,164.21,89.94,165.13,88.12,165.76z M90.07,163.14c0.1-0.12,0.19-0.25,0.28-0.37
		c0.01,0,0.01,0.01,0.02,0.01c0.06,0.01,0.11,0.01,0.17,0.02C90.39,162.92,90.23,163.03,90.07,163.14z M91.75,161.95
		c-0.01,0.01-0.02,0.01-0.02,0.02c-0.23-0.02-0.46-0.04-0.69-0.07c0.01-0.02,0.03-0.04,0.04-0.06
		C91.3,161.87,91.52,161.91,91.75,161.95z M95.82,154.5c-7.23-1.38-14.39-3.57-21.3-6.45c2.04,0.15,4.08,0.3,6.11,0.45
		c0.31,0.02,0.22-0.38-0.09-0.41c-2.4-0.18-4.8-0.35-7.2-0.53c-5.93-2.55-11.66-5.64-17.06-9.17c0.08-0.02,0.15-0.04,0.23-0.06
		c0.27-0.07,0.06-0.47-0.21-0.4c-0.17,0.04-0.35,0.09-0.52,0.13c-0.41-0.27-0.82-0.55-1.22-0.82c0.84,0.1,1.67,0.12,2.47,0.04
		c0.3-0.03,0.08-0.43-0.21-0.4c-0.97,0.1-1.97,0.04-2.98-0.14c-2.02-1.4-3.99-2.87-5.91-4.4c0.4-0.57,0.81-1.15,1.21-1.72
		c0.25-0.35-0.28-0.74-0.73-0.76c1.63-3.55,2.78-7.29,3.47-11.22c0.05,0.08,0.1,0.15,0.16,0.23c-0.13,0.17-0.13,0.43,0.16,0.67
		c1.58,1.31,3.21,2.58,4.87,3.81c-1.62-0.17-3.12,0.01-4.42,0.54c-0.25,0.1,0.07,0.47,0.32,0.37c1.38-0.56,3-0.7,4.75-0.43
		c0.46,0.34,0.93,0.67,1.4,1.01c-2.32,0.43-4.63,0.85-6.95,1.28c-0.29,0.05-0.07,0.45,0.21,0.4c2.41-0.44,4.82-0.89,7.23-1.33
		c5.89,4.13,12.19,7.76,18.75,10.8c-1.93,0.14-3.96-0.05-6.05-0.59c-0.32-0.08-0.36,0.3-0.04,0.39c2.37,0.6,4.68,0.78,6.85,0.55
		c6.12,2.79,12.46,5.08,18.88,6.79c-2.17,0.19-4.33,0.38-6.49,0.57c-0.3,0.03-0.08,0.43,0.21,0.4c2.34-0.2,4.69-0.41,7.03-0.61
		c0.1-0.01,0.14-0.06,0.14-0.12c0.54,0.14,1.08,0.27,1.62,0.41c-0.55,1.07-1.07,2.15-1.57,3.24c-0.02,0-0.03,0-0.04,0
		c-2.48,0.34-4.96,0.68-7.44,1.02c-0.29,0.04-0.08,0.44,0.21,0.4c2.36-0.32,4.71-0.64,7.07-0.97c-1.06,2.31-2.03,4.65-2.91,7.05
		C95.83,154.5,95.82,154.5,95.82,154.5z M135.88,111.83c-2.49,14.16-13.1,25.25-28.62,30.1c0.23-0.15,0.46-0.31,0.67-0.48
		c0.2-0.15-0.21-0.46-0.41-0.31c-0.69,0.52-1.43,0.97-2.23,1.37c-0.61,0.17-1.23,0.33-1.85,0.47c-0.25,0.06-0.33,0.23-0.32,0.41
		c-0.77-0.17-1.54-0.35-2.31-0.53c2.29-0.56,4.29-1.49,5.96-2.76c0.2-0.15-0.21-0.47-0.41-0.31c-1.67,1.28-3.67,2.19-5.97,2.73
		c-0.12,0.03-0.15,0.12-0.11,0.21c-6.09-1.5-12.11-3.52-17.94-6c4.72-2.04,9.43-4.08,14.15-6.12c0.25-0.11-0.07-0.48-0.32-0.37
		c-4.8,2.08-9.61,4.16-14.41,6.24c-0.35-0.15-0.7-0.3-1.04-0.45c0.04-0.14-0.13-0.35-0.34-0.3c-0.08,0.02-0.16,0.03-0.24,0.04
		c-5.33-2.39-10.5-5.17-15.43-8.31c4.5-1.1,8.71-2.61,12.57-4.53c0.24-0.12-0.08-0.49-0.32-0.37c-3.92,1.95-8.19,3.48-12.76,4.57
		c-0.81-0.52-1.61-1.05-2.4-1.58c0.02,0,0.04,0,0.06-0.01c4.79-1.82,9.58-3.63,14.36-5.45c0.26-0.1-0.07-0.47-0.32-0.37
		c-4.79,1.82-9.58,3.63-14.37,5.45c-0.08,0.03-0.1,0.09-0.09,0.15c-2.03-1.38-4-2.83-5.93-4.33c3.11-2.03,6.72-3.55,10.73-4.5
		c0.28-0.07,0.07-0.47-0.21-0.4c-4.09,0.97-7.75,2.51-10.92,4.58c-0.66-0.52-1.32-1.04-1.96-1.58c0.02-0.03,0.03-0.07,0.04-0.1
		c0.07,0.03,0.15,0.05,0.22,0.02c4.29-1.81,8.58-3.61,12.87-5.42c0.25-0.1-0.07-0.48-0.32-0.37c-4.28,1.8-8.57,3.61-12.85,5.41
		c-0.01-0.01-0.01-0.02-0.02-0.03c-1.07-1.52-2.04-3.05-2.91-4.6c0.04,0,0.08,0,0.11-0.01c4.91-1.58,9.83-3.16,14.74-4.74
		c0.27-0.09-0.06-0.45-0.32-0.37c-4.91,1.58-9.83,3.16-14.74,4.74l0,0c-0.36-0.65-0.7-1.31-1.02-1.96c3.42-1.6,7.05-2.96,10.86-4.05
		c0.27-0.08,0.06-0.48-0.21-0.4c-3.81,1.09-7.44,2.44-10.86,4.03c-0.31-0.64-0.6-1.27-0.87-1.91c3.58-1.22,7.17-2.44,10.76-3.67
		c0.26-0.09-0.06-0.46-0.32-0.37c-3.54,1.21-7.08,2.41-10.61,3.62c-0.41-0.99-0.78-1.98-1.11-2.97c0.07,0.11,0.23,0.2,0.38,0.15
		c3.27-1.16,6.55-2.31,9.82-3.47c0.26-0.09-0.06-0.46-0.32-0.37c-3.27,1.16-6.55,2.32-9.82,3.47c-0.06,0.02-0.09,0.06-0.1,0.11
		c-0.24-0.72-0.44-1.43-0.63-2.15c1.44-0.37,2.88-0.74,4.32-1.1c0.27-0.07,0.06-0.47-0.21-0.4c-1.4,0.36-2.81,0.72-4.21,1.08
		c-0.88-3.42-1.26-6.8-1.13-10.07c1.42-0.81,3.02-1.4,4.81-1.73c0.29-0.05,0.07-0.46-0.21-0.4c-1.68,0.31-3.2,0.84-4.56,1.57
		c0.07-1.17,0.2-2.32,0.39-3.45c2.18-0.91,4.35-1.81,6.53-2.72c0.25-0.1-0.07-0.47-0.32-0.37c-2.04,0.85-4.07,1.7-6.11,2.54
		c0.2-1.04,0.46-2.05,0.77-3.05c0.1,0.06,0.22,0.09,0.3,0.01c0.84-0.84,1.95-1.4,3.31-1.67c0.28-0.06,0.07-0.46-0.21-0.4
		c-1.28,0.25-2.36,0.76-3.21,1.49c0.36-1.08,0.77-2.13,1.26-3.16c0.08,0.07,0.19,0.1,0.29,0.05c1.2-0.64,2.57-1.05,4.06-1.25
		c-0.05,0.13,0.12,0.36,0.34,0.31c1.88-0.38,3.76-0.77,5.64-1.15c0.28-0.06,0.07-0.46-0.21-0.4c-1.69,0.34-3.38,0.69-5.07,1.03
		c0-0.12-0.16-0.29-0.35-0.27c-1.66,0.16-3.16,0.59-4.48,1.25c0.98-1.98,2.2-3.86,3.66-5.61c0.03,0.12,0.17,0.25,0.35,0.24
		c1.12-0.06,2.24-0.11,3.36-0.17c0.3-0.02,0.09-0.42-0.21-0.4c-1.12,0.06-2.24,0.11-3.36,0.17c-0.01,0-0.01,0-0.01,0
		c0.94-1.11,1.99-2.16,3.12-3.16c-0.41,3.61,3.95,7.29,8.01,9.86c-1.69,0.34-3.38,0.67-5.07,1.01c-0.28,0.06-0.07,0.46,0.21,0.4
		c1.76-0.35,3.51-0.7,5.27-1.05c0.04-0.01,0.07-0.03,0.09-0.05c0.15,0.09,0.29,0.18,0.44,0.26c0.83,0.5,1.67,0.99,2.51,1.48
		c-2.45,0.52-4.9,1.05-7.35,1.57c-0.28,0.06-0.07,0.46,0.21,0.4c2.56-0.55,5.13-1.09,7.69-1.64c6.24,3.62,12.68,6.98,19.2,10.09
		c-3.72,1.09-7.44,2.17-11.17,3.26c-0.27,0.08-0.06,0.48,0.21,0.4c3.85-1.12,7.7-2.25,11.55-3.37c0.98,0.46,1.96,0.92,2.94,1.37
		c-3.78,1.19-7.56,2.37-11.35,3.56c-0.27,0.08,0.06,0.45,0.32,0.37c3.88-1.22,7.76-2.43,11.63-3.65c3.3,1.52,6.63,2.97,9.99,4.36
		c-0.05-0.02-0.1-0.03-0.16-0.01c-2.88,0.74-5.5,1.82-7.84,3.23c-0.22,0.13,0.1,0.5,0.32,0.37c2.31-1.39,4.89-2.46,7.73-3.19
		c0.2-0.05,0.14-0.29-0.02-0.37c1.89,0.78,3.8,1.55,5.7,2.29c-2.31,1.07-4.61,2.14-6.92,3.21c-0.24,0.11,0.08,0.48,0.32,0.37
		c2.37-1.1,4.73-2.19,7.1-3.29c0.04-0.02,0.06-0.04,0.07-0.07c1.17,0.45,2.34,0.89,3.51,1.33c-2.43,1.1-4.72,2.34-6.87,3.73
		c-0.21,0.14,0.1,0.51,0.32,0.37c2.24-1.45,4.63-2.74,7.17-3.87c0.81,0.3,1.61,0.59,2.42,0.88c-2.56,1.21-5.13,2.43-7.69,3.64
		c-0.24,0.11,0.08,0.49,0.32,0.37c2.6-1.23,5.19-2.46,7.78-3.68c0.07-0.03,0.09-0.09,0.08-0.15c0.72,0.26,1.45,0.52,2.17,0.77
		c5.91,2.05,13.71,5.43,19.51,4.5C135.1,111.76,135.55,111.96,135.88,111.83z M136.96,107.03c0.07,1.15-0.28,2.23-1.05,3.12
		c-0.05,0-0.11,0.01-0.16,0.03c-5.55,1.89-14.74-2.22-20.86-4.36c-7.62-2.66-15.17-5.68-22.58-9.01
		c-6.89-3.1-13.67-6.48-20.29-10.11c-5.3-2.91-17.54-8.61-16.2-14.25c0.32,0.09,0.64,0.02,0.65-0.3c0.16-4.2,6.9-2.04,10.34-0.63
		c0.36,0.15,0.63,0.04,0.75-0.14c-0.05,0.32-0.11,0.64-0.19,0.95c-0.07,0.04-0.14,0.06-0.2,0.11c-0.14,0.09-0.05,0.28,0.09,0.36
		c-0.06,0.2-0.13,0.4-0.2,0.59c-0.07-0.12-0.23-0.22-0.38-0.15c-0.98,0.46-1.95,0.91-2.93,1.36c-0.18,0.01-0.36,0.02-0.54,0.03
		c-0.05-0.08-0.1-0.15-0.15-0.23c0.02-0.08-0.03-0.18-0.15-0.23c-0.25-0.41-0.46-0.84-0.63-1.29c1-0.28,2-0.56,2.99-0.83
		c0.27-0.07,0.06-0.48-0.21-0.4c-0.97,0.27-1.95,0.54-2.92,0.81c-0.03-0.1-0.07-0.19-0.1-0.29c-0.17-0.66-1.4-0.74-1.22-0.08
		c0.18,0.7,0.47,1.35,0.83,1.98c-0.62,0.07-1.15,0.32-1.48,0.74c-0.15,0.19,0.25,0.5,0.41,0.31c0.29-0.36,0.75-0.59,1.3-0.65
		c0.36,0.57,0.79,1.12,1.27,1.64c0,0.07,0.06,0.15,0.14,0.2c-0.1,0.66-0.62,1.2-1.48,1.23c-0.3,0.01-0.21,0.42,0.09,0.41
		c0.98-0.04,1.61-0.56,1.82-1.25c0.7,0.68,1.48,1.32,2.32,1.92c-0.55,0.09-1.1,0.18-1.64,0.27c-0.29,0.05-0.08,0.45,0.21,0.4
		c0.64-0.11,1.29-0.21,1.93-0.32c0.21,0.14,0.43,0.28,0.64,0.42c-0.31,0.05-0.62,0.1-0.93,0.15c-0.29,0.05-0.08,0.45,0.21,0.4
		c0.42-0.07,0.84-0.14,1.26-0.21c1.34,0.82,2.74,1.57,4.12,2.26c8.56,4.26,17.32,8.21,26.05,12.09c8.68,3.86,17.41,7.58,26.18,11.15
		c2.26,0.92,5.77,2.4,8.64,2.79c-0.17,0.24-0.35,0.47-0.52,0.71c-0.14,0.19,0.33,0.43,0.47,0.23c0.21-0.29,0.43-0.58,0.64-0.87
		C134.88,108.24,136.22,107.98,136.96,107.03z M118.16,101.2c0.01,0.01,0.03,0.02,0.04,0.03c-0.01,0.07-0.02,0.14-0.04,0.21
		C118.16,101.36,118.16,101.28,118.16,101.2z M118.65,101.61c0.22,0.2,0.41,0.41,0.58,0.64c-0.24-0.1-0.48-0.2-0.72-0.3
		C118.57,101.84,118.62,101.73,118.65,101.61z M134.52,102.55c0.02-0.01,0.03-0.02,0.05-0.02c0.79,0.76,1.39,1.56,1.79,2.36
		c0,0.01-0.01,0.02-0.01,0.03c-0.11,1.42-0.94,2.05-2.15,2.2c0-0.01,0-0.01,0-0.02c-0.1-1.05-0.08-2.07,0.03-3.05
		c0.04-0.02,0.08-0.04,0.11-0.06c0.15-0.08,0.07-0.26-0.07-0.35c0.05-0.37,0.12-0.73,0.2-1.09
		C134.5,102.56,134.51,102.55,134.52,102.55z M138.16,94.42c-0.08-0.06-0.19-0.1-0.29-0.06c-0.17,0.06-0.35,0.12-0.52,0.18
		c0.1-0.11,0.2-0.21,0.31-0.32c0.29-0.04,0.6-0.07,0.9-0.1C138.42,94.22,138.29,94.32,138.16,94.42z M137.53,94.95
		c-0.03,0.02-0.06,0.05-0.08,0.07c-0.35,0.15-0.68,0.3-1.02,0.46c0.08-0.08,0.15-0.16,0.23-0.24
		C136.95,95.15,137.24,95.05,137.53,94.95z M139.15,93.69c-0.05-0.02-0.1-0.04-0.16-0.03c-0.3,0.02-0.59,0.05-0.88,0.08
		c0.03-0.03,0.06-0.06,0.09-0.09c0.06-0.06,0.05-0.14,0-0.21c0.72-0.16,1.44-0.32,2.15-0.48C139.94,93.19,139.54,93.43,139.15,93.69
		z M146.78,90.75c0.11-0.12-0.07-0.4-0.31-0.35c-2.43,0.48-4.86,0.97-7.29,1.45c-0.28,0.06-0.07,0.46,0.21,0.4
		c1.81-0.36,3.63-0.72,5.44-1.08c-1.03,0.27-2.01,0.61-2.93,1.01c-0.04-0.01-0.07-0.01-0.11,0c-2.53,0.56-5.06,1.13-7.58,1.69
		c-0.28,0.06-0.07,0.47,0.21,0.4c1.04-0.23,2.08-0.46,3.13-0.7c-0.09,0.09-0.17,0.17-0.25,0.26c-1.25,0.19-2.43,0.5-3.53,0.94
		c-0.25,0.1,0.07,0.47,0.32,0.37c0.85-0.34,1.76-0.6,2.7-0.78c-0.17,0.18-0.34,0.35-0.51,0.53c-1.01,0.35-2.03,0.69-3.04,1.04
		c-0.26,0.09,0.06,0.46,0.32,0.37c0.68-0.23,1.35-0.46,2.03-0.69c-0.21,0.22-0.42,0.44-0.63,0.65c-0.1,0.06-0.21,0.11-0.3,0.17
		c-0.06,0.04-0.08,0.1-0.07,0.16c-0.71,0.28-1.42,0.56-2.14,0.84c-0.25,0.1,0.07,0.47,0.32,0.37c0.41-0.16,0.81-0.32,1.22-0.48
		c0,0.17,0.3,0.36,0.44,0.22c0.2-0.21,0.4-0.42,0.61-0.63c0.32-0.13,0.64-0.25,0.96-0.38c-0.31,0.38-0.59,0.77-0.86,1.17
		c-1.21,0.39-2.43,0.79-3.65,1.18c-0.27,0.09,0.06,0.46,0.32,0.37c0.99-0.32,1.97-0.64,2.96-0.96c-0.12,0.2-0.23,0.41-0.34,0.62
		c-0.94,0.42-1.87,0.84-2.81,1.26c-0.25,0.11,0.08,0.48,0.32,0.37c0.72-0.33,1.45-0.65,2.18-0.98c-0.1,0.23-0.2,0.46-0.28,0.69
		c-0.7,0.33-1.39,0.66-2.09,0.99c-0.24,0.12,0.08,0.48,0.32,0.37c0.52-0.25,1.03-0.49,1.55-0.74c-0.05,0.15-0.1,0.3-0.14,0.46
		c-0.88,0.36-1.77,0.73-2.65,1.09c-0.25,0.1,0.07,0.47,0.32,0.37c0.73-0.3,1.45-0.6,2.18-0.9c-0.05,0.19-0.09,0.39-0.13,0.59
		c-0.79,0.32-1.47,0.76-2,1.34c-0.17,0.18,0.24,0.49,0.41,0.31c0.41-0.45,0.92-0.81,1.49-1.1c-0.06,0.36-0.1,0.73-0.14,1.11
		c-0.63,0.32-1.25,0.65-1.88,0.97c-0.23,0.12,0.09,0.49,0.32,0.37c0.51-0.26,1.01-0.52,1.52-0.79c-0.01,0.14-0.01,0.28-0.02,0.42
		c-0.44,0.45-0.88,0.89-1.32,1.34c-0.17,0.18,0.23,0.49,0.41,0.31c0.3-0.31,0.61-0.62,0.91-0.93c0.01,0.38,0.03,0.77,0.06,1.16
		c0,0.04,0.02,0.07,0.04,0.11c-2.2-0.17-5.05-1.29-7.14-2.15c0.51-0.39,1.02-0.78,1.53-1.16c0.2-0.15-0.21-0.47-0.41-0.31
		c-0.55,0.42-1.1,0.84-1.65,1.26c-0.31-0.13-0.6-0.25-0.86-0.36c-1.12-0.46-2.24-0.92-3.36-1.38c0.72-0.29,1.45-0.57,2.17-0.86
		c0.25-0.1-0.07-0.47-0.32-0.37c-0.82,0.32-1.65,0.65-2.47,0.97c-0.18-0.08-0.37-0.15-0.56-0.23c-0.12-0.2-0.25-0.39-0.4-0.57
		c0.06,0.02,0.13,0.03,0.19,0c1.16-0.42,2.33-0.84,3.49-1.26c0.26-0.09-0.06-0.46-0.32-0.37c-1.16,0.42-2.33,0.84-3.49,1.26
		c-0.06,0.02-0.09,0.06-0.09,0.11c-0.11-0.12-0.23-0.24-0.35-0.35c0.91-0.46,1.82-0.91,2.73-1.37c0.24-0.12-0.08-0.49-0.32-0.37
		c-0.9,0.45-1.81,0.91-2.71,1.36c-0.04-0.23-0.12-0.47-0.26-0.71c0.01-0.01,0.02-0.01,0.03-0.02c1.04-0.98,2.4-1.62,4.06-1.89
		c0.29-0.05,0.08-0.45-0.21-0.4c-1.69,0.28-3.1,0.93-4.17,1.91c0,0-0.01-0.01-0.01-0.01c-0.51-2.41-0.29-4.62,0.52-6.5
		c0.05,0.03,0.1,0.06,0.17,0.06c1.35,0.04,2.6-0.13,3.75-0.49c0.27-0.08-0.06-0.45-0.32-0.37c-1.06,0.33-2.21,0.48-3.45,0.45
		c0.12-0.26,0.26-0.52,0.41-0.77c1.24-0.22,2.49-0.43,3.73-0.65c0.29-0.05,0.07-0.45-0.21-0.4c-1.07,0.19-2.14,0.37-3.21,0.56
		c1.02-1.49,2.47-2.7,4.26-3.55c2.52-0.28,5.03-0.56,7.55-0.84c0.3-0.03,0.08-0.44-0.21-0.4c-1.97,0.22-3.93,0.44-5.9,0.66
		c2.66-0.91,5.91-1.13,9.51-0.45c0.36,0.07,0.57-0.1,0.62-0.31c0.38,0.12,0.77,0.23,1.16,0.35c-0.57,0.06-1.14,0.13-1.71,0.19
		c-0.3,0.03-0.08,0.44,0.21,0.4c0.77-0.09,1.54-0.17,2.31-0.26c0.06-0.01,0.09-0.03,0.11-0.06c0.48,0.14,0.95,0.29,1.42,0.43
		c1.59,0.48,3.2,0.99,4.82,1.48c-1.73,0.12-3.45,0.25-5.18,0.37c-0.3,0.02-0.08,0.42,0.21,0.4c1.85-0.13,3.7-0.26,5.55-0.4
		c0.12-0.01,0.16-0.08,0.14-0.16c0.2,0.06,0.41,0.12,0.61,0.18c-1.84,0.51-3.78,0.84-5.83,0.96c-0.3,0.02-0.09,0.42,0.21,0.4
		c2.28-0.14,4.42-0.53,6.43-1.14c0.76,0.21,1.51,0.4,2.27,0.57C147.64,90.62,147.21,90.68,146.78,90.75z M155.04,90
		c1.07-0.88,2.15-1.75,3.22-2.63c0.2-0.16-0.21-0.47-0.41-0.31c-1.24,1.01-2.48,2.02-3.72,3.03c0,0,0,0,0,0.01
		c-2.67,0.18-5.85-0.41-8.95-1.3c-2.68-0.77-5.37-1.61-8.05-2.4c0.04,0,0.09,0,0.12-0.02c1.79-1.32,3.58-2.65,5.37-3.97
		c0.2-0.15-0.2-0.46-0.41-0.31c-1.79,1.32-3.58,2.65-5.37,3.97c-0.1,0.07-0.05,0.19,0.05,0.27c-4.37-1.29-8.75-2.56-13.11-3.91
		c1.54-1.18,3.08-2.36,4.62-3.54c0.2-0.15-0.21-0.47-0.41-0.31c-1.57,1.2-3.14,2.4-4.7,3.6c-0.03,0.03-0.04,0.05-0.05,0.08
		c-2.6-0.81-5.2-1.62-7.8-2.45c-0.02-0.1-0.12-0.21-0.27-0.2c-0.01,0-0.02,0-0.03,0c1.32-0.78,2.64-1.56,3.97-2.34
		c0.22-0.13-0.1-0.5-0.32-0.37c-1.46,0.86-2.91,1.72-4.37,2.57c-3.64-1.17-7.27-2.36-10.89-3.57c1.94-0.63,3.68-1.48,5.2-2.59
		c0.21-0.15-0.2-0.46-0.41-0.31c-1.59,1.16-3.42,2.05-5.49,2.66c-1.07-0.36-2.14-0.72-3.21-1.09c1.67-0.79,3.34-1.58,5.01-2.37
		c0.24-0.11-0.08-0.48-0.32-0.37c-1.68,0.8-3.37,1.59-5.05,2.39c-0.09,0.04-0.1,0.12-0.07,0.2c-0.38-0.13-0.76-0.26-1.15-0.39
		c-0.48-0.17-0.97-0.33-1.45-0.5c0.06,0.01,0.11,0,0.16-0.04c1.33-1.14,2.86-2.06,4.61-2.78c0.25-0.1-0.07-0.47-0.32-0.37
		c-1.78,0.74-3.35,1.68-4.7,2.84c-0.11,0.09-0.02,0.23,0.11,0.31c-0.89-0.31-1.78-0.62-2.68-0.93c1.33-0.95,2.82-1.72,4.49-2.3
		c0.26-0.09-0.06-0.46-0.32-0.37c-1.78,0.62-3.35,1.45-4.75,2.47c-1.16-0.4-2.31-0.81-3.47-1.22c1.44-0.69,2.87-1.39,4.31-2.08
		c0.24-0.12-0.08-0.49-0.32-0.37c-1.49,0.72-2.98,1.44-4.46,2.15c-0.05,0.03-0.07,0.06-0.08,0.1c-2.06-0.73-4.11-1.48-6.16-2.26
		c1.41-0.7,2.83-1.41,4.24-2.11c0.24-0.12-0.08-0.49-0.32-0.37c-1.5,0.75-3.01,1.5-4.52,2.25c-1.22-0.46-2.43-0.94-3.64-1.43
		c1.84-0.82,3.68-1.63,5.52-2.45c0.25-0.11-0.07-0.48-0.32-0.37c-1.94,0.86-3.87,1.72-5.81,2.58c-1.07-0.43-2.13-0.87-3.19-1.33
		c1.73-0.8,3.46-1.6,5.19-2.41c0.24-0.11-0.08-0.48-0.32-0.37c-1.74,0.81-3.48,1.61-5.22,2.42c-0.08,0.04-0.1,0.11-0.07,0.18
		c-0.11-0.04-0.21-0.09-0.31-0.13c-0.76-0.33-1.56-0.71-2.38-1.13c1.03-0.98,2.35-1.65,3.96-2.01c0.28-0.06,0.07-0.46-0.21-0.4
		c-1.71,0.38-3.13,1.1-4.22,2.16c-0.85-0.46-1.71-0.96-2.56-1.5c0.93-0.64,1.99-1.12,3.22-1.41c0.28-0.07,0.06-0.47-0.22-0.4
		c-1.32,0.32-2.46,0.83-3.45,1.53c-0.65-0.42-1.28-0.87-1.88-1.33c1.24-0.58,2.55-1.07,3.94-1.46c0.27-0.08,0.06-0.48-0.21-0.4
		c-1.47,0.41-2.85,0.92-4.14,1.53c-0.47-0.38-0.92-0.76-1.35-1.16c1.34-0.82,2.87-1.42,4.61-1.76c0.28-0.06,0.07-0.46-0.21-0.4
		c-1.79,0.36-3.36,0.97-4.75,1.82c-0.6-0.59-1.15-1.2-1.61-1.83c0.95-0.57,2.04-0.98,3.26-1.22c0.28-0.06,0.07-0.46-0.21-0.4
		c-1.24,0.24-2.35,0.66-3.33,1.22c-0.26-0.39-0.49-0.79-0.68-1.19c0.04-0.01,0.08-0.03,0.11-0.07c0.5-0.81,1.34-1.36,2.46-1.59
		c0.28-0.06,0.07-0.46-0.21-0.4c-1.13,0.24-2,0.77-2.56,1.55c-0.51-1.34-0.57-2.71,0.05-4.07c0.96-2.11,3.18-2.06,5.65-1.21
		c-0.03,0-0.05,0-0.08,0c-0.64,0.15-1.28,0.3-1.92,0.45c-0.28,0.07-0.07,0.47,0.21,0.4c0.64-0.15,1.28-0.3,1.92-0.45
		c0.2-0.05,0.15-0.26,0-0.36c1.24,0.44,2.55,1.07,3.79,1.73c-0.54,0.09-1.08,0.18-1.62,0.27c-0.29,0.05-0.08,0.45,0.21,0.4
		c0.62-0.1,1.23-0.2,1.85-0.31c0.06-0.01,0.09-0.03,0.11-0.06c0.63,0.34,1.24,0.69,1.81,1.01c-0.84,0.26-1.68,0.51-2.52,0.77
		c-0.27,0.08,0.06,0.45,0.32,0.37c0.91-0.28,1.83-0.56,2.74-0.83c0.34,0.19,0.67,0.37,0.97,0.53c0.74,0.39,1.48,0.76,2.22,1.13
		c-1.32,0.27-2.64,0.54-3.97,0.81c-0.28,0.06-0.07,0.46,0.21,0.4c1.47-0.3,2.93-0.6,4.4-0.9c0.65,0.32,1.31,0.63,1.97,0.93
		c-1.34,0.39-2.59,0.89-3.74,1.51c-0.23,0.13,0.09,0.5,0.32,0.37c1.21-0.66,2.53-1.18,3.95-1.57c0.2,0.21,0.49,0.29,0.73,0.25
		c0.62,0.27,1.24,0.55,1.86,0.81c-0.95,0.47-1.91,0.95-2.86,1.42c-0.24,0.12,0.08,0.49,0.32,0.37c1.04-0.52,2.08-1.03,3.12-1.55
		c0.75,0.32,1.51,0.63,2.27,0.93c-0.97,0.74-2.12,1.3-3.45,1.67c-0.27,0.08-0.06,0.48,0.21,0.4c1.46-0.41,2.72-1.03,3.78-1.86
		c0.5,0.2,1,0.4,1.5,0.59c0.04,0.15,0.31,0.29,0.46,0.17l0,0c0.65,0.25,1.3,0.5,1.96,0.74c-1.21,0.63-2.42,1.27-3.63,1.9
		c-0.23,0.12,0.09,0.49,0.32,0.37c1.3-0.68,2.61-1.37,3.91-2.05c0.83,0.31,1.67,0.61,2.5,0.91c-1.22,0.54-2.45,1.08-3.67,1.62
		c-0.25,0.11,0.07,0.48,0.32,0.37c1.24-0.55,2.49-1.1,3.73-1.64c0.09-0.04,0.1-0.11,0.07-0.18c0.56,0.2,1.13,0.41,1.69,0.6
		c0.11,0.04,0.22,0.08,0.33,0.12c-1.12,0.54-2.24,1.07-3.37,1.61c-0.24,0.12,0.08,0.48,0.32,0.37c1.22-0.58,2.43-1.16,3.64-1.74
		c0.01,0,0.01-0.01,0.02-0.02c0.83,0.29,1.65,0.59,2.48,0.89c-1.1,0.45-2.19,0.9-3.29,1.35c-0.25,0.1,0.07,0.47,0.32,0.37
		c1.2-0.49,2.41-0.99,3.62-1.49c1.45,0.52,2.9,1.05,4.35,1.58c-1.29,0.36-2.41,0.91-3.32,1.69c-0.19,0.16,0.22,0.48,0.41,0.31
		c0.94-0.8,2.08-1.36,3.44-1.7c0.06-0.01,0.09-0.04,0.11-0.08c1.01,0.37,2.03,0.73,3.04,1.1c-1.48,0.42-2.78,1.05-3.87,1.91
		c-0.2,0.16,0.21,0.47,0.41,0.31c1.16-0.92,2.56-1.57,4.18-1.96c0.58,0.21,1.16,0.42,1.75,0.63c-0.94,0.44-1.87,0.88-2.81,1.32
		c-0.24,0.11,0.08,0.48,0.32,0.37c1.04-0.49,2.08-0.98,3.12-1.46c0.76,0.27,1.52,0.54,2.28,0.8c-1.02,0.18-1.89,0.59-2.54,1.22
		c-0.18,0.17,0.23,0.49,0.41,0.31c0.74-0.72,1.79-1.14,3.04-1.21c0.72,0.25,1.45,0.5,2.17,0.75c-0.65,0.34-1.3,0.68-1.95,1.03
		c-0.23,0.12,0.09,0.49,0.32,0.37c0.75-0.4,1.49-0.79,2.24-1.18c0.74,0.25,1.47,0.5,2.21,0.74c-0.7,0.34-1.41,0.69-2.11,1.03
		c-0.24,0.12,0.08,0.49,0.32,0.37c0.81-0.4,1.62-0.79,2.43-1.19c0.22,0.07,0.43,0.15,0.65,0.22c0.61,0.2,1.22,0.38,1.83,0.57
		c-0.86,0.5-1.65,1.06-2.36,1.7c-0.19,0.17,0.22,0.48,0.41,0.31c0.77-0.69,1.63-1.3,2.58-1.82c0.76,0.23,1.53,0.46,2.29,0.68
		c-0.8,0.43-1.61,0.86-2.41,1.3c-0.23,0.12,0.09,0.5,0.32,0.37c0.92-0.49,1.83-0.99,2.75-1.48c0.22,0.06,0.44,0.13,0.66,0.19
		c0,0-0.01,0.01-0.01,0.01c-0.22,0.14,0.1,0.51,0.32,0.37c0.09-0.06,0.18-0.11,0.27-0.17c-0.54,0.41-1.09,0.82-1.63,1.24
		c-0.2,0.15,0.21,0.47,0.41,0.31c0.62-0.47,1.25-0.95,1.87-1.42c1.2,0.33,2.41,0.64,3.62,0.94c-0.5,0.49-1,0.97-1.5,1.46
		c-0.18,0.17,0.23,0.49,0.41,0.31c0.48-0.46,0.96-0.93,1.43-1.4c0.1,0.09,0.27,0.15,0.38,0.06c0.08-0.07,0.16-0.13,0.24-0.2
		c0.96,0.24,1.92,0.47,2.87,0.69c-0.74,0.44-1.49,0.88-2.23,1.32c-0.22,0.13,0.1,0.5,0.32,0.37c0.8-0.47,1.6-0.95,2.41-1.43
		c0.06-0.03,0.08-0.08,0.08-0.13c2.38,0.56,4.75,1.09,7.12,1.62c-0.98,0.36-1.96,0.72-2.94,1.09c-0.26,0.1,0.06,0.46,0.32,0.37
		c1.15-0.42,2.29-0.85,3.44-1.27c0.69,0.16,1.38,0.31,2.07,0.47c-0.81,0.67-1.63,1.34-2.45,2.01c-0.19,0.16,0.21,0.47,0.41,0.31
		c0.88-0.73,1.77-1.46,2.65-2.19c0.43,0.1,0.86,0.19,1.28,0.29c0.8,0.18,0.89-0.78,0.09-0.96c-0.94-0.21-1.89-0.43-2.84-0.64
		c0.49-0.29,0.87-0.68,1.11-1.18c0.1-0.22-0.36-0.45-0.47-0.23c-0.27,0.56-0.75,0.98-1.39,1.24c-0.59-0.13-1.18-0.27-1.77-0.4
		c0.54-0.63,1.07-1.27,1.61-1.9c0.16-0.19-0.25-0.5-0.41-0.31c-0.59,0.7-1.18,1.39-1.77,2.09c-2.86-0.64-5.73-1.3-8.6-2
		c1.66-1.36,3.31-2.72,4.97-4.07c0.02-0.02,0.04-0.04,0.04-0.06c1.07,0.37,2.15,0.75,3.22,1.13c-0.03,0-0.06,0.01-0.09,0.03
		c-1.74,1.06-3.48,2.12-5.22,3.17c-0.22,0.14,0.1,0.51,0.32,0.37c1.74-1.06,3.48-2.12,5.22-3.17c0.13-0.08,0.07-0.24-0.05-0.33
		c0.23,0.08,0.46,0.16,0.7,0.24c2.16,0.77,4.27,1.62,6.39,2.23c-0.54,0.53-1.08,1.07-1.62,1.6c-0.18,0.17,0.23,0.49,0.41,0.31
		c0.59-0.59,1.19-1.17,1.78-1.76c0.79,0.21,1.58,0.37,2.37,0.49c-0.63,0.52-1.17,1.1-1.6,1.78c-0.13,0.2,0.34,0.44,0.47,0.23
		c0.47-0.74,1.09-1.38,1.83-1.93c0.31,0.03,0.62,0.06,0.93,0.07c0.11,0,0.23,0.01,0.34,0.01c0.02,0.01,0.03,0.02,0.05,0.03
		c0.35,0.16,0.69,0.32,1.02,0.5c-0.75,0.68-1.5,1.35-2.24,2.02c-0.19,0.17,0.22,0.48,0.41,0.31c0.76-0.69,1.53-1.38,2.29-2.07
		c0.59,0.36,1.13,0.75,1.63,1.17c-0.8,0.75-1.61,1.49-2.41,2.24c-0.18,0.17,0.22,0.48,0.41,0.31c0.8-0.74,1.6-1.48,2.39-2.22
		c0.54,0.5,1.01,1.03,1.42,1.58c-0.86,0.47-1.72,0.95-2.58,1.43c-0.23,0.13,0.09,0.5,0.32,0.37c0.84-0.47,1.69-0.93,2.53-1.4
		c1.64,2.41,2.17,5.21,1.61,7.54C159.68,88.31,157.68,89.61,155.04,90z"/>
	<path class="st0" d="M105.03,56.06c2.06-0.55,4.11-1.11,6.17-1.66c0.27-0.07,0.06-0.48-0.21-0.4c-2.06,0.55-4.11,1.11-6.17,1.66
		C104.55,55.73,104.76,56.13,105.03,56.06z"/>
	<path class="st0" d="M123.98,63.14c1.71-0.67,3.41-1.33,5.12-2c0.26-0.1-0.07-0.47-0.32-0.37c-1.71,0.67-3.41,1.33-5.12,2
		C123.4,62.87,123.72,63.24,123.98,63.14z"/>
	<path class="st0" d="M127.32,64.16c2.38-0.38,4.37-1.27,5.9-2.63c0.19-0.17-0.22-0.48-0.41-0.31c-1.48,1.32-3.4,2.18-5.71,2.55
		C126.82,63.8,127.03,64.21,127.32,64.16z"/>
	<path class="st0" d="M130.72,65.26c1.72-0.57,3.23-1.36,4.53-2.38c0.2-0.16-0.21-0.47-0.41-0.31c-1.27,1-2.75,1.77-4.44,2.33
		C130.13,64.97,130.45,65.34,130.72,65.26z"/>
	<path class="st0" d="M160.86,66.84c1.06-1.28,2.11-2.56,3.17-3.83c0.15-0.19-0.25-0.5-0.41-0.31c-1.06,1.28-2.11,2.56-3.17,3.83
		C160.3,66.72,160.71,67.03,160.86,66.84z"/>
	<path class="st0" d="M144.16,54.71c-0.8,0.11-1.42,0.46-1.8,1c-0.14,0.2,0.33,0.43,0.47,0.23c0.33-0.46,0.86-0.74,1.54-0.83
		C144.67,55.07,144.46,54.67,144.16,54.71z"/>
	<path class="st0" d="M142.06,72.07c-0.96,0.8-1.93,1.6-2.89,2.41c-0.19,0.16,0.21,0.47,0.41,0.31c0.96-0.8,1.93-1.6,2.89-2.41
		C142.66,72.22,142.26,71.91,142.06,72.07z"/>
	<path class="st0" d="M64.01,51.17c-0.79,0.13-1.58,0.27-2.37,0.41c-0.29,0.05-0.08,0.45,0.21,0.4c0.79-0.13,1.58-0.27,2.37-0.4
		C64.52,51.53,64.3,51.12,64.01,51.17z"/>
	<path class="st0" d="M91.06,66.15c-1.84,0.99-3.68,1.98-5.51,2.97c-0.23,0.13,0.09,0.5,0.32,0.37c1.84-0.99,3.68-1.98,5.51-2.97
		C91.61,66.4,91.29,66.03,91.06,66.15z"/>
	<path class="st0" d="M112.87,73.83c-1.64,0.91-3.28,1.83-4.92,2.75c-0.23,0.13,0.09,0.5,0.32,0.37c1.64-0.92,3.28-1.83,4.92-2.75
		C113.42,74.08,113.1,73.71,112.87,73.83z"/>
	<path class="st0" d="M115.5,75.15c-1.09,1.05-2.39,1.9-3.91,2.55c-0.25,0.11,0.07,0.48,0.32,0.37c1.55-0.66,2.88-1.53,3.99-2.61
		C116.09,75.29,115.68,74.98,115.5,75.15z"/>
	<path class="st0" d="M122.42,77.02c-1.54,1.05-3.08,2.1-4.62,3.15c-0.21,0.14,0.2,0.46,0.41,0.31c1.54-1.05,3.08-2.1,4.62-3.15
		C123.04,77.19,122.63,76.88,122.42,77.02z"/>
	<path class="st0" d="M125.97,76.67c-1.7,1.48-3.41,2.97-5.11,4.45c-0.19,0.17,0.22,0.48,0.41,0.31c1.7-1.48,3.41-2.97,5.11-4.45
		C126.57,76.82,126.16,76.51,125.97,76.67z"/>
	<path class="st0" d="M132.09,79.01c-1.77,1.27-3.55,2.54-5.32,3.81c-0.21,0.15,0.2,0.46,0.41,0.31c1.77-1.27,3.55-2.54,5.32-3.81
		C132.71,79.17,132.3,78.86,132.09,79.01z"/>
	<path class="st0" d="M134.69,80.11c-1.61,1.23-3.22,2.46-4.83,3.7c-0.2,0.15,0.21,0.47,0.41,0.31c1.61-1.23,3.22-2.46,4.83-3.7
		C135.3,80.27,134.89,79.95,134.69,80.11z"/>
	<path class="st0" d="M138.05,81.72c-1.78,0.6-3.25,1.52-4.39,2.75c-0.17,0.18,0.24,0.49,0.41,0.31c1.12-1.2,2.55-2.1,4.3-2.69
		C138.64,82,138.31,81.64,138.05,81.72z"/>
	<path class="st0" d="M145.29,83.59c-1.57,1.3-3.37,2.38-5.39,3.23c-0.25,0.11,0.07,0.48,0.32,0.37c2.05-0.87,3.88-1.97,5.47-3.29
		C145.89,83.75,145.49,83.43,145.29,83.59z"/>
	<path class="st0" d="M148.9,84.03c-1.69,1.25-3.39,2.5-5.08,3.75c-0.21,0.15,0.2,0.46,0.41,0.31c1.69-1.25,3.39-2.5,5.08-3.75
		C149.52,84.19,149.11,83.88,148.9,84.03z"/>
	<path class="st0" d="M151.96,84.99c-1.3,1.16-2.6,2.32-3.91,3.47c-0.19,0.17,0.22,0.48,0.41,0.31c1.3-1.16,2.6-2.32,3.91-3.47
		C152.55,85.13,152.15,84.82,151.96,84.99z"/>
	<path class="st0" d="M155.82,85.84c-1.82,1.19-3.64,2.37-5.46,3.56c-0.21,0.14,0.11,0.51,0.32,0.37c1.82-1.19,3.64-2.37,5.46-3.56
		C156.35,86.07,156.03,85.7,155.82,85.84z"/>
	<path class="st0" d="M145.75,79.92c0.86-0.62,1.73-1.24,2.59-1.87c0.21-0.15-0.2-0.46-0.41-0.31c-0.86,0.62-1.73,1.24-2.59,1.87
		C145.13,79.76,145.54,80.07,145.75,79.92z"/>
	<path class="st0" d="M158.92,79.9c-0.79,0.66-1.59,1.32-2.38,1.98c-0.19,0.16,0.22,0.47,0.41,0.31c0.79-0.66,1.58-1.32,2.38-1.98
		C159.52,80.05,159.11,79.74,158.92,79.9z"/>
	<path class="st0" d="M83.24,18.64c-1.86,0.28-3.43,0.94-4.69,1.96c-0.2,0.16,0.21,0.47,0.41,0.31c1.21-0.97,2.71-1.6,4.5-1.87
		C83.75,19,83.53,18.6,83.24,18.64z"/>
	<path class="st0" d="M88.04,23.08c-2.06-0.01-3.77,0.66-4.82,1.91c-0.16,0.19,0.25,0.5,0.41,0.31c0.98-1.18,2.56-1.82,4.5-1.82
		C88.44,23.49,88.35,23.08,88.04,23.08z"/>
	<path class="st0" d="M90.81,24.75c-1.73,0.35-3.17,1.06-4.28,2.1c-0.18,0.17,0.23,0.48,0.41,0.31c1.06-1,2.43-1.68,4.09-2.02
		C91.31,25.1,91.1,24.7,90.81,24.75z"/>
	<path class="st0" d="M119.56,38.74c-1.27,0.59-2.53,1.19-3.8,1.78c-0.24,0.11,0.08,0.48,0.32,0.37c1.27-0.59,2.53-1.19,3.8-1.78
		C120.13,39,119.81,38.63,119.56,38.74z"/>
	<path class="st0" d="M123.41,39.08c-1.6,0.78-3.2,1.56-4.8,2.34c-0.24,0.12,0.08,0.49,0.32,0.37c1.6-0.78,3.2-1.56,4.8-2.34
		C123.97,39.33,123.65,38.96,123.41,39.08z"/>
	<path class="st0" d="M127.55,41.63c-1.01,0.55-2.01,1.09-3.02,1.64c-0.23,0.13,0.09,0.5,0.32,0.37c1.01-0.55,2.01-1.09,3.02-1.64
		C128.11,41.87,127.79,41.5,127.55,41.63z"/>
	<path class="st0" d="M140.85,45.09c-1.6,0.57-2.89,1.43-3.86,2.59c-0.16,0.19,0.25,0.5,0.41,0.31c0.95-1.13,2.2-1.97,3.77-2.53
		C141.44,45.37,141.11,45,140.85,45.09z"/>
	<path class="st0" d="M145.19,45.93c-1.73,0.8-3.46,1.6-5.19,2.4c-0.24,0.11,0.08,0.48,0.32,0.37c1.73-0.8,3.46-1.6,5.19-2.4
		C145.76,46.19,145.44,45.82,145.19,45.93z"/>
	<path class="st0" d="M146.95,47.6c-1.21,0.54-2.43,1.09-3.64,1.63c-0.25,0.11,0.07,0.48,0.32,0.37c1.21-0.54,2.43-1.09,3.64-1.63
		C147.52,47.86,147.2,47.49,146.95,47.6z"/>
	<path class="st0" d="M151.18,47.85c-1.54,0.9-3.07,1.8-4.61,2.69c-0.23,0.13,0.09,0.5,0.32,0.37c1.54-0.9,3.07-1.8,4.61-2.69
		C151.72,48.09,151.4,47.71,151.18,47.85z"/>
	<path class="st0" d="M153.75,48.37c-1.27,0.86-2.54,1.71-3.81,2.57c-0.21,0.14,0.2,0.45,0.41,0.31c1.27-0.86,2.54-1.71,3.81-2.57
		C154.37,48.54,153.96,48.22,153.75,48.37z"/>
	<path class="st0" d="M155.92,48.46c-0.53,1.67-1.75,2.9-3.59,3.61c-0.26,0.1,0.07,0.47,0.32,0.37c1.9-0.74,3.19-2.03,3.73-3.75
		C156.47,48.47,156,48.23,155.92,48.46z"/>
	<path class="st0" d="M159.4,48.03c-1.25,1.3-2.5,2.6-3.75,3.9c-0.17,0.18,0.24,0.49,0.41,0.31c1.25-1.3,2.5-2.6,3.75-3.9
		C159.98,48.17,159.57,47.85,159.4,48.03z"/>
	<path class="st0" d="M158.36,52.36c1.23-1.48,2.46-2.97,3.69-4.45c0.15-0.19-0.25-0.5-0.41-0.31c-1.23,1.48-2.46,2.97-3.69,4.45
		C157.79,52.23,158.2,52.54,158.36,52.36z"/>
	<path class="st0" d="M97.14,11.4c-1.61,0.03-2.75,0.9-2.83,2.22c-0.02,0.25,0.48,0.38,0.5,0.13c0.07-1.13,1.03-1.92,2.43-1.94
		C97.53,11.8,97.44,11.39,97.14,11.4z"/>
	<path class="st0" d="M108.22,15.29c-1.48,0.23-2.67,0.83-3.49,1.77c-0.16,0.18,0.25,0.5,0.41,0.31c0.78-0.9,1.89-1.47,3.3-1.69
		C108.73,15.65,108.52,15.25,108.22,15.29z"/>
	<path class="st0" d="M126.25,17.94c-1.26,0.34-2.52,0.67-3.78,1.01c-0.27,0.07-0.06,0.47,0.21,0.4c1.26-0.34,2.52-0.67,3.78-1.01
		C126.74,18.27,126.53,17.87,126.25,17.94z"/>
	<path class="st0" d="M132.72,20.9c-0.9,0.33-1.8,0.67-2.71,1c-0.26,0.1,0.06,0.47,0.32,0.37c0.9-0.34,1.8-0.67,2.71-1.01
		C133.3,21.17,132.97,20.8,132.72,20.9z"/>
	<path class="st0" d="M135.33,22.43c-1.06,0.17-2.12,0.35-3.17,0.52c-0.29,0.05-0.08,0.45,0.21,0.4c1.06-0.17,2.12-0.35,3.18-0.52
		C135.84,22.79,135.62,22.39,135.33,22.43z"/>
	<path class="st0" d="M139.35,23.9c-1.51,0.08-2.77,0.57-3.69,1.41c-0.19,0.17,0.22,0.48,0.41,0.31c0.87-0.8,2.06-1.24,3.49-1.32
		C139.87,24.28,139.65,23.88,139.35,23.9z"/>
	<path class="st0" d="M146.87,31.54c-1.16,0.13-2.31,0.25-3.47,0.38c-0.3,0.03-0.08,0.43,0.21,0.4c1.16-0.13,2.31-0.25,3.47-0.38
		C147.38,31.91,147.17,31.51,146.87,31.54z"/>
	<path class="st0" d="M147.02,33.45c-1.13,0.31-2.26,0.63-3.38,0.94c-0.27,0.08-0.06,0.48,0.21,0.4c1.13-0.31,2.25-0.63,3.38-0.94
		C147.51,33.77,147.29,33.37,147.02,33.45z"/>
	<path class="st0" d="M63.84,111.65c-4.09,1.37-8.19,2.74-12.28,4.11c-0.26,0.09,0.06,0.46,0.32,0.37
		c4.09-1.37,8.19-2.74,12.28-4.11C64.43,111.93,64.11,111.56,63.84,111.65z"/>
	<path class="st0" d="M70.04,117.26c-3.9,1.47-7.8,2.93-11.69,4.4c-0.26,0.1,0.06,0.47,0.32,0.37c3.9-1.47,7.8-2.93,11.69-4.4
		C70.62,117.54,70.3,117.17,70.04,117.26z"/>
	<path class="st0" d="M82.8,124.16c-4.59,1.38-8.98,3.04-13.15,4.95c-0.24,0.11,0.08,0.48,0.32,0.37c4.17-1.91,8.56-3.57,13.15-4.95
		C83.39,124.45,83.07,124.08,82.8,124.16z"/>
	<path class="st0" d="M85.78,126.12c-4.05,1.74-8.09,3.47-12.14,5.21c-0.25,0.11,0.07,0.48,0.32,0.37
		c4.05-1.74,8.09-3.47,12.14-5.21C86.35,126.39,86.02,126.02,85.78,126.12z"/>
	<path class="st0" d="M89.76,126.29c-4.22,2.49-8.8,4.59-13.71,6.29c-0.26,0.09,0.06,0.46,0.32,0.37c4.91-1.69,9.5-3.79,13.71-6.29
		C90.31,126.53,89.99,126.16,89.76,126.29z"/>
	<path class="st0" d="M92.2,128.03c-4.37,2.04-8.75,4.07-13.12,6.11c-0.24,0.11,0.08,0.48,0.32,0.37c4.37-2.04,8.75-4.07,13.12-6.11
		C92.77,128.28,92.45,127.91,92.2,128.03z"/>
	<path class="st0" d="M98.29,132.59c-3.54,1.57-7.09,3.15-10.63,4.72c-0.25,0.11,0.07,0.48,0.32,0.37
		c3.54-1.57,7.08-3.15,10.63-4.72C98.86,132.85,98.54,132.48,98.29,132.59z"/>
	<path class="st0" d="M101.31,134.61c-2.92,1.63-5.85,3.26-8.77,4.89c-0.23,0.13,0.09,0.5,0.32,0.37c2.92-1.63,5.85-3.26,8.77-4.89
		C101.85,134.85,101.54,134.48,101.31,134.61z"/>
	<path class="st0" d="M105.75,136.04c-3.37,1.64-6.74,3.29-10.11,4.93c-0.24,0.12,0.08,0.49,0.32,0.37
		c3.37-1.64,6.74-3.29,10.11-4.93C106.31,136.29,105.99,135.92,105.75,136.04z"/>
	<path class="st0" d="M54.74,77c-1.49,0.31-2.98,0.62-4.47,0.93c-0.28,0.06-0.07,0.46,0.21,0.4c1.49-0.31,2.98-0.62,4.47-0.93
		C55.23,77.34,55.02,76.94,54.74,77z"/>
	<path class="st0" d="M60.13,80.93c-2.42-0.23-4.66,0.02-6.65,0.73c-0.26,0.09,0.06,0.46,0.32,0.37c1.92-0.68,4.08-0.91,6.42-0.69
		C60.54,81.37,60.45,80.96,60.13,80.93z"/>
	<path class="st0" d="M60.17,88.83c2.97-0.64,5.94-1.27,8.91-1.91c0.28-0.06,0.07-0.46-0.21-0.4c-2.97,0.64-5.94,1.27-8.91,1.91
		C59.67,88.49,59.88,88.89,60.17,88.83z"/>
	<path class="st0" d="M65.26,89.58c-0.25,0.11,0.07,0.48,0.32,0.37c2.02-0.86,4.27-1.35,6.72-1.5c0.3-0.02,0.09-0.42-0.21-0.4
		C69.59,88.2,67.31,88.71,65.26,89.58z"/>
	<path class="st0" d="M68.34,91.61c2.42-0.46,4.83-0.92,7.25-1.38c0.28-0.05,0.07-0.46-0.21-0.4c-2.42,0.46-4.83,0.92-7.25,1.38
		C67.84,91.26,68.06,91.67,68.34,91.61z"/>
	<path class="st0" d="M68.68,94.4c-0.25,0.11,0.08,0.48,0.32,0.37c3.12-1.41,6.59-2.33,10.34-2.77c0.3-0.03,0.08-0.44-0.21-0.4
		C75.34,92.04,71.83,92.98,68.68,94.4z"/>
	<path class="st0" d="M72.54,96.53c3.13-1.17,6.42-2.11,9.85-2.83c0.28-0.06,0.07-0.46-0.21-0.4c-3.47,0.73-6.8,1.68-9.96,2.87
		C71.96,96.26,72.28,96.63,72.54,96.53z"/>
	<path class="st0" d="M85.74,100.68c2.13-0.87,4.25-1.74,6.38-2.61c0.25-0.1-0.07-0.47-0.32-0.37c-2.12,0.87-4.25,1.74-6.38,2.61
		C85.16,100.41,85.49,100.78,85.74,100.68z"/>
	<path class="st0" d="M86.88,101.9c-0.21,0.15,0.2,0.46,0.41,0.31c2.03-1.46,4.7-2.21,7.74-2.18c0.31,0,0.22-0.41-0.09-0.41
		C91.76,99.6,89,100.38,86.88,101.9z"/>
	<path class="st0" d="M96.03,105.73c2.02-1.33,4.35-2.33,6.94-2.99c0.27-0.07,0.06-0.47-0.21-0.4c-2.67,0.68-5.05,1.71-7.13,3.08
		C95.41,105.55,95.82,105.87,96.03,105.73z"/>
	<path class="st0" d="M108.46,112.17c2.42-1.26,4.83-2.52,7.25-3.77c0.24-0.12-0.08-0.49-0.32-0.37c-2.42,1.26-4.83,2.51-7.25,3.77
		C107.9,111.92,108.23,112.29,108.46,112.17z"/>
	<path class="st0" d="M111.56,112.68c2.57-1.26,5.13-2.52,7.7-3.78c0.24-0.12-0.08-0.49-0.32-0.37c-2.57,1.26-5.13,2.52-7.7,3.78
		C111,112.43,111.32,112.8,111.56,112.68z"/>
	<path class="st0" d="M116.7,114.2c2.31-1.21,4.61-2.42,6.92-3.64c0.23-0.12-0.09-0.49-0.32-0.37c-2.31,1.21-4.61,2.42-6.92,3.64
		C116.14,113.95,116.46,114.32,116.7,114.2z"/>
	<path class="st0" d="M119.87,116.53c2.78-1.36,5.22-3.06,7.29-5.08c0.18-0.17-0.23-0.49-0.41-0.31c-2.04,1.99-4.45,3.67-7.2,5.02
		C119.31,116.28,119.63,116.65,119.87,116.53z"/>
	<path class="st0" d="M122.15,117.94c2.74-1.71,5.49-3.42,8.23-5.13c0.22-0.14-0.1-0.51-0.32-0.37c-2.74,1.71-5.49,3.42-8.23,5.13
		C121.61,117.71,121.93,118.08,122.15,117.94z"/>
	<path class="st0" d="M122.95,121.04c-0.21,0.15,0.2,0.46,0.41,0.31c3.77-2.76,7.54-5.53,11.31-8.29c0.21-0.15-0.2-0.46-0.41-0.31
		C130.49,115.51,126.72,118.27,122.95,121.04z"/>
	<path class="st0" d="M131.47,118.43c-3.35,2.35-6.7,4.71-10.06,7.06c-0.21,0.15,0.2,0.46,0.41,0.31c3.35-2.35,6.7-4.71,10.06-7.06
		C132.08,118.6,131.67,118.29,131.47,118.43z"/>
	<path class="st0" d="M129.18,123.78c-2.47,1.57-4.94,3.14-7.41,4.71c-0.22,0.14,0.1,0.51,0.32,0.37c2.47-1.57,4.94-3.14,7.41-4.71
		C129.72,124.02,129.4,123.64,129.18,123.78z"/>
	<path class="st0" d="M54.37,96.18c-1.02,0.1-2.05,0.21-3.07,0.31c-0.3,0.03-0.08,0.43,0.21,0.4c1.02-0.1,2.05-0.21,3.07-0.31
		C54.88,96.55,54.66,96.14,54.37,96.18z"/>
	<path class="st0" d="M57.01,97.23c-0.9,0.33-1.81,0.67-2.71,1c-0.26,0.1,0.06,0.47,0.32,0.37c0.9-0.33,1.81-0.67,2.71-1
		C57.59,97.51,57.27,97.14,57.01,97.23z"/>
	<path class="st0" d="M61.63,98.89c-1.66,0.4-3.32,0.8-4.97,1.2c-0.28,0.07-0.07,0.47,0.21,0.4c1.66-0.4,3.32-0.8,4.97-1.2
		C62.12,99.22,61.9,98.82,61.63,98.89z"/>
	<path class="st0" d="M63.71,100.23c-1.93-0.02-3.59,0.45-4.89,1.36c-0.21,0.15,0.2,0.46,0.41,0.31c1.21-0.85,2.78-1.29,4.57-1.27
		C64.12,100.64,64.03,100.23,63.71,100.23z"/>
	<path class="st0" d="M67.07,100.34c-1.94,0.69-3.88,1.37-5.82,2.06c-0.26,0.09,0.06,0.46,0.32,0.37c1.94-0.69,3.88-1.37,5.82-2.06
		C67.66,100.62,67.33,100.25,67.07,100.34z"/>
	<path class="st0" d="M67.56,102.45c-1.6,0.51-3.2,1.02-4.8,1.53c-0.27,0.08,0.06,0.45,0.32,0.37c1.6-0.51,3.2-1.02,4.8-1.53
		C68.15,102.74,67.83,102.37,67.56,102.45z"/>
	<path class="st0" d="M72.71,103.89c-2.97,0.79-5.93,1.57-8.89,2.36c-0.27,0.07-0.06,0.47,0.21,0.4c2.96-0.79,5.93-1.57,8.89-2.36
		C73.2,104.22,72.98,103.82,72.71,103.89z"/>
	<path class="st0" d="M74.32,105.27c-2.39,0.57-4.59,1.38-6.6,2.44c-0.23,0.12,0.09,0.5,0.32,0.37c1.97-1.05,4.13-1.86,6.49-2.41
		C74.81,105.6,74.6,105.2,74.32,105.27z"/>
	<path class="st0" d="M70.22,109.69c2.44-0.97,4.88-1.93,7.32-2.89c0.25-0.1-0.07-0.47-0.32-0.37c-2.44,0.96-4.88,1.93-7.32,2.89
		C69.65,109.42,69.97,109.79,70.22,109.69z"/>
	<path class="st0" d="M73.35,110.78c2.7-0.75,5.39-1.5,8.08-2.26c0.27-0.08,0.06-0.48-0.21-0.4c-2.69,0.75-5.39,1.5-8.08,2.26
		C72.87,110.45,73.08,110.86,73.35,110.78z"/>
	<path class="st0" d="M81.27,109.82c0.28-0.07,0.06-0.47-0.21-0.4c-2.54,0.62-4.84,1.55-6.87,2.8c-0.22,0.13,0.1,0.51,0.32,0.37
		C76.51,111.35,78.76,110.43,81.27,109.82z"/>
	<path class="st0" d="M84.44,110.59c-2.45,0.95-4.9,1.9-7.36,2.85c-0.26,0.1,0.07,0.47,0.32,0.37c2.45-0.95,4.9-1.9,7.36-2.85
		C85.01,110.86,84.69,110.49,84.44,110.59z"/>
	<path class="st0" d="M86.14,112.48c0.28-0.06,0.07-0.46-0.21-0.4c-2.16,0.43-3.96,1.31-5.33,2.61c-0.18,0.17,0.23,0.48,0.41,0.31
		C82.33,113.74,84.05,112.89,86.14,112.48z"/>
	<path class="st0" d="M83.66,114.94c-0.18,0.17,0.23,0.49,0.41,0.31c0.97-0.95,2.34-1.49,4-1.59c0.3-0.02,0.09-0.42-0.21-0.4
		C86.12,113.37,84.68,113.95,83.66,114.94z"/>
	<path class="st0" d="M84.76,117.56c-0.16,0.19,0.25,0.5,0.41,0.31c0.98-1.14,2.47-1.8,4.34-1.91c0.3-0.02,0.09-0.42-0.21-0.4
		C87.35,115.67,85.77,116.37,84.76,117.56z"/>
	<path class="st0" d="M91.12,116.72c-1.43,0.58-2.85,1.16-4.28,1.74c-0.25,0.1,0.07,0.47,0.32,0.37c1.43-0.58,2.85-1.16,4.28-1.74
		C91.7,116.99,91.38,116.62,91.12,116.72z"/>
	<path class="st0" d="M90.43,120.02c1.43-0.69,2.87-1.37,4.3-2.06c0.24-0.12-0.08-0.49-0.32-0.37c-1.43,0.69-2.87,1.37-4.3,2.06
		C89.87,119.77,90.19,120.14,90.43,120.02z"/>
	<path class="st0" d="M92.26,122.24c2.92-1,5.84-2,8.76-3c0.26-0.09-0.06-0.46-0.32-0.37c-2.92,1-5.84,2-8.76,3
		C91.68,121.96,92,122.33,92.26,122.24z"/>
	<path class="st0" d="M102.5,119.79c-2.6,1.22-5.21,2.44-7.81,3.65c-0.24,0.11,0.08,0.48,0.32,0.37c2.6-1.22,5.21-2.44,7.81-3.65
		C103.06,120.04,102.74,119.68,102.5,119.79z"/>
	<path class="st0" d="M105.06,121c-2.08,0.96-4.16,1.93-6.25,2.9c-0.24,0.11,0.08,0.48,0.32,0.37c2.08-0.97,4.17-1.93,6.25-2.9
		C105.62,121.26,105.3,120.89,105.06,121z"/>
	<path class="st0" d="M108.85,121.61c-2.45,1.22-4.9,2.44-7.35,3.67c-0.24,0.12,0.08,0.49,0.32,0.37c2.45-1.22,4.9-2.44,7.35-3.67
		C109.41,121.86,109.09,121.49,108.85,121.61z"/>
	<path class="st0" d="M104.22,127.65c2.14-1.12,4.28-2.23,6.43-3.35c0.23-0.12-0.09-0.49-0.32-0.37c-2.14,1.12-4.28,2.23-6.43,3.35
		C103.66,127.4,103.98,127.77,104.22,127.65z"/>
	<path class="st0" d="M104.41,128.81c2.61-1.05,5.22-2.11,7.83-3.16c0.25-0.1-0.07-0.47-0.32-0.37c-2.61,1.05-5.22,2.11-7.83,3.16
		C103.83,128.54,104.15,128.91,104.41,128.81z"/>
	<path class="st0" d="M107.49,129.63c2.18,0.15,4.08-0.33,5.5-1.38c0.21-0.15-0.2-0.46-0.41-0.31c-1.33,0.99-3.14,1.43-5.18,1.29
		C107.08,129.2,107.17,129.61,107.49,129.63z"/>
	<path class="st0" d="M115.5,128.83c-2.3,0.96-4.6,1.91-6.89,2.87c-0.25,0.1,0.07,0.47,0.32,0.37c2.3-0.96,4.59-1.91,6.89-2.87
		C116.07,129.09,115.75,128.72,115.5,128.83z"/>
	<path class="st0" d="M117.67,131.23c-2.34,1.13-4.68,2.26-7.01,3.38c-0.24,0.12,0.08,0.49,0.32,0.37c2.34-1.13,4.68-2.26,7.02-3.38
		C118.23,131.49,117.91,131.12,117.67,131.23z"/>
	<path class="st0" d="M119.86,133.35c-1.88,1.2-4.19,1.88-6.82,1.99c-0.3,0.01-0.21,0.42,0.09,0.41c2.72-0.11,5.1-0.79,7.04-2.03
		C120.4,133.58,120.08,133.21,119.86,133.35z"/>
	<path class="st0" d="M52.62,128.57c2.58-0.55,5.17-1.11,7.75-1.66c0.28-0.06,0.07-0.46-0.21-0.4c-2.58,0.55-5.17,1.11-7.75,1.66
		C52.12,128.23,52.33,128.63,52.62,128.57z"/>
	<path class="st0" d="M59.65,128.81c-2.81,0.54-5.61,1.08-8.42,1.62c-0.29,0.06-0.07,0.46,0.21,0.4c2.81-0.54,5.61-1.08,8.41-1.62
		C60.15,129.16,59.94,128.76,59.65,128.81z"/>
	<path class="st0" d="M59.85,130.81c-2.84,0.34-5.68,0.68-8.52,1.03c-0.3,0.04-0.08,0.44,0.21,0.4c2.84-0.34,5.68-0.68,8.52-1.03
		C60.36,131.18,60.15,130.78,59.85,130.81z"/>
	<path class="st0" d="M59.62,132.96c-2.75-0.57-5.33-0.47-7.59,0.3c-0.26,0.09,0.06,0.46,0.32,0.37c2.14-0.73,4.62-0.83,7.23-0.29
		C59.9,133.42,59.94,133.03,59.62,132.96z"/>
	<path class="st0" d="M59.03,134.51c-2.19,0.21-4.38,0.42-6.57,0.63c-0.3,0.03-0.08,0.43,0.21,0.4c2.19-0.21,4.38-0.42,6.57-0.63
		C59.54,134.89,59.32,134.49,59.03,134.51z"/>
	<path class="st0" d="M81.1,137.4c-2.93-0.23-5.85-0.46-8.78-0.69c-0.31-0.03-0.22,0.38,0.09,0.41c2.93,0.23,5.85,0.46,8.78,0.69
		C81.51,137.83,81.42,137.42,81.1,137.4z"/>
	<path class="st0" d="M86.29,139.42c-4.76-0.49-9.38-0.44-13.78,0.15c-0.29,0.04-0.08,0.44,0.21,0.4c4.36-0.58,8.94-0.63,13.66-0.14
		C86.7,139.86,86.6,139.45,86.29,139.42z"/>
	<path class="st0" d="M85.26,141.24c-4.03,0.34-8.16,0.39-12.38,0.16c-0.31-0.02-0.22,0.39,0.09,0.41c4.26,0.23,8.43,0.18,12.5-0.16
		C85.78,141.62,85.56,141.21,85.26,141.24z"/>
	<path class="st0" d="M84.92,143.76c-4.33,0.12-8.77-0.11-13.27-0.67c-0.32-0.04-0.22,0.37,0.09,0.41c4.5,0.56,8.93,0.79,13.27,0.67
		C85.32,144.16,85.23,143.75,84.92,143.76z"/>
	<path class="st0" d="M82.11,146.28c-3.05,0.18-6.25-0.28-9.43-1.36c-0.32-0.11-0.35,0.28-0.04,0.39c3.28,1.1,6.55,1.56,9.68,1.37
		C82.63,146.66,82.41,146.26,82.11,146.28z"/>
	<path class="st0" d="M99.09,144.92c-2.5,0.3-5.01,0.61-7.51,0.91c-0.29,0.04-0.08,0.44,0.21,0.4c2.5-0.3,5.01-0.61,7.51-0.91
		C99.6,145.28,99.38,144.88,99.09,144.92z"/>
	<path class="st0" d="M90.97,151.17c1.98-0.33,3.96-0.67,5.94-1c0.29-0.05,0.07-0.45-0.21-0.4c-1.98,0.33-3.96,0.67-5.94,1
		C90.47,150.81,90.69,151.22,90.97,151.17z"/>
	<path class="st0" d="M96.05,151.9c-1.8,0.63-3.84,0.83-6.04,0.59c-0.32-0.03-0.22,0.37,0.09,0.41c2.28,0.25,4.39,0.03,6.26-0.63
		C96.63,152.18,96.31,151.81,96.05,151.9z"/>
	<path class="st0" d="M67.98,150.53c0.91-0.1,1.78-0.27,2.62-0.51c0.27-0.08,0.06-0.48-0.21-0.4c-0.83,0.24-1.71,0.4-2.62,0.51
		C67.47,150.16,67.68,150.57,67.98,150.53z"/>
	<path class="st0" d="M84.66,154.94c1.07,0.26,2.09,0.17,2.84-0.28c0.22-0.13-0.1-0.5-0.32-0.37c-0.67,0.39-1.54,0.49-2.49,0.26
		C84.37,154.48,84.33,154.87,84.66,154.94z"/>
	<path class="st0" d="M44.64,147.64c1.15-0.16,2.27-0.38,3.34-0.67c0.27-0.07,0.06-0.47-0.21-0.4c-1.08,0.29-2.19,0.52-3.34,0.67
		C44.13,147.28,44.34,147.68,44.64,147.64z"/>
	<path class="st0" d="M52.59,147.94c0.76-0.17,1.55-0.31,2.34-0.42c0.29-0.04,0.08-0.44-0.21-0.4c-0.8,0.11-1.57,0.25-2.34,0.42
		C52.1,147.6,52.31,148,52.59,147.94z"/>
	<path class="st0" d="M57.65,149.82c0.67-0.28,1.33-0.56,2-0.84c0.25-0.1-0.07-0.47-0.32-0.37c-0.67,0.28-1.33,0.56-2,0.84
		C57.08,149.56,57.4,149.93,57.65,149.82z"/>
	<path class="st0" d="M78.31,156.79c0.75-0.16,1.5-0.31,2.25-0.47c0.28-0.06,0.07-0.46-0.21-0.4c-0.75,0.16-1.5,0.31-2.25,0.47
		C77.81,156.45,78.03,156.85,78.31,156.79z"/>
	<path class="st0" d="M80.83,157.54c0.96,0.34,1.93,0.22,2.49-0.28c0.19-0.17-0.22-0.48-0.41-0.31c-0.47,0.42-1.26,0.49-2.05,0.2
		C80.55,157.04,80.51,157.42,80.83,157.54z"/>
	<path class="st0" d="M69.25,160.87c1.34-0.57,2.68-1.15,4.03-1.72c0.25-0.11-0.07-0.48-0.32-0.37c-1.34,0.57-2.68,1.15-4.02,1.72
		C68.68,160.61,69,160.97,69.25,160.87z"/>
	<path class="st0" d="M84.96,161.06c-1.69,1-3.39,2-5.08,2.99c-0.22,0.13,0.1,0.5,0.32,0.37c1.7-1,3.39-2,5.08-2.99
		C85.5,161.3,85.18,160.93,84.96,161.06z"/>
	<path class="st0" d="M44.23,157.97c-1.38,1.32-2.76,2.65-4.14,3.97c-0.18,0.17,0.23,0.49,0.41,0.31c1.38-1.32,2.76-2.65,4.14-3.97
		C44.82,158.11,44.41,157.8,44.23,157.97z"/>
	<path class="st0" d="M55.78,165.36c-0.5,0.31-0.99,0.63-1.49,0.94c-0.22,0.14,0.1,0.51,0.32,0.37c0.5-0.31,0.99-0.63,1.49-0.94
		C56.32,165.59,56,165.22,55.78,165.36z"/>
	<path class="st0" d="M59.73,165.79c-0.7,0.47-1.44,0.9-2.2,1.31c-0.23,0.12,0.09,0.49,0.32,0.37c0.8-0.42,1.56-0.88,2.29-1.37
		C60.35,165.96,59.94,165.65,59.73,165.79z"/>
	<path class="st0" d="M63.77,166.24c-0.77,0.51-1.54,1.02-2.31,1.53c-0.22,0.14,0.2,0.45,0.41,0.31c0.77-0.51,1.54-1.02,2.31-1.53
		C64.39,166.41,63.98,166.1,63.77,166.24z"/>
	<path class="st0" d="M86,175.24c-1.49,1.36-2.99,2.72-4.48,4.08c-0.19,0.17,0.22,0.48,0.41,0.31c1.49-1.36,2.99-2.72,4.48-4.08
		C86.59,175.38,86.18,175.07,86,175.24z"/>
	<path class="st0" d="M53.19,182.49c-0.67,0.37-1.34,0.73-2,1.1c-0.23,0.13,0.09,0.5,0.32,0.37c0.67-0.37,1.34-0.73,2-1.1
		C53.75,182.73,53.43,182.36,53.19,182.49z"/>
	<path class="st0" d="M57.27,182.97c-0.79,0.68-1.86,1.08-3.12,1.13c-0.3,0.01-0.21,0.42,0.09,0.41c1.4-0.06,2.57-0.47,3.44-1.22
		C57.86,183.12,57.45,182.81,57.27,182.97z"/>
	<path class="st0" d="M59.51,184.35c-0.64,0.51-1.57,0.7-2.59,0.54c-0.32-0.05-0.22,0.36,0.09,0.41c1.16,0.17,2.2-0.06,2.91-0.63
		C60.12,184.5,59.71,184.19,59.51,184.35z"/>
	<path class="st0" d="M61.23,185.41c-0.77,0.32-1.53,0.64-2.3,0.96c-0.25,0.1,0.07,0.47,0.32,0.37c0.77-0.32,1.53-0.64,2.3-0.96
		C61.8,185.68,61.48,185.31,61.23,185.41z"/>
	<path class="st0" d="M64.94,185.21c-1.23,0.84-2.71,1.39-4.39,1.66c-0.29,0.05-0.08,0.45,0.21,0.4c1.77-0.28,3.29-0.87,4.59-1.75
		C65.56,185.38,65.16,185.07,64.94,185.21z"/>
	<path class="st0" d="M125.66,107.9c-18.31-4.57-36.34-12.21-52.64-22.35c-0.28-0.17-0.57,0.09-0.29,0.26
		c16.38,10.18,34.48,17.88,52.89,22.47C125.94,108.37,125.98,107.98,125.66,107.9z"/>
	<path class="st0" d="M87.74,91.61c6.48,2.64,12.9,5.46,19.24,8.46c0.3,0.14,0.47-0.19,0.17-0.34c-6.41-3.03-12.91-5.89-19.46-8.55
		c-0.2-0.08-0.34,0.03-0.33,0.16c-0.12,0.06-0.13,0.25,0.07,0.35C87.58,91.77,87.7,91.71,87.74,91.61z"/>
	<path class="st0" d="M86.58,16.73c0.3,0.15,0.47-0.19,0.17-0.34C86.45,16.24,86.28,16.58,86.58,16.73z"/>
	<path class="st0" d="M118.97,36.67c9.45,4.23,19.51,7.96,29.38,9.03c5.13,0.55,10.07,0.29,14.4-1.05c0.27-0.08-0.06-0.45-0.32-0.37
		c-8,2.47-17.84,1.06-27.14-1.76c-10.78-3.27-21.44-8.27-31.35-13.81c-6.24-3.48-12.25-7.31-17.99-11.42
		c-0.27-0.19-0.56,0.07-0.28,0.26C96.01,24.95,107.23,31.41,118.97,36.67z"/>
	<path class="st0" d="M106.95,28.18c15.25,6.17,31.12,12.51,46.81,13.43c0.31,0.02,0.22-0.39-0.09-0.41
		c-15.61-0.91-31.39-7.22-46.55-13.36C106.81,27.72,106.64,28.05,106.95,28.18z"/>
	<path class="st0" d="M81.05,74.93c1.06-0.04,1.94-0.37,2.53-0.99c0.17-0.18-0.24-0.49-0.41-0.31c-0.52,0.54-1.28,0.86-2.22,0.89
		C80.66,74.54,80.75,74.94,81.05,74.93z"/>
	<path class="st0" d="M80.66,75.96c-0.29,0.04-0.08,0.44,0.21,0.4c1.2-0.17,2.23-0.57,3.09-1.18c0.21-0.15-0.2-0.46-0.41-0.31
		C82.75,75.44,81.78,75.8,80.66,75.96z"/>
	<path class="st0" d="M80.53,81.56c0.99-0.39,1.97-0.79,2.96-1.18c0.25-0.1-0.07-0.47-0.32-0.37c-0.99,0.39-1.97,0.78-2.96,1.18
		C79.96,81.29,80.28,81.66,80.53,81.56z"/>
	<path class="st0" d="M141.81,88.94c-1.7,0.14-3.45,0.01-5.27-0.39c-0.32-0.07-0.36,0.32-0.04,0.39c1.9,0.42,3.74,0.55,5.52,0.41
		C142.33,89.32,142.11,88.92,141.81,88.94z"/>
	<path class="st0" d="M126.71,89.49c-1.87,0.19-3.74,0.37-5.6,0.56c-0.3,0.03-0.08,0.43,0.21,0.4c1.87-0.19,3.73-0.38,5.6-0.56
		C127.22,89.86,127,89.46,126.71,89.49z"/>
	<path class="st0" d="M123.11,93.82c-1.46,0.33-2.91,0.65-4.37,0.98c-0.28,0.06-0.07,0.46,0.21,0.4c1.46-0.33,2.91-0.65,4.37-0.98
		C123.61,94.16,123.39,93.76,123.11,93.82z"/>
	<path class="st0" d="M123.49,95.25c0.26-0.09-0.06-0.46-0.32-0.37c-1.42,0.47-2.85,0.94-4.28,1.41c-0.27,0.09,0.06,0.46,0.32,0.37
		C120.63,96.19,122.06,95.72,123.49,95.25z"/>
	<path class="st0" d="M122.52,96.49c-1.6,0.38-2.99,1-4.16,1.87c-0.21,0.15,0.2,0.46,0.41,0.31c1.12-0.83,2.44-1.42,3.97-1.78
		C123.01,96.83,122.8,96.43,122.52,96.49z"/>
	<path class="st0" d="M73.67,68.4c0.89-0.32,1.77-0.63,2.66-0.95c0.26-0.09-0.06-0.46-0.32-0.37c-0.89,0.32-1.77,0.63-2.66,0.95
		C73.09,68.12,73.41,68.49,73.67,68.4z"/>
	<path class="st0" d="M75.36,68.98c-0.55,0.13-1.1,0.27-1.66,0.4c-0.28,0.07-0.06,0.47,0.21,0.4c0.42-0.1,0.83-0.2,1.25-0.3
		c-0.44,0.88-1.34,1.44-2.58,1.59c-0.3,0.04-0.08,0.44,0.21,0.4c1.51-0.18,2.6-0.96,2.99-2.14c0.04-0.12-0.08-0.24-0.2-0.3
		C75.53,68.98,75.45,68.96,75.36,68.98z"/>
	<path class="st0" d="M73.03,73.14c0.95-0.46,1.91-0.91,2.87-1.37c0.24-0.12-0.08-0.49-0.32-0.37c-0.96,0.46-1.91,0.91-2.87,1.37
		C72.47,72.88,72.79,73.25,73.03,73.14z"/>
	<path class="st0" d="M75.86,73.31c0.24-0.12-0.08-0.49-0.32-0.37c-0.87,0.44-1.74,0.89-2.6,1.33c-0.24,0.12,0.08,0.49,0.32,0.37
		C74.12,74.2,74.99,73.76,75.86,73.31z"/>
	<path class="st0" d="M75.63,75.16c0.29-0.05,0.08-0.45-0.21-0.4c-1.22,0.2-2.23,0.68-2.96,1.42c-0.18,0.18,0.23,0.49,0.41,0.31
		C73.55,75.79,74.48,75.35,75.63,75.16z"/>
	<path class="st0" d="M73.1,78.4c1.07-0.52,2.13-1.04,3.2-1.56c0.24-0.12-0.08-0.49-0.32-0.37c-1.07,0.52-2.13,1.04-3.2,1.56
		C72.54,78.15,72.86,78.52,73.1,78.4z"/>
	<path class="st0" d="M72.85,79.94c-0.28,0.07-0.06,0.47,0.21,0.4c1.45-0.36,2.72-0.92,3.83-1.69c0.21-0.15-0.2-0.46-0.41-0.31
		C75.44,79.07,74.23,79.6,72.85,79.94z"/>
	<path class="st0" d="M75.79,80.2c-0.82,0.35-1.64,0.7-2.46,1.05c-0.25,0.11,0.07,0.48,0.32,0.37c0.82-0.35,1.64-0.7,2.46-1.05
		C76.36,80.46,76.04,80.09,75.79,80.2z"/>
	<path class="st0" d="M135.06,89.38c-1.65,0.05-3.3,0.1-4.95,0.16c-0.3,0.01-0.21,0.42,0.09,0.41c1.65-0.05,3.3-0.1,4.95-0.16
		C135.46,89.78,135.37,89.37,135.06,89.38z"/>
	<path class="st0" d="M128.54,91.42c1.23-0.03,2.46-0.06,3.69-0.09c0.3-0.01,0.21-0.42-0.09-0.41c-1.23,0.03-2.46,0.06-3.69,0.09
		C128.14,91.02,128.23,91.43,128.54,91.42z"/>
	<path class="st0" d="M131.66,91.48c-1.11,0.26-2.22,0.51-3.33,0.77c-0.28,0.06-0.07,0.47,0.21,0.4c1.11-0.26,2.22-0.51,3.33-0.77
		C132.15,91.82,131.94,91.42,131.66,91.48z"/>
	<path class="st0" d="M131.88,93.27c-1.86,0.11-3.71,0.22-5.57,0.34c-0.3,0.02-0.09,0.42,0.21,0.4c1.86-0.11,3.71-0.22,5.57-0.33
		C132.4,93.65,132.18,93.25,131.88,93.27z"/>
	<path class="st0" d="M130.14,94.33c-1.3,0.34-2.61,0.69-3.91,1.03c-0.27,0.07-0.06,0.47,0.21,0.4c1.3-0.34,2.61-0.69,3.91-1.03
		C130.63,94.66,130.42,94.25,130.14,94.33z"/>
	<path class="st0" d="M126.48,97.17c1.13-0.32,2.25-0.63,3.38-0.95c0.27-0.08,0.06-0.48-0.21-0.4c-1.13,0.32-2.25,0.63-3.38,0.95
		C125.99,96.84,126.2,97.25,126.48,97.17z"/>
	<path class="st0" d="M128.84,97.82c0.3-0.02,0.09-0.42-0.21-0.4c-1.3,0.07-2.4,0.44-3.28,1.08c-0.21,0.15,0.2,0.46,0.41,0.31
		C126.57,98.22,127.63,97.89,128.84,97.82z"/>
	<path class="st0" d="M128.27,99.46c0.3-0.02,0.09-0.42-0.21-0.4c-1.11,0.07-2.1,0.36-2.91,0.87c-0.22,0.14,0.1,0.51,0.32,0.37
		C126.25,99.81,127.19,99.53,128.27,99.46z"/>
	<path class="st0" d="M127.7,100.27c-1.2,0.12-2.2,0.56-2.89,1.28c-0.17,0.18,0.24,0.49,0.41,0.31c0.65-0.68,1.57-1.08,2.7-1.19
		C128.21,100.64,127.99,100.24,127.7,100.27z"/>
	<path class="st0" d="M126.39,102.28c-0.67,0.37-1.33,0.74-2,1.11c-0.23,0.13,0.09,0.5,0.32,0.37c0.67-0.37,1.33-0.74,2-1.11
		C126.94,102.52,126.62,102.15,126.39,102.28z"/>
	<path class="st0" d="M76.92,70.18c0.57-0.18,1.15-0.36,1.73-0.54c0.27-0.08-0.06-0.45-0.32-0.37c-0.58,0.18-1.15,0.36-1.73,0.54
		C76.34,69.89,76.66,70.26,76.92,70.18z"/>
</g>
</svg>
