<?xml version="1.0" encoding="utf-8"?>
<!-- Generator: Adobe Illustrator 25.2.1, SVG Export Plug-In . SVG Version: 6.00 Build 0)  -->
<svg version="1.1" id="Capa_1" xmlns="http://www.w3.org/2000/svg" xmlns:xlink="http://www.w3.org/1999/xlink" x="0px" y="0px"
	 viewBox="0 0 200 200" style="enable-background:new 0 0 200 200;" xml:space="preserve">
<style type="text/css">
	.st0{fill:#FFFFFF;}
</style>
<g>
	<g>
		<path class="st0" d="M138.65,68.08c-5.45-6.23-12.76-10.63-20.52-13.28c-7.79-2.65-16.03-3.84-24.16-3.58
			c-4.06,0.13-8.1,0.67-11.99,1.6c-0.98,0.22-1.92,0.54-2.88,0.81c-0.92,0.36-1.88,0.63-2.77,1.05c-1.84,0.71-3.52,1.68-5.09,2.75
			c-1.55,1.1-2.84,2.45-3.84,3.93c-0.21,0.39-0.51,0.74-0.67,1.15l-0.52,1.21L65.88,65c-0.12,0.42-0.11,0.93-0.18,1.39
			c-0.44,3.76,0.28,7.56,2.06,10.99c1.78,3.44,4.42,6.52,7.29,9.38c2.89,2.87,6.06,5.52,9.14,8.36c3.08,2.81,6.03,6.12,7.86,9.98
			c1.89,3.81,3.11,7.97,3.33,12.21c0.27,4.22-0.28,8.52-1.84,12.47l-0.59,1.48c-0.22,0.48-0.48,0.95-0.72,1.42
			c-0.45,0.97-1.08,1.83-1.64,2.73c-1.24,1.76-2.61,3.27-3.88,4.92c-5.14,6.42-9.59,13.5-12.06,21.21
			c-1.15,3.86-1.69,7.89-1.32,11.8c0.38,3.87,1.55,7.77,3.64,11c2.05,3.25,5.08,5.71,8.63,7.2c1.77,0.75,3.65,1.3,5.58,1.7
			c0.97,0.2,1.97,0.35,2.95,0.52c0.99,0.1,1.97,0.27,2.96,0.31c3.93,0.29,7.88-0.02,11.35-1.42c3.48-1.36,6.36-3.86,8.32-7.07
			c1.98-3.2,3.11-6.99,3.76-10.87c0.32-1.95,0.49-3.93,0.58-5.93c0.07-2.02,0.13-4.2,0.33-6.29c0.37-4.23,1.03-8.45,2.09-12.6
			c0.53-2.07,1.17-4.12,1.92-6.14c0.73-2.01,1.67-3.98,2.51-5.83c3.41-7.54,6.83-15.04,9.75-22.74c2.9-7.69,5.35-15.61,6.32-23.78
			c0.51-4.08,0.46-8.23-0.26-12.27c-0.4-2.01-1-3.99-1.84-5.86C141.06,71.41,139.96,69.66,138.65,68.08z M138.96,67.82
			c1.36,1.59,2.5,3.36,3.41,5.25c0.89,1.9,1.49,3.91,1.98,5.95c0.9,4.1,1.01,8.32,0.79,12.49c-0.22,4.18-0.88,8.33-1.75,12.42
			c-0.87,4.09-1.94,8.14-3.17,12.13c-2.44,8-5.45,15.8-8.7,23.44c-0.83,1.95-1.59,3.76-2.26,5.65c-0.67,1.88-1.24,3.8-1.71,5.75
			c-0.94,3.9-1.51,7.9-1.81,11.93c-0.15,2.04-0.24,4.01-0.31,6.12c-0.09,2.14-0.29,4.3-0.64,6.44c-0.72,4.27-1.98,8.6-4.45,12.43
			c-2.41,3.84-6.15,7-10.44,8.57c-4.28,1.64-8.82,1.86-13.13,1.48c-1.09-0.07-2.15-0.27-3.22-0.4c-1.06-0.2-2.11-0.38-3.17-0.62
			c-2.12-0.48-4.23-1.13-6.25-2.06c-4.05-1.82-7.66-4.93-9.92-8.78c-1.15-1.91-2.01-3.96-2.62-6.04c-0.33-1.04-0.46-2.14-0.7-3.21
			c-0.27-1.07-0.28-2.16-0.34-3.25c-0.21-4.36,0.58-8.67,1.98-12.68c2.88-8.05,7.83-14.97,13.1-21.39c1.3-1.61,2.75-3.16,3.9-4.78
			c0.54-0.85,1.15-1.66,1.58-2.58c0.23-0.45,0.48-0.89,0.7-1.35l0.58-1.4c1.53-3.76,1.96-7.9,1.68-11.93
			c-0.29-4.05-1.58-7.99-3.5-11.52c-1.92-3.58-4.74-6.45-7.89-9.07c-3.14-2.64-6.47-5.16-9.59-7.99c-3.11-2.84-6.15-5.96-8.32-9.84
			c-2.14-3.86-3.24-8.52-2.68-13c0.08-0.57,0.07-1.11,0.22-1.69l0.44-1.74l0.69-1.65c0.23-0.55,0.59-1.03,0.88-1.54
			c1.29-1.97,2.99-3.59,4.84-4.87c3.72-2.53,7.9-4.01,12.1-4.84c4.2-0.87,8.47-1.11,12.69-1c8.44,0.26,16.79,1.98,24.54,5.13
			C126.21,56.97,133.49,61.49,138.96,67.82z"/>
		<g>
			<path class="st0" d="M65.88,2.05c2.12-0.31,4.28,0.18,6.24,1.12c1.94,0.98,3.71,2.37,5.2,4.01c3.03,3.29,4.65,7.64,5.11,11.97
				c0.39,4.37-0.33,8.75-1.72,12.78c-0.71,2.02-1.59,3.99-2.94,5.74c-1.35,1.71-3.21,3.23-5.56,3.82c-2.34,0.54-4.91,0.06-6.97-1.08
				c-2.09-1.14-3.75-2.8-5.13-4.59c-2.76-3.61-4.39-7.89-5.08-12.26c-0.3-2.2-0.38-4.43-0.17-6.64c0.21-2.21,0.79-4.4,1.7-6.43
				c0.92-2.03,2.16-3.9,3.71-5.45C61.85,3.54,63.77,2.4,65.88,2.05z M65.95,2.45c-2,0.36-3.73,1.66-4.81,3.32
				c-1.11,1.66-1.66,3.61-1.98,5.53c-0.32,1.93-0.39,3.88-0.35,5.81c0.03,1.93,0.2,3.86,0.53,5.76c0.72,3.77,1.84,7.55,3.92,10.72
				c2.05,3.09,5,5.81,8.61,5.7c1.77-0.12,3.55-1.04,4.85-2.5c1.31-1.46,2.22-3.31,2.74-5.24c1.09-3.92,0.45-8.06-0.37-11.86
				c-0.94-3.81-2.06-7.52-3.88-11c-0.92-1.72-2.06-3.4-3.64-4.63C70.02,2.82,67.96,2.14,65.95,2.45z"/>
			<path class="st0" d="M104.2,22.16c0.05,2.87,0.37,5.84-0.37,8.95c-0.39,1.53-1.06,3.09-2.29,4.36c-1.2,1.26-3.05,2.22-4.98,2.19
				c-1.94-0.05-3.63-1.02-4.76-2.18c-1.16-1.18-1.92-2.53-2.61-3.86c-1.36-2.68-2.21-5.51-2.8-8.5c-0.52-2.98-0.48-6.2,0.71-9.25
				c0.57-1.52,1.39-3.03,2.65-4.34c1.24-1.3,3.11-2.34,5.18-2.44c2.07-0.06,3.99,0.82,5.31,1.99c1.33,1.2,2.15,2.7,2.69,4.19
				C103.96,16.3,103.99,19.29,104.2,22.16z M103.8,22.18c-0.17-2.84-1.44-5.6-3.24-7.58c-1.75-2.01-3.8-3.35-5.42-3.17
				c-0.82,0.09-1.63,0.47-2.45,1.15c-0.8,0.7-1.5,1.7-2.07,2.8c-0.56,1.11-0.98,2.35-1.31,3.62c-0.32,1.28-0.6,2.61-0.71,3.99
				c-0.21,2.72,0.24,5.64,1.72,7.97c0.73,1.16,1.74,2.14,2.84,2.73c1.12,0.59,2.26,0.74,3.21,0.57c0.95-0.2,1.79-0.67,2.65-1.39
				c0.84-0.74,1.67-1.69,2.42-2.79C103,27.91,103.98,25.02,103.8,22.18z"/>
			<path class="st0" d="M123.35,27.47c0.03,2.34,0.41,4.76-0.12,7.37c-0.28,1.28-0.82,2.6-1.85,3.68c-1.01,1.07-2.6,1.89-4.26,1.85
				c-1.67-0.06-3.09-0.92-4.02-1.92c-0.94-1.01-1.54-2.14-2.1-3.24c-1.08-2.21-1.83-4.5-2.37-6.95c-0.5-2.45-0.53-5.12,0.45-7.67
				c0.47-1.28,1.14-2.55,2.2-3.67c1.04-1.12,2.67-2.02,4.46-2.1c1.79-0.05,3.45,0.72,4.56,1.73c1.13,1.03,1.77,2.31,2.18,3.57
				C123.26,22.69,123.17,25.14,123.35,27.47z M122.94,27.49c-0.13-2.3-1.28-4.53-2.81-6.04c-1.51-1.54-3.09-2.45-4.16-2.29
				c-0.55,0.07-1.11,0.32-1.74,0.81c-0.61,0.51-1.17,1.27-1.63,2.13c-0.46,0.86-0.8,1.84-1.09,2.85c-0.28,1.01-0.55,2.08-0.67,3.18
				c-0.24,2.19,0.07,4.56,1.29,6.43c0.59,0.93,1.44,1.68,2.33,2.12c0.91,0.42,1.78,0.47,2.46,0.31c0.68-0.19,1.27-0.52,1.94-1.06
				c0.64-0.55,1.34-1.26,1.98-2.11C122.18,32.13,123.11,29.8,122.94,27.49z"/>
			<path class="st0" d="M135.14,36.35c-0.08,0.87-0.12,1.75-0.15,2.67c-0.04,0.92-0.09,1.91-0.38,2.89
				c-0.29,0.98-0.79,1.98-1.71,2.74c-0.89,0.76-2.27,1.26-3.61,1.03c-1.35-0.25-2.37-1.13-2.94-2.02c-0.6-0.91-0.89-1.83-1.19-2.71
				c-0.57-1.76-0.96-3.51-1.24-5.41c-0.24-1.89-0.08-3.93,0.89-5.82c0.47-0.95,1.1-1.88,2.06-2.68c0.93-0.8,2.37-1.37,3.84-1.24
				c1.47,0.14,2.75,0.96,3.51,1.89c0.78,0.94,1.11,2.03,1.24,3.05C135.67,32.82,135.22,34.62,135.14,36.35z M134.73,36.32
				c0.12-1.7-0.68-3.43-1.78-4.55c-0.53-0.57-1.08-1.01-1.52-1.29c-0.46-0.29-0.78-0.34-1.04-0.34c-0.26,0.02-0.54,0.08-0.98,0.31
				c-0.42,0.25-0.88,0.69-1.29,1.22c-0.41,0.54-0.75,1.18-1.08,1.85c-0.32,0.68-0.67,1.4-0.9,2.18c-0.48,1.53-0.53,3.31,0.23,4.75
				c0.36,0.71,0.95,1.3,1.57,1.63c0.64,0.32,1.22,0.32,1.6,0.22c0.39-0.12,0.72-0.26,1.2-0.53c0.46-0.28,1.05-0.66,1.64-1.17
				C133.6,39.62,134.67,38.03,134.73,36.32z"/>
			<path class="st0" d="M143.5,46.78c-0.07,0.7-0.07,1.4-0.06,2.16c0.01,0.76,0.02,1.58-0.17,2.42c-0.2,0.83-0.59,1.69-1.37,2.34
				c-0.75,0.66-1.95,1.09-3.13,0.88c-1.18-0.24-2.03-1.02-2.49-1.79c-0.48-0.78-0.68-1.56-0.92-2.27c-0.43-1.44-0.8-2.83-1.1-4.38
				c-0.27-1.54-0.2-3.25,0.61-4.83c0.38-0.79,0.89-1.6,1.71-2.29c0.8-0.69,2.05-1.21,3.35-1.09c1.31,0.12,2.42,0.86,3.06,1.66
				c0.66,0.82,0.89,1.75,0.96,2.61c0.06,0.87-0.07,1.68-0.19,2.43C143.66,45.38,143.55,46.08,143.5,46.78z M143.09,46.75
				c0.11-1.35-0.66-2.73-1.63-3.53c-0.46-0.41-0.93-0.69-1.25-0.85c-0.33-0.16-0.49-0.13-0.57-0.11c-0.08,0.03-0.19,0.03-0.49,0.16
				c-0.28,0.15-0.64,0.44-0.96,0.83c-0.6,0.8-1.21,1.84-1.7,3.03c-0.46,1.19-0.54,2.61,0.09,3.72c0.29,0.55,0.79,0.99,1.29,1.19
				c0.51,0.2,0.94,0.12,1.14,0c0.21-0.13,0.37-0.21,0.72-0.38c0.33-0.18,0.8-0.42,1.3-0.77C142.09,49.37,143.06,48.12,143.09,46.75z
				"/>
		</g>
	</g>
	<g>
		<path class="st0" d="M91.1,94.33c-0.26-2.95-0.45-5.22-0.57-6.81c-0.13-1.59-0.22-2.77-0.29-3.54c-0.07-0.89-0.11-1.4-0.14-1.55
			c0.07-0.95,0.14-1.96,0.21-3.06c0.07-1.09,0.25-2.14,0.54-3.13c0.29-0.99,0.74-1.87,1.36-2.63c0.62-0.76,1.52-1.26,2.7-1.51
			c0.52-0.11,0.99-0.17,1.42-0.19c0.43-0.01,0.85,0.02,1.26,0.12c0.41,0.1,0.82,0.23,1.23,0.39c0.41,0.17,0.85,0.39,1.33,0.65
			c0.34,0.2,0.54,0.32,0.59,0.37c0.05,0.05,0.11,0.22,0.17,0.5c0.08,0.37,0.02,0.76-0.16,1.16c-0.19,0.4-0.52,0.65-1.01,0.75
			c-0.4,0.08-0.75,0.06-1.05-0.07c-0.3-0.13-0.59-0.29-0.89-0.49c-0.3-0.19-0.6-0.35-0.91-0.48c-0.31-0.13-0.68-0.15-1.11-0.06
			c-0.46,0.1-0.84,0.3-1.13,0.62c-0.29,0.32-0.52,0.69-0.69,1.11c-0.17,0.43-0.27,0.88-0.3,1.37c-0.03,0.49-0.04,0.94-0.01,1.35
			l0.86,14.22c0.01,0.06,0.03,0.2,0.06,0.41c0.03,0.22,0.06,0.39,0.08,0.5c0.04,0.2,0.09,0.45,0.16,0.76
			c0.06,0.3,0.16,0.6,0.28,0.89c0.12,0.29,0.28,0.53,0.46,0.71c0.19,0.19,0.43,0.25,0.71,0.19c0.17-0.04,0.32-0.13,0.44-0.27
			c1.19-1.21,2.15-2.53,2.89-3.96c0.74-1.43,1.41-2.93,2.01-4.49c0.02-0.06,0.07-0.22,0.15-0.46c0.09-0.24,0.17-0.5,0.24-0.77
			c0.08-0.27,0.15-0.54,0.21-0.81c0.06-0.27,0.11-0.46,0.15-0.59c0.09-0.41,0.14-0.83,0.14-1.25c0-0.42,0.03-0.82,0.09-1.19
			c0.06-0.37,0.19-0.69,0.41-0.96c0.21-0.27,0.59-0.46,1.14-0.58c0.4-0.08,0.83,0.01,1.27,0.27c0.44,0.27,0.72,0.63,0.81,1.09
			l0.02,0.09c-0.29,2.22-0.81,4.33-1.58,6.32c-0.77,1.99-1.66,3.99-2.68,6.01c-0.65,1.22-1.46,2.26-2.45,3.13
			c-0.99,0.87-2.17,1.44-3.55,1.73l-0.21,0.05c-1.4-0.22-2.42-0.76-3.07-1.63s-1.11-1.95-1.38-3.25L91.1,94.33z"/>
		<path class="st0" d="M109.42,89.41c-0.01-0.18-0.1-0.64-0.29-1.38c-0.19-0.74-0.39-1.67-0.6-2.78c-0.22-1.11-0.44-2.33-0.68-3.66
			c-0.23-1.33-0.41-2.69-0.54-4.07c-0.13-1.38-0.17-2.73-0.13-4.05c0.04-1.31,0.21-2.48,0.5-3.5c0.01-0.81,0.31-1.44,0.91-1.88
			c0.6-0.44,1.49-0.82,2.69-1.13c0.78-0.16,1.48-0.1,2.11,0.19c0.63,0.29,1.2,0.69,1.71,1.19c0.51,0.51,0.98,1.08,1.41,1.71
			c0.43,0.63,0.82,1.19,1.16,1.69l0.05,0.22c0.32,0.53,0.65,1.36,0.99,2.47c0.34,1.11,0.66,2.29,0.96,3.53
			c0.3,1.24,0.58,2.44,0.82,3.59c0.24,1.15,0.42,2.03,0.55,2.63c0.18,0.86,0.28,1.91,0.3,3.16c0.02,1.24-0.11,2.45-0.39,3.62
			c-0.28,1.17-0.74,2.21-1.39,3.13c-0.65,0.92-1.53,1.49-2.65,1.73c-0.95,0.2-1.84,0.13-2.68-0.2s-1.59-0.83-2.25-1.49
			c-0.66-0.66-1.21-1.4-1.66-2.24C109.9,91.04,109.59,90.21,109.42,89.41z M114.21,91.42c0.12,0.3,0.36,0.59,0.7,0.87
			c0.34,0.27,0.7,0.37,1.07,0.29l0.35-0.07c0.98-1.34,1.51-2.77,1.58-4.27c0.07-1.5-0.05-3.04-0.38-4.62
			c-0.08-0.37-0.21-0.95-0.41-1.72c-0.19-0.77-0.42-1.63-0.7-2.58c-0.27-0.95-0.58-1.94-0.92-2.98c-0.34-1.04-0.69-2.01-1.06-2.91
			c-0.37-0.9-0.74-1.67-1.11-2.31c-0.37-0.64-0.75-1.06-1.12-1.25c-0.02,0.04-0.05,0.1-0.07,0.19c-0.03,0.09-0.04,0.16-0.03,0.19
			c-0.45,0.87-0.78,2.01-1,3.4s-0.26,3-0.14,4.82c0.13,1.82,0.44,3.82,0.94,6.01C112.43,86.69,113.19,89,114.21,91.42z"/>
		<path class="st0" d="M126.51,93.12c-0.03-0.15-0.04-0.27-0.03-0.35c0.01-0.08,0.06-0.22,0.14-0.41c0.35-0.91,0.7-1.82,1.05-2.74
			c0.35-0.92,0.66-1.84,0.91-2.78c0.25-0.93,0.42-1.88,0.49-2.83c0.08-0.95,0.02-1.91-0.19-2.88c-0.57,0.12-1.04,0.4-1.41,0.83
			c-0.37,0.43-0.7,0.9-1.01,1.4c-0.31,0.5-0.62,0.96-0.93,1.39c-0.31,0.42-0.68,0.68-1.12,0.77c-0.14,0.03-0.28,0.04-0.44,0.05
			c-0.16,0-0.31-0.01-0.46-0.05c-0.15-0.04-0.28-0.11-0.4-0.21c-0.12-0.1-0.2-0.24-0.24-0.41l-0.01-0.06
			c0.06-0.27,0.17-0.55,0.33-0.83c0.16-0.28,0.34-0.56,0.54-0.83c0.2-0.27,0.41-0.53,0.61-0.77c0.21-0.24,0.39-0.46,0.55-0.65
			c0.22-0.28,0.47-0.58,0.76-0.9c0.29-0.32,0.6-0.63,0.92-0.92c0.32-0.3,0.67-0.56,1.04-0.78c0.37-0.23,0.75-0.38,1.15-0.46
			c0.69-0.14,1.2-0.03,1.56,0.34c0.36,0.37,0.6,0.89,0.74,1.56c0.26,1.26,0.31,2.53,0.13,3.83c-0.18,1.3-0.45,2.55-0.83,3.76
			l0.02,0.11l-0.47,1.47l0.26-0.05c0.7-0.62,1.48-1.19,2.34-1.7c0.86-0.51,1.71-0.96,2.56-1.36l0.11-0.02
			c0.34-0.07,0.64-0.07,0.89-0.01c0.25,0.07,0.42,0.31,0.51,0.73c0.06,0.29,0.04,0.55-0.07,0.79c-0.14,0.07-0.33,0.17-0.55,0.29
			c-0.22,0.13-0.42,0.19-0.6,0.19l-2.59,1.58l-4.06,3.35c-0.27,0.22-0.56,0.36-0.86,0.42c-0.27,0.06-0.55,0-0.84-0.17
			C126.74,93.64,126.57,93.41,126.51,93.12z"/>
	</g>
</g>
</svg>
