<?xml version="1.0" encoding="utf-8"?>
<!-- Generator: Adobe Illustrator 25.2.1, SVG Export Plug-In . SVG Version: 6.00 Build 0)  -->
<svg version="1.1" id="Capa_1" xmlns="http://www.w3.org/2000/svg" xmlns:xlink="http://www.w3.org/1999/xlink" x="0px" y="0px"
	 viewBox="0 0 200 200" style="enable-background:new 0 0 200 200;" xml:space="preserve">
<style type="text/css">
	.st0{fill:#4D4D4D;}
</style>
<g>
	<g id="Q97I4Q_00000151544347548636219470000000302195983892833194_">
		<g>
			<g>
				<path class="st0" d="M158.08,146.68c-39.86,0-79.71,0-119.58,0c0.92-7.75,8.83-15.32,17.46-16.73c1.33-0.22,2.72-0.5,4.04-0.37
					c2.06,0.21,3.07-0.93,4.52-2.16c2.66-2.26,5.91-3.83,8.91-5.7c1.52-0.95,3.46-1.62,4.47-2.96c7.11-9.46,15.98-15.45,28.28-14.05
					c12.12,1.39,20.33,8.17,24.42,19.64c0.88,2.47,1.75,3.26,4.49,2.97C147.55,126.03,158.06,134.93,158.08,146.68z M96.33,120.26
					c1.29-1.82,2.67-2.94,2.52-3.76c-0.21-1.08-1.51-2.43-2.58-2.69c-0.65-0.16-2.46,1.5-2.47,2.36
					C93.78,117.25,95.06,118.35,96.33,120.26z M110.12,129.45c0.8-1.39,1.69-2.25,1.63-3.04c-0.04-0.63-1.23-1.19-1.92-1.78
					c-0.65,0.76-1.66,1.45-1.82,2.3C107.92,127.47,109.08,128.25,110.12,129.45z M141.32,137.73c-1.17-0.92-1.91-1.94-2.61-1.92
					c-0.72,0.02-1.4,1.07-2.1,1.67c0.67,0.73,1.24,1.84,2.06,2.07C139.22,139.7,140.11,138.61,141.32,137.73z M72.55,136.26
					c-1.37-0.93-2.18-1.88-2.99-1.89c-0.62-0.01-1.25,1.2-1.87,1.86c0.71,0.66,1.35,1.7,2.17,1.87
					C70.44,138.22,71.27,137.19,72.55,136.26z"/>
				<path class="st0" d="M38.09,55.66c15.39-6.69,30.34-11.26,46.26-4.62c8.16,3.4,13.97,9.45,16.7,18.07
					c1.57,4.95,1.11,9.79-0.89,14.31c-5.9-4.95-11.57-10.18-17.73-14.76c-6.26-4.65-13.45-7.68-21.25-9.39
					c19.16,8.99,33.7,22.67,43.21,41.67c-4.22,1.26-4.19,1.24-6.2-2.23c-1.34-2.32-2.8-4.57-4.1-6.69c-3.08,1.4-5.73,3.01-8.61,3.84
					c-8.83,2.56-16.79,0.73-22.56-6.58c-3.15-3.99-5.71-8.69-7.48-13.46c-3.05-8.2-7.63-14.79-15.59-18.75
					C39.46,56.87,39.15,56.52,38.09,55.66z"/>
				<path class="st0" d="M159.09,68.8c-8.53,3.73-11.58,10.53-14.43,17.89c-4.88,12.61-14.66,15.65-27.34,9.32
					c-3.37,1.01-2.15,7.45-8.12,6.28c7.35-14.32,18.01-24.33,32.76-30.93c-7.68,0.47-18.24,7.14-29.39,18.24
					c-1.93-3.53-2.15-7.15-1-10.71c3.02-9.37,9.98-14.42,19.34-15.82C140.46,61.65,149.49,64.08,159.09,68.8z"/>
			</g>
		</g>
	</g>
	<g>
		<path class="st0" d="M100,11.7c48.69,0,88.3,39.61,88.3,88.3s-39.61,88.3-88.3,88.3S11.7,148.69,11.7,100S51.31,11.7,100,11.7
			 M100,2.5C46.15,2.5,2.5,46.15,2.5,100s43.65,97.5,97.5,97.5s97.5-43.65,97.5-97.5S153.85,2.5,100,2.5L100,2.5z"/>
	</g>
</g>
</svg>
