<?xml version="1.0" encoding="utf-8"?>
<!-- Generator: Adobe Illustrator 25.2.1, SVG Export Plug-In . SVG Version: 6.00 Build 0)  -->
<svg version="1.1" id="Capa_1" xmlns="http://www.w3.org/2000/svg" xmlns:xlink="http://www.w3.org/1999/xlink" x="0px" y="0px"
	 viewBox="0 0 200 200" style="enable-background:new 0 0 200 200;" xml:space="preserve">
<style type="text/css">
	.st13{opacity:0.93;fill:#BAE8DF;}
	.st14{opacity:0.93;fill:#34B29A;}
	.st15{fill:#FFFFFF;}
</style>
<g>
	<circle class="st13" cx="100" cy="100" r="97.5"/>
	<circle class="st14" cx="100" cy="100" r="90.67"/>
	<g>
		<path class="st15" d="M85.1,81.65c-4.58,9.07-28.15,42.42,0,44.38C113.26,124.07,89.68,90.73,85.1,81.65z"/>
		<g>
			<path class="st15" d="M104.65,92.1c0.05-0.36,0.22-1.44,0.55-2.94l7.03-14.72l7.03,14.72c0.32,1.5,0.49,2.57,0.55,2.94
				c-0.07,4.12-3.44,7.44-7.58,7.44C108.09,99.54,104.72,96.22,104.65,92.1z"/>
			<path class="st15" d="M123.35,117.09c0.2,0.94,0.31,1.62,0.35,1.9c-0.07,2.53-2.15,4.56-4.7,4.56c-2.54,0-4.62-2.03-4.7-4.56
				c0.04-0.28,0.15-0.96,0.35-1.9l4.34-9.09L123.35,117.09z"/>
			<path class="st15" d="M105.59,47.47l6.58-4.68c0.94-0.67,1.16-1.97,0.49-2.9c-0.67-0.94-1.97-1.16-2.9-0.49l-10.95,7.78
				c-0.03,0.02-0.06,0.05-0.09,0.08c-0.03,0.03-0.07,0.04-0.1,0.07c-0.02,0.02-0.04,0.04-0.06,0.07c-0.05,0.05-0.1,0.11-0.15,0.16
				c-0.04,0.05-0.08,0.1-0.12,0.15c-0.04,0.06-0.07,0.12-0.11,0.18c-0.03,0.06-0.06,0.12-0.09,0.18c-0.03,0.06-0.05,0.12-0.07,0.19
				c-0.02,0.06-0.04,0.13-0.05,0.2c-0.01,0.06-0.02,0.13-0.03,0.19c-0.01,0.07-0.01,0.13-0.01,0.2c0,0.05,0,0.11,0,0.16
				c-0.01,0.09-0.03,0.17-0.03,0.26c0,0.92,0.59,1.68,1.42,1.96l8.4,9.33c0.41,0.46,0.98,0.69,1.55,0.69c0.5,0,1-0.18,1.39-0.54
				c0.86-0.77,0.92-2.09,0.15-2.94l-5.53-6.13c24.99,2.66,44.52,23.86,44.52,49.54c0,26.35-20.58,48.19-46.85,49.74
				c-1.15,0.07-2.02,1.05-1.96,2.2c0.07,1.11,0.98,1.96,2.08,1.96c0.04,0,0.08,0,0.12,0c28.47-1.67,50.78-25.35,50.78-53.9
				C153.99,73.29,132.74,50.28,105.59,47.47z"/>
			<path class="st15" d="M94.46,152.21c0-0.07-0.01-0.13-0.03-0.2c-0.01-0.07-0.02-0.14-0.04-0.2c-0.02-0.06-0.04-0.13-0.06-0.19
				c-0.03-0.07-0.05-0.13-0.09-0.2c-0.01-0.03-0.02-0.06-0.04-0.08c-0.02-0.04-0.05-0.07-0.07-0.1c-0.02-0.03-0.04-0.07-0.06-0.1
				l-8.1-11.23c-0.67-0.93-1.97-1.14-2.91-0.47c-0.93,0.67-1.14,1.97-0.47,2.91l5.14,7.13c-21.71-5.53-37.56-25.51-37.56-48.3
				c0-23.2,16.41-43.66,39.02-48.65c1.12-0.25,1.83-1.36,1.58-2.48c-0.25-1.12-1.36-1.82-2.48-1.59
				c-24.51,5.41-42.29,27.59-42.29,52.72c0,24.53,16.96,46.05,40.25,52.21l-6.62,3.7c-1.01,0.56-1.36,1.83-0.8,2.83
				c0.38,0.68,1.09,1.07,1.82,1.07c0.34,0,0.69-0.09,1.01-0.26l11.73-6.55c0.05-0.03,0.09-0.06,0.14-0.1
				c0.02-0.01,0.04-0.02,0.07-0.03c0.02-0.02,0.04-0.04,0.07-0.06c0.06-0.05,0.11-0.09,0.16-0.15c0.05-0.05,0.09-0.09,0.14-0.14
				c0.05-0.05,0.09-0.11,0.12-0.17c0.04-0.06,0.07-0.11,0.11-0.17s0.06-0.12,0.09-0.18c0.03-0.06,0.05-0.12,0.07-0.19
				c0.02-0.06,0.04-0.13,0.05-0.19c0.01-0.07,0.03-0.13,0.04-0.2c0.01-0.07,0.01-0.13,0.01-0.2
				C94.46,152.34,94.46,152.28,94.46,152.21z"/>
		</g>
	</g>
</g>
</svg>
