<?xml version="1.0" encoding="utf-8"?>
<!-- Generator: Adobe Illustrator 25.2.1, SVG Export Plug-In . SVG Version: 6.00 Build 0)  -->
<svg version="1.1" id="Capa_1" xmlns="http://www.w3.org/2000/svg" xmlns:xlink="http://www.w3.org/1999/xlink" x="0px" y="0px"
	 viewBox="0 0 200 200" style="enable-background:new 0 0 200 200;" xml:space="preserve">
<style type="text/css">
	.st0{clip-path:url(#SVGID_2_);fill:#4D4D4D;}
	.st1{fill:#4D4D4D;}
</style>
<g>
	<g>
		<defs>
			<circle id="SVGID_1_" cx="100" cy="100" r="97.5"/>
		</defs>
		<clipPath id="SVGID_2_">
			<use xlink:href="#SVGID_1_"  style="overflow:visible;"/>
		</clipPath>
		<path class="st0" d="M128.53-12.73v83.5c0,2.95-2.41,5.35-5.37,5.35h-8.93c-4.42-4.12-9.89-6.59-15.83-6.59H87.67
			c-14.59,0-26.46,14.72-26.46,32.81c0,3.94,0.58,7.78,1.68,11.41c-2.22,4.74-3.35,9.8-3.35,15.06v17.22
			c-0.52-0.09-1.05-0.14-1.6-0.14c-3.72,0-7.06,2.11-8.7,5.37c-0.72-0.24-1.48-0.36-2.26-0.36c-4.01,0-7.28,3.26-7.28,7.28
			c0,4.02,3.26,7.29,7.28,7.29c1.9,0,3.7-0.74,5.04-2.03c1.68,1.3,3.76,2.03,5.92,2.03c2.58,0,5.06-1.04,6.87-2.83
			c2.13,1.82,4.85,2.83,7.66,2.83c2.74,0,5.41-0.97,7.53-2.71c1.69,1.72,3.99,2.71,6.42,2.71c1.74,0,3.42-0.5,4.86-1.43
			c0.24-0.16,0.48-0.33,0.72-0.53c1.47,1.26,3.33,1.96,5.28,1.96c4.55,0,8.26-3.7,8.26-8.26c0-4.54-3.7-8.24-8.26-8.24
			c-1.52,0-3.01,0.43-4.3,1.24c-0.01-0.01-0.03-0.03-0.04-0.04c-1.24-1.29-2.8-2.17-4.47-2.53c-0.48-0.12-0.94-0.2-1.41-0.23v-12.24
			H98.4c5.97,0,11.47-2.5,15.91-6.66h23.1c20.01,0,36.29-16.28,36.29-36.29V-12.73H128.53z M132.69,119.38
			c0-0.75,0.61-1.36,1.36-1.36c16.56,0,30.03-13.47,30.03-30.03c0-0.75,0.61-1.36,1.36-1.36s1.36,0.61,1.36,1.36
			c0,18.06-14.69,32.75-32.75,32.75C133.3,120.74,132.69,120.13,132.69,119.38z M62.27,128.82c0-5.02,1.11-9.84,3.29-14.34l0.14-0.3
			v0c1.23-2.52,2.81-4.9,4.71-7.07c6.29-7.24,15.39-11.4,24.97-11.4h8.7c0.14,0.64,0.28,1.27,0.38,1.92
			c0.01,0.11,0.03,0.22,0.05,0.33c0.07,0.51,0.1,1.04,0.14,1.56h-9.72c-10.12,0-19.37,5.14-24.76,13.74l-0.21,0.35v0
			c-0.1,0.17-0.19,0.35-0.29,0.53c-0.08,0.15-0.18,0.29-0.26,0.44c-0.05,0.09-0.1,0.19-0.15,0.28c-0.18,0.33-0.36,0.67-0.52,1
			c-0.01,0.02-0.02,0.04-0.03,0.06l-0.38,0.79c-0.07,0.14-0.13,0.29-0.19,0.44c-0.05,0.12-0.11,0.23-0.15,0.35
			c-0.15,0.35-0.29,0.71-0.45,1.1l-0.13,0.29v0.07c-0.03,0.1-0.06,0.2-0.09,0.3c-0.21,0.62-0.4,1.25-0.57,1.89
			c-0.03,0.09-0.06,0.19-0.09,0.28h0c0,0.01-0.01,0.02-0.01,0.03c-0.59,2.41-0.89,4.84-0.89,7.22v15.1
			c-1.26,0.87-2.34,1.96-3.18,3.25c-0.1-0.05-0.21-0.09-0.31-0.14V128.82z M70.52,102.35c0-10.07,4.65-18.95,11.61-22.21l1.07-0.43
			c0.09-0.03,0.17-0.07,0.26-0.1c0.57-0.2,1.15-0.36,1.74-0.48c0.11-0.02,0.21-0.05,0.32-0.07c0.61-0.1,1.23-0.15,1.85-0.17
			c0.3-0.01,0.61-0.01,0.91,0.01c0.17,0.01,0.34,0.01,0.51,0.03c0.13,0.01,0.26,0.02,0.38,0.04c0.15,0.02,0.29,0.05,0.44,0.07
			c0.45,0.07,0.89,0.16,1.33,0.28c0.64,0.17,1.27,0.38,1.89,0.65c0.1,0.04,0.2,0.09,0.3,0.14c0.24,0.11,0.47,0.23,0.7,0.36
			c0.23,0.12,0.46,0.25,0.7,0.4c0.09,0.05,0.18,0.12,0.28,0.17c0.47,0.29,0.93,0.62,1.38,0.97c0.04,0.03,0.07,0.05,0.11,0.08
			c0.5,0.4,0.98,0.83,1.45,1.3c0.03,0.04,0.07,0.07,0.1,0.11c0.27,0.27,0.52,0.54,0.78,0.84c0.33,0.38,0.65,0.77,0.98,1.22
			c0.32,0.42,0.62,0.83,0.91,1.31c0.27,0.4,0.53,0.84,0.75,1.23l0.09,0.18c0.09,0.16,0.18,0.33,0.27,0.5
			c0.07,0.13,0.14,0.27,0.21,0.41c0.1,0.2,0.19,0.39,0.29,0.61c0.08,0.15,0.15,0.31,0.22,0.47c0.08,0.19,0.17,0.38,0.25,0.57
			c0.07,0.17,0.14,0.34,0.21,0.53c0.22,0.52,0.4,1.06,0.58,1.63h-8c-9.31,0-18.2,3.63-24.84,10.04
			C70.54,102.8,70.52,102.58,70.52,102.35z M70.52,102.35c0-10.07,4.65-18.95,11.61-22.21l1.07-0.43c0.09-0.03,0.17-0.07,0.26-0.1
			c0.57-0.2,1.15-0.36,1.74-0.48c0.11-0.02,0.21-0.05,0.32-0.07c0.61-0.1,1.23-0.15,1.85-0.17c0.3-0.01,0.61-0.01,0.91,0.01
			c0.17,0.01,0.34,0.01,0.51,0.03c0.13,0.01,0.26,0.02,0.38,0.04c0.15,0.02,0.29,0.05,0.44,0.07c0.45,0.07,0.89,0.16,1.33,0.28
			c0.64,0.17,1.27,0.38,1.89,0.65c0.1,0.04,0.2,0.09,0.3,0.14c0.24,0.11,0.47,0.23,0.7,0.36c0.23,0.12,0.46,0.25,0.7,0.4
			c0.09,0.05,0.18,0.12,0.28,0.17c0.47,0.29,0.93,0.62,1.38,0.97c0.04,0.03,0.07,0.05,0.11,0.08c0.5,0.4,0.98,0.83,1.45,1.3
			c0.03,0.04,0.07,0.07,0.1,0.11c0.27,0.27,0.52,0.54,0.78,0.84c0.33,0.38,0.65,0.77,0.98,1.22c0.32,0.42,0.62,0.83,0.91,1.31
			c0.27,0.4,0.53,0.84,0.75,1.23l0.09,0.18c0.09,0.16,0.18,0.33,0.27,0.5c0.07,0.13,0.14,0.27,0.21,0.41
			c0.1,0.2,0.19,0.39,0.29,0.61c0.08,0.15,0.15,0.31,0.22,0.47c0.08,0.19,0.17,0.38,0.25,0.57c0.07,0.17,0.14,0.34,0.21,0.53
			c0.22,0.52,0.4,1.06,0.58,1.63h-8c-9.31,0-18.2,3.63-24.84,10.04C70.54,102.8,70.52,102.58,70.52,102.35z M94.49,106.05
			c-9.11,0-17.27,5.41-20.78,13.78c-1.13,2.66-1.72,5.46-1.75,8.15c-0.02,0.2-0.03,0.4-0.03,0.6v13.15
			c-1.19,0.06-2.36,0.29-3.47,0.69v-13.71c0-2.16,0.27-4.37,0.81-6.55c0.19-0.72,0.42-1.44,0.66-2.15c0.15-0.43,0.32-0.85,0.49-1.27
			c0.1-0.24,0.19-0.47,0.29-0.7c0.17-0.38,0.35-0.75,0.53-1.12c0.14-0.29,0.29-0.57,0.45-0.86c0.25-0.45,0.5-0.91,0.77-1.35
			l0.17-0.28c4.91-7.65,13.21-12.2,22.28-12.2h9.89c0,0.04,0,0.07,0,0.11c0,1.26-0.09,2.49-0.23,3.7H94.49z M104.12,108.77
			c-0.11,0.55-0.21,1.11-0.35,1.63c0,0.01-0.01,0.03-0.01,0.04c-0.2,0.73-0.45,1.42-0.7,2.12h-9.02c-7.29,0-13.63,4.94-15.42,12
			c-0.32,1.25-0.48,2.56-0.48,3.91v14.69c-1.09-0.59-2.26-1.01-3.48-1.24v-13.34c0-0.09,0-0.18,0.02-0.42
			c0.03-2.49,0.55-4.93,1.55-7.28c3.09-7.36,10.26-12.12,18.27-12.12H104.12z M87.85,150.29c1.18,0.26,2.27,0.87,3.13,1.76
			c0.24,0.25,0.47,0.51,0.66,0.79l0.87,1.28l1.16-1.04c1.01-0.9,2.29-1.4,3.61-1.4c3.05,0,5.53,2.47,5.53,5.52
			c0,3.05-2.48,5.53-5.53,5.53c-1.62,0-3.15-0.73-4.19-2.01l-0.99-1.2l-1.06,1.14c-0.44,0.48-0.82,0.81-1.23,1.07
			c-1,0.65-2.17,1-3.38,1c-2.08,0-3.97-1-5.18-2.74l-0.96-1.37l-1.15,1.21c-1.74,1.84-4.17,2.9-6.67,2.9c-2.56,0-5.01-1.09-6.74-3
			l-1.12-1.24l-0.99,1.35c-1.32,1.81-3.45,2.89-5.69,2.89c-1.91,0-3.75-0.79-5.05-2.18l-1.16-1.25l-0.96,1.41
			c-0.86,1.26-2.27,2.02-3.79,2.02c-2.51,0-4.56-2.05-4.56-4.57c0-2.51,2.04-4.56,4.56-4.56c0.81,0,1.6,0.21,2.27,0.62l1.47,0.89
			l0.53-1.63c0.95-2.92,3.64-4.89,6.69-4.89c0.88,0,1.69,0.15,2.48,0.46c0.64,0.24,1.23,0.57,1.78,1l1.33,1.04l0.73-1.52
			c0.78-1.62,2-2.97,3.54-3.89c1.6-0.97,3.53-1.4,5.38-1.26c1.98,0.15,3.9,0.97,5.4,2.3c1.12,1,1.97,2.27,2.46,3.65l0.57,1.61
			l1.44-0.92c0.86-0.55,1.79-0.87,2.76-0.95C86.49,150.09,87.13,150.11,87.85,150.29z M87.85,150.29c1.18,0.26,2.27,0.87,3.13,1.76
			c0.24,0.25,0.47,0.51,0.66,0.79l0.87,1.28l1.16-1.04c1.01-0.9,2.29-1.4,3.61-1.4c3.05,0,5.53,2.47,5.53,5.52
			c0,3.05-2.48,5.53-5.53,5.53c-1.62,0-3.15-0.73-4.19-2.01l-0.99-1.2l-1.06,1.14c-0.44,0.48-0.82,0.81-1.23,1.07
			c-1,0.65-2.17,1-3.38,1c-2.08,0-3.97-1-5.18-2.74l-0.96-1.37l-1.15,1.21c-1.74,1.84-4.17,2.9-6.67,2.9c-2.56,0-5.01-1.09-6.74-3
			l-1.12-1.24l-0.99,1.35c-1.32,1.81-3.45,2.89-5.69,2.89c-1.91,0-3.75-0.79-5.05-2.18l-1.16-1.25l-0.96,1.41
			c-0.86,1.26-2.27,2.02-3.79,2.02c-2.51,0-4.56-2.05-4.56-4.57c0-2.51,2.04-4.56,4.56-4.56c0.81,0,1.6,0.21,2.27,0.62l1.47,0.89
			l0.53-1.63c0.95-2.92,3.64-4.89,6.69-4.89c0.88,0,1.69,0.15,2.48,0.46c0.64,0.24,1.23,0.57,1.78,1l1.33,1.04l0.73-1.52
			c0.78-1.62,2-2.97,3.54-3.89c1.6-0.97,3.53-1.4,5.38-1.26c1.98,0.15,3.9,0.97,5.4,2.3c1.12,1,1.97,2.27,2.46,3.65l0.57,1.61
			l1.44-0.92c0.86-0.55,1.79-0.87,2.76-0.95C86.49,150.09,87.13,150.11,87.85,150.29z M84.81,125.54L84.81,125.54l-0.01,0.02
			c-0.13,0.42-0.25,0.84-0.32,1.28c-0.09,0.5-0.13,0.99-0.13,1.5v19.28c-0.46,0.11-0.91,0.25-1.35,0.43c-0.55-1.05-1.29-2-2.14-2.86
			v-16.73c0-1.12,0.13-2.21,0.39-3.24c1.49-5.86,6.74-9.95,12.78-9.95h7.92c-0.1,0.2-0.21,0.4-0.31,0.6c-0.17,0.33-0.34,0.66-0.54,1
			c-0.02,0.04-0.05,0.08-0.07,0.12c-0.24,0.41-0.48,0.81-0.74,1.2l-0.05,0.07c-0.19,0.29-0.39,0.54-0.59,0.81
			c0,0-0.01,0.01-0.01,0.01h-6.06C89.48,119.09,85.99,121.75,84.81,125.54z M97.21,121.82c-0.08,0.07-0.16,0.15-0.24,0.23
			c-0.23,0.2-0.46,0.39-0.69,0.57c-0.18,0.14-0.35,0.28-0.53,0.41c-0.23,0.17-0.46,0.34-0.7,0.5c-0.35,0.23-0.7,0.45-1.05,0.64
			l-0.1,0.06c-0.05,0.03-0.09,0.04-0.13,0.07c-0.45,0.24-0.9,0.45-1.37,0.63l0,0c-0.46,0.18-0.92,0.33-1.39,0.45
			c-0.12,0.03-0.25,0.07-0.38,0.09c-0.38,0.09-0.77,0.17-1.15,0.22c-0.06,0.01-0.12,0.02-0.19,0.03c-0.5,0.07-1.03,0.11-1.61,0.11
			c-0.03,0-0.05,0-0.08,0c0.98-2.4,3.3-4.03,5.99-4.03H97.21z M87.53,132.45v-3.88c0.04,0,0.07,0,0.11,0c0.01,0,0.03,0,0.04,0
			c0.04,0,0.07-0.01,0.1-0.01c0.55,0,1.07-0.04,1.56-0.1c0.14-0.01,0.29-0.03,0.43-0.05c0.32-0.04,0.63-0.08,0.87-0.14
			c0.19-0.04,0.39-0.09,0.58-0.13c0.17-0.04,0.34-0.08,0.51-0.13c0.25-0.07,0.5-0.14,0.78-0.23c0.22-0.07,0.45-0.15,0.68-0.24
			c0.06-0.02,0.12-0.04,0.19-0.07c0.25-0.1,0.49-0.21,0.74-0.32l0.25-0.12c0.14-0.07,0.3-0.15,0.45-0.23
			c0.13-0.07,0.27-0.13,0.4-0.21c0.11-0.05,0.22-0.12,0.34-0.19l0.18-0.1c0.26-0.15,0.52-0.3,0.69-0.43
			c0.03-0.02,0.05-0.04,0.08-0.06c0.27-0.17,0.53-0.37,0.79-0.56c0.22-0.16,0.44-0.33,0.67-0.51c0.26-0.21,0.52-0.42,0.77-0.64
			c0.06-0.05,0.11-0.09,0.17-0.14c0.28-0.24,0.54-0.5,0.8-0.76c0.04-0.04,0.07-0.08,0.11-0.12c0.11-0.12,0.22-0.23,0.33-0.35
			c0.39-0.41,0.76-0.84,1.09-1.25c0.03-0.04,0.07-0.07,0.1-0.11l0.27-0.3l0.03-0.08c0.28-0.36,0.55-0.74,0.82-1.14l0.05-0.07
			c0.57-0.84,1.09-1.74,1.56-2.66c0.1-0.18,0.2-0.36,0.29-0.54l0.06-0.14c0.07-0.15,0.14-0.3,0.21-0.46
			c0.03-0.06,0.08-0.14,0.1-0.19c0.19-0.42,0.37-0.84,0.53-1.28c0.01-0.03,0.03-0.06,0.04-0.09c0,0,0-0.01,0-0.01
			c0-0.01,0.01-0.02,0.01-0.03c0.21-0.53,0.41-1.06,0.58-1.61c0.17-0.51,0.34-1.03,0.47-1.54c0.01-0.02,0.01-0.05,0.02-0.07
			c0-0.01,0.01-0.02,0.01-0.03c0.1-0.39,0.21-0.81,0.32-1.28l0.07-0.33c0.04-0.17,0.08-0.34,0.11-0.49c0.1-0.46,0.17-0.93,0.25-1.41
			c0.26-1.7,0.4-3.47,0.4-5.27c0-0.48-0.02-0.97-0.04-1.53c0,0,0-0.01,0-0.01c-0.02-0.5-0.06-1.01-0.09-1.46
			c-0.02-0.38-0.06-0.75-0.11-1c-0.02-0.21-0.05-0.43-0.08-0.64c-0.02-0.17-0.04-0.33-0.06-0.5c0-0.02-0.01-0.05-0.01-0.07
			c-0.14-0.99-0.35-2-0.61-3.06c-0.01-0.03-0.01-0.05-0.02-0.08c0-0.01-0.01-0.03-0.01-0.04c-0.01-0.02-0.01-0.04-0.01-0.06
			l-0.04-0.18c-0.08-0.27-0.16-0.53-0.24-0.8c-0.13-0.45-0.27-0.9-0.42-1.33c-0.09-0.28-0.19-0.55-0.29-0.81
			c-0.13-0.34-0.25-0.68-0.39-1.01c-0.11-0.27-0.22-0.52-0.33-0.77c-0.41-0.91-0.85-1.79-1.34-2.62c-0.15-0.25-0.29-0.49-0.44-0.72
			c-0.68-1.09-1.43-2.11-2.23-3.03c-0.02-0.02-0.04-0.05-0.06-0.07c-0.01-0.01-0.02-0.02-0.02-0.03c-0.2-0.23-0.41-0.45-0.62-0.67
			c-0.12-0.13-0.24-0.26-0.36-0.39c-0.05-0.05-0.1-0.09-0.15-0.14c-0.51-0.5-1.03-0.97-1.57-1.41c-0.02-0.01-0.04-0.03-0.06-0.04
			c-0.52-0.41-1.05-0.78-1.6-1.13c-0.05-0.03-0.1-0.08-0.16-0.11c-0.13-0.08-0.25-0.14-0.38-0.21c-0.25-0.15-0.5-0.29-0.75-0.42
			c-0.08-0.04-0.17-0.11-0.26-0.15c-0.32-0.16-0.6-0.29-0.89-0.41c-0.02-0.01-0.04-0.02-0.06-0.03c-0.38-0.16-0.73-0.3-1.06-0.41
			c-0.11-0.04-0.22-0.07-0.32-0.11c-0.06-0.02-0.11-0.04-0.16-0.05c-0.04-0.01-0.08-0.03-0.11-0.04l-0.2-0.06
			c-0.76-0.23-1.5-0.38-2.28-0.48c-0.09-0.01-0.17-0.02-0.26-0.03c-0.15-0.02-0.29-0.03-0.44-0.04c-0.1-0.01-0.21-0.02-0.3-0.03
			c-0.09-0.01-0.18,0-0.27,0c-0.25-0.01-0.51-0.04-0.76-0.04c-0.22,0-0.44,0.03-0.67,0.03c-0.09,0-0.18,0.01-0.27,0.01
			c-0.56,0.03-1.12,0.1-1.67,0.19c-0.04,0.01-0.08,0.01-0.13,0.02c-0.55,0.1-1.09,0.23-1.63,0.39c-0.02,0-0.04,0.01-0.05,0.01
			c-0.06,0.02-0.12,0.03-0.18,0.05c-0.6,0.19-1.19,0.4-1.77,0.66l-0.81,0.36v0.03c-7.62,3.88-12.68,13.57-12.68,24.44
			c0,1.17,0.07,2.31,0.18,3.43c-1.19,1.41-2.25,2.89-3.19,4.44c-0.55-2.55-0.85-5.18-0.85-7.87c0-16.14,10.08-29.31,22.67-30.02
			c0.35-0.02,0.7-0.07,1.06-0.07c10.76,0,20.2,9.19,22.95,22.37c0.44,2.05,0.7,4.17,0.77,6.29c0.02,0.48,0.04,0.95,0.04,1.42
			c0,1.66-0.11,3.3-0.32,4.89c-0.27,2.12-0.74,4.24-1.38,6.27c-0.71,2.24-1.63,4.35-2.72,6.28c-4.49,7.96-11.79,12.77-19.42,12.66
			H87.53z M98.4,132.45h-0.21c4.44-2.39,8.34-6.27,11.19-11.32c1.18-2.08,2.17-4.37,2.94-6.79c0.69-2.2,1.19-4.47,1.49-6.75
			c0.22-1.7,0.34-3.46,0.34-5.24c0-0.51-0.02-1.01-0.04-1.51c-0.07-2.29-0.35-4.57-0.82-6.77c-2.09-9.98-7.76-17.88-15.05-21.8h0.17
			c13.09,0,23.73,13.5,23.73,30.08C122.13,118.95,111.48,132.45,98.4,132.45z M45.58,149.72c2.38,0,4.32-1.94,4.32-4.32
			c0-2.38-1.94-4.32-4.32-4.32s-4.32,1.94-4.32,4.32C41.26,147.78,43.2,149.72,45.58,149.72z M45.58,143.8c0.88,0,1.6,0.72,1.6,1.6
			s-0.72,1.6-1.6,1.6c-0.88,0-1.6-0.72-1.6-1.6S44.7,143.8,45.58,143.8z M50.32,140.29c3.01,0,5.46-2.45,5.46-5.46
			c0-3.01-2.45-5.46-5.46-5.46c-3.01,0-5.46,2.45-5.46,5.46C44.86,137.84,47.31,140.29,50.32,140.29z M50.32,132.09
			c1.51,0,2.74,1.23,2.74,2.74c0,1.51-1.23,2.74-2.74,2.74c-1.51,0-2.74-1.23-2.74-2.74C47.58,133.31,48.81,132.09,50.32,132.09z
			 M90.04,142.44c0,3.01,2.45,5.46,5.47,5.46c3.01,0,5.46-2.45,5.46-5.46c0-3.02-2.45-5.46-5.46-5.46
			C92.49,136.97,90.04,139.42,90.04,142.44z M98.25,142.44c0,1.51-1.23,2.74-2.74,2.74c-1.51,0-2.74-1.23-2.74-2.74
			c0-1.51,1.23-2.74,2.74-2.74C97.02,139.7,98.25,140.92,98.25,142.44z"/>
	</g>
	<g>
		<path class="st1" d="M100,11.7c48.69,0,88.3,39.61,88.3,88.3s-39.61,88.3-88.3,88.3S11.7,148.69,11.7,100S51.31,11.7,100,11.7
			 M100,2.5C46.15,2.5,2.5,46.15,2.5,100s43.65,97.5,97.5,97.5s97.5-43.65,97.5-97.5S153.85,2.5,100,2.5L100,2.5z"/>
	</g>
</g>
</svg>
