<?xml version="1.0" encoding="utf-8"?>
<!-- Generator: Adobe Illustrator 25.2.1, SVG Export Plug-In . SVG Version: 6.00 Build 0)  -->
<svg version="1.1" id="Capa_1" xmlns="http://www.w3.org/2000/svg" xmlns:xlink="http://www.w3.org/1999/xlink" x="0px" y="0px"
	 viewBox="0 0 200 200" style="enable-background:new 0 0 200 200;" xml:space="preserve">
<style type="text/css">
	.st0{fill:#FFFFFF;}
</style>
<g id="wave_6_00000152240965202101727080000000102079402625173939_">
	<g>
		<g>
			<path class="st0" d="M2.41,127.63c15.18-2.31,27.44-14.01,35.56-26.38c2.28-3.47,4.28-7.12,5.98-10.91
				c-1.11-0.3-2.22-0.6-3.33-0.9c-0.25,11.3,4.51,22.83,14.63,28.63c11.14,6.38,25.79,4.59,35.31-3.91
				c2.82-2.52,5.34-5.69,6.65-9.27c1.58-4.3,1.81-9.01,3.66-13.21c-1.11-0.3-2.22-0.6-3.33-0.9c0.43,12.64,8.23,24.7,20.29,29.1
				c6.13,2.24,12.96,2.1,19.06-0.17c5.87-2.19,10.86-6.13,14.92-10.84c4.58-5.32,8.1-11.42,11.32-17.63
				c-0.94,0.12-1.87,0.24-2.81,0.36c3.95,5.05,4.45,11.93,7.53,17.46c3.39,6.09,9.63,10.25,16.02,12.65
				c3.65,1.37,7.6,2.18,11.51,1.98c2.29-0.11,2.3-3.69,0-3.57c-6.5,0.32-13.13-2.25-18.31-6.07c-2.53-1.86-4.72-4.19-6.23-6.95
				c-1.48-2.71-2.34-5.68-3.31-8.6c-1.13-3.39-2.47-6.6-4.69-9.43c-0.7-0.89-2.32-0.57-2.81,0.36c-5.1,9.84-11.24,20.41-21.45,25.65
				c-5.24,2.69-11.33,3.59-17.08,2.19c-5.47-1.33-10.23-4.54-13.8-8.86c-4.08-4.92-6.38-11.26-6.6-17.63
				c-0.06-1.62-2.57-2.63-3.33-0.9c-1.54,3.48-2.13,7.16-3.05,10.83c-0.42,1.69-0.88,3.44-1.77,4.95c-0.81,1.38-1.75,2.68-2.83,3.87
				c-4.03,4.48-9.52,7.43-15.44,8.46c-10.27,1.79-21.01-2.65-26.39-11.66c-3.04-5.09-4.24-11-4.11-16.89
				c0.04-1.68-2.59-2.56-3.33-0.9c-5.79,12.94-15.39,25.4-28.19,31.99c-3.52,1.81-7.3,3.06-11.21,3.65
				c-0.96,0.15-1.47,1.34-1.25,2.2C0.49,127.4,1.47,127.77,2.41,127.63L2.41,127.63z"/>
		</g>
	</g>
	<g>
		<g>
			<path class="st0" d="M22.87,132.97c6.87-2.37,11-7.98,15.46-13.36c-0.94-0.12-1.87-0.24-2.81-0.36c2.01,3.39,5.35,5.5,9.07,6.6
				c2.21,0.65,3.15-2.8,0.95-3.45c-2.84-0.84-5.4-2.37-6.94-4.96c-0.54-0.91-2.05-1.27-2.81-0.36c-3.98,4.79-7.73,10.32-13.89,12.44
				C19.76,130.26,20.69,133.72,22.87,132.97L22.87,132.97z"/>
		</g>
	</g>
	<g>
		<g>
			<path class="st0" d="M58.04,130.28c3.78,3.39,9.34,4.05,14.22,3.76c4.82-0.29,10.24-1.4,14.18-4.37
				c0.78-0.58,1.16-1.54,0.64-2.44c-0.44-0.76-1.68-1.22-2.44-0.64c-3.38,2.54-7.91,3.57-12.05,3.86
				c-3.93,0.27-8.91,0.09-12.02-2.69C58.86,126.22,56.33,128.74,58.04,130.28L58.04,130.28z"/>
		</g>
	</g>
	<g>
		<g>
			<path class="st0" d="M127.77,132.97c4.12,0.85,8.28,0.71,12.33-0.42c3.95-1.1,7.64-2.97,11.23-4.9c1.8-0.97,3.63-1.89,5.38-2.94
				c1.01-0.6,2.11-1.45,3.08-1.64c-0.04,0.01-0.05-0.03,0.24,0.02c-0.34-0.06,0.34,0.09,0.42,0.12c0.59,0.17,1.16,0.43,1.72,0.67
				c1.98,0.86,3.87,1.84,5.78,2.84c4.16,2.18,8.43,3.93,13.22,3.65c2.29-0.13,2.3-3.71,0-3.57c-4.17,0.24-7.79-1.27-11.41-3.17
				c-1.86-0.97-3.7-1.93-5.62-2.77c-1.19-0.52-2.4-1.13-3.7-1.3c-2.75-0.35-5.41,2.04-7.67,3.25c-3.48,1.87-6.92,3.87-10.61,5.29
				c-4.33,1.66-8.85,2.37-13.43,1.42C126.47,129.05,125.51,132.5,127.77,132.97L127.77,132.97z"/>
		</g>
	</g>
	<g>
		<g>
			<path class="st0" d="M112.23,130.8c2.3,0,2.3-3.57,0-3.57C109.93,127.23,109.93,130.8,112.23,130.8L112.23,130.8z"/>
		</g>
	</g>
	<g>
		<g>
			<path class="st0" d="M104.23,121.47c2.3,0,2.3-3.57,0-3.57C101.93,117.89,101.92,121.47,104.23,121.47L104.23,121.47z"/>
		</g>
	</g>
	<g>
		<g>
			<path class="st0" d="M100.22,129.92c2.3,0,2.3-3.57,0-3.57C97.92,126.34,97.92,129.92,100.22,129.92L100.22,129.92z"/>
		</g>
	</g>
	<g>
		<g>
			<path class="st0" d="M106,127.25c0.13,0,0.26,0,0.39,0c0.02,0,0.04,0,0.06,0c0.25,0.01,0.48-0.04,0.69-0.15
				c0.22-0.07,0.41-0.2,0.58-0.37c0.17-0.16,0.3-0.35,0.37-0.58c0.11-0.21,0.16-0.44,0.15-0.69c-0.02-0.16-0.04-0.32-0.06-0.48
				c-0.08-0.3-0.24-0.57-0.46-0.79c-0.12-0.09-0.24-0.19-0.36-0.28c-0.28-0.16-0.58-0.24-0.9-0.24c-0.13,0-0.26,0-0.39,0
				c-0.02,0-0.04,0-0.06,0c-0.25-0.01-0.48,0.04-0.69,0.15c-0.22,0.07-0.41,0.2-0.58,0.37c-0.17,0.16-0.3,0.35-0.37,0.58
				c-0.11,0.21-0.16,0.44-0.15,0.69c0.02,0.16,0.04,0.32,0.06,0.48c0.08,0.3,0.24,0.57,0.46,0.79c0.12,0.09,0.24,0.19,0.36,0.28
				C105.38,127.17,105.68,127.25,106,127.25L106,127.25z"/>
		</g>
	</g>
	<g>
		<g>
			<path class="st0" d="M49.11,111.17c4.75-1.49,8.39-4.46,11.1-8.6c2.56-3.92,4.29-8.32,6.87-12.23c-1.03,0-2.06,0-3.09,0
				c4.82,10.87,16.74,18.42,28.2,20.39c2.25,0.39,3.22-3.06,0.95-3.45c-10.67-1.84-21.56-8.62-26.06-18.75c-0.58-1.31-2.42-1-3.09,0
				c-2.41,3.65-4.09,7.71-6.37,11.44c-2.26,3.7-5.28,6.43-9.46,7.75C45.97,108.42,46.91,111.87,49.11,111.17L49.11,111.17z"/>
		</g>
	</g>
	<g>
		<g>
			<path class="st0" d="M109.15,113.84c5.45-1.51,10-4.72,13.58-9.06c3.49-4.23,6.15-9.06,9.28-13.56c-1.03,0-2.06,0-3.09,0
				c2.77,3.82,5.82,7.4,9.58,10.29c3.7,2.84,7.92,4.8,12.39,6.1c2.21,0.64,3.16-2.8,0.95-3.45c-4.02-1.17-7.84-2.91-11.18-5.46
				c-3.37-2.58-6.17-5.86-8.66-9.28c-0.82-1.12-2.28-1.16-3.09,0c-2.89,4.15-5.32,8.64-8.51,12.57c-3.24,4-7.2,7.01-12.21,8.4
				C105.98,111.01,106.92,114.46,109.15,113.84L109.15,113.84z"/>
		</g>
	</g>
	<g>
		<g>
			<path class="st0" d="M24.62,112.11c-3.4,0.45-6.91-0.46-10-1.98c-3-1.48-6.07-3.78-6.96-6.94c-0.62-2.21-4.07-1.27-3.45,0.95
				c1.15,4.11,4.71,7.1,8.39,8.96c3.6,1.82,7.95,3.12,12.02,2.58c0.96-0.13,1.79-0.73,1.79-1.79
				C26.41,113.03,25.58,111.98,24.62,112.11L24.62,112.11z"/>
		</g>
	</g>
	<g>
		<g>
			<path class="st0" d="M173.6,115.24c10.56-0.09,21.04-6.75,26-16.01c1.09-2.03-2-3.83-3.09-1.8
				c-4.38,8.17-13.57,14.16-22.92,14.24C171.3,111.69,171.3,115.26,173.6,115.24L173.6,115.24z"/>
		</g>
	</g>
	<g>
		<g>
			<path class="st0" d="M114.22,85.42c-0.04-0.08-0.07-0.16-0.1-0.25c0.09,0.22,0.13,0.3,0.02,0.06c-0.1-0.23-0.19-0.47-0.28-0.7
				c-0.21-0.54-0.42-1.08-0.61-1.62c-0.46-1.29-0.87-2.6-1.19-3.93c-0.08-0.33-0.15-0.66-0.22-1c-0.03-0.17-0.06-0.33-0.09-0.5
				c-0.01-0.08-0.03-0.17-0.04-0.25c-0.01-0.03-0.06-0.37-0.03-0.17c0.02,0.17-0.03-0.26-0.04-0.33c-0.02-0.16-0.03-0.32-0.04-0.48
				c-0.02-0.34-0.03-0.67-0.03-1.01c0.01-0.29,0.03-0.59,0.06-0.88c-0.03,0.32-0.01,0.09,0.02-0.08c0.03-0.15,0.07-0.31,0.11-0.46
				c0.04-0.13,0.08-0.25,0.12-0.37c0.03-0.09-0.16,0.26,0.02-0.04c0.06-0.1,0.13-0.21,0.19-0.32c0.17-0.32-0.14,0.08,0.05-0.07
				c0.09-0.07,0.18-0.17,0.26-0.25c-0.2,0.2-0.15,0.09,0.04-0.01c0.11-0.06,0.23-0.12,0.34-0.18c-0.32,0.17-0.01,0.01,0.15-0.03
				c0.07-0.02,0.49-0.1,0.26-0.07c-0.23,0.03,0.17-0.01,0.24-0.01c0.12,0,0.25,0.01,0.37,0c0.38-0.02-0.2-0.09,0.03,0
				c0.07,0.03,0.28,0.1,0.34,0.09c0.14-0.02-0.41-0.04-0.08-0.03c0.07,0,0.34,0.25,0.08,0.04c-0.25-0.21,0.04,0.04,0.08,0.1
				c0.16,0.23-0.16-0.35-0.07-0.08c0.02,0.07,0.09,0.18,0.13,0.24c0.14,0.21-0.07-0.34-0.04-0.08c0.01,0.11,0.06,0.23,0.09,0.34
				c0.02,0.07,0.08,0.43,0.03,0.12c-0.05-0.31,0,0.07,0.01,0.14c0.01,0.25,0.02,0.51,0.01,0.76c-0.01,0.25-0.04,0.5-0.06,0.76
				c0.03-0.31,0.02-0.15-0.01,0.05c-0.03,0.16-0.05,0.32-0.09,0.47c-0.24,1.2-0.6,2.38-1.01,3.53c-0.12,0.33-0.24,0.65-0.37,0.98
				c-0.06,0.16-0.13,0.32-0.19,0.48c-0.03,0.08-0.21,0.51-0.13,0.32c0.08-0.19-0.1,0.23-0.13,0.3c-0.06,0.15-0.13,0.29-0.19,0.43
				c-0.12,0.27-0.25,0.55-0.37,0.82c-0.37,0.78-0.74,1.56-1.18,2.29c-1.18,1.98,1.91,3.78,3.09,1.8c1.15-1.94,2.05-4.08,2.82-6.19
				c0.91-2.47,1.86-5.43,1.22-8.07c-0.75-3.11-4.34-3.93-6.95-2.54c-3.06,1.63-3.09,5.5-2.64,8.48c0.48,3.19,1.64,6.25,2.9,9.21
				c0.38,0.89,1.69,1.08,2.44,0.64C114.49,87.33,114.6,86.31,114.22,85.42L114.22,85.42z"/>
		</g>
	</g>
	<g>
		<g>
			<path class="st0" d="M101.12,77.43c0.31-3.07-1.03-6.38-2.93-8.73c-0.98-1.21-2.36-2.23-3.89-2.61c-1.85-0.46-3.61,0.03-5.26,0.9
				c-1.19,0.63-2.41,1.52-3.02,2.76c-0.61,1.25-0.53,2.6,0.1,3.83c1.1,2.14,3.48,3.57,5.51,4.69c1.19,0.66,2.42,1.24,3.66,1.79
				c0.63,0.28,1.26,0.54,1.89,0.81c0.21,0.09,0.42,0.18,0.63,0.27c0.1,0.04,0.19,0.08,0.29,0.12c0.22,0.09-0.52-0.22-0.13-0.06
				c0.86,0.37,1.96,0.28,2.44-0.64c0.41-0.77,0.28-2.05-0.64-2.44c-0.41-0.17-0.82-0.35-1.23-0.52c-0.16-0.07-0.78-0.34-0.17-0.07
				c-0.21-0.09-0.42-0.18-0.63-0.27c-0.97-0.42-1.93-0.85-2.88-1.32c-1.01-0.5-2.01-1.04-2.96-1.65c-0.23-0.14-0.45-0.29-0.67-0.45
				c-0.1-0.07-0.2-0.14-0.3-0.21c-0.06-0.04-0.11-0.08-0.17-0.12c-0.25-0.18,0.09,0,0.08,0.06c0.01-0.06-0.47-0.39-0.53-0.44
				c-0.2-0.17-0.38-0.36-0.56-0.55c-0.07-0.07-0.14-0.15-0.2-0.23c-0.28-0.3,0.14,0.21,0.02,0.03c-0.12-0.18-0.23-0.35-0.34-0.53
				c-0.04-0.07-0.18-0.38-0.04-0.05c0.14,0.32,0.01,0.03-0.01-0.06c-0.02-0.08-0.04-0.19-0.07-0.27c-0.06-0.17,0,0.49,0.03,0.14
				c0-0.04,0.03-0.24,0.01-0.27c0.07,0.1-0.12,0.52-0.01,0.17c0.01-0.04,0.08-0.19,0.07-0.24c0.06,0.35-0.2,0.37-0.09,0.22
				c0.04-0.05,0.06-0.11,0.09-0.17c0.03-0.05,0.15-0.18,0.15-0.24c-0.01,0.21-0.27,0.31-0.12,0.16c0.04-0.04,0.08-0.09,0.12-0.13
				c0.07-0.08,0.15-0.16,0.23-0.23c0.05-0.05,0.1-0.09,0.15-0.13c0.13-0.12,0.13-0.23-0.07,0.05c0.13-0.19,0.49-0.34,0.69-0.46
				c0.34-0.2,0.69-0.38,1.05-0.55c0.07-0.03,0.14-0.06,0.21-0.1c-0.32,0.14-0.09,0.04-0.02,0.01c0.17-0.05,0.34-0.11,0.52-0.16
				c0.07-0.02,0.55-0.13,0.27-0.06c-0.24,0.05-0.05,0.01,0.01,0c0.12-0.01,0.24-0.02,0.37-0.02c0.14,0,0.28,0.02,0.42,0.02
				c0.2,0-0.18-0.01-0.18-0.03c0,0.01,0.2,0.04,0.23,0.04c0.15,0.03,0.3,0.07,0.45,0.12c0.05,0.02,0.11,0.05,0.16,0.06
				c0.2,0.04-0.34-0.17-0.05-0.02c0.26,0.14,0.51,0.28,0.76,0.44c0.36,0.24-0.17-0.16,0.07,0.05c0.14,0.12,0.28,0.24,0.41,0.37
				c0.25,0.25,0.49,0.52,0.71,0.79c-0.3-0.37,0.08,0.12,0.13,0.21c0.11,0.16,0.21,0.33,0.31,0.49c0.19,0.32,0.36,0.65,0.52,0.98
				c0.03,0.06,0.05,0.12,0.08,0.18c0.19,0.4-0.14-0.36,0.02,0.06c0.06,0.16,0.13,0.32,0.18,0.49c0.24,0.68,0.4,1.36,0.53,2.07
				c0.06,0.33-0.03-0.1-0.01-0.12c-0.02,0.02,0.03,0.25,0.03,0.29c0.02,0.17,0.03,0.34,0.03,0.51c0.01,0.32,0,0.63-0.03,0.95
				c-0.1,0.93,0.89,1.83,1.79,1.79C100.38,79.17,101.02,78.43,101.12,77.43L101.12,77.43z"/>
		</g>
	</g>
	<g>
		<g>
			<path class="st0" d="M27.74,87.22c-0.02-1.61-0.56-3.17-1.28-4.6c-0.73-1.46-1.74-2.85-2.94-3.96c-1.35-1.24-2.93-2.15-4.77-2.37
				c-1.66-0.2-3.27,0.41-4.6,1.37c-1.16,0.84-2.13,1.91-2.25,3.4c-0.09,1.17,0.49,2.23,1.25,3.08c1.58,1.74,3.98,2.77,6.09,3.69
				c1.35,0.58,2.72,1.13,4.08,1.69c0.15,0.06,0.29,0.12,0.44,0.18c0.05,0.02,0.1,0.04,0.15,0.06c0.28,0.11-0.42-0.18-0.13-0.05
				c0.23,0.1,0.45,0.19,0.68,0.3c0.35,0.16,0.71,0.33,1.04,0.55c0.78,0.51,2.01,0.18,2.44-0.64c0.47-0.89,0.19-1.9-0.64-2.44
				c-0.64-0.42-1.37-0.7-2.07-1c-1.01-0.43-2.03-0.83-3.04-1.24c-0.25-0.1-0.5-0.21-0.76-0.31c-0.27-0.11,0.12,0.05,0.14,0.06
				c-0.06-0.03-0.13-0.05-0.19-0.08c-0.16-0.07-0.32-0.14-0.48-0.21c-0.52-0.23-1.05-0.46-1.56-0.71c-0.96-0.46-1.92-0.97-2.8-1.58
				c-0.09-0.07-0.18-0.13-0.28-0.2c-0.23-0.16,0.36,0.3,0.04,0.03c-0.16-0.14-0.33-0.28-0.48-0.44c-0.07-0.07-0.13-0.14-0.2-0.21
				c-0.26-0.27,0.07,0.11,0.07,0.1c-0.09-0.15-0.18-0.32-0.28-0.45c-0.12-0.17,0.11,0.25,0.11,0.26c0-0.04-0.04-0.09-0.05-0.14
				c-0.01-0.07-0.03-0.16-0.06-0.22c-0.02-0.06,0.04,0.56,0.03,0.2c0-0.04,0.01-0.08,0-0.11c-0.03-0.25-0.02,0.24-0.04,0.28
				c0.03-0.05,0.04-0.17,0.05-0.22c0.07-0.34-0.2,0.35-0.07,0.14c0.05-0.07,0.09-0.15,0.13-0.23c0.02-0.04,0.06-0.07,0.08-0.11
				c0.13-0.23-0.3,0.32-0.1,0.13c0.16-0.15,0.31-0.31,0.47-0.46c0.32-0.28-0.2,0.12,0.01-0.01c0.13-0.09,0.26-0.18,0.39-0.26
				c0.28-0.18,0.57-0.32,0.86-0.48c0.21-0.12-0.32,0.09-0.09,0.04c0.08-0.02,0.15-0.05,0.23-0.08c0.07-0.02,0.48-0.07,0.51-0.12
				c-0.05,0.08-0.4,0.03-0.14,0.02c0.07,0,0.15-0.01,0.22-0.01c0.15-0.01,0.3,0,0.45,0.01c0.49,0.03-0.22-0.06,0.08,0.01
				c0.18,0.04,0.37,0.08,0.55,0.14c0.03,0.01,0.43,0.16,0.43,0.15c-0.01,0.02-0.41-0.2-0.11-0.04c0.07,0.04,0.14,0.07,0.21,0.1
				c0.3,0.16,0.59,0.34,0.87,0.53c0.05,0.04,0.28,0.18,0.07,0.04c-0.23-0.15,0.06,0.05,0.11,0.09c0.16,0.13,0.32,0.27,0.47,0.42
				c0.29,0.28,0.57,0.57,0.84,0.88c0.09,0.1,0.42,0.53,0.17,0.19c0.13,0.17,0.26,0.35,0.38,0.53c0.22,0.32,0.42,0.65,0.61,0.98
				c0.19,0.35,0.35,0.71,0.53,1.06c0.11,0.22-0.12-0.32-0.04-0.09c0.03,0.09,0.07,0.18,0.11,0.28c0.07,0.18,0.13,0.36,0.19,0.55
				c0.1,0.31,0.18,0.63,0.24,0.96c0.01,0.07,0.02,0.14,0.04,0.2c0.07,0.37-0.03-0.44-0.01-0.08c0.01,0.16,0.02,0.31,0.02,0.47
				c0.01,0.93,0.82,1.83,1.79,1.79C26.91,88.96,27.75,88.22,27.74,87.22L27.74,87.22z"/>
		</g>
	</g>
	<g>
		<g>
			<path class="st0" d="M32.19,82.32c-0.01-2.24-0.28-4.47-0.1-6.71c0.01-0.16,0.03-0.31,0.04-0.46c0.03-0.35-0.05,0.3,0-0.05
				c0.05-0.29,0.1-0.58,0.17-0.87c0.06-0.26,0.13-0.51,0.22-0.76c0.02-0.07,0.17-0.42,0.06-0.17c-0.12,0.26,0.09-0.17,0.13-0.25
				c0.05-0.1,0.11-0.19,0.17-0.28c0.16-0.24,0.22-0.2,0.01-0.03c0.08-0.07,0.14-0.16,0.22-0.23c0.16-0.16,0.35-0.24,0.04-0.06
				c0.09-0.05,0.18-0.11,0.27-0.17c0.04-0.03,0.1-0.04,0.14-0.08c0.17-0.14-0.34,0.09-0.12,0.05c0.25-0.05,0.49-0.14,0.74-0.19
				c-0.72,0.14,0.65-0.08,0.28-0.04c-0.26,0.03,0.13-0.01,0.2-0.02c0.25-0.02,0.5-0.01,0.76-0.01c0.38,0-0.33-0.1-0.06-0.01
				c0.07,0.03,0.17,0.04,0.24,0.06c0.33,0.06-0.13-0.07-0.11-0.06c0.03,0.01,0.19,0.13,0.21,0.12c-0.11,0.05-0.36-0.38-0.14-0.09
				c0.18,0.24-0.19-0.26-0.12-0.17c0.04,0.05,0.07,0.11,0.09,0.16c0,0-0.17-0.46-0.07-0.12c0.03,0.09,0.05,0.35,0.01,0
				c-0.04-0.38-0.01-0.04-0.01,0.05c0,0.08,0,0.15,0,0.23c0,0.04-0.01,0.08-0.01,0.12c0,0.3,0-0.12,0.03-0.19
				c-0.16,0.32-0.17,0.81-0.29,1.16c-0.07,0.21-0.16,0.42-0.24,0.63c-0.08,0.22,0.16-0.34,0.05-0.13c-0.02,0.05-0.04,0.1-0.07,0.15
				c-0.05,0.12-0.11,0.24-0.16,0.36c-0.46,0.97-1.01,1.9-1.58,2.81c-0.61,0.97-1.27,1.91-1.95,2.84c-0.27,0.37-0.55,0.74-0.83,1.11
				c-0.22,0.28,0.22-0.28,0.07-0.09c-0.06,0.07-0.11,0.15-0.17,0.22c-0.09,0.12-0.19,0.24-0.28,0.36c-0.6,0.75-0.74,1.79,0,2.53
				c0.62,0.62,1.92,0.76,2.53,0c1.25-1.56,2.44-3.18,3.53-4.86c1.2-1.86,2.52-3.99,2.86-6.21c0.18-1.23,0.07-2.5-0.84-3.44
				c-0.85-0.88-2.14-1.15-3.32-1.08c-0.14,0.01-0.28,0.02-0.42,0.04c-0.2,0.02-0.41,0.05-0.6,0.08c-0.05,0.01-0.27,0.04-0.03,0
				c0.4-0.05-0.47,0.06-0.61,0.09c-0.17,0.03-0.35,0.08-0.51,0.13c-0.73,0.25-1.37,0.62-1.94,1.14c-1,0.93-1.57,2.29-1.85,3.61
				c-0.62,2.92-0.2,5.85-0.19,8.8c0,0.97,0.82,1.79,1.79,1.79C31.37,84.11,32.19,83.29,32.19,82.32L32.19,82.32z"/>
		</g>
	</g>
</g>
</svg>
