<?xml version="1.0" encoding="utf-8"?>
<!-- Generator: Adobe Illustrator 25.2.1, SVG Export Plug-In . SVG Version: 6.00 Build 0)  -->
<svg version="1.1" id="Capa_1" xmlns="http://www.w3.org/2000/svg" xmlns:xlink="http://www.w3.org/1999/xlink" x="0px" y="0px"
	 viewBox="0 0 200 200" style="enable-background:new 0 0 200 200;" xml:space="preserve">
<style type="text/css">
	.st6{opacity:0.93;fill:#BAE8DF;}
	.st7{opacity:0.93;fill:#34B29A;}
	.st8{fill:#FFFFFF;}
	.st9{fill:#FFFFFF;stroke:#FFFFFF;stroke-width:2.0477;stroke-miterlimit:10;}
</style>
<g>
	<circle class="st6" cx="100" cy="100" r="97.5"/>
	<circle class="st7" cx="100" cy="100" r="90.67"/>
	<g>
		<g>
			<path class="st8" d="M54.6,103.44c-5.46,0-9.61-1.99-12.46-5.96c-2.85-3.98-4.28-9.82-4.28-17.52c0-8.06,1.35-14.08,4.05-18.06
				c2.7-3.98,6.88-5.96,12.52-5.96c1.7,0,3.48,0.25,5.35,0.74c1.86,0.49,3.54,1.21,5.02,2.14l-3.13,8.51
				c-2.28-1.34-4.29-2.02-6.05-2.02c-2.33,0-4.01,1.21-5.04,3.64s-1.54,6.07-1.54,10.92c0,4.74,0.51,8.29,1.52,10.63
				c1.01,2.34,2.67,3.52,4.98,3.52c2.74,0,5.61-0.96,8.6-2.88v9.62C61.26,102.55,58.08,103.44,54.6,103.44z"/>
			<path class="st8" d="M104.66,79.62c0,7.51-1.59,13.36-4.77,17.54c-3.18,4.18-7.54,6.27-13.08,6.27c-3.51,0-6.61-0.96-9.3-2.88
				c-2.69-1.92-4.76-4.68-6.21-8.29c-1.45-3.61-2.18-7.82-2.18-12.65c0-7.43,1.58-13.24,4.73-17.42c3.15-4.18,7.53-6.27,13.12-6.27
				c5.4,0,9.7,2.13,12.9,6.4C103.06,66.59,104.66,72.36,104.66,79.62z M80.31,79.62c0,4.77,0.52,8.38,1.56,10.82
				c1.04,2.44,2.71,3.66,5.02,3.66c4.39,0,6.58-4.83,6.58-14.48c0-4.8-0.53-8.38-1.58-10.76c-1.06-2.37-2.72-3.56-5-3.56
				c-2.3,0-3.98,1.19-5.02,3.56C80.83,71.24,80.31,74.83,80.31,79.62z"/>
			<path class="st8" d="M118.81,71.4h-11.95v-3.09l3.96-5.61c1.09-1.54,1.83-2.69,2.24-3.44c0.41-0.75,0.71-1.46,0.9-2.15
				c0.19-0.69,0.29-1.39,0.29-2.13c0-0.85-0.19-1.49-0.57-1.92c-0.38-0.43-0.88-0.64-1.49-0.64c-0.54,0-1.04,0.14-1.51,0.43
				c-0.47,0.28-1.04,0.8-1.71,1.54l-2.32-2.44c1.07-1.21,2.06-2.04,2.97-2.48c0.91-0.45,1.9-0.67,2.97-0.67
				c1.8,0,3.2,0.53,4.21,1.58c1.01,1.06,1.52,2.52,1.52,4.4c0,0.85-0.09,1.66-0.27,2.42c-0.18,0.76-0.46,1.53-0.83,2.29
				c-0.37,0.77-0.84,1.56-1.39,2.39c-0.56,0.83-2,2.72-4.33,5.69v0.12h7.3V71.4z"/>
		</g>
		<g>
			<g>
				<path class="st9" d="M161.68,111.59c-0.66-5-2.89-9.71-5.95-13.67c-3.06-3.97-6.85-7.36-11.07-9.97
					c-2.11-1.3-4.34-2.39-6.63-3.23c-0.57-0.22-1.16-0.37-1.74-0.56c-0.59-0.13-1.17-0.32-1.76-0.4c-1.17-0.26-2.36-0.33-3.52-0.32
					c-1.16,0.04-2.27,0.29-3.28,0.7c-0.24,0.12-0.51,0.21-0.73,0.36l-0.67,0.44l-0.6,0.54c-0.2,0.17-0.37,0.43-0.56,0.64
					c-1.49,1.76-2.41,3.94-2.66,6.28c-0.26,2.35,0.04,4.8,0.54,7.23c0.5,2.43,1.22,4.85,1.82,7.33c0.62,2.47,1,5.14,0.63,7.72
					c-0.32,2.58-1.11,5.1-2.42,7.33c-1.29,2.23-3.02,4.23-5.14,5.72l-0.8,0.55c-0.28,0.17-0.56,0.32-0.84,0.48
					c-0.55,0.34-1.16,0.57-1.76,0.83c-1.22,0.47-2.43,0.78-3.63,1.19c-4.78,1.53-9.43,3.62-13.28,6.71
					c-1.89,1.57-3.52,3.44-4.65,5.55c-1.11,2.09-1.83,4.47-1.86,6.82c-0.05,2.34,0.65,4.62,1.96,6.57c0.65,0.98,1.41,1.89,2.26,2.75
					c0.43,0.43,0.88,0.84,1.32,1.26c0.47,0.38,0.91,0.8,1.4,1.16c1.9,1.47,4.01,2.65,6.25,3.11c2.23,0.48,4.53,0.18,6.61-0.79
					c2.08-0.96,3.94-2.5,5.58-4.25c0.82-0.88,1.58-1.83,2.29-2.82c0.72-1,1.48-2.09,2.29-3.09c1.61-2.02,3.38-3.95,5.31-5.7
					c0.97-0.88,1.99-1.7,3.04-2.47c1.05-0.78,2.19-1.46,3.24-2.12c4.27-2.68,8.54-5.34,12.62-8.26c4.07-2.93,7.99-6.13,11.24-9.95
					c1.64-1.9,3.01-4.02,4.01-6.32c0.48-1.16,0.84-2.36,1.04-3.6C161.78,114.1,161.81,112.84,161.68,111.59z M161.93,111.56
					c0.15,1.27,0.14,2.55-0.04,3.82c-0.19,1.27-0.56,2.49-1,3.69c-0.92,2.39-2.29,4.57-3.81,6.61c-1.52,2.05-3.26,3.93-5.08,5.72
					c-1.82,1.79-3.73,3.48-5.7,5.09c-3.94,3.24-8.1,6.19-12.33,8.98c-1.08,0.71-2.08,1.37-3.05,2.11c-0.98,0.73-1.92,1.51-2.81,2.35
					c-1.79,1.66-3.43,3.5-4.95,5.45c-0.76,0.99-1.47,1.96-2.22,3.01c-0.77,1.06-1.6,2.09-2.5,3.06c-1.81,1.93-3.91,3.7-6.46,4.81
					c-2.52,1.14-5.49,1.48-8.2,0.83c-2.73-0.61-5.11-2.03-7.17-3.68c-0.53-0.4-1-0.86-1.5-1.29c-0.47-0.46-0.94-0.9-1.4-1.38
					c-0.92-0.96-1.77-2-2.48-3.16c-1.45-2.29-2.23-5.09-2.08-7.81c0.06-1.36,0.31-2.69,0.71-3.96c0.19-0.64,0.49-1.25,0.73-1.87
					c0.22-0.63,0.59-1.2,0.92-1.77c1.36-2.29,3.22-4.21,5.28-5.78c4.18-3.12,9.03-4.96,13.87-6.45c1.2-0.38,2.46-0.68,3.59-1.12
					c0.56-0.25,1.14-0.46,1.67-0.78c0.27-0.15,0.54-0.29,0.81-0.45l0.77-0.52c2.05-1.39,3.66-3.36,4.88-5.49
					c1.22-2.15,1.89-4.59,2.11-7.03c0.23-2.47-0.23-4.88-0.95-7.27c-0.7-2.4-1.55-4.8-2.18-7.3c-0.62-2.49-1.11-5.1-0.91-7.81
					c0.21-2.69,1.23-5.42,3.02-7.51c0.23-0.26,0.41-0.54,0.68-0.79l0.81-0.73l0.91-0.6c0.3-0.2,0.64-0.32,0.97-0.49
					c1.32-0.57,2.73-0.81,4.1-0.84c2.74-0.03,5.36,0.63,7.78,1.62c2.43,0.98,4.68,2.29,6.79,3.77c4.2,2.98,7.86,6.67,10.74,10.89
					C159.11,101.75,161.28,106.5,161.93,111.56z"/>
				<g>
					<path class="st9" d="M146.99,53.49c1.18,0.56,2.12,1.54,2.79,2.68c0.66,1.15,1.09,2.46,1.29,3.79
						c0.43,2.69-0.21,5.45-1.44,7.81c-1.28,2.35-3.12,4.33-5.19,5.91c-1.04,0.79-2.16,1.49-3.43,1.93
						c-1.26,0.41-2.72,0.56-4.11,0.06c-1.37-0.52-2.51-1.62-3.18-2.9c-0.68-1.28-0.96-2.69-1.05-4.06
						c-0.19-2.76,0.43-5.49,1.56-7.94c0.59-1.22,1.3-2.38,2.15-3.43c0.85-1.05,1.89-1.97,3.03-2.69c1.15-0.72,2.42-1.25,3.72-1.52
						C144.44,52.89,145.8,52.95,146.99,53.49z M146.89,53.71c-1.14-0.49-2.46-0.41-3.56,0.06c-1.12,0.47-2.06,1.28-2.87,2.15
						c-0.82,0.87-1.51,1.84-2.14,2.83c-0.64,0.99-1.2,2.03-1.68,3.11c-0.91,2.16-1.62,4.46-1.63,6.77c0,2.26,0.58,4.64,2.45,5.8
						c0.94,0.54,2.15,0.67,3.31,0.37c1.16-0.3,2.24-0.93,3.16-1.74c1.88-1.62,2.95-3.94,3.81-6.15c0.81-2.26,1.49-4.52,1.74-6.9
						c0.11-1.18,0.1-2.42-0.29-3.58C148.83,55.28,148.01,54.23,146.89,53.71z"/>
					<path class="st9" d="M159.67,76.63c-0.94,1.48-1.78,3.09-3.21,4.42c-0.71,0.64-1.58,1.21-2.63,1.44
						c-1.03,0.24-2.3,0.1-3.27-0.57c-0.97-0.68-1.5-1.74-1.68-2.72c-0.19-0.99-0.12-1.93-0.02-2.84c0.21-1.82,0.73-3.55,1.44-5.26
						c0.74-1.69,1.85-3.32,3.48-4.46c0.8-0.58,1.73-1.07,2.81-1.31c1.07-0.25,2.37-0.14,3.45,0.51c1.07,0.67,1.75,1.76,2.03,2.81
						c0.27,1.06,0.18,2.1-0.05,3.04C161.52,73.58,160.53,75.11,159.67,76.63z M159.46,76.51c0.87-1.5,1.16-3.33,0.91-4.94
						c-0.21-1.61-0.8-2.98-1.68-3.44c-0.45-0.23-0.99-0.31-1.63-0.24c-0.64,0.08-1.34,0.36-2,0.73c-0.66,0.37-1.29,0.86-1.89,1.4
						c-0.59,0.54-1.19,1.13-1.71,1.79c-1.02,1.31-1.78,2.94-1.82,4.63c-0.02,0.83,0.16,1.67,0.52,2.35c0.37,0.68,0.9,1.14,1.44,1.37
						c0.55,0.22,1.14,0.27,1.82,0.19c0.67-0.09,1.42-0.29,2.17-0.6C157.12,79.15,158.6,78.02,159.46,76.51z"/>
					<path class="st9" d="M167.61,85.79c-0.77,1.2-1.4,2.55-2.55,3.71c-0.58,0.56-1.3,1.05-2.18,1.25c-0.87,0.21-1.96,0.08-2.79-0.5
						c-0.83-0.6-1.26-1.51-1.39-2.33c-0.14-0.83-0.06-1.61,0.03-2.35c0.2-1.49,0.59-2.9,1.14-4.33c0.57-1.41,1.46-2.78,2.81-3.74
						c0.67-0.49,1.44-0.91,2.36-1.12c0.91-0.22,2.04-0.13,2.97,0.44c0.93,0.58,1.51,1.53,1.73,2.42c0.23,0.9,0.12,1.77-0.1,2.55
						C169.17,83.34,168.3,84.55,167.61,85.79z M167.39,85.67c0.71-1.22,0.88-2.73,0.61-4.02c-0.25-1.29-0.74-2.29-1.34-2.57
						c-0.3-0.15-0.67-0.21-1.16-0.17c-0.48,0.05-1.02,0.25-1.54,0.53c-0.52,0.28-1.02,0.66-1.51,1.08
						c-0.48,0.42-0.98,0.87-1.41,1.39c-0.86,1.03-1.5,2.34-1.51,3.7c-0.01,0.67,0.16,1.34,0.47,1.86c0.32,0.52,0.75,0.84,1.14,0.98
						c0.41,0.13,0.82,0.16,1.34,0.12c0.51-0.06,1.11-0.19,1.72-0.41C165.44,87.77,166.7,86.9,167.39,85.67z"/>
					<path class="st9" d="M170.6,94.28c-0.34,0.42-0.65,0.85-0.98,1.3c-0.33,0.46-0.69,0.94-1.17,1.34
						c-0.48,0.4-1.07,0.74-1.79,0.81c-0.71,0.09-1.58-0.12-2.18-0.69c-0.6-0.58-0.82-1.37-0.81-2.02c0-0.66,0.16-1.23,0.31-1.78
						c0.31-1.09,0.69-2.11,1.2-3.16c0.51-1.04,1.29-2.03,2.42-2.65c0.56-0.32,1.19-0.59,1.95-0.67c0.74-0.09,1.67,0.1,2.37,0.66
						c0.7,0.57,1.07,1.42,1.15,2.14c0.08,0.74-0.12,1.4-0.4,1.97C172.06,92.67,171.23,93.43,170.6,94.28z M170.41,94.13
						c0.64-0.82,0.81-1.97,0.63-2.91c-0.07-0.47-0.21-0.88-0.34-1.17c-0.14-0.3-0.28-0.44-0.41-0.52c-0.14-0.08-0.3-0.14-0.6-0.17
						c-0.3-0.02-0.68,0.05-1.07,0.19c-0.39,0.14-0.78,0.34-1.18,0.58c-0.39,0.24-0.81,0.48-1.19,0.8c-0.76,0.62-1.38,1.51-1.49,2.49
						c-0.06,0.48,0.04,0.98,0.25,1.35c0.21,0.38,0.51,0.58,0.74,0.65c0.24,0.07,0.45,0.11,0.79,0.13c0.33,0.01,0.76,0.02,1.23-0.04
						C168.72,95.43,169.8,94.98,170.41,94.13z"/>
					<path class="st9" d="M171.33,102.41c-0.27,0.33-0.51,0.69-0.76,1.08c-0.25,0.39-0.52,0.81-0.9,1.17
						c-0.38,0.35-0.87,0.66-1.49,0.73c-0.6,0.08-1.36-0.1-1.89-0.61c-0.52-0.52-0.68-1.2-0.66-1.75c0.02-0.56,0.18-1.02,0.3-1.46
						c0.27-0.88,0.55-1.71,0.92-2.6c0.39-0.87,0.99-1.72,1.94-2.25c0.46-0.27,0.99-0.51,1.64-0.58c0.64-0.08,1.45,0.08,2.07,0.57
						c0.62,0.5,0.94,1.25,1,1.88c0.06,0.64-0.14,1.19-0.39,1.65c-0.26,0.46-0.6,0.83-0.92,1.17
						C171.88,101.75,171.59,102.07,171.33,102.41z M171.13,102.25c0.51-0.65,0.59-1.61,0.36-2.34c-0.1-0.36-0.24-0.66-0.35-0.85
						c-0.11-0.19-0.21-0.23-0.25-0.25c-0.05-0.01-0.11-0.05-0.31-0.08c-0.19-0.02-0.48,0.01-0.77,0.1c-0.57,0.2-1.23,0.53-1.89,0.97
						c-0.63,0.45-1.15,1.15-1.21,1.92c-0.04,0.38,0.07,0.77,0.26,1.04c0.19,0.27,0.44,0.38,0.58,0.38c0.15,0,0.26,0.02,0.49,0.05
						c0.23,0.02,0.55,0.06,0.92,0.05C169.74,103.24,170.66,102.94,171.13,102.25z"/>
				</g>
			</g>
		</g>
	</g>
</g>
</svg>
