<?xml version="1.0" encoding="utf-8"?>
<!-- Generator: Adobe Illustrator 25.2.1, SVG Export Plug-In . SVG Version: 6.00 Build 0)  -->
<svg version="1.1" id="Capa_1" xmlns="http://www.w3.org/2000/svg" xmlns:xlink="http://www.w3.org/1999/xlink" x="0px" y="0px"
	 viewBox="0 0 200 200" style="enable-background:new 0 0 200 200;" xml:space="preserve">
<style type="text/css">
	.st0{fill:#FFFFFF;stroke:#FFFFFF;stroke-width:0.3377;stroke-miterlimit:10;}
</style>
<g id="_x31_2_00000036958147959099529770000014623342971062239659_">
	<path class="st0" d="M189.94,120.87c0.4,0.45,1.18-0.11,0.8-0.63c-6.83-9.16-3.85-21.05-0.41-30.91c3.22-9.21,6.3-18.15,5.17-28.07
		c-0.92-8.11-4.01-18.45-11.71-22.63c-6.44-3.5-14.68-1.66-20.27,2.65c-7.14,5.5-10.09,14.63-11.33,23.28
		c-2.87-4.31-5.71-8.65-8.49-13.01c-0.02-0.03-0.05-0.05-0.07-0.07c0,0,0-0.01,0.01-0.01c0.2-0.32-0.02-0.59-0.3-0.67
		c-0.06-0.1-0.16-0.19-0.29-0.23c-3.45-1.08-6.98-1.15-10.49-0.29c-0.03,0.01-0.04,0.02-0.07,0.03c0.07-0.86,0.12-1.73,0.14-2.6
		c0.06-2.74,0.29-7.04-1.89-9.15c-2.4-2.32-5.11,0.45-7.79,0.28c-0.04,0-0.07,0.01-0.11,0.02c-0.03,0-0.06,0.01-0.08,0.01
		c-0.01,0-0.03,0-0.04,0.01c-0.5,0.09-0.99,0.44-1.31,1.13c-0.95,2.02-1.17,4.7-1.69,6.87c-0.61,2.52-1.22,5.03-1.83,7.55
		c-9.16,3.92-17.94,8.48-24.01,16.74c-0.15,0.21-0.12,0.44,0,0.61c-0.02,0.38,0.08,0.76,0.31,1.11c-0.01,0.06-0.02,0.11,0,0.18
		c2.8,14.03,5.44,28.09,7.91,42.17c0.11,0.65,1.13,0.57,1.02-0.08c-2.3-13.15-4.76-26.27-7.36-39.36c1.48,0.82,3.23,0.82,4.71-0.04
		c0.23-0.13-0.01-0.47-0.24-0.33c-1.41,0.82-3.12,0.79-4.49-0.09c-0.03-0.02-0.05-0.03-0.08-0.03c-0.1-0.5-0.19-1-0.29-1.5
		c1.72,0.61,4.34-0.3,5.79-0.59c6.85-1.32,13.54-3.29,20.04-5.82c-0.18,1.13-0.38,2.25-0.58,3.38c-0.05,0.26,0.09,0.44,0.27,0.53
		c-0.15,1.36,0.89,2.63,2.33,2.76c2.52,0.21,3.9-2.22,4.81-4.17c0.1-0.23,0.04-0.43-0.1-0.56c0.62-1.92,1.25-3.86,1.83-5.81
		c5.47-2.38,9.98-6.16,13.28-11.1c2.93,4.6,5.93,9.16,8.95,13.7c-0.01,0.09-0.03,0.19-0.04,0.28c-0.05,0.4,0.31,0.62,0.62,0.59
		c1.43,2.14,2.87,4.28,4.31,6.41c0,0.04,0,0.07,0,0.11c0,0.13,0.1,0.18,0.2,0.18c8.76,12.95,17.69,25.79,26.26,38.86
		c0.03,0.13,0.05,0.26,0.08,0.39c0.05,0.24,0.22,0.34,0.4,0.34c0.4,0.61,0.8,1.22,1.19,1.83c0,0,0,0,0,0
		c0.4,0.61,0.79,1.22,1.19,1.84c-0.17-0.24-0.56-0.37-0.84-0.08c-3.76,3.92-7.8,7.53-12.09,10.81c0.82-1.38,1.64-2.76,2.47-4.14
		c0.13-0.23-0.24-0.4-0.37-0.17c-0.98,1.65-1.97,3.3-2.95,4.95c-3.89,2.92-7.97,5.57-12.21,7.93c-0.05-0.03-0.1-0.04-0.17-0.02
		c-0.09,0.03-0.13,0.11-0.13,0.19c-3.96,2.19-8.05,4.12-12.24,5.8c1.49-1.5,2.77-3.18,3.81-5.03c0.13-0.23-0.24-0.4-0.37-0.17
		c-1.18,2.1-2.66,3.96-4.42,5.59c-5.72,2.22-11.63,3.97-17.65,5.2c2.1-1.72,4.01-3.64,5.71-5.76c0.16-0.2-0.15-0.47-0.32-0.26
		c-1.76,2.2-3.75,4.19-5.95,5.96c-0.07,0.05-0.08,0.12-0.07,0.19c-0.86,0.17-1.71,0.33-2.57,0.48c-0.07-0.03-0.15-0.02-0.21,0.04
		c-5.53,0.94-11.14,1.46-16.79,1.51c-0.86-5.53-1.73-11.06-2.64-16.59c-0.02-0.14-0.09-0.24-0.18-0.31
		c3.08-5.64,2.01-12.3-2.78-16.72c-0.01-0.16-0.08-0.32-0.29-0.4c-12.26-5.03-24.51-10.07-36.77-15.1
		c-0.09-0.19-0.26-0.28-0.43-0.27c-1.89-3.48-3.78-6.95-5.67-10.43c-0.06-0.1-0.13-0.16-0.21-0.19c-0.02-0.07-0.05-0.14-0.11-0.21
		c-4.51-5.05-10.58,2.81-12.7,6.45c-2.46,4.23-6.05,13.27-0.8,16.83c0.09,0.06,0.18,0.08,0.27,0.09c0.07,0.27,0.31,0.47,0.62,0.3
		c0.04-0.02,0.08-0.04,0.12-0.06c4.76-0.36,9.47-1.03,14.14-2.02c0.12,0.13,0.3,0.19,0.51,0.09c0.09-0.04,0.17-0.09,0.26-0.14
		c14.17,7.46,28.33,14.93,42.5,22.39c0.06,0.3,0.36,0.51,0.62,0.44c1.3,7.96,2.55,15.92,3.75,23.89c-0.44,0.08-0.66,0.75-0.15,0.95
		c0.63,0.25,1.27,0.47,1.91,0.68c-0.02,0.05-0.04,0.09-0.07,0.14c-0.12,0.24,0.26,0.41,0.37,0.17c0.03-0.06,0.06-0.13,0.09-0.19
		c0.31,0.1,0.63,0.19,0.95,0.28c0.05,0.03,0.11,0.05,0.17,0.04c13.99,3.85,29.91-1.53,42.67-7.02c8.12-3.49,15.87-7.85,23.06-12.99
		c5.37-3.84,11.51-8.17,13.62-14.7c0.39,0.16,0.9-0.32,0.61-0.78C191.49,123.31,190.72,122.09,189.94,120.87z M121.21,45
		c0.01,0,0.02,0,0.02,0.01c0.08,0.07,0.19,0.08,0.27-0.03c0.7-1.08,1.39-2.15,2.09-3.23c0.14-0.22-0.17-0.48-0.31-0.26
		c-0.65,1-1.29,1.99-1.94,2.99c0.02-0.1,0.05-0.2,0.07-0.31c0.19-0.77,0.23-2.25,0.7-2.87c0.07-0.97,0.68-0.92,1.84,0.13
		c-0.02,0.4-0.03,0.81-0.05,1.21c-0.06-0.01-0.11,0.01-0.16,0.07c-0.99,1.36-1.97,2.71-2.96,4.07
		C120.92,46.19,121.07,45.6,121.21,45z M120.53,47.83c1.11-1.53,2.23-3.06,3.34-4.59c-0.03,0.65-0.08,1.3-0.12,1.95
		c-1.24,1.85-2.48,3.71-3.72,5.56c-0.14,0.22,0.17,0.48,0.32,0.26c1.12-1.67,2.23-3.34,3.35-5.01c-0.02,0.34-0.05,0.69-0.08,1.03
		l0,0c-1.34,1.84-2.68,3.67-4.02,5.51c-0.15,0.21,0.16,0.48,0.32,0.26c1.22-1.67,2.43-3.33,3.65-5c-0.03,0.31-0.05,0.62-0.07,0.94
		c-0.02,0.23-0.04,0.45-0.06,0.67c-0.08-0.09-0.21-0.13-0.3,0c-0.84,1.28-1.68,2.57-2.51,3.85c-0.52,0.22-1.05,0.44-1.57,0.65
		C119.54,51.89,120.03,49.86,120.53,47.83z M123.4,49.74c-0.06,0.72-0.12,1.43-0.19,2.15c-0.08-0.04-0.18-0.04-0.25,0.04
		c-0.5,0.53-1.01,1.07-1.51,1.6c-0.04-0.15-0.14-0.28-0.29-0.34C121.91,52.03,122.65,50.89,123.4,49.74z M100.35,72.31
		c-0.24,0.05-0.49,0.1-0.73,0.14c-0.65,0.12-1.29,0.23-1.94,0.33c-0.34,0.11-0.64,0.12-0.91,0.06c1.06-1.88,2.11-3.75,3.17-5.63
		c0.13-0.23-0.24-0.4-0.37-0.17c-1.06,1.89-2.12,3.77-3.18,5.65c-0.44-0.25-0.79-0.75-1.04-1.53c0.19-0.13,0.24-0.31,0.2-0.48
		c2.23-2.79,4.78-5.14,7.56-7.17c-1.82,2.94-3.63,5.88-5.45,8.82c-0.14,0.23,0.24,0.4,0.37,0.17c1.82-2.95,3.64-5.9,5.46-8.85
		c0.1-0.17-0.07-0.3-0.23-0.27c0.81-0.59,1.65-1.14,2.49-1.68c-1.79,3.5-3.59,7-5.39,10.49C100.35,72.25,100.35,72.28,100.35,72.31z
		 M102.52,71.89c-0.56,0.12-1.13,0.22-1.69,0.33c1.87-3.65,3.74-7.29,5.61-10.94c0.39-0.24,0.78-0.47,1.17-0.7
		c-1.61,3.58-3.22,7.17-4.83,10.75c-0.11,0.24,0.26,0.41,0.37,0.17c1.69-3.76,3.38-7.52,5.07-11.28c0.95-0.54,1.92-1.06,2.9-1.56
		c-2.2,4.26-4.39,8.52-6.59,12.77C103.86,71.6,103.19,71.76,102.52,71.89z M105.05,71.33c2.23-4.33,4.46-8.65,6.7-12.98
		c0.61-0.3,1.22-0.6,1.83-0.89c-2.35,4.5-4.7,9.01-7.05,13.52C106.04,71.1,105.54,71.21,105.05,71.33z M109.08,70.32
		c-0.67,0.18-1.35,0.35-2.02,0.52c2.38-4.55,4.75-9.11,7.13-13.66c0.94-0.44,1.89-0.87,2.85-1.28c-2.29,4.9-4.82,9.68-7.59,14.33
		C109.33,70.25,109.21,70.29,109.08,70.32z M110.02,70.05c2.77-4.67,5.31-9.48,7.59-14.41c0.1-0.04,0.21-0.09,0.31-0.13
		c0.27,0.17,0.72,0.1,0.81-0.31c0-0.01,0.01-0.03,0.01-0.04c0.34-0.14,0.68-0.29,1.02-0.43c-2.52,4.9-5.04,9.8-7.55,14.7
		C111.49,69.64,110.75,69.85,110.02,70.05z M118.46,67.32c-0.76,0.28-1.52,0.54-2.28,0.8c2.03-4.55,4.07-9.11,6.1-13.67
		c0.11-0.24-0.26-0.41-0.37-0.17c-2.09,4.68-4.18,9.35-6.26,14.03c-0.96,0.32-1.91,0.63-2.88,0.93c2.53-4.92,5.06-9.84,7.59-14.77
		c0.2-0.08,0.4-0.17,0.61-0.26c0.07,0.1,0.23,0.16,0.34,0.04c0.62-0.66,1.24-1.31,1.86-1.97c-0.2,2.07-0.43,4.15-0.69,6.21
		c-1.33,2.92-2.67,5.83-4,8.75C118.46,67.28,118.46,67.3,118.46,67.32z M121.37,66.25c-0.05,0-0.1,0.01-0.16,0.03
		c-0.74,0.29-1.48,0.57-2.23,0.85c1.11-2.42,2.21-4.84,3.32-7.25C122.02,62,121.71,64.12,121.37,66.25z M129.61,60.3
		c-0.07-0.1-0.22-0.15-0.33-0.03c-1.59,1.85-3.19,3.71-4.78,5.56c-0.17,0.2,0.14,0.46,0.32,0.26c1.57-1.82,3.14-3.65,4.71-5.47
		c-0.8,2.95-1.74,5.86-2.67,8.75c-0.06,0.18-0.02,0.34,0.07,0.47c-0.47,1.01-1,2.06-1.95,2.7c-0.62,0.42-1.48,0.7-2.21,0.35
		c-0.67-0.32-1.07-1.09-0.78-1.81c0.12-0.3-0.04-0.55-0.26-0.66c0.89-5.06,1.63-10.14,2.19-15.25c0.28-2.56,0.52-5.13,0.71-7.69
		c0.16-2.09,0.76-4.73,0.3-6.81c-0.08-0.36-0.22-0.67-0.4-0.93c0.21-0.04,0.43-0.1,0.65-0.17c0.62-0.19,1.46-0.72,2.11-0.77
		c1.66-0.14,3.22,0.8,3.72,2.28c1.02,3.01,0.72,6.89,0.39,9.98C131.06,54.19,130.41,57.26,129.61,60.3z M131.46,61.55
		c1.06-3.46,2.11-6.91,3.17-10.37c0.08-0.25-0.33-0.32-0.4-0.07c-1.07,3.49-2.14,6.99-3.2,10.48c-0.02,0.07,0,0.13,0.04,0.17
		c-0.31,0.16-0.62,0.31-0.93,0.46c1.04-3.65,1.89-7.35,2.27-11.12c0.12,0.12,0.29,0.18,0.49,0.13c1.2-0.29,2.41-0.46,3.61-0.51
		c-1.02,3.23-2.05,6.46-3.07,9.69C132.79,60.81,132.13,61.2,131.46,61.55z M139.2,55.64c0.53-1.38,1.05-2.76,1.58-4.14
		c0.09-0.24-0.28-0.42-0.37-0.17c-0.6,1.58-1.21,3.17-1.81,4.75c-0.03,0.07-0.02,0.13,0.01,0.18c-0.6,0.61-1.23,1.19-1.89,1.75
		c0.72-2.2,1.43-4.4,2.15-6.6c0.08-0.25-0.29-0.42-0.37-0.17c-0.77,2.37-1.54,4.74-2.31,7.11c-0.01,0.04-0.01,0.07-0.01,0.11
		c-0.71,0.57-1.45,1.11-2.21,1.62c0.99-3.12,1.98-6.24,2.96-9.35c1.84-0.03,3.68,0.22,5.5,0.74
		C141.47,52.96,140.39,54.35,139.2,55.64z M46.99,112.3c-0.03-0.03-0.05-0.07-0.1-0.1c-3.6-2.44-2.23-8.12-0.71-11.94
		c-0.03,0.15-0.04,0.31-0.02,0.47c0.03,0.21,0.32,0.23,0.39,0.08c0.12,0.32,0.34,0.61,0.63,0.79c0.81,0.51,1.72-0.05,1.9-0.92
		c0.19-0.89-0.36-1.85-1.34-1.8c-0.53,0.02-1.01,0.34-1.31,0.77c0.14-0.32,0.27-0.63,0.4-0.91c1.44-3.11,7.11-12.21,11.36-9.09
		c-0.11,0.09-0.19,0.23-0.16,0.42C59.42,99.16,55.1,107.94,46.99,112.3z M48.17,100.19c0.04-0.14-0.08-0.33-0.26-0.26
		c-0.06,0.02-0.1,0.07-0.12,0.12c-0.13-0.06-0.32,0-0.29,0.19c0.06,0.38,0.12,0.75,0.18,1.13c-0.12-0.03-0.23-0.07-0.35-0.16
		c-0.45-0.35-0.66-1.05-0.24-1.49c0.06-0.06,0.06-0.13,0.03-0.19c0.13-0.09,0.27-0.16,0.42-0.19c0.76-0.19,1.26,0.48,1.16,1.18
		c-0.03,0.18-0.09,0.34-0.19,0.49c-0.08-0.23-0.17-0.46-0.25-0.7C48.24,100.24,48.21,100.21,48.17,100.19z M48.24,101.26
		c-0.05,0.03-0.09,0.05-0.14,0.07c-0.03-0.18-0.06-0.37-0.09-0.55c0.05,0.13,0.09,0.25,0.14,0.38
		C48.16,101.21,48.2,101.24,48.24,101.26z M62.17,110.08c-0.07-0.03-0.14-0.07-0.21-0.11c-0.32-0.17-0.58,0.03-0.67,0.29
		c-3.98,0.84-7.99,1.46-12.03,1.84c7.15-4.75,11-13,9.86-21.67c0.01,0,0.03,0.01,0.04,0.01c0,0.08,0.02,0.16,0.06,0.24
		c2.02,3.72,4.05,7.44,6.08,11.16c0.05,0.09,0.12,0.15,0.19,0.18C66.23,105.11,64.89,108.45,62.17,110.08z M105.05,132.68
		c-2.04-1.07-4.07-2.15-6.11-3.22c0.07,0,0.13-0.03,0.17-0.11c0.69-1.61,1.37-3.22,2.05-4.84c0.1-0.24-0.27-0.42-0.37-0.17
		c-0.69,1.61-1.37,3.22-2.05,4.84c-0.03,0.07-0.02,0.14,0.02,0.19c-2.9-1.53-5.79-3.05-8.69-4.58c0.7-1.36,1.39-2.72,2.09-4.07
		c0.12-0.23-0.25-0.41-0.37-0.17c-0.69,1.35-1.38,2.7-2.08,4.05c-0.38-0.2-0.76-0.4-1.14-0.6c0.25-0.09,0.11-0.47-0.14-0.38
		c-0.12,0.04-0.15,0.15-0.12,0.25c-0.44-0.23-0.87-0.46-1.31-0.69c0.01-0.01,0.03-0.03,0.04-0.04c0.67-1.15,1.34-2.3,2.01-3.46
		c0.13-0.23-0.24-0.4-0.37-0.17c-0.67,1.15-1.34,2.3-2.01,3.46c-0.01,0.01-0.01,0.02-0.01,0.04c-0.95-0.5-1.89-1-2.84-1.5
		c0.65-1.12,1.3-2.24,1.95-3.35c0.13-0.23-0.24-0.4-0.37-0.17c-0.65,1.11-1.29,2.23-1.94,3.34c-0.74-0.39-1.47-0.78-2.21-1.16
		c0.03-0.02,0.05-0.04,0.07-0.08c0.64-1.23,1.28-2.46,1.93-3.7c0.12-0.24-0.25-0.41-0.37-0.17c-0.64,1.23-1.28,2.46-1.92,3.7
		c-0.02,0.03-0.02,0.06-0.02,0.08c-0.32-0.17-0.65-0.34-0.97-0.51c0.09-0.14-0.04-0.38-0.24-0.3c-0.06,0.02-0.1,0.07-0.12,0.12
		c-0.28-0.15-0.57-0.3-0.85-0.45c0.77-1.36,1.55-2.71,2.32-4.06c0.13-0.23-0.24-0.4-0.37-0.17c-0.77,1.35-1.54,2.7-2.31,4.05
		c-3.14-1.65-6.27-3.3-9.41-4.96c0.62-0.94,1.25-1.88,1.87-2.82c0.14-0.22-0.17-0.48-0.32-0.26c-0.64,0.96-1.28,1.93-1.91,2.89
		c-0.39-0.21-0.78-0.41-1.17-0.62c1.16-0.74,2.01-1.82,2.46-3.12c0.08-0.25-0.29-0.42-0.37-0.17c-0.43,1.25-1.24,2.28-2.36,2.99
		c-0.05,0.03-0.08,0.08-0.08,0.12c-1.3-0.68-2.6-1.37-3.9-2.05c2.68-1.92,4.04-5.31,3.36-8.56c11.89,4.88,23.79,9.77,35.68,14.65
		c0.03,0.05,0.06,0.11,0.12,0.16C106.96,120.95,108.07,127.37,105.05,132.68z M187.66,117.03c0.19,0.41,0.39,0.82,0.61,1.23
		c-0.27-0.41-0.53-0.83-0.8-1.24C187.53,117.06,187.6,117.06,187.66,117.03z M157.36,72.28c0.08-0.49,0.2-0.97,0.39-1.44
		c0.21,1.09,0.48,2.16,0.82,3.22C158.17,73.46,157.76,72.87,157.36,72.28z M182.87,109.96c-7.31-11.08-14.86-22-22.32-32.99
		c0.08-0.12,0.12-0.27,0.04-0.44c-2.96-6.73-3.12-14.44-0.43-21.29c2.7-6.87,10.34-16.19,18.66-11.97
		c7.3,3.71,9.18,14.08,9.18,21.43c0,8.16-2.1,16.07-3.71,24C182.86,95.73,181.86,102.87,182.87,109.96z M186.12,113.08
		c-0.03-0.26-0.44-0.23-0.41,0.03c0.06,0.48,0.11,0.96,0.17,1.44c-0.21-0.33-0.43-0.66-0.65-0.99c-0.04-0.35-0.08-0.71-0.11-1.06
		c0.01-0.03,0.02-0.06,0.01-0.1c-0.03-0.17-0.05-0.34-0.08-0.51c-0.05-0.46-0.1-0.92-0.14-1.38c-0.01-0.04-0.02-0.08-0.04-0.1
		c-2.11-20.17,12.62-40.54,3.74-60.21c-2.05-4.54-5.31-8.49-9.73-10.86c-0.23-0.13-0.41,0.25-0.17,0.37
		c8.63,4.63,12.25,14.83,12.28,24.14c0.04,10.72-3.76,20.92-5.67,31.36c-1.01,5.51-1.49,11.14-0.67,16.71
		c0.03,0.3,0.06,0.6,0.09,0.9c-0.15-0.24-0.31-0.47-0.46-0.71c-3.89-18.36,7.46-36.1,4.15-54.5c-1.15-6.37-4.57-14.6-11.66-16.15
		c-7.4-1.62-13.7,5.33-16.63,11.29c-2.64,5.39-3.48,11.51-2.51,17.36c-0.01,0.01-0.01,0.02-0.02,0.03
		c-0.27,0.53-0.46,1.08-0.58,1.65c-0.3-0.44-0.6-0.88-0.9-1.33c0.12,0.02,0.25-0.06,0.25-0.21c-0.02-0.81-0.04-1.62-0.07-2.43
		c-0.01-0.26-0.42-0.23-0.41,0.03c0.02,0.79,0.04,1.58,0.07,2.36c-0.23-0.34-0.46-0.69-0.69-1.03c0.25-1.14,0.5-2.29,0.76-3.43
		c0.06-0.26-0.35-0.33-0.4-0.07c-0.22,1.01-0.45,2.02-0.67,3.03c-0.14-0.2-0.27-0.4-0.41-0.61c0.18-1.2,0.35-2.41,0.53-3.61
		c0.03-0.18-0.16-0.27-0.29-0.22c0.08-0.47,0.16-0.93,0.23-1.4c0.04-0.26-0.36-0.33-0.4-0.07c-0.24,1.44-0.48,2.88-0.72,4.32
		c-0.28-0.43-0.57-0.85-0.86-1.28c1.06-8.29,3.54-17.14,10-22.86c5.96-5.27,15.73-7.38,22.33-2.06c7.44,6,9.74,18.09,9.32,27.12
		c-0.43,9.24-4.5,17.59-7.1,26.31c-2.08,6.96-3.02,14.81-0.38,21.6c-0.08,0.04-0.13,0.13-0.09,0.24c0.08,0.22,0.16,0.44,0.24,0.65
		c-0.33-0.51-0.65-1.02-0.98-1.53C186.3,114.58,186.21,113.83,186.12,113.08z M110.52,158.42c0.99-1.62,1.73-3.36,2.18-5.21
		c0.06-0.26-0.34-0.33-0.4-0.07c-0.45,1.83-1.18,3.55-2.17,5.14c0,0-0.01,0-0.01,0c-0.08-0.53-0.16-1.06-0.24-1.58
		c0.05-0.01,0.09-0.05,0.12-0.11c0.7-1.74,1.39-3.47,2.09-5.21c0.1-0.24-0.27-0.42-0.37-0.17c-0.65,1.61-1.29,3.22-1.93,4.83
		c-0.26-1.69-0.52-3.39-0.78-5.08c2.06-0.02,4.12-0.11,6.17-0.25c-0.03,0.02-0.05,0.04-0.07,0.08c-1.28,2.63-2.56,5.26-3.84,7.89
		C111,158.58,110.76,158.5,110.52,158.42z M111.63,158.79c1.27-2.61,2.55-5.23,3.82-7.84c0.06-0.12-0.01-0.22-0.1-0.27
		c0.55-0.04,1.11-0.08,1.66-0.13c-1.51,2.83-3.03,5.65-4.54,8.48C112.19,158.95,111.91,158.87,111.63,158.79z M112.87,159.14
		c1.54-2.88,3.08-5.76,4.63-8.63c0.38-0.03,0.76-0.07,1.15-0.11c-1.23,3.16-2.76,6.18-4.59,9.03
		C113.66,159.34,113.26,159.24,112.87,159.14z M131.08,159.56c-1.37,0.23-2.74,0.42-4.12,0.55c1.66-3.42,3.32-6.85,4.98-10.27
		c0.12-0.24-0.26-0.41-0.37-0.17c-1.69,3.5-3.39,6.99-5.08,10.49c-2.83,0.24-5.65,0.25-8.42-0.05c2-2.84,3.49-5.98,4.4-9.34
		c0.07-0.26-0.34-0.33-0.4-0.07c-0.91,3.37-2.42,6.53-4.46,9.36c-1.05-0.13-2.09-0.3-3.12-0.52c1.85-2.9,3.4-5.96,4.63-9.17
		c0.47-0.05,0.94-0.11,1.41-0.17c-1.48,3.01-2.96,6.03-4.43,9.04c-0.12,0.24,0.25,0.41,0.37,0.17c1.49-3.04,2.98-6.07,4.47-9.11
		c0.03-0.06,0.03-0.11,0.01-0.16c1.4-0.17,2.79-0.37,4.18-0.59c-1.47,3.34-2.94,6.69-4.41,10.04c-0.11,0.24,0.26,0.42,0.37,0.17
		c1.51-3.43,3.01-6.86,4.52-10.29c3.44-0.58,6.84-1.32,10.19-2.22c0,0,0,0,0,0.01c-1.57,4.06-3.13,8.12-4.7,12.18
		C131.06,159.47,131.06,159.52,131.08,159.56z M147.44,154.94c-0.01-0.03-0.02-0.07-0.04-0.09c0.11,0.03,0.24-0.01,0.27-0.15
		c0.82-3.67,1.64-7.35,2.46-11.02c0.06-0.26-0.34-0.33-0.4-0.07c-0.82,3.67-1.64,7.34-2.46,11.02c-0.02,0.06,0,0.11,0.03,0.15
		c-0.04-0.01-0.08-0.01-0.12,0c-0.14,0.05-0.15,0.19-0.1,0.29c-1.66,0.62-3.36,1.21-5.09,1.76c0.03-0.02,0.06-0.04,0.08-0.08
		c1.66-3.64,2.82-7.47,3.47-11.41c0.04-0.26-0.36-0.34-0.4-0.07c-0.64,3.91-1.79,7.7-3.43,11.32c-0.08,0.16,0.07,0.29,0.21,0.28
		c-0.67,0.21-1.34,0.42-2.01,0.62c0.01-0.13-0.1-0.28-0.27-0.22c-0.15,0.06-0.16,0.23-0.08,0.33c-0.68,0.2-1.36,0.39-2.04,0.57
		c1.74-3.95,3.09-8.04,4.04-12.25c0.06-0.26-0.34-0.33-0.4-0.07c-0.95,4.19-2.3,8.27-4.04,12.21c-0.04,0.08-0.02,0.15,0.03,0.21
		c-1.87,0.49-3.76,0.91-5.66,1.24c1.55-4.03,3.11-8.05,4.66-12.08c0.04-0.11-0.01-0.21-0.09-0.26c1.08-0.29,2.16-0.61,3.23-0.94
		c-1.22,3.84-2.45,7.68-3.67,11.52c-0.08,0.25,0.29,0.42,0.37,0.17c1.26-3.94,2.51-7.89,3.77-11.83c5.35-1.66,10.57-3.73,15.61-6.18
		c-0.71,4.25-1.42,8.49-2.12,12.74C151.37,153.42,149.43,154.2,147.44,154.94z M153.74,152.43c-0.02,0.01-0.03,0.01-0.05,0.02
		c0.7-4.17,1.39-8.34,2.09-12.5c0.02-0.09-0.03-0.16-0.09-0.2c0.68-0.34,1.36-0.68,2.04-1.03c-0.76,4.31-1.51,8.63-2.27,12.94
		c0,0.01,0,0.02,0,0.03C154.89,151.93,154.31,152.18,153.74,152.43z M155.9,151.48c0.76-4.34,1.52-8.67,2.28-13.01
		c1.31-0.69,2.6-1.4,3.88-2.14c-0.58,3.6-1.16,7.2-1.74,10.8c-0.04,0.26,0.36,0.33,0.4,0.07c0.6-3.71,1.2-7.42,1.79-11.13
		c0.74-0.43,1.47-0.87,2.2-1.32c-0.58,3.61-1.16,7.23-1.74,10.84c-0.04,0.26,0.36,0.33,0.4,0.07c0.6-3.73,1.19-7.46,1.79-11.19
		c0.42-0.26,0.83-0.53,1.25-0.79c-0.65,3.8-1.29,7.6-1.94,11.4c-0.04,0.26,0.36,0.34,0.4,0.07c0.67-3.92,1.33-7.84,2-11.77
		c0.22-0.14,0.44-0.28,0.66-0.43c0.07,3.38-0.33,6.74-1.2,10.02c-0.07,0.25,0.34,0.33,0.4,0.07c0.9-3.39,1.29-6.87,1.2-10.37
		c1.06-0.7,2.1-1.42,3.13-2.16c-0.09,0.16-0.19,0.32-0.29,0.48c-0.13,0.21,0.18,0.37,0.34,0.21c-0.86,4.32-1.72,8.63-2.58,12.95
		c-0.05,0.26,0.35,0.33,0.4,0.07c0.92-4.62,1.84-9.24,2.76-13.86c0.01-0.04,0-0.08-0.01-0.11c0.07-0.11,0.13-0.22,0.2-0.33
		c0.1-0.08,0.21-0.16,0.31-0.23c0,0,0,0,0,0c-0.35,4.3-0.7,8.6-1.04,12.9c-0.02,0.26,0.38,0.34,0.4,0.07c0.35-4.3,0.7-8.6,1.04-12.9
		c0.01-0.13-0.09-0.22-0.19-0.23c0.6-0.45,1.21-0.9,1.8-1.35c-0.4,4.66-0.8,9.33-1.21,13.99
		C167.58,145.74,161.85,148.85,155.9,151.48z M173.46,141.91c0.4-4.69,0.81-9.37,1.21-14.06c0.48-0.38,0.97-0.75,1.44-1.14
		c-0.21,4.73-0.73,9.43-1.57,14.09c-0.03,0.14,0.09,0.23,0.2,0.23C174.32,141.33,173.89,141.62,173.46,141.91z M175.86,140.29
		c-0.31,0.21-0.62,0.41-0.92,0.62c0-0.01,0.01-0.02,0.01-0.03c0.86-4.8,1.39-9.65,1.58-14.52c1.83-1.49,3.62-3.05,5.35-4.67
		c0.23,4.64,0.05,9.29-0.54,13.91c-0.03,0.26,0.37,0.34,0.4,0.07c0.6-4.75,0.78-9.54,0.53-14.32c0-0.01,0-0.01,0-0.02
		c1.32-1.25,2.61-2.52,3.87-3.84c0.17-0.17,0.17-0.37,0.08-0.52c1.57,2.43,3.13,4.87,4.67,7.33
		C189,131.55,181.67,136.27,175.86,140.29z"/>
	<path class="st0" d="M124.79,70.09c-0.23,0.12-0.46,0.24-0.69,0.35c-0.03-0.23,0.01-0.46,0.13-0.68c0.14-0.24-0.01-0.57-0.25-0.68
		c-0.27-0.13-0.54,0.01-0.68,0.25c-0.38,0.66-0.32,1.5,0.12,2.11c0.12,0.17,0.4,0.29,0.59,0.18c0.37-0.19,0.75-0.39,1.12-0.58
		c0.25-0.13,0.41-0.37,0.31-0.66C125.37,70.16,125.04,69.96,124.79,70.09z"/>
	<path class="st0" d="M97.13,79.45c0.25-0.09,0.11-0.47-0.14-0.38C96.74,79.15,96.88,79.54,97.13,79.45z"/>
	<path class="st0" d="M127.6,64.06c-1.13,1.6-2.27,3.21-3.4,4.81c-0.15,0.21,0.16,0.48,0.32,0.26c1.13-1.6,2.27-3.21,3.4-4.81
		C128.06,64.1,127.75,63.84,127.6,64.06z"/>
	<path class="st0" d="M124.59,67.77c1.22-1.63,2.45-3.25,3.67-4.88c0.16-0.21-0.16-0.47-0.31-0.26c-1.22,1.63-2.45,3.25-3.67,4.88
		C124.11,67.72,124.43,67.99,124.59,67.77z"/>
	<path class="st0" d="M129.25,58.11c-1.04,1.92-2.41,3.58-4.09,4.97c-0.2,0.17,0.03,0.5,0.24,0.34c1.73-1.44,3.14-3.16,4.22-5.14
		C129.75,58.05,129.38,57.88,129.25,58.11z"/>
	<path class="st0" d="M129.39,56.12c-1.36,1.77-2.71,3.53-4.07,5.3c-0.16,0.21,0.16,0.47,0.32,0.26c1.36-1.77,2.71-3.53,4.07-5.3
		C129.87,56.17,129.55,55.91,129.39,56.12z"/>
	<path class="st0" d="M130.29,53.34c-1.46,1.98-2.92,3.97-4.37,5.95c-0.16,0.21,0.16,0.48,0.31,0.26c1.46-1.98,2.92-3.97,4.37-5.95
		C130.76,53.39,130.44,53.13,130.29,53.34z"/>
	<path class="st0" d="M126.5,57.29c1.31-1.65,2.61-3.31,3.92-4.96c0.16-0.21-0.15-0.47-0.32-0.26c-1.31,1.65-2.61,3.31-3.92,4.96
		C126.03,57.23,126.34,57.5,126.5,57.29z"/>
	<path class="st0" d="M126.76,54.59c-0.25,0.09-0.11,0.48,0.14,0.39C127.15,54.89,127.01,54.5,126.76,54.59z"/>
	<path class="st0" d="M130.57,48.88c-0.98,1.54-1.97,3.08-2.95,4.62c-0.14,0.22,0.17,0.48,0.32,0.26c0.98-1.54,1.97-3.08,2.95-4.62
		C131.02,48.92,130.71,48.66,130.57,48.88z"/>
	<path class="st0" d="M126.95,51.96c1.32-0.78,2.34-1.92,2.97-3.32c0.11-0.24-0.26-0.41-0.37-0.17c-0.61,1.34-1.57,2.41-2.84,3.16
		C126.49,51.76,126.73,52.09,126.95,51.96z"/>
	<path class="st0" d="M131.02,43.31c-1.33,1.84-2.66,3.68-3.99,5.52c-0.15,0.21,0.16,0.48,0.32,0.26c1.33-1.84,2.66-3.68,3.99-5.52
		C131.49,43.36,131.18,43.1,131.02,43.31z"/>
	<path class="st0" d="M129.38,42.55c-0.73,0.99-1.46,1.98-2.19,2.97c-0.16,0.21,0.16,0.47,0.32,0.26c0.73-0.99,1.46-1.98,2.19-2.97
		C129.86,42.6,129.54,42.33,129.38,42.55z"/>
	<path class="st0" d="M127.03,43.76c0.97-1.08,1.95-2.15,2.92-3.23c0.18-0.19-0.14-0.46-0.31-0.26c-0.97,1.08-1.94,2.15-2.92,3.23
		C126.54,43.7,126.86,43.96,127.03,43.76z"/>
	<path class="st0" d="M50.83,101.42c-0.18-0.03-0.36-0.04-0.54-0.03c-0.01-0.04-0.01-0.09-0.02-0.13c-0.03-0.26-0.44-0.23-0.41,0.03
		c0.01,0.06,0.02,0.11,0.02,0.17c-0.88,0.25-1.58,1.06-1.73,1.99c-0.04,0.26,0.36,0.33,0.4,0.07c0.02-0.11,0.05-0.22,0.08-0.33
		c-0.18,0.88,0.22,1.85,1.04,2.27c0.03,0.15,0.19,0.19,0.3,0.12c1.07,0.31,2.31-0.42,2.59-1.5C52.89,102.91,52,101.65,50.83,101.42z
		 M49.59,102.2c0.03,0.93,0.06,1.85,0.08,2.78c-0.65-0.47-0.86-1.46-0.45-2.17c0.09-0.16-0.07-0.29-0.21-0.28
		c0.24-0.3,0.57-0.53,0.94-0.64c0.01,0.06,0.02,0.13,0.03,0.19C49.89,101.91,49.58,101.97,49.59,102.2z M51.59,104.85
		c0-0.01,0-0.03,0-0.04c-0.21-0.83-0.42-1.66-0.63-2.49c-0.07-0.25-0.45-0.11-0.39,0.14c0.21,0.83,0.42,1.66,0.63,2.49
		c0.01,0.05,0.04,0.08,0.07,0.1c-0.34,0.17-0.72,0.25-1.09,0.17c-0.04-0.01-0.07-0.03-0.1-0.04c-0.03-0.98-0.06-1.95-0.09-2.93
		c0.12,0.89,0.24,1.78,0.37,2.67c0.04,0.26,0.44,0.23,0.41-0.03c-0.14-1.03-0.28-2.05-0.42-3.08c0.08,0,0.17-0.01,0.25,0
		c0.96,0.09,1.77,1.06,1.62,2.03C52.15,104.24,51.91,104.59,51.59,104.85z"/>
	<path class="st0" d="M50.08,98.02c1.08,0.24,2.2-0.57,2.48-1.6c0.28-1.02-0.39-2.2-1.5-2.3c-0.95-0.08-1.66,0.79-1.55,1.68
		c-0.06-0.01-0.12,0.01-0.18,0.06C48.61,96.61,49.13,97.81,50.08,98.02z M50.78,97.61c0.02-0.04,0.02-0.09,0-0.14
		c-0.22-0.59-0.43-1.18-0.64-1.77c0.21-0.17,0.44-0.26,0.71-0.27c-0.12,0.65-0.04,1.31,0.27,1.91c0.03,0.05,0.07,0.08,0.12,0.1
		C51.09,97.53,50.94,97.58,50.78,97.61z M52.11,96.48c-0.13-0.55-0.27-1.1-0.4-1.66C52.18,95.2,52.33,95.89,52.11,96.48z
		 M51.29,94.59c0.02,0.01,0.04,0.02,0.07,0.03c-0.06,0.05-0.09,0.12-0.07,0.21c0.17,0.71,0.35,1.43,0.52,2.15
		c-0.09,0.11-0.18,0.2-0.29,0.29c0-0.02-0.01-0.04-0.02-0.06c-0.32-0.61-0.39-1.27-0.21-1.93c0.03-0.1-0.06-0.23-0.16-0.24
		c-0.46-0.05-0.85,0.06-1.2,0.33C50.06,94.79,50.69,94.4,51.29,94.59z M49.64,96.13c0.06,0.02,0.14,0.01,0.19-0.03
		c0.18,0.51,0.37,1.01,0.55,1.52c0,0.01,0.01,0.02,0.02,0.03C49.67,97.57,49.02,96.78,49.64,96.13z"/>
	<path class="st0" d="M54.62,101.05c0.03,0.07,0.07,0.14,0.12,0.22c0.12,0.19,0.38,0.04,0.37-0.14c0.06,0,0.13,0.01,0.19,0.01
		c0.96-0.06,1.6-0.91,1.61-1.83c0.04-2.07-2.83-2.47-3.58-0.65c-0.1,0.24,0.27,0.42,0.37,0.17c0.05-0.12,0.12-0.23,0.19-0.33
		c0.14,0.59,0.28,1.18,0.42,1.77c0.02,0.08,0.08,0.12,0.14,0.13c0,0.05,0.01,0.1,0.02,0.15c-0.4-0.21-0.73-0.57-0.83-1.02
		c-0.06-0.25-0.46-0.22-0.41,0.03C53.4,100.28,53.94,100.85,54.62,101.05z M55.93,98.12c-0.08,0.04-0.13,0.13-0.09,0.24
		c0.12,0.32,0.24,0.64,0.35,0.96c0.05,0.14,0.2,0.15,0.3,0.09c-0.03,0.3-0.13,0.6-0.32,0.84c-0.13-0.9-0.54-1.71-1.18-2.35
		C55.32,97.87,55.65,97.94,55.93,98.12z M54.23,98.17c0.09-0.06,0.19-0.12,0.29-0.16c0.01,0.01,0.01,0.01,0.02,0.02
		c0.73,0.64,1.16,1.48,1.26,2.45c0,0.03,0.01,0.05,0.02,0.07c-0.06,0.03-0.13,0.07-0.2,0.09c-0.23,0.08-0.46,0.09-0.69,0.05
		c-0.09-0.29-0.07-0.59,0.03-0.88c0.09,0.15,0.17,0.3,0.26,0.46c0.13,0.23,0.46-0.01,0.33-0.24c-0.13-0.23-0.26-0.46-0.39-0.7
		c-0.08-0.14-0.24-0.1-0.32,0c-0.07,0-0.14,0.03-0.18,0.11c-0.03,0.06-0.06,0.12-0.08,0.18C54.46,99.14,54.35,98.66,54.23,98.17z"/>
	<path class="st0" d="M55.69,95.01c1.21,0.06,2.05-0.96,2.1-2.11c0.05-1.12-0.68-2.15-1.84-2.23c-1.16-0.08-2.29,0.72-2.49,1.88
		c-0.01,0.03,0,0.06,0,0.09c-0.01,0.02-0.02,0.04-0.02,0.07C53.43,93.93,54.49,94.95,55.69,95.01z M53.86,92.63
		c0.06-0.36,0.21-0.65,0.42-0.88c-0.01,0.06,0.02,0.12,0.07,0.16c0.15,0.64,0.29,1.28,0.44,1.92c0.06,0.26,0.44,0.11,0.39-0.14
		c-0.14-0.62-0.28-1.24-0.43-1.86c0.22-0.17,0.47-0.25,0.75-0.25c0.12,0.78,0.25,1.56,0.37,2.34c0.04,0.26,0.45,0.23,0.41-0.03
		c-0.13-0.84-0.27-1.68-0.4-2.52c-0.01-0.08-0.07-0.18-0.17-0.18c-0.24-0.03-0.46,0-0.66,0.05c0.39-0.14,0.81-0.15,1.19-0.04
		c-0.09,0.04-0.17,0.13-0.14,0.26c0.18,0.75,0.36,1.5,0.55,2.25c0.06,0.26,0.45,0.11,0.39-0.14c-0.04-0.18-0.09-0.35-0.13-0.53
		c0,0.01,0.01,0.02,0.01,0.02c0.09,0.25,0.48,0.11,0.39-0.14c-0.03-0.08-0.06-0.16-0.09-0.24c-0.07-0.2-0.34-0.14-0.39,0.02
		c-0.11-0.46-0.22-0.92-0.34-1.38c0-0.01-0.01-0.02-0.02-0.03c0.52,0.23,0.91,0.72,0.91,1.49c0.01,1.01-0.73,1.96-1.82,1.82
		c-0.95-0.13-1.72-0.95-1.71-1.91c0-0.01,0-0.02,0-0.02C53.85,92.65,53.86,92.64,53.86,92.63z"/>
	<path class="st0" d="M47.55,106.6c-0.02-0.2-0.33-0.25-0.39-0.04c-0.29,0-0.59,0.06-0.86,0.2c-0.17,0.09-0.09,0.28,0.05,0.34
		c-0.01,0.02-0.02,0.05-0.03,0.08c-0.06,0.54-0.12,1.07-0.18,1.61c-0.22-0.39-0.26-0.91,0-1.34c0.13-0.23-0.24-0.4-0.37-0.17
		c-0.45,0.75-0.21,1.58,0.31,2.09c0,0.03-0.01,0.06-0.01,0.09c-0.02,0.22,0.26,0.31,0.37,0.17c0.07,0.04,0.15,0.08,0.23,0.11
		c0,0.01,0,0.01,0,0.02c-0.04,0.26,0.36,0.33,0.4,0.08c0.14,0.02,0.29,0,0.44-0.03c0,0.07-0.01,0.15-0.01,0.22
		c-0.01,0.26,0.4,0.23,0.41-0.03c0.01-0.11,0.01-0.22,0.01-0.34c0.09-0.05,0.19-0.11,0.28-0.19c0.61-0.5,0.88-1.37,0.46-2.07
		C48.42,106.97,48,106.7,47.55,106.6z M46.73,109.35c-0.08-0.03-0.15-0.08-0.22-0.13c0.07-0.65,0.14-1.31,0.22-1.96
		c0.01-0.09-0.03-0.16-0.1-0.2c0.15-0.06,0.3-0.1,0.46-0.1C46.98,107.75,46.85,108.55,46.73,109.35z M47.61,107.27
		c-0.03,0.7-0.05,1.41-0.08,2.12c-0.14,0.05-0.27,0.07-0.4,0.06c0.12-0.81,0.24-1.63,0.37-2.44c0.08,0.02,0.15,0.05,0.22,0.08
		C47.66,107.12,47.61,107.18,47.61,107.27z M47.95,109.16c0.02-0.63,0.05-1.26,0.07-1.89c0.17,0.14,0.31,0.31,0.39,0.52
		C48.59,108.29,48.35,108.83,47.95,109.16z"/>
	<path class="st0" d="M47.74,99.45c-0.25,0.09-0.11,0.48,0.14,0.39C48.13,99.75,47.99,99.36,47.74,99.45z"/>
	<path class="st0" d="M57.08,105.96c0.1-0.24-0.27-0.42-0.37-0.17c-0.4,0.91-1.01,1.66-1.81,2.24c-0.21,0.15,0.02,0.49,0.24,0.33
		C55.99,107.74,56.65,106.93,57.08,105.96z"/>
	<path class="st0" d="M58.01,105.37c-0.87,1.12-1.75,2.24-2.62,3.36c-0.16,0.21,0.15,0.47,0.31,0.26c0.88-1.12,1.75-2.24,2.62-3.36
		C58.49,105.42,58.18,105.16,58.01,105.37z"/>
	<path class="st0" d="M58.67,105.85c-0.75,1.18-1.5,2.36-2.25,3.54c-0.14,0.22,0.17,0.49,0.32,0.26c0.75-1.18,1.5-2.36,2.25-3.54
		C59.13,105.89,58.82,105.63,58.67,105.85z"/>
	<path class="st0" d="M59.49,105.83c-0.75,1.18-1.5,2.36-2.25,3.54c-0.14,0.22,0.18,0.49,0.32,0.26c0.75-1.18,1.5-2.36,2.25-3.55
		C59.94,105.87,59.63,105.61,59.49,105.83z"/>
	<path class="st0" d="M60.56,106.53c-0.71,0.8-1.41,1.6-2.12,2.41c-0.17,0.2,0.14,0.46,0.32,0.26c0.71-0.8,1.41-1.61,2.12-2.41
		C61.05,106.59,60.74,106.33,60.56,106.53z"/>
	<path class="st0" d="M61.1,107.19c-0.57,0.67-1.13,1.34-1.7,2.01c-0.17,0.2,0.14,0.46,0.31,0.26c0.57-0.67,1.14-1.34,1.7-2.01
		C61.58,107.25,61.27,106.99,61.1,107.19z"/>
	<path class="st0" d="M61.41,108.12c-0.37,0.49-0.73,0.99-1.09,1.49c-0.16,0.21,0.16,0.47,0.32,0.26c0.36-0.49,0.73-0.99,1.09-1.49
		C61.88,108.17,61.57,107.91,61.41,108.12z"/>
	<path class="st0" d="M62.57,108.64c0.01,0.34-0.23,0.65-0.56,0.71c-0.26,0.05-0.23,0.46,0.03,0.41c0.56-0.1,0.96-0.57,0.94-1.15
		C62.97,108.35,62.56,108.38,62.57,108.64z"/>
	<path class="st0" d="M59.19,100.56c0.87-1.68,1.23-3.51,1.09-5.4c-0.02-0.26-0.43-0.23-0.41,0.03c0.14,1.82-0.22,3.57-1.05,5.19
		C58.7,100.62,59.07,100.79,59.19,100.56z"/>
	<path class="st0" d="M60.44,101.74c0.61-1.63,0.93-3.32,0.93-5.07c0-0.26-0.41-0.23-0.41,0.03c-0.01,1.68-0.31,3.29-0.9,4.86
		C59.98,101.81,60.35,101.98,60.44,101.74z"/>
	<path class="st0" d="M60.88,102.94c0.8-1.32,1.2-2.8,1.2-4.35c0-0.26-0.41-0.23-0.41,0.03c0,1.48-0.4,2.88-1.16,4.14
		C60.37,102.99,60.74,103.16,60.88,102.94z"/>
	<path class="st0" d="M61.99,104.4c0.36-1.49,0.73-2.99,1.09-4.48c0.06-0.26-0.34-0.33-0.4-0.07c-0.36,1.49-0.73,2.99-1.09,4.48
		C61.52,104.58,61.93,104.65,61.99,104.4z"/>
	<path class="st0" d="M64.09,100.2c0.25-0.09,0.11-0.48-0.14-0.39C63.7,99.91,63.84,100.29,64.09,100.2z"/>
	<path class="st0" d="M64.68,101.52c-0.45,0.84-0.91,1.68-1.36,2.52c0.25-0.95,0.51-1.91,0.76-2.86c0.07-0.26-0.34-0.33-0.4-0.07
		c-0.27,1.01-0.54,2.01-0.81,3.02c-0.05,0.2,0.18,0.28,0.32,0.19c-0.01,0.18,0.29,0.29,0.4,0.09c0.49-0.9,0.98-1.81,1.46-2.71
		C65.18,101.46,64.81,101.29,64.68,101.52z"/>
	<path class="st0" d="M64.56,102.66c-0.35,1.03-0.7,2.07-1.05,3.11c-0.08,0.25,0.29,0.42,0.37,0.17c0.35-1.04,0.7-2.07,1.05-3.11
		C65.01,102.58,64.64,102.41,64.56,102.66z"/>
	<path class="st0" d="M66.99,107.73c-0.68,0.88-1.36,1.77-2.03,2.65c-0.16,0.21,0.15,0.47,0.32,0.26c0.68-0.88,1.36-1.77,2.03-2.65
		C67.47,107.78,67.15,107.52,66.99,107.73z"/>
	<path class="st0" d="M68.25,108.43c-0.25,1.05-0.97,1.88-1.96,2.29c-0.24,0.1-0.1,0.49,0.14,0.39c1.13-0.46,1.94-1.41,2.23-2.6
		C68.71,108.25,68.31,108.17,68.25,108.43z"/>
	<path class="st0" d="M72.09,110.5c-0.7,1.07-1.4,2.15-2.1,3.22c-0.14,0.22,0.17,0.48,0.31,0.26c0.7-1.07,1.4-2.14,2.1-3.22
		C72.55,110.55,72.23,110.28,72.09,110.5z"/>
	<path class="st0" d="M73.68,111.05c-0.77,1.11-1.55,2.21-2.32,3.32c-0.15,0.21,0.16,0.48,0.31,0.26c0.77-1.11,1.55-2.21,2.32-3.32
		C74.15,111.1,73.83,110.84,73.68,111.05z"/>
	<path class="st0" d="M74.72,111.73c-0.65,0.96-1.3,1.92-1.95,2.89c-0.14,0.22,0.17,0.48,0.32,0.26c0.65-0.96,1.3-1.93,1.94-2.89
		C75.18,111.77,74.86,111.51,74.72,111.73z"/>
	<path class="st0" d="M75.69,112.24c-0.67,1.15-1.34,2.31-2,3.46c-0.13,0.23,0.24,0.4,0.37,0.17c0.67-1.15,1.34-2.31,2-3.46
		C76.2,112.19,75.82,112.02,75.69,112.24z"/>
	<path class="st0" d="M77.52,112.64c-0.75,1.18-1.5,2.36-2.25,3.54c-0.14,0.22,0.17,0.49,0.31,0.26c0.75-1.18,1.5-2.36,2.25-3.54
		C77.97,112.68,77.66,112.41,77.52,112.64z"/>
	<path class="st0" d="M78.21,113.21c-0.67,1.15-1.34,2.31-2.01,3.46c-0.13,0.23,0.24,0.4,0.37,0.17c0.67-1.15,1.34-2.31,2.01-3.46
		C78.71,113.16,78.34,112.99,78.21,113.21z"/>
	<path class="st0" d="M79.48,114.35c-0.65,0.96-1.3,1.93-1.95,2.89c-0.15,0.22,0.17,0.48,0.32,0.26c0.65-0.96,1.3-1.93,1.94-2.89
		C79.95,114.39,79.63,114.13,79.48,114.35z"/>
	<path class="st0" d="M80.62,117.48c-0.23,0.36-0.47,0.71-0.7,1.07c-0.14,0.22,0.17,0.48,0.31,0.26c0.23-0.36,0.47-0.71,0.7-1.07
		C81.08,117.52,80.77,117.25,80.62,117.48z"/>
	<path class="st0" d="M83.94,116.88c-0.5,1.1-1,2.2-1.5,3.29c-0.11,0.24,0.26,0.41,0.37,0.17c0.5-1.1,1-2.2,1.5-3.29
		C84.42,116.82,84.05,116.64,83.94,116.88z"/>
	<path class="st0" d="M87.42,118.3c-0.67,1.15-1.34,2.3-2.01,3.46c-0.13,0.23,0.24,0.4,0.37,0.17c0.67-1.15,1.34-2.3,2.01-3.46
		C87.92,118.25,87.55,118.08,87.42,118.3z"/>
	<path class="st0" d="M89.74,120.19c-0.38,0.95-0.76,1.91-1.14,2.87c-0.1,0.24,0.27,0.42,0.37,0.17c0.38-0.96,0.76-1.91,1.14-2.87
		C90.21,120.11,89.84,119.94,89.74,120.19z"/>
	<path class="st0" d="M93.25,120.82c-0.69,1.34-1.38,2.68-2.07,4.03c-0.12,0.23,0.25,0.41,0.37,0.17c0.69-1.34,1.38-2.69,2.07-4.03
		C93.75,120.76,93.37,120.59,93.25,120.82z"/>
	<path class="st0" d="M94.3,121.51c-0.59,1.39-1.17,2.78-1.76,4.18c-0.1,0.24,0.27,0.42,0.37,0.17c0.59-1.39,1.17-2.78,1.76-4.17
		C94.78,121.44,94.41,121.27,94.3,121.51z"/>
	<path class="st0" d="M96.13,122.76c-0.59,1.12-1.18,2.25-1.77,3.37c-0.12,0.23,0.25,0.41,0.37,0.17c0.59-1.12,1.18-2.25,1.77-3.37
		C96.62,122.7,96.25,122.53,96.13,122.76z"/>
	<path class="st0" d="M97.51,122.81c-0.48,1.17-0.96,2.35-1.44,3.52c-0.1,0.24,0.27,0.42,0.37,0.17c0.48-1.17,0.96-2.35,1.44-3.52
		C97.98,122.73,97.61,122.56,97.51,122.81z"/>
	<path class="st0" d="M99.15,124.43c-0.26,1.24-0.85,2.35-1.73,3.28c-0.18,0.19,0.13,0.45,0.32,0.26c0.92-0.97,1.53-2.16,1.81-3.46
		C99.61,124.24,99.21,124.17,99.15,124.43z"/>
	<path class="st0" d="M102.12,125.16c-0.5,1.3-1.01,2.59-1.51,3.88c-0.09,0.24,0.28,0.42,0.37,0.17c0.5-1.29,1.01-2.59,1.51-3.88
		C102.58,125.09,102.21,124.91,102.12,125.16z"/>
	<path class="st0" d="M103.35,126.13c-0.56,1.2-1.12,2.41-1.68,3.61c-0.11,0.24,0.26,0.41,0.37,0.17c0.56-1.2,1.12-2.41,1.68-3.61
		C103.83,126.06,103.46,125.89,103.35,126.13z"/>
	<path class="st0" d="M104.38,127.41c-0.54,1.01-1.07,2.03-1.61,3.05c-0.13,0.23,0.25,0.4,0.37,0.17c0.54-1.01,1.07-2.03,1.61-3.04
		C104.88,127.35,104.51,127.18,104.38,127.41z"/>
	<path class="st0" d="M105.3,129.23c-0.52,0.82-1.03,1.65-1.55,2.47c-0.14,0.22,0.23,0.39,0.37,0.17c0.52-0.82,1.03-1.65,1.55-2.47
		C105.81,129.18,105.43,129.01,105.3,129.23z"/>
	<path class="st0" d="M105.41,130.28c-0.18,0.52-0.35,1.04-0.52,1.55c-0.08,0.25,0.29,0.42,0.37,0.17c0.17-0.52,0.35-1.04,0.52-1.55
		C105.86,130.21,105.49,130.03,105.41,130.28z"/>
	<path class="st0" d="M69.2,103.47c-0.2,0.71-0.4,1.42-0.59,2.12c-0.07,0.25,0.33,0.32,0.4,0.07c0.2-0.71,0.4-1.41,0.59-2.12
		C69.67,103.29,69.27,103.22,69.2,103.47z"/>
	<path class="st0" d="M70.23,104.7c-0.2,0.44-0.4,0.88-0.6,1.32c-0.11,0.24,0.26,0.41,0.37,0.17c0.2-0.44,0.4-0.88,0.6-1.32
		C70.71,104.63,70.34,104.46,70.23,104.7z"/>
	<path class="st0" d="M71.78,105.17c-0.42,0.6-0.83,1.21-1.25,1.82c-0.15,0.22,0.17,0.48,0.32,0.26c0.41-0.61,0.83-1.21,1.25-1.82
		C72.24,105.21,71.93,104.95,71.78,105.17z"/>
	<path class="st0" d="M72.37,108.29c0.36-0.76,0.71-1.53,1.07-2.3c0.11-0.24-0.26-0.41-0.37-0.17c-0.36,0.77-0.71,1.53-1.07,2.3
		C71.88,108.36,72.25,108.53,72.37,108.29z"/>
	<path class="st0" d="M74.49,108.88c0.28-0.74,0.55-1.47,0.83-2.21c0.09-0.25-0.28-0.42-0.37-0.17c-0.28,0.74-0.55,1.47-0.83,2.21
		C74.02,108.95,74.39,109.13,74.49,108.88z"/>
	<path class="st0" d="M75.97,109.98c0.28-0.74,0.55-1.47,0.83-2.21c0.09-0.24-0.28-0.42-0.37-0.17c-0.28,0.74-0.55,1.47-0.83,2.21
		C75.51,110.05,75.88,110.22,75.97,109.98z"/>
	<path class="st0" d="M78.08,110.35c0.4-0.88,0.8-1.76,1.21-2.63c0.11-0.24-0.26-0.41-0.37-0.17c-0.4,0.88-0.8,1.76-1.21,2.63
		C77.59,110.42,77.97,110.59,78.08,110.35z"/>
	<path class="st0" d="M80.68,108.77c-0.39,0.69-0.77,1.37-1.16,2.06c-0.13,0.23,0.24,0.4,0.37,0.17c0.39-0.69,0.77-1.37,1.16-2.06
		C81.18,108.71,80.81,108.54,80.68,108.77z"/>
	<path class="st0" d="M82.23,109.3c-0.52,0.82-1.03,1.65-1.55,2.47c-0.14,0.22,0.23,0.39,0.37,0.17c0.52-0.82,1.03-1.65,1.55-2.47
		C82.74,109.25,82.37,109.07,82.23,109.3z"/>
	<path class="st0" d="M83.63,110.15c-0.36,0.76-0.71,1.53-1.07,2.3c-0.11,0.24,0.26,0.41,0.37,0.17c0.36-0.76,0.71-1.53,1.07-2.3
		C84.11,110.08,83.74,109.91,83.63,110.15z"/>
	<path class="st0" d="M85.47,110.61c-0.45,0.99-0.91,1.98-1.36,2.96c-0.11,0.24,0.26,0.41,0.37,0.17c0.45-0.99,0.9-1.98,1.35-2.96
		C85.95,110.54,85.58,110.36,85.47,110.61z"/>
	<path class="st0" d="M86.78,114.21c0.28-0.74,0.55-1.47,0.83-2.21c0.09-0.24-0.28-0.42-0.37-0.17c-0.28,0.74-0.55,1.47-0.83,2.21
		C86.32,114.28,86.69,114.46,86.78,114.21z"/>
	<path class="st0" d="M88.97,112.83c-0.34,0.58-0.67,1.15-1.01,1.73c-0.13,0.23,0.24,0.4,0.37,0.17c0.34-0.58,0.67-1.15,1.01-1.73
		C89.47,112.78,89.1,112.61,88.97,112.83z"/>
	<path class="st0" d="M90.82,113.3c-0.39,0.68-0.78,1.37-1.17,2.05c-0.13,0.23,0.24,0.4,0.37,0.17c0.39-0.68,0.78-1.37,1.17-2.05
		C91.32,113.25,90.95,113.08,90.82,113.3z"/>
	<path class="st0" d="M91.77,113.45c-0.21-0.15-0.48,0.16-0.26,0.32c0.67,0.49,0.66,1.57-0.03,2.04c-0.22,0.15,0.02,0.48,0.24,0.33
		C92.62,115.53,92.66,114.09,91.77,113.45z"/>
	<path class="st0" d="M92.84,117.24c0.61-1.05,1.23-2.09,1.84-3.14c0.13-0.23-0.24-0.4-0.37-0.17c-0.62,1.05-1.23,2.09-1.85,3.14
		C92.33,117.3,92.71,117.47,92.84,117.24z"/>
	<path class="st0" d="M94.83,118.37c0.57-0.93,1.14-1.87,1.7-2.8c0.14-0.23-0.24-0.39-0.37-0.17c-0.57,0.93-1.14,1.87-1.7,2.8
		C94.33,118.42,94.7,118.59,94.83,118.37z"/>
	<path class="st0" d="M96.37,119.48c0.44-1.06,0.87-2.12,1.31-3.19c0.1-0.24-0.27-0.42-0.37-0.17c-0.44,1.06-0.87,2.12-1.31,3.19
		C95.9,119.55,96.27,119.72,96.37,119.48z"/>
	<path class="st0" d="M98.48,116.83c0.25-0.09,0.11-0.48-0.14-0.39C98.09,116.53,98.23,116.92,98.48,116.83z"/>
	<path class="st0" d="M98.23,117.41c-0.25,0.82-0.49,1.63-0.74,2.45c-0.08,0.25,0.33,0.32,0.4,0.07c0.25-0.82,0.49-1.63,0.74-2.45
		C98.71,117.23,98.31,117.16,98.23,117.41z"/>
	<path class="st0" d="M99.56,117.22c-0.11,0.95-0.23,1.89-0.34,2.84c-0.03,0.26,0.37,0.34,0.4,0.07c0.11-0.95,0.23-1.89,0.34-2.84
		C100,117.03,99.6,116.95,99.56,117.22z"/>
	<path class="st0" d="M100.83,117.82c-0.11,0.95-0.22,1.9-0.33,2.84c-0.03,0.26,0.37,0.34,0.4,0.07c0.11-0.95,0.22-1.89,0.33-2.84
		C101.27,117.64,100.86,117.56,100.83,117.82z"/>
	<path class="st0" d="M102.09,118.51c0.25-0.09,0.11-0.48-0.14-0.39C101.7,118.22,101.84,118.6,102.09,118.51z"/>
	<path class="st0" d="M101.99,118.82c-0.05,1.11-0.1,2.22-0.15,3.32c-0.01,0.26,0.4,0.23,0.41-0.03c0.05-1.11,0.1-2.22,0.15-3.32
		C102.41,118.52,102,118.56,101.99,118.82z"/>
	<path class="st0" d="M103.18,122.38c0.08-0.84,0.17-1.67,0.25-2.51c0.03-0.26-0.38-0.34-0.4-0.07c-0.08,0.84-0.17,1.67-0.25,2.51
		C102.76,122.57,103.16,122.65,103.18,122.38z"/>
	<path class="st0" d="M127.2,149.82c-1.55,3.2-3.1,6.41-4.66,9.62c-0.12,0.24,0.26,0.41,0.37,0.17c1.55-3.2,3.1-6.41,4.65-9.62
		C127.68,149.76,127.31,149.59,127.2,149.82z"/>
	<path class="st0" d="M129.11,148.92c-1.63,3.63-3.26,7.27-4.89,10.9c-0.11,0.24,0.26,0.41,0.37,0.17c1.63-3.63,3.26-7.27,4.89-10.9
		C129.59,148.85,129.22,148.68,129.11,148.92z"/>
	<path class="st0" d="M133.51,149.17c-1.41,3.53-3.16,6.9-5.23,10.09c-0.14,0.22,0.17,0.48,0.31,0.26
		c2.09-3.22,3.86-6.62,5.28-10.18C133.98,149.1,133.61,148.93,133.51,149.17z"/>
	<path class="st0" d="M137.46,147.01c-1.41,3.87-2.82,7.74-4.23,11.61c-0.09,0.25,0.28,0.42,0.37,0.17
		c1.41-3.87,2.82-7.74,4.23-11.61C137.92,146.94,137.55,146.76,137.46,147.01z"/>
	<path class="st0" d="M142.53,147.63c-0.97,3.08-1.94,6.15-2.91,9.23c-0.08,0.25,0.32,0.32,0.4,0.07c0.97-3.08,1.94-6.15,2.92-9.23
		C143.02,147.46,142.61,147.39,142.53,147.63z"/>
	<path class="st0" d="M147.85,143.52c-0.94,3.81-1.88,7.63-2.82,11.44c-0.06,0.26,0.34,0.33,0.4,0.07
		c0.94-3.81,1.88-7.63,2.82-11.44C148.32,143.33,147.91,143.26,147.85,143.52z"/>
	<path class="st0" d="M151.13,143.08c-0.44,3.35-1.18,6.65-2.23,9.86c-0.08,0.25,0.29,0.42,0.37,0.17c1.06-3.25,1.82-6.57,2.26-9.96
		C151.57,142.89,151.17,142.82,151.13,143.08z"/>
	<path class="st0" d="M152.75,142.22c-0.91,3.7-1.82,7.4-2.73,11.1c-0.06,0.26,0.34,0.33,0.4,0.07c0.91-3.7,1.82-7.4,2.73-11.1
		C153.22,142.04,152.81,141.97,152.75,142.22z"/>
	<path class="st0" d="M159.65,138.64c-0.36,3.49-0.73,6.99-1.09,10.48c-0.03,0.26,0.38,0.34,0.4,0.07
		c0.36-3.49,0.73-6.98,1.09-10.48C160.08,138.45,159.68,138.38,159.65,138.64z"/>
	<path class="st0" d="M177.75,126.31c-0.25,4.16-0.51,8.32-0.77,12.48c-0.02,0.26,0.39,0.34,0.4,0.07
		c0.26-4.16,0.51-8.32,0.77-12.48C178.17,126.13,177.77,126.05,177.75,126.31z"/>
	<path class="st0" d="M180,123.58c-0.35,4.3-0.71,8.6-1.06,12.9c-0.02,0.26,0.38,0.34,0.4,0.07c0.36-4.3,0.71-8.6,1.07-12.9
		C180.43,123.39,180.03,123.31,180,123.58z"/>
	<path class="st0" d="M184.71,119.74c-0.75,4.33-1.02,8.71-0.81,13.1c0.01,0.26,0.42,0.23,0.41-0.03c-0.22-4.35,0.05-8.7,0.8-12.99
		C185.16,119.55,184.75,119.48,184.71,119.74z"/>
	<path class="st0" d="M185.79,120.72c0.46,3.67,0.54,7.35,0.23,11.04c-0.02,0.26,0.38,0.34,0.4,0.07c0.31-3.72,0.24-7.44-0.22-11.14
		C186.16,120.43,185.75,120.46,185.79,120.72z"/>
	<path class="st0" d="M187.42,130.45c0.28-2.66,0.56-5.31,0.83-7.97c0.03-0.26-0.38-0.34-0.4-0.07c-0.28,2.66-0.56,5.31-0.84,7.97
		C186.99,130.63,187.4,130.71,187.42,130.45z"/>
	<path class="st0" d="M166.03,41.5c-6.5,4.72-10.44,12.49-10.43,20.53c0,0.26,0.41,0.23,0.41-0.03
		c-0.02-7.89,3.88-15.52,10.26-20.16C166.48,41.68,166.25,41.35,166.03,41.5z"/>
	<path class="st0" d="M106.36,72.94c-1.27,1.53-2.54,3.07-3.81,4.6c-0.17,0.2,0.15,0.47,0.32,0.26c1.27-1.53,2.54-3.06,3.81-4.6
		C106.84,73,106.53,72.74,106.36,72.94z"/>
	<path class="st0" d="M107.92,73.48c-1.36,1.49-2.72,2.99-4.09,4.49c-0.18,0.19,0.14,0.46,0.32,0.26c1.36-1.49,2.72-2.99,4.09-4.49
		C108.42,73.55,108.1,73.29,107.92,73.48z"/>
	<path class="st0" d="M111.88,72.34c-2.8,3.03-5.6,6.05-8.4,9.08c-0.18,0.19,0.14,0.46,0.32,0.26c2.8-3.03,5.6-6.05,8.4-9.08
		C112.38,72.41,112.06,72.15,111.88,72.34z"/>
	<path class="st0" d="M112.24,74.09c-2.5,2.84-5,5.68-7.49,8.51c-0.17,0.2,0.14,0.46,0.32,0.26c2.5-2.84,5-5.67,7.49-8.51
		C112.73,74.16,112.41,73.9,112.24,74.09z"/>
	<path class="st0" d="M105.41,83.99c2.22-2.36,4.44-4.73,6.66-7.09c0.18-0.19-0.13-0.45-0.32-0.26c-2.22,2.36-4.44,4.73-6.66,7.09
		C104.92,83.92,105.23,84.19,105.41,83.99z"/>
	<path class="st0" d="M104.34,87.28c-0.25,0.09-0.11,0.48,0.14,0.39C104.73,87.58,104.59,87.19,104.34,87.28z"/>
	<path class="st0" d="M113.08,77.88c-2.66,2.89-5.32,5.79-7.98,8.68c-0.18,0.19,0.14,0.46,0.32,0.26c2.66-2.89,5.32-5.79,7.98-8.68
		C113.57,77.95,113.25,77.69,113.08,77.88z"/>
	<path class="st0" d="M104.68,90.07c2.6-3.05,5.21-6.1,7.81-9.16c0.17-0.2-0.14-0.46-0.31-0.26c-2.6,3.05-5.21,6.1-7.81,9.16
		C104.19,90.01,104.51,90.27,104.68,90.07z"/>
	<path class="st0" d="M104.4,93.42c0.25-0.09,0.11-0.48-0.14-0.39C104.01,93.13,104.15,93.51,104.4,93.42z"/>
	<path class="st0" d="M116.1,80.27c-3.33,3.57-6.66,7.15-9.99,10.72c-0.18,0.19,0.13,0.45,0.31,0.26c3.33-3.57,6.66-7.15,9.99-10.72
		C116.59,80.34,116.28,80.08,116.1,80.27z"/>
	<path class="st0" d="M117.06,82.13c-4.17,4.26-8.33,8.51-12.49,12.77c-0.18,0.19,0.13,0.45,0.32,0.26
		c4.16-4.26,8.33-8.51,12.49-12.77C117.56,82.2,117.24,81.94,117.06,82.13z"/>
	<path class="st0" d="M105.89,97.38c3.77-4.1,7.55-8.2,11.32-12.3c0.18-0.19-0.14-0.46-0.32-0.26c-3.77,4.1-7.55,8.2-11.32,12.3
		C105.4,97.31,105.72,97.57,105.89,97.38z"/>
	<path class="st0" d="M118.95,85.02c-4.96,4.87-9.64,10.02-14.02,15.42c-0.17,0.21,0.15,0.47,0.32,0.26
		c4.37-5.41,9.05-10.55,14.02-15.42C119.46,85.1,119.14,84.84,118.95,85.02z"/>
	<path class="st0" d="M105.79,101.74c-0.25,0.09-0.11,0.48,0.14,0.39C106.18,102.04,106.04,101.65,105.79,101.74z"/>
	<path class="st0" d="M119.57,86.71c-3.85,4.13-7.71,8.26-11.56,12.39c-0.18,0.19,0.13,0.45,0.31,0.26
		c3.85-4.13,7.71-8.26,11.56-12.39C120.07,86.78,119.75,86.52,119.57,86.71z"/>
	<path class="st0" d="M119.61,90.07c-4.57,5.13-9.15,10.26-13.72,15.39c-0.18,0.2,0.14,0.46,0.31,0.26
		c4.58-5.13,9.15-10.26,13.72-15.39C120.11,90.13,119.79,89.87,119.61,90.07z"/>
	<path class="st0" d="M119.54,92.95c0.17-0.2-0.14-0.46-0.31-0.26c-4.22,4.89-8.43,9.78-12.64,14.68c-0.17,0.2,0.14,0.46,0.32,0.26
		C111.11,102.74,115.32,97.85,119.54,92.95z"/>
	<path class="st0" d="M121.76,94.3c-5.39,5.25-10.39,10.88-14.97,16.85c-0.16,0.21,0.15,0.47,0.32,0.26
		c4.58-5.97,9.58-11.6,14.97-16.85C122.27,94.38,121.95,94.12,121.76,94.3z"/>
	<path class="st0" d="M107.56,114.07c0.25-0.09,0.11-0.48-0.14-0.39C107.17,113.77,107.31,114.16,107.56,114.07z"/>
	<path class="st0" d="M119.63,99.69c-3.48,3.91-6.95,7.81-10.43,11.72c-0.18,0.2,0.14,0.46,0.32,0.26
		c3.48-3.91,6.95-7.81,10.43-11.72C120.12,99.76,119.8,99.5,119.63,99.69z"/>
	<path class="st0" d="M109.02,114.05c3.39-3.88,6.78-7.77,10.17-11.65c0.17-0.2-0.14-0.46-0.32-0.26
		c-3.39,3.88-6.78,7.77-10.17,11.65C108.53,113.98,108.84,114.25,109.02,114.05z"/>
	<path class="st0" d="M109.1,116.83c-0.18,0.2,0.14,0.46,0.32,0.26c3.59-4.01,7.18-8.02,10.76-12.03c0.18-0.2-0.14-0.46-0.31-0.26
		C116.27,108.81,112.69,112.82,109.1,116.83z"/>
	<path class="st0" d="M109.1,120.9c4.19-4.65,8.38-9.3,12.57-13.96c0.18-0.2-0.14-0.46-0.32-0.26c-4.19,4.65-8.38,9.31-12.57,13.96
		C108.61,120.83,108.92,121.1,109.1,120.9z"/>
	<path class="st0" d="M123.27,108.97c-3.94,4.05-7.88,8.1-11.81,12.16c-0.18,0.19,0.13,0.45,0.32,0.26
		c3.94-4.05,7.87-8.1,11.81-12.16C123.77,109.04,123.45,108.78,123.27,108.97z"/>
	<path class="st0" d="M111.94,124.09c-0.17,0.2,0.14,0.46,0.32,0.26c3.85-4.49,8.04-8.66,12.53-12.5c0.2-0.17-0.03-0.5-0.24-0.33
		C120.02,115.38,115.81,119.58,111.94,124.09z"/>
	<path class="st0" d="M124.12,116.67c0.19-0.18-0.13-0.44-0.31-0.26c-3.64,3.56-7.48,6.91-11.5,10.03
		c-0.21,0.16,0.03,0.49,0.24,0.33C116.6,123.64,120.46,120.26,124.12,116.67z"/>
	<path class="st0" d="M112.81,130.26c5.04-4.84,10.08-9.69,15.12-14.54c0.19-0.18-0.13-0.44-0.32-0.26
		c-5.04,4.84-10.08,9.69-15.12,14.54C112.3,130.18,112.62,130.44,112.81,130.26z"/>
	<path class="st0" d="M127.43,117.32c-4.44,4.94-8.87,9.89-13.31,14.83c-0.18,0.2,0.14,0.46,0.32,0.26
		c4.43-4.94,8.87-9.89,13.31-14.83C127.92,117.38,127.6,117.12,127.43,117.32z"/>
	<path class="st0" d="M113.26,136.03c4.64-4.69,9.29-9.39,13.93-14.09c0.18-0.19-0.13-0.45-0.32-0.26
		c-4.64,4.69-9.29,9.39-13.93,14.09C112.76,135.96,113.07,136.22,113.26,136.03z"/>
	<path class="st0" d="M115.21,137.56c4.15-4.53,8.29-9.07,12.44-13.6c0.18-0.19-0.14-0.46-0.31-0.26
		c-4.15,4.53-8.29,9.07-12.44,13.6C114.71,137.49,115.03,137.75,115.21,137.56z"/>
	<path class="st0" d="M129.72,125.16c-4.22,4.68-8.6,9.22-13.13,13.61c-0.19,0.18,0.13,0.44,0.31,0.26
		c4.53-4.39,8.9-8.93,13.13-13.61C130.21,125.23,129.89,124.97,129.72,125.16z"/>
	<path class="st0" d="M130.19,127.19c-3.57,5.04-7.84,9.53-12.68,13.36c-0.21,0.16,0.03,0.5,0.24,0.33
		c4.87-3.85,9.16-8.37,12.75-13.43C130.65,127.24,130.34,126.97,130.19,127.19z"/>
	<path class="st0" d="M116.71,144.9c5.4-4.95,10.34-10.37,14.76-16.21c0.16-0.21-0.16-0.47-0.31-0.26
		c-4.39,5.82-9.3,11.22-14.68,16.14C116.28,144.74,116.52,145.08,116.71,144.9z"/>
	<path class="st0" d="M118.56,145.28c4.92-4.17,9.51-8.73,13.72-13.62c0.17-0.2-0.14-0.46-0.31-0.26
		c-4.18,4.87-8.74,9.4-13.64,13.55C118.13,145.11,118.36,145.45,118.56,145.28z"/>
	<path class="st0" d="M119.39,147.9c3.93-3.43,7.6-7.14,10.99-11.11c0.17-0.2-0.14-0.46-0.31-0.26c-3.37,3.94-7.01,7.63-10.91,11.04
		C118.96,147.74,119.19,148.07,119.39,147.9z"/>
	<path class="st0" d="M120.3,148.79c4.74-3.27,9-7.17,12.68-11.6c0.17-0.2-0.15-0.46-0.32-0.26c-3.65,4.41-7.89,8.28-12.6,11.53
		C119.84,148.61,120.08,148.94,120.3,148.79z"/>
	<path class="st0" d="M125.26,148.33c2.8-2.31,5.46-4.79,7.97-7.43c0.18-0.19-0.13-0.45-0.31-0.26c-1.24,1.3-2.51,2.57-3.83,3.8
		c-0.65,0.61-1.32,1.21-1.99,1.8c-0.29,0.25-0.58,0.51-0.88,0.76c-0.06,0.05-1.17,0.95-1.08,0.62c0.07-0.25-0.34-0.33-0.4-0.07
		c-0.1,0.36-0.03,0.56,0.28,0.77C125.08,148.37,125.19,148.39,125.26,148.33z"/>
	<path class="st0" d="M132.88,146.8c1.16-1.06,2.32-2.12,3.48-3.17c0.19-0.18-0.04-0.51-0.24-0.34c-1.16,1.06-2.32,2.12-3.48,3.17
		C132.46,146.64,132.69,146.97,132.88,146.8z"/>
	<path class="st0" d="M137,60.53c-0.84,1.47-1.68,2.94-2.53,4.41c-0.13,0.23,0.24,0.4,0.37,0.17c0.84-1.47,1.68-2.94,2.53-4.41
		C137.5,60.48,137.13,60.3,137,60.53z"/>
	<path class="st0" d="M134.88,68.13c-0.14,0.23,0.24,0.4,0.37,0.17c1.77-2.9,3.55-5.8,5.32-8.7c0.14-0.23-0.24-0.4-0.37-0.17
		C138.43,62.34,136.65,65.24,134.88,68.13z"/>
	<path class="st0" d="M141.44,61.41c-2.03,3.24-4.07,6.48-6.1,9.72c-0.14,0.22,0.23,0.39,0.37,0.17c2.03-3.24,4.07-6.48,6.1-9.72
		C141.95,61.36,141.58,61.19,141.44,61.41z"/>
	<path class="st0" d="M136.68,72.42c1.96-2.88,3.92-5.75,5.88-8.63c0.15-0.22-0.17-0.48-0.31-0.26c-1.96,2.88-3.92,5.76-5.88,8.63
		C136.22,72.38,136.53,72.64,136.68,72.42z"/>
	<path class="st0" d="M143.73,65.46c-1.88,3.48-4.07,6.77-6.55,9.85c-0.16,0.2,0.15,0.47,0.32,0.26c2.51-3.11,4.71-6.43,6.61-9.94
		C144.23,65.41,143.86,65.23,143.73,65.46z"/>
	<path class="st0" d="M145.47,67.41c-2.18,3.24-4.36,6.49-6.54,9.73c-0.14,0.22,0.17,0.48,0.32,0.26c2.18-3.24,4.36-6.49,6.54-9.73
		C145.94,67.45,145.62,67.19,145.47,67.41z"/>
	<path class="st0" d="M147.09,69.43c-2.37,4.32-5.09,8.43-8.14,12.3c-0.16,0.21,0.15,0.47,0.31,0.26c3.07-3.9,5.81-8.04,8.2-12.39
		C147.59,69.37,147.22,69.2,147.09,69.43z"/>
	<path class="st0" d="M148.54,71.85c-2.75,4.18-5.5,8.35-8.25,12.53c-0.14,0.22,0.17,0.48,0.31,0.26c2.75-4.18,5.5-8.35,8.25-12.53
		C149,71.9,148.69,71.63,148.54,71.85z"/>
	<path class="st0" d="M149.94,73.68c-2.73,3.98-5.47,7.97-8.2,11.95c-0.15,0.22,0.17,0.48,0.31,0.26c2.73-3.98,5.47-7.97,8.2-11.95
		C150.4,73.73,150.09,73.46,149.94,73.68z"/>
	<path class="st0" d="M151.5,75.47c-2.3,5.16-5.24,10-8.76,14.42c-0.16,0.21,0.15,0.47,0.32,0.26c3.54-4.45,6.5-9.31,8.82-14.5
		C151.98,75.4,151.61,75.22,151.5,75.47z"/>
	<path class="st0" d="M151.99,79.24c-2.83,4.14-5.67,8.29-8.5,12.43c-0.15,0.22,0.17,0.48,0.32,0.26c2.83-4.14,5.66-8.29,8.5-12.43
		C152.46,79.29,152.14,79.02,151.99,79.24z"/>
	<path class="st0" d="M154.18,79.12c-2.71,5.17-5.87,10.08-9.46,14.69c-0.16,0.21,0.15,0.47,0.32,0.26
		c3.61-4.63,6.79-9.58,9.51-14.78C154.68,79.06,154.31,78.89,154.18,79.12z"/>
	<path class="st0" d="M146.09,95.99c2.61-4.04,5.22-8.09,7.84-12.13c0.14-0.22-0.17-0.48-0.32-0.26c-2.61,4.04-5.22,8.08-7.84,12.13
		C145.64,95.94,145.95,96.21,146.09,95.99z"/>
	<path class="st0" d="M155.04,85.32c-2.75,4.38-5.49,8.76-8.24,13.15c-0.14,0.22,0.23,0.39,0.37,0.17
		c2.75-4.38,5.49-8.77,8.24-13.15C155.55,85.27,155.17,85.1,155.04,85.32z"/>
	<path class="st0" d="M155.91,86.87c-2.75,4.17-5.51,8.35-8.26,12.52c-0.14,0.22,0.17,0.48,0.32,0.26
		c2.75-4.17,5.51-8.35,8.26-12.52C156.37,86.91,156.05,86.65,155.91,86.87z"/>
	<path class="st0" d="M159.26,86.24c-3.08,4.75-6.17,9.51-9.25,14.26c-0.14,0.22,0.17,0.48,0.32,0.26
		c3.08-4.75,6.17-9.51,9.25-14.26C159.71,86.28,159.4,86.02,159.26,86.24z"/>
	<path class="st0" d="M159.52,89.53c-3.21,4.9-6.42,9.79-9.64,14.68c-0.14,0.22,0.17,0.48,0.31,0.26c3.21-4.9,6.42-9.79,9.64-14.68
		C159.98,89.58,159.67,89.31,159.52,89.53z"/>
	<path class="st0" d="M161.44,91.21c-3.68,5.34-7.36,10.69-11.04,16.03c-0.15,0.21,0.16,0.48,0.31,0.26
		c3.68-5.34,7.36-10.69,11.04-16.03C161.91,91.26,161.59,90.99,161.44,91.21z"/>
	<path class="st0" d="M153.74,108.68c2.59-4.12,5.17-8.24,7.76-12.36c0.14-0.22-0.23-0.39-0.37-0.17
		c-2.59,4.12-5.17,8.24-7.76,12.36C153.23,108.73,153.6,108.9,153.74,108.68z"/>
	<path class="st0" d="M163.83,96.92c-3.42,5-6.84,10.01-10.26,15.01c-0.15,0.22,0.17,0.48,0.32,0.26c3.42-5,6.84-10.01,10.26-15.01
		C164.29,96.97,163.98,96.71,163.83,96.92z"/>
	<path class="st0" d="M165.94,98.92c-3.67,4.96-6.96,10.19-9.83,15.65c-0.12,0.23,0.25,0.41,0.37,0.17
		c2.86-5.43,6.12-10.63,9.78-15.57C166.41,98.97,166.1,98.7,165.94,98.92z"/>
	<path class="st0" d="M167.17,100.88c-3.9,5.97-7.81,11.94-11.71,17.92c-0.14,0.22,0.17,0.48,0.31,0.26
		c3.9-5.97,7.81-11.95,11.71-17.92C167.63,100.92,167.31,100.66,167.17,100.88z"/>
	<path class="st0" d="M168.42,103.47c-3.74,5.45-7.48,10.89-11.22,16.34c-0.15,0.22,0.17,0.48,0.32,0.26
		c3.74-5.45,7.48-10.9,11.22-16.34C168.88,103.51,168.57,103.25,168.42,103.47z"/>
	<path class="st0" d="M167.99,107.65c-3.58,5.39-7.16,10.78-10.73,16.17c-0.14,0.22,0.17,0.48,0.32,0.26
		c3.58-5.39,7.16-10.78,10.73-16.17C168.45,107.69,168.13,107.43,167.99,107.65z"/>
	<path class="st0" d="M169.33,109.51c-3.75,5.38-7.49,10.77-11.24,16.15c-0.15,0.22,0.16,0.48,0.32,0.26
		c3.75-5.38,7.49-10.77,11.23-16.15C169.8,109.55,169.48,109.29,169.33,109.51z"/>
	<path class="st0" d="M170.02,111.66c-3.28,6.04-6.97,11.84-11.06,17.36c-0.16,0.21,0.16,0.47,0.31,0.26
		c4.11-5.55,7.82-11.38,11.12-17.45C170.52,111.6,170.14,111.43,170.02,111.66z"/>
	<path class="st0" d="M171.35,115.22c-3.34,5.1-6.68,10.19-10.02,15.29c-0.14,0.22,0.17,0.48,0.32,0.26
		c3.34-5.1,6.68-10.19,10.02-15.29C171.81,115.27,171.5,115,171.35,115.22z"/>
	<path class="st0" d="M171.45,117.67c-3.49,4.42-6.55,9.16-9.12,14.17c-0.12,0.23,0.25,0.41,0.37,0.17
		c2.56-4.98,5.6-9.69,9.07-14.08C171.93,117.73,171.61,117.47,171.45,117.67z"/>
	<path class="st0" d="M171.7,119.43c-2.43,4.53-4.86,9.06-7.28,13.59c-0.13,0.23,0.25,0.4,0.37,0.17c2.43-4.53,4.85-9.06,7.28-13.59
		C172.19,119.37,171.82,119.2,171.7,119.43z"/>
	<path class="st0" d="M169.66,130.07c1.27-3.47,2.99-6.73,5.15-9.73c0.15-0.21-0.16-0.48-0.32-0.26c-2.17,3.03-3.92,6.32-5.2,9.82
		C169.2,130.14,169.57,130.32,169.66,130.07z"/>
	<path class="st0" d="M145.51,142.44c1.57-1.93,3.13-3.87,4.7-5.8c0.17-0.2-0.15-0.47-0.32-0.26c-1.57,1.94-3.13,3.87-4.7,5.8
		C145.03,142.38,145.35,142.64,145.51,142.44z"/>
	<path class="st0" d="M149.29,135.49c-1.25,1.55-2.51,3.09-3.76,4.64c-0.17,0.2,0.15,0.47,0.32,0.26c1.25-1.55,2.51-3.09,3.76-4.64
		C149.77,135.55,149.46,135.28,149.29,135.49z"/>
	<path class="st0" d="M145.11,136.93c1.78-1.25,3.24-2.82,4.36-4.69c0.13-0.23-0.24-0.4-0.37-0.17c-1.09,1.8-2.51,3.32-4.23,4.53
		C144.65,136.75,144.89,137.09,145.11,136.93z"/>
	<path class="st0" d="M144.79,134.5c1.49-1.9,2.98-3.8,4.47-5.71c0.16-0.21-0.15-0.47-0.32-0.26c-1.49,1.9-2.98,3.81-4.47,5.71
		C144.31,134.45,144.62,134.71,144.79,134.5z"/>
	<path class="st0" d="M143.46,132.3c1.57-1.93,3.13-3.86,4.7-5.8c0.17-0.2-0.15-0.47-0.32-0.26c-1.57,1.93-3.13,3.87-4.7,5.8
		C142.98,132.24,143.29,132.5,143.46,132.3z"/>
	<path class="st0" d="M142.58,129.89c2.21-2.29,4.13-4.82,5.73-7.57c0.13-0.23-0.24-0.4-0.37-0.17c-1.59,2.72-3.49,5.22-5.68,7.48
		C142.08,129.82,142.4,130.08,142.58,129.89z"/>
	<path class="st0" d="M141.24,126.88c1.22-1.63,2.44-3.26,3.66-4.89c0.16-0.21-0.16-0.47-0.32-0.26c-1.22,1.63-2.44,3.26-3.66,4.89
		C140.77,126.83,141.08,127.09,141.24,126.88z"/>
	<path class="st0" d="M140.41,122.31c1.74-2.19,3.47-4.38,5.21-6.57c0.16-0.21-0.15-0.47-0.32-0.26c-1.74,2.19-3.47,4.38-5.21,6.57
		C139.93,122.25,140.25,122.52,140.41,122.31z"/>
	<path class="st0" d="M138.44,119.98c2.08-2.5,4.15-5,6.23-7.5c0.17-0.2-0.14-0.47-0.31-0.26c-2.08,2.5-4.15,5-6.23,7.5
		C137.96,119.92,138.27,120.18,138.44,119.98z"/>
	<path class="st0" d="M137.65,117.66c1.38-1.37,2.77-2.75,4.15-4.12c0.19-0.19-0.13-0.45-0.32-0.26c-1.38,1.37-2.77,2.75-4.15,4.12
		C137.15,117.59,137.46,117.85,137.65,117.66z"/>
	<path class="st0" d="M136.74,113.8c1.78-1.83,3.57-3.67,5.35-5.5c0.18-0.19-0.13-0.45-0.31-0.26c-1.78,1.83-3.57,3.67-5.35,5.5
		C136.24,113.72,136.55,113.98,136.74,113.8z"/>
	<path class="st0" d="M136.66,111.98c1.71-2.01,3.41-4.01,5.12-6.02c0.17-0.2-0.14-0.46-0.32-0.26c-1.71,2.01-3.41,4.02-5.12,6.03
		C136.18,111.92,136.49,112.18,136.66,111.98z"/>
	<path class="st0" d="M134.9,111.57c1.44-1.73,2.89-3.46,4.33-5.19c0.17-0.2-0.15-0.46-0.32-0.26c-1.44,1.73-2.89,3.46-4.33,5.19
		C134.41,111.51,134.73,111.77,134.9,111.57z"/>
	<path class="st0" d="M139.51,103.38c-1.43,1.54-2.85,3.08-4.27,4.63c-0.18,0.19,0.14,0.45,0.32,0.26c1.42-1.54,2.85-3.08,4.27-4.62
		C140.01,103.44,139.69,103.18,139.51,103.38z"/>
	<path class="st0" d="M134.36,107.12c1.49-1.84,2.99-3.68,4.48-5.53c0.17-0.2-0.15-0.47-0.32-0.26c-1.49,1.84-2.98,3.68-4.48,5.53
		C133.88,107.06,134.19,107.32,134.36,107.12z"/>
	<path class="st0" d="M134.18,104.6c1.43-1.8,2.86-3.6,4.29-5.39c0.16-0.21-0.15-0.47-0.31-0.26c-1.43,1.8-2.86,3.6-4.29,5.39
		C133.7,104.54,134.02,104.81,134.18,104.6z"/>
	<path class="st0" d="M133.85,102.07c1.14-1.6,2.27-3.2,3.41-4.81c0.15-0.21-0.16-0.48-0.31-0.26c-1.14,1.6-2.28,3.2-3.41,4.81
		C133.39,102.02,133.7,102.28,133.85,102.07z"/>
	<path class="st0" d="M136.99,93.59c-1.64,2.17-3.28,4.35-4.92,6.52c-0.16,0.21,0.16,0.47,0.32,0.26c1.64-2.17,3.28-4.35,4.92-6.52
		C137.46,93.64,137.15,93.38,136.99,93.59z"/>
	<path class="st0" d="M131.86,97.97c1.82-2.42,3.64-4.84,5.46-7.27c0.16-0.21-0.16-0.47-0.32-0.26c-1.82,2.42-3.64,4.84-5.46,7.27
		C131.39,97.92,131.7,98.18,131.86,97.97z"/>
	<path class="st0" d="M134.44,90.23c-1.36,1.76-2.71,3.53-4.07,5.29c-0.16,0.21,0.15,0.47,0.31,0.26c1.36-1.77,2.71-3.53,4.07-5.29
		C134.92,90.28,134.61,90.02,134.44,90.23z"/>
	<path class="st0" d="M132.92,88.15c-0.98,1.01-1.96,2.03-2.95,3.05c-0.18,0.19,0.13,0.45,0.32,0.26c0.98-1.02,1.96-2.03,2.95-3.05
		C133.42,88.22,133.1,87.96,132.92,88.15z"/>
	<path class="st0" d="M129.1,89.38c-0.2,0.17,0.04,0.51,0.24,0.33c2.14-1.89,4.08-3.97,5.83-6.24c0.16-0.21-0.15-0.47-0.32-0.26
		C133.13,85.45,131.22,87.51,129.1,89.38z"/>
	<path class="st0" d="M132.97,81.74c-1.43,1.8-2.86,3.6-4.29,5.4c-0.16,0.21,0.15,0.47,0.32,0.26c1.43-1.8,2.86-3.6,4.29-5.4
		C133.45,81.8,133.14,81.54,132.97,81.74z"/>
	<path class="st0" d="M132.05,79.13c-1.47,1.71-2.93,3.43-4.39,5.14c-0.17,0.2,0.14,0.46,0.31,0.26c1.47-1.71,2.93-3.43,4.39-5.14
		C132.54,79.2,132.23,78.93,132.05,79.13z"/>
	<path class="st0" d="M130.27,77.92c-1.24,1.3-2.47,2.6-3.71,3.9c-0.18,0.19,0.13,0.45,0.32,0.26c1.24-1.3,2.47-2.6,3.71-3.9
		C130.76,77.99,130.45,77.73,130.27,77.92z"/>
	<path class="st0" d="M129.58,75.38c-1.22,1.64-2.69,3.02-4.4,4.14c-0.22,0.14,0.02,0.48,0.24,0.34c1.74-1.14,3.24-2.54,4.48-4.21
		C130.05,75.43,129.74,75.16,129.58,75.38z"/>
	<path class="st0" d="M124.72,78.18c0.96-0.29,1.73-0.91,2.23-1.77c0.13-0.23-0.24-0.4-0.37-0.17c-0.45,0.77-1.14,1.31-1.99,1.56
		C124.33,77.87,124.47,78.26,124.72,78.18z"/>
	<path class="st0" d="M128.23,73.71c-1.19,0.98-2.37,1.96-3.56,2.94c-0.2,0.17,0.03,0.5,0.24,0.33c1.18-0.98,2.37-1.96,3.55-2.94
		C128.67,73.88,128.43,73.55,128.23,73.71z"/>
	<path class="st0" d="M143.12,53.65c-0.59,1.97-1.56,3.76-2.88,5.34c-0.17,0.2,0.15,0.46,0.32,0.26c1.36-1.63,2.35-3.49,2.96-5.53
		C143.6,53.47,143.2,53.4,143.12,53.65z"/>
	<path class="st0" d="M36.93,112.65c-1.59,0.87-2.58,2.45-2.71,4.25c-0.01,0.17,0.18,0.24,0.31,0.18c1.69-0.83,2.8-2.42,3.03-4.28
		c0.03-0.23-0.27-0.25-0.38-0.09C37.13,112.63,37.03,112.59,36.93,112.65z M34.68,116.52c0.22-1.48,1.1-2.76,2.43-3.5
		C36.85,114.5,35.97,115.76,34.68,116.52z"/>
	<path class="st0" d="M37.08,106.7c0.21-0.08,0.16-0.37-0.01-0.4c-0.1-0.07-0.27-0.05-0.32,0.09c-1.91,0.73-3.36,2.26-3.98,4.22
		c-0.04,0.14,0.11,0.3,0.25,0.25C34.98,110.19,36.47,108.66,37.08,106.7z M33.33,110.3c0.6-1.52,1.76-2.72,3.25-3.39
		C36,108.44,34.84,109.66,33.33,110.3z"/>
	<path class="st0" d="M31.65,104.65c2.24-0.85,3.9-2.64,4.57-4.94c0.03-0.09-0.01-0.16-0.06-0.2c0.13-0.14,0.02-0.42-0.19-0.34
		c-2.31,0.89-4.01,2.82-4.57,5.24C31.36,104.54,31.49,104.71,31.65,104.65z M35.78,99.69c-0.6,1.98-1.99,3.56-3.87,4.4
		C32.49,102.11,33.89,100.51,35.78,99.69z"/>
	<path class="st0" d="M42.1,102.02c0.14-0.12,0.03-0.4-0.19-0.35c-1.12,0.27-2.18,0.69-3.17,1.28c-0.39,0.24-1.49,0.78-1.38,1.42
		c0.09,0.55,0.68,0.42,1.05,0.28c1.36-0.53,2.68-1.34,3.99-1.99c0.12-0.06,0.13-0.24,0.04-0.32
		C42.33,102.23,42.22,102.13,42.1,102.02z M40.2,103.3c-0.33,0.17-0.66,0.33-1,0.5c-0.18,0.09-1,0.69-0.92-0.06
		c0.03-0.27,1.41-0.86,1.66-0.97c0.55-0.26,1.13-0.45,1.72-0.61c0,0,0,0.01,0.01,0.01c0.09,0.09,0.18,0.18,0.28,0.26
		C41.36,102.72,40.78,103.01,40.2,103.3z"/>
	<path class="st0" d="M43.15,93.7c-2.33-0.29-4.59,0.35-6.44,1.8c-0.12,0.09-0.05,0.31,0.09,0.34c2.3,0.47,4.61-0.03,6.5-1.43
		c0.13-0.1,0.1-0.28,0-0.36C43.4,93.96,43.35,93.72,43.15,93.7z M37.39,95.52c1.66-1.16,3.63-1.65,5.65-1.42
		C41.38,95.3,39.4,95.8,37.39,95.52z"/>
	<path class="st0" d="M27.72,108.37c-0.9,1.24-1.66,2.56-2.24,3.97c-0.21,0.51-1.07,2.11-0.21,2.53c0.9,0.44,1.57-1.3,1.81-1.8
		c0.62-1.33,0.95-2.74,1.06-4.2c0.01-0.11-0.06-0.17-0.14-0.19c0.02-0.03,0.04-0.07,0.07-0.1
		C28.23,108.36,27.88,108.15,27.72,108.37z M27.11,111.92c-0.19,0.54-0.43,1.07-0.7,1.57c-0.11,0.21-0.23,0.41-0.36,0.61
		c-0.67,0.29-0.88,0.17-0.65-0.34c0.01-0.39,0.33-0.95,0.48-1.31c0.21-0.52,0.45-1.03,0.71-1.53c0.33-0.63,0.71-1.23,1.11-1.81
		C27.62,110.07,27.44,111.01,27.11,111.92z"/>
	<path class="st0" d="M29.56,128.28c2.01,0.97,2.46-6.15,2.51-7.53c0.04-0.07,0.08-0.14,0.13-0.21c0.14-0.22-0.21-0.43-0.35-0.21
		c-0.03,0.04-0.05,0.09-0.08,0.14c-0.05,0.03-0.09,0.08-0.09,0.16c-0.88,1.4-1.6,2.9-2.09,4.49
		C29.37,125.82,28.54,127.79,29.56,128.28z M29.54,126.93c0.3-1.9,1.1-3.77,2.08-5.45c-0.06,1.05-0.19,2.1-0.39,3.13
		c-0.11,0.57-0.24,1.13-0.39,1.69c-0.08,0.28-0.12,0.74-0.31,0.96c-0.05,0.3-0.24,0.35-0.56,0.15
		C29.5,127.51,29.35,127.35,29.54,126.93z"/>
	<path class="st0" d="M21.91,134.64c0.01,1-0.07,1.99-0.29,2.98c-0.08,0.37-0.18,0.74-0.29,1.11c-0.07,0.24-0.16,0.48-0.24,0.72
		c-0.03,0.55-0.29,0.74-0.79,0.56c-0.52,0.16-0.68,0.01-0.49-0.44c0.05-0.24,0.11-0.49,0.17-0.73c0.09-0.36,0.2-0.72,0.32-1.07
		c0.15-0.45,0.32-0.88,0.51-1.31c0.34-0.46,0.68-0.91,1.02-1.37c0.16-0.21-0.2-0.42-0.35-0.21c0,0,0,0-0.01,0.01
		c-0.07-0.12-0.26-0.17-0.35-0.01c-0.24,0.44-0.45,0.89-0.65,1.35c0,0.01-0.01,0.01-0.02,0.02c-0.03,0.03-0.03,0.07-0.03,0.1
		c-0.39,0.89-0.7,1.8-0.92,2.75c-0.14,0.61-0.35,1.68,0.49,1.89c0.89,0.21,1.33-0.97,1.56-1.6c0.54-1.53,0.78-3.12,0.77-4.73
		C22.32,134.38,21.91,134.38,21.91,134.64z"/>
	<path class="st0" d="M20.03,120.06c-0.34,0.72-0.68,1.45-1.03,2.18c-0.61,0.89-2.41,4.02-0.66,4.03c0.83,0,1.22-1.27,1.43-1.85
		c0.5-1.37,0.7-2.8,0.64-4.25C20.4,119.98,20.12,119.86,20.03,120.06z M19.38,124.3c-0.08,0.2-0.17,0.41-0.25,0.61
		c-0.05,0.37-0.25,0.45-0.6,0.24c-0.63-0.11-0.44-0.22-0.28-0.69c0.13-0.37,0.29-0.72,0.47-1.06c0.08,0.03,0.18,0.02,0.23-0.09
		c0.14-0.3,0.28-0.6,0.42-0.9c0.02-0.03,0.04-0.05,0.06-0.08c0.03-0.04,0.04-0.09,0.04-0.14c0.17-0.37,0.35-0.74,0.52-1.11
		C19.95,122.18,19.76,123.26,19.38,124.3z"/>
	<path class="st0" d="M17.5,112.44c0.88,0.42,1.58-0.53,2.01-1.15c0.92-1.35,1.56-2.86,1.97-4.43c0.02-0.06,0-0.11-0.02-0.15
		c0.12-0.18-0.14-0.41-0.32-0.25C20.44,107.11,15.42,111.46,17.5,112.44z M18.48,109.84c0.3-0.37,0.61-0.72,0.93-1.07
		c0.49-0.54,1.01-1.06,1.54-1.56c-0.24,0.82-0.54,1.63-0.93,2.4c-0.21,0.41-0.44,0.81-0.68,1.2c-0.12,0.19-0.25,0.38-0.39,0.57
		c-0.31,0.63-0.82,0.63-1.52,0.03C17.44,110.89,18.2,110.18,18.48,109.84z"/>
	<path class="st0" d="M39.61,119.98c-1.36,1.22-2.52,2.66-3.34,4.29c-0.38,0.75-0.79,1.97-0.01,2.62c1.01,0.84,2.05-0.38,2.46-1.21
		c0.8-1.62,1.16-3.43,1.18-5.22c0-0.06-0.02-0.11-0.05-0.14c0.02-0.02,0.04-0.03,0.06-0.05C40.09,120.1,39.8,119.81,39.61,119.98z
		 M38.98,123.89c-0.18,0.59-0.4,1.19-0.69,1.74c-0.19,0.36-0.3,0.48-0.64,0.75c-0.29,0.45-0.59,0.43-0.91-0.06
		c-0.4-0.09-0.57-0.29-0.51-0.61c-0.07-0.91,0.79-2.02,1.28-2.74c0.57-0.84,1.24-1.6,1.97-2.31
		C39.45,121.76,39.3,122.84,38.98,123.89z"/>
	<path class="st0" d="M32.15,134.81c0.22,0.94,0.32,1.89,0.24,2.84c-0.04,0.53-0.14,1.05-0.29,1.56c-0.11,0.39-0.81,2.26-1.45,0.85
		c-0.31-0.68,0.2-2.07,0.39-2.73c0.26-0.9,0.62-1.75,1.05-2.58c0.12-0.23-0.23-0.44-0.35-0.21c-0.72,1.38-1.23,2.86-1.46,4.41
		c-0.09,0.66-0.19,1.81,0.67,2.03c0.99,0.25,1.43-1.16,1.6-1.83c0.38-1.47,0.35-2.98,0-4.45C32.48,134.44,32.08,134.55,32.15,134.81
		z"/>
	<path class="st0" d="M15.73,135.87c1.07,0.24,2.05-1.44,2.41-2.18c0.54-1.11,0.71-2.3,0.58-3.51c0,0,0.01-0.01,0.01-0.01
		c0.17-0.17-0.05-0.42-0.23-0.33c-0.09,0.02-0.17,0.08-0.19,0.17C17.37,131,13.69,135.41,15.73,135.87z M15.8,134.3
		c0.09-0.21,0.19-0.42,0.29-0.62c0.21-0.41,0.44-0.8,0.69-1.19c0.45-0.7,0.98-1.33,1.55-1.93c0.05,0.82-0.05,1.63-0.34,2.41
		c-0.17,0.46-0.4,0.89-0.68,1.29c-0.16,0.23-0.34,0.46-0.54,0.66c-0.17,0.29-0.4,0.31-0.7,0.06
		C15.52,134.98,15.43,134.75,15.8,134.3z"/>
	<path class="st0" d="M30.38,142.41c0-0.01-0.01-0.02-0.02-0.03c-0.01-0.01-0.02-0.02-0.02-0.03c-0.01-0.01-0.02-0.02-0.03-0.03
		c-0.01-0.01-0.02-0.01-0.04-0.02c-0.01,0-0.01-0.01-0.02-0.01c-0.02-0.01-0.04-0.01-0.07-0.01l0,0c-0.02,0-0.04,0-0.05,0.01
		c-0.07,0.02-0.12,0.07-0.13,0.15c-0.78,1.5-1.46,3.04-2.02,4.64c-0.24,0.71-0.81,2.22,0.23,2.62c2.31,0.89,2.24-6.09,2.19-7.18
		C30.4,142.48,30.39,142.45,30.38,142.41z M29.86,145.96c-0.08,0.57-0.18,1.14-0.31,1.7c-0.06,0.27-0.13,0.54-0.23,0.8
		c-0.03,0.12-0.08,0.24-0.15,0.35c-0.19,0.43-0.58,0.35-1.16-0.23c-0.09-0.37,0.24-1.03,0.36-1.38c0.16-0.46,0.33-0.91,0.5-1.36
		c0.34-0.85,0.73-1.68,1.14-2.5C30.02,144.21,29.98,145.09,29.86,145.96z"/>
	<path class="st0" d="M19.35,144.62c0.13-0.21-0.21-0.4-0.36-0.19c-0.92,1.3-1.58,2.76-1.91,4.32c-0.16,0.76-0.66,2.61,0.17,3.17
		c0.77,0.52,1.24-0.48,1.37-1.09c0.42-1.95,0.61-3.99,0.91-5.96C19.55,144.74,19.45,144.65,19.35,144.62z M18.59,148.34
		c-0.1,0.66-0.2,1.33-0.3,1.99c-0.03,0.21-0.05,0.42-0.11,0.62c-0.15,0.54-0.68,0.63-0.89,0.09c-0.17-0.45,0.06-1.42,0.13-1.85
		c0.09-0.5,0.21-0.99,0.36-1.47c0.31-0.96,0.76-1.86,1.31-2.7C18.93,146.13,18.76,147.23,18.59,148.34z"/>
	<path class="st0" d="M12.83,140.57c-0.6,0.86-4.41,6.63-2.21,7.24c1.11,0.31,1.76-1.39,2.05-2.15c0.56-1.5,0.65-3.08,0.36-4.65
		c0.05-0.08,0.1-0.15,0.16-0.23C13.33,140.56,12.98,140.35,12.83,140.57z M12.6,144.41c-0.13,0.59-0.32,1.16-0.57,1.71
		c-0.09,0.2-0.19,0.41-0.31,0.6c-0.11,0.14-0.22,0.29-0.33,0.43c-0.77,0.11-1.1-0.07-0.97-0.53c-0.03-0.95,0.73-2.26,1.12-3.07
		c0.34-0.71,0.73-1.39,1.16-2.04C12.82,142.48,12.81,143.45,12.6,144.41z"/>
	<path class="st0" d="M12.72,123.05c0.88-1.67,1.13-3.8,1.19-5.68c0.01-0.01,0.02-0.01,0.02-0.02c0.18-0.13,0.06-0.41-0.12-0.39
		c-0.12-0.06-0.3,0-0.31,0.17c0,0.01,0,0.02,0,0.03c-1.25,0.95-2.29,2.13-2.99,3.53c-0.45,0.89-1,2.36-0.16,3.21
		C11.23,124.78,12.29,123.87,12.72,123.05z M13.48,117.7c-0.07,1.21-0.24,2.41-0.57,3.58c-0.16,0.57-0.32,1.17-0.62,1.69
		c-0.18,0.31-0.66,0.9-1.1,0.88c-0.49-0.02-0.78-0.58-0.83-0.98C10.16,120.95,11.98,118.9,13.48,117.7z"/>
	<path class="st0" d="M7.47,135.08c0.71-1.37,0.89-2.9,0.61-4.41c-0.02-0.11-0.1-0.15-0.18-0.15c0.06-0.06,0.11-0.11,0.17-0.17
		c0.19-0.18-0.1-0.47-0.29-0.29c-0.93,0.9-5.11,5.35-2.86,6.61C6.02,137.29,7.04,135.9,7.47,135.08z M6.03,136.16
		c-0.56,0.27-1.27,0.11-1.27-0.65c-0.01-0.9,0.69-1.86,1.16-2.58c0.52-0.79,1.12-1.52,1.77-2.2c0,0.01,0,0.02,0,0.04
		c0.2,1.09,0.15,2.2-0.21,3.25c-0.18,0.53-0.43,1.04-0.76,1.5C6.51,135.8,6.35,136,6.03,136.16z"/>
	<path class="st0" d="M28.55,99.74c0.21-0.13,0.04-0.43-0.16-0.36c0.19-0.08,0.38-0.16,0.57-0.24c0.24-0.09,0.14-0.49-0.11-0.39
		c-1.86,0.7-3.66,1.56-5.35,2.62c-0.87,0.55-1.92,1.51-1.04,2.55c0.75,0.91,2.04,0.83,2.9,0.13
		C26.79,102.88,26.93,100.74,28.55,99.74z M23.77,104.16c-0.34-0.04-0.72-0.18-0.96-0.45c-0.57-0.65-0.05-1.35,0.5-1.75
		c0.51-0.37,1.07-0.67,1.62-0.97c1.09-0.6,2.21-1.11,3.37-1.58c-0.77,0.49-1.25,1.2-1.67,2C26.05,102.51,25.31,104.34,23.77,104.16z
		"/>
	<path class="st0" d="M27.2,153.59c0.01-0.01,0.01-0.02,0.02-0.03c0.14-0.23-0.22-0.43-0.35-0.21c-0.96,1.57-1.66,3.27-2.02,5.08
		c-0.18,0.91-0.67,2.76,0.41,3.32c2.73,1.43,2.09-6.98,2.04-8C27.3,153.68,27.26,153.62,27.2,153.59z M26.82,159.38
		c-0.04,0.5-0.08,0.96-0.31,1.42c-0.08,0.48-0.34,0.56-0.8,0.23c-0.53,0.07-0.76-0.13-0.69-0.6c-0.14-2.09,0.83-4.47,1.89-6.32
		c0.05,1.15,0.06,2.31,0.02,3.46C26.9,158.18,26.87,158.78,26.82,159.38z"/>
	<path class="st0" d="M16.95,155.81c0-0.26-0.41-0.26-0.41,0c0,0.11,0,0.23,0,0.34c-1.11,1.06-1.97,2.36-2.45,3.83
		c-0.27,0.82-0.74,2.4,0.21,3.01c2.21,1.42,2.6-4.66,2.65-6.66c0.03-0.03,0.06-0.07,0.1-0.1c0.13-0.12,0.04-0.29-0.09-0.33
		C16.95,155.87,16.95,155.83,16.95,155.81z M16.3,159.52c-0.1,0.61-0.2,1.26-0.38,1.85c-0.19,0.61-1.14,2.17-1.68,0.75
		c-0.36-0.93,0.33-2.4,0.74-3.21c0.41-0.81,0.95-1.54,1.57-2.19C16.52,157.66,16.44,158.6,16.3,159.52z"/>
	<path class="st0" d="M8.68,154.05c-0.03-0.05-0.04-0.09-0.07-0.14c-0.13-0.23-0.48-0.02-0.35,0.21c0.03,0.05,0.05,0.1,0.08,0.16
		c-1.08,1.06-1.86,2.38-2.18,3.87c-0.18,0.86-0.25,2.41,0.97,2.51c1.14,0.09,1.79-1.39,2.05-2.27c0.39-1.35,0.24-2.77-0.34-4.03
		C8.92,154.23,8.82,154.07,8.68,154.05z M8.98,157.07c-0.03,0.51-0.12,1.02-0.29,1.51c-0.1,0.29-0.23,0.56-0.38,0.82
		c-0.33,0.7-0.92,0.79-1.78,0.26c-0.38-0.83,0.22-2.26,0.58-3.01c0.36-0.74,0.85-1.39,1.42-1.97
		C8.86,155.42,9.02,156.23,8.98,157.07z"/>
	<path class="st0" d="M38.18,136.48c0.72,1.46,1.11,3.04,1.11,4.67c0,1.41-0.2,3.58-1.26,4.64c-0.5,0.5-1.46,0.13-1.48-0.58
		c-0.01-0.38,0.09-0.77,0.16-1.14c0.15-0.79,0.31-1.58,0.47-2.37c0.34-1.71,0.67-3.42,1.01-5.14c0.05-0.26-0.34-0.37-0.39-0.11
		c-0.52,2.63-1.11,5.26-1.55,7.9c-0.16,0.94-0.02,2.63,1.38,2.2c1.52-0.46,1.88-2.92,2.02-4.21c0.23-2.1-0.18-4.19-1.1-6.08
		C38.41,136.03,38.06,136.24,38.18,136.48z"/>
	<path class="st0" d="M35.26,153.98c-0.19-0.19-0.48,0.1-0.29,0.29c0.91,0.91,1.57,2,1.9,3.25c0.27,1.04,0.6,3.3-0.58,3.96
		c-0.86,0.49-1.6-0.37-1.84-1.11c-0.2-0.63-0.12-1.2,0.08-1.82c0.35-1.1,0.9-2.07,0.92-3.25c0.01-0.26-0.4-0.26-0.41,0
		c-0.04,1.78-1.56,3.38-0.98,5.18c0.3,0.92,1.15,1.87,2.2,1.47c1.32-0.5,1.33-2.42,1.19-3.56C37.24,156.7,36.46,155.17,35.26,153.98
		z"/>
</g>
</svg>
