<?xml version="1.0" encoding="utf-8"?>
<!-- Generator: Adobe Illustrator 25.2.1, SVG Export Plug-In . SVG Version: 6.00 Build 0)  -->
<svg version="1.1" id="Capa_1" xmlns="http://www.w3.org/2000/svg" xmlns:xlink="http://www.w3.org/1999/xlink" x="0px" y="0px"
	 viewBox="0 0 200 200" style="enable-background:new 0 0 200 200;" xml:space="preserve">
<style type="text/css">
	.st0{fill:#FFFFFF;stroke:#FFFFFF;stroke-width:0.3499;stroke-miterlimit:10;}
</style>
<g>
	<g>
		<path class="st0" d="M12.05,10.17c-0.88,0.95-1.18,2.52-0.16,3.43c1.99,1.78,3.97,3.56,5.96,5.34c0.05,0.04,0.11,0.07,0.16,0.11
			c2.52,1.71,4.88,3.68,7.65,5.02c0.34,0.16,0.64,0.41,0.94,0.64c2.26,1.75,4.76,3.16,7,4.96c1.29,1.03,2.78,1.81,4.04,2.87
			c3.99,3.36,8.54,5.99,12.47,9.44c0.28,0.25,0.63,0.43,0.96,0.62c3.13,1.83,6.14,3.85,9.04,6.03c0.46,0.34,0.86,0.78,1.35,1.05
			c2.06,1.14,3.83,2.74,5.93,3.82c1.18,0.61,2.33,1.3,3.47,1.99c2.02,1.21,3.98,2.52,6.03,3.65c2.65,1.45,4.51,2.44,6.6,4.66
			c0.99,1.05,2.41,1.37,3.46,2.44c0.75,0.77,0.87,1.66,0.5,2.63c-0.09,0.24-0.17,0.48-0.3,0.7c-1.1,1.87-0.79,3.61,0.41,5.32
			c0.69,1,1.63,1.8,2.27,2.8c0.7,1.07,1.65,1.75,2.63,2.44c0.67,0.48,1.37,0.93,2.1,1.32c2.32,1.25,4.28,3,6.18,4.76
			c1.51,1.39,3.19,2.51,4.75,3.8c0.39,0.32,0.85,0.3,1,0c0.18-0.36-0.05-0.6-0.25-0.83c-0.08-0.1-0.19-0.17-0.28-0.26
			c-0.95-0.86-2.09-1.45-3.08-2.23c-0.99-0.78-1.8-1.78-2.76-2.62c-1.92-1.67-4.14-2.93-6-4.7c-1.91-1.81-3.3-3.8-3.9-6.39
			c-0.2-0.86-0.04-1.49,0.39-2.14c0.32-0.47,0.77-0.64,1.33-0.49c0.98,0.27,1.93,0.59,2.77,1.21c1.78,1.33,3.73,2.41,5.58,3.64
			c2.23,1.48,4.44,2.97,6.49,4.68c1.5,1.24,3.3,1.88,4.93,2.85c0.05,0.03,0.2-0.06,0.28-0.12c0.03-0.02,0.02-0.14-0.02-0.17
			c-0.24-0.2-0.49-0.39-0.75-0.58c-1.55-1.11-3.31-1.91-4.67-3.29c-0.67-0.68-1.46-1.22-2.26-1.75c-0.58-0.38-1.17-0.78-1.7-1.23
			c-1.51-1.28-3.13-2.39-4.83-3.4c-1.2-0.72-2.37-1.49-3.58-2.19c-1-0.57-1.4-1.36-1.35-2.51c0.04-0.85,0.24-1.63,0.57-2.39
			c0.63-1.45,1.57-1.81,3.06-1.24c1.27,0.48,2.31,1.33,3.44,2.03c4.75,2.96,9.5,5.91,14.25,8.86c0.42,0.26,0.82,0.67,1.38,0.35
			c0.33-0.19,0.04-0.74-0.79-1.26c-2.09-1.32-4.21-2.61-6.32-3.9c-0.38-0.23-0.79-0.41-1.17-0.65c-2.37-1.49-4.72-3-7.1-4.48
			c-1.15-0.71-2.12-1.62-3.02-2.62c-0.67-0.74-0.86-2.05-0.39-2.82c0.61-1.01,1.36-1.88,2.7-1.76c0.69,0.07,1.4,0.18,1.98,0.61
			c0.62,0.46,1.34,0.72,2.03,1.04c2.6,1.21,5.1,2.57,7.31,4.44c0.91,0.77,1.88,1.51,3,2.02c0.51,0.23,0.99,0.58,1.43,0.94
			c1.4,1.13,3.07,1.79,4.55,2.77c0.17,0.11,0.38,0.03,0.48-0.14c0.06-0.09,0.08-0.26,0.03-0.35c-0.35-0.7-0.81-1.27-1.62-1.51
			c-0.42-0.12-0.92-0.24-1.2-0.54c-0.86-0.9-1.99-1.34-3-1.99c-0.8-0.52-1.67-0.96-2.39-1.57c-1.75-1.5-3.63-2.79-5.66-3.85
			c-1.68-0.88-3.35-1.82-5.19-2.35c-2.57-0.73-5.17-1.17-7.42,0.79c-1.17,1.02-2.37,1.08-3.71,0.6c-0.54-0.19-1.09-0.36-1.6-0.6
			c-0.59-0.28-1.17-0.5-1.83-0.24c-0.61,0.25-1.11-0.02-1.62-0.3c-1.84-1.02-3.66-2.07-5.36-3.3c-3.92-2.83-7.8-5.71-11.72-8.52
			c-2.58-1.85-5.15-3.73-7.94-5.27c-0.78-0.43-1.51-0.94-2.24-1.45c-2.29-1.61-4.56-3.25-6.86-4.84c-2.45-1.7-4.99-3.27-7.37-5.09
			c-2.82-2.16-5.55-4.46-8.56-6.37c-1.83-1.16-3.41-2.64-5.26-3.79c-1.83-1.13-3.59-2.4-5.29-3.74c-1.75-1.38-3.61-2.59-5.45-3.84
			c-1.11-0.76-2.34-1.28-3.6-1.55c-0.58-0.12-1.23-0.3-1.83-0.25C12.99,9.42,12.46,9.73,12.05,10.17z M88.05,59.13
			c0.74,0.2,1.47,0.42,2.21,0.61c1.32,0.32,2.47,0.11,3.53-0.84c0.7-0.63,1.58-1.05,2.4-1.53c0.2-0.12,0.49-0.14,0.75,0.17
			c-1.07,1.06-1.51,2.39-1.48,3.89c0.01,0.56-0.26,0.96-0.76,1.22c-0.28,0.14-0.56,0.29-0.83,0.46c-0.91,0.56-1.5,1.31-1.73,2.39
			c-0.22,1.05-0.41,2.1-0.35,3.12c-0.13,0.1-0.18,0.16-0.24,0.18c-2.31,0.7-2.73,1.37-2.37,3.73c0.2,1.33,0.85,2.49,1.41,3.68
			c-0.72-0.18-1.11-0.76-1.52-1.31c-0.15-0.2-0.25-0.45-0.4-0.65c-1.13-1.47-1.24-3.01-0.34-4.63c0.06-0.11,0.11-0.23,0.16-0.35
			c0.87-1.97,0.8-2.4-0.7-3.85c-0.5-0.49-1.02-0.96-1.56-1.4c-0.88-0.71-0.87-0.69-0.63-1.66c0.25-1,0.72-1.9,1.21-2.78
			C87.16,58.95,87.28,58.92,88.05,59.13z M14.66,10.67c0.13,0.01,0.25,0.04,0.38,0.07c0.25,0.05,0.5,0.11,0.74,0.17
			c1.31,0.32,2.55,0.81,3.59,1.7c2.13,1.82,4.54,3.25,6.82,4.87c0.78,0.55,1.56,1.09,2.31,1.68c2.04,1.62,4.31,2.91,6.3,4.61
			c1.64,1.4,3.55,2.47,5.26,3.78c2.97,2.29,6.03,4.45,9.14,6.55c3.05,2.06,6.06,4.19,9.09,6.28c0.21,0.14,0.41,0.3,0.64,0.41
			c1.89,0.93,3.56,2.21,5.3,3.37c3.18,2.12,6.15,4.5,9.26,6.71c3.31,2.35,6.44,4.98,10.06,6.87c0.28,0.15,0.55,0.32,0.81,0.51
			c1.39,0.97,1.48,2.33,0.24,3.45c-0.49,0.44-0.68,0.43-1.32,0.04c-2.28-1.38-4.51-2.85-6.89-4.07c-1.3-0.67-2.5-1.51-3.75-2.27
			c-1.47-0.88-2.94-1.77-4.42-2.63c-1.7-0.99-3.36-2.05-4.97-3.2c-3.26-2.32-6.51-4.65-9.89-6.78c-1.89-1.19-3.7-2.44-5.44-3.83
			c-1.29-1.02-2.67-1.94-4-2.92c-1.28-0.94-2.6-1.83-3.8-2.86c-1.5-1.29-3.19-2.3-4.75-3.51c-2.35-1.83-4.75-3.61-7.32-5.12
			c-0.55-0.32-1.04-0.73-1.56-1.1c-0.47-0.33-0.89-0.75-1.4-0.99c-2.53-1.24-4.61-3.15-6.97-4.64c-0.95-0.6-1.56-1.48-2.37-2.18
			c-0.76-0.67-1.53-1.33-2.26-2.04c-0.66-0.64-0.85-1.05-0.3-1.83c0.11-0.15,0.14-0.35,0.23-0.52
			C13.72,10.7,13.97,10.58,14.66,10.67z"/>
		<path class="st0" d="M26.38,22.18c4.11,3.28,8.51,6.23,12.78,9.3c2.14,1.54,4.28,3.07,6.43,4.61c2.01,1.44,3.98,3,6.13,4.23
			c0.05,0.03,0.1-0.05,0.06-0.09c-1.95-1.75-4.2-3.19-6.32-4.73c-2.13-1.55-4.27-3.09-6.41-4.63c-4.15-2.99-8.23-6.13-12.52-8.9
			C26.4,21.89,26.26,22.09,26.38,22.18z"/>
		<path class="st0" d="M57.37,42.01c2.14,1.32,4.36,2.49,6.47,3.86c2.29,1.49,4.52,3.07,6.76,4.63c4.28,2.99,8.48,6.27,12.99,8.92
			c0.04,0.02,0.07-0.03,0.04-0.06c-2.09-1.76-4.39-3.27-6.61-4.86c-2.23-1.6-4.44-3.2-6.67-4.8c-4.01-2.87-8.2-6.17-12.81-8.01
			C57.32,41.61,57.18,41.9,57.37,42.01z"/>
		<path class="st0" d="M14.05,12.87c0.02,0.05,0.09,0.05,0.11-0.01c0.38-1.37,3.01,0.14,3.74,0.39c0.18,0.06,0.36-0.15,0.2-0.29
			c-0.76-0.65-2.01-1.17-3.02-1.18C14.48,11.77,13.74,12.19,14.05,12.87z"/>
		<path class="st0" d="M86.48,63.38c0.64,1.22,1.92,2.35,3.15,2.97c0.04,0.02,0.07-0.03,0.04-0.06c-0.49-0.52-1.05-0.99-1.56-1.49
			c-0.51-0.51-0.99-1.03-1.56-1.48C86.51,63.28,86.46,63.33,86.48,63.38z"/>
		<path class="st0" d="M88.12,60.66c-0.04-0.01-0.06,0.05-0.02,0.07c1.41,0.66,4.1,1.66,5.09-0.23c0.05-0.09-0.06-0.16-0.14-0.12
			c-0.79,0.4-1.48,0.74-2.38,0.71C89.82,61.07,88.94,60.87,88.12,60.66z"/>
	</g>
	<g>
		<g>
			<path class="st0" d="M79.07,105.48c-0.02,0.01-0.04,0.02-0.05,0.04c0.02,0,0.03,0,0.04,0.01L79.07,105.48z"/>
			<path class="st0" d="M185.59,117.75c0.01-0.02,0.03-0.04,0.04-0.06c-0.03,0.01-0.05,0.01-0.08,0.02L185.59,117.75z"/>
			<path class="st0" d="M91.4,107.35c0.02-0.02,0.04-0.04,0.06-0.06c-0.03,0.01-0.06,0.02-0.1,0.02L91.4,107.35z"/>
			<path class="st0" d="M196.58,104.21c-2.05-1.74-4.35-3.12-6.58-4.58c-1.78-1.16-3.65-2.21-5.53-3.18
				c-2.51-1.3-5.1-2.45-7.63-3.72c-2.04-1.02-4.12-1.9-6.28-2.64c-1.84-0.63-3.65-1.43-4.77-3.26c-0.35-0.57-1.03-0.97-1.63-1.33
				c-2.17-1.29-4.35-2.54-6.56-3.77c-0.96-0.53-1.93-1.17-2.97-1.39c-2.47-0.53-4.51-1.81-6.47-3.28c-0.83-0.62-1.74-1.07-2.75-1.34
				c-1.53-0.42-3.01-0.93-4.26-1.97c-0.35-0.29-0.83-0.43-1.27-0.59c-1.19-0.41-2.39-0.82-3.6-1.17c-2.43-0.71-4.79-0.78-6.98,0.81
				c-0.95,0.69-2,1.27-3.01,1.88c-0.47,0.28-0.94,0.66-1.45,0.76c-1.06,0.22-1.85,0.85-2.66,1.48c-1.81,1.4-3.59,2.83-5.39,4.24
				c-2.25,1.76-4.34,3.66-5.63,6.29c-0.54,1.12-1.41,1.82-2.61,2.23c-2.46,0.84-4.89,1.76-7.31,2.71c-3.59,1.4-7.26,2.62-10.76,4.28
				c-1.13,0.54-2.41,0.79-3.51,1.38c-1.2,0.64-2.44,1.06-3.75,1.36c-0.77,0.17-1.55,0.33-2.27,0.62c-2.81,1.15-5.75,2.21-8.62,3.28
				c-1.46,0.55-2.93,1.09-4.37,1.69c-1.25,0.52-2.45,1.18-3.8,1.42c-1.9,0.34-3.89,0.12-5.77,0.55c-1.08,0.25-2.07,0.81-2.95,1.47
				c-1.87,1.4-1.88,1.39-0.18,2.8c0.12,0.1,0.24,0.21,0.36,0.31c0.55,0.43,0.72,0.95,0.54,1.66c-0.63,2.49-0.62,4.99-0.01,7.49
				c0.43,1.76,0.85,3.53,1.29,5.28c0.35,1.37,0.74,2.74,1.1,4.11c0.25,0.94,0.01,1.66-0.86,2.22c-1.39,0.89-2.74,1.85-4.08,2.82
				c-2.93,2.13-5.95,4.13-9.09,5.96c-2.32,1.34-4.6,2.76-6.79,4.31c-3.8,2.69-7.74,5.15-11.75,7.48c-0.41,0.24-0.83,0.47-1.17,0.78
				c-1.64,1.51-3.54,2.63-5.49,3.67c-0.83,0.44-1.64,0.95-2.44,1.45c-3.42,2.12-6.63,4.52-9.73,7.09c-1.15,0.95-2.41,1.77-3.62,2.66
				c-0.25,0.18-0.5,0.4-0.66,0.65c-0.22,0.34-0.26,0.76-0.03,1.12c0.23,0.37,0.63,0.48,1.03,0.41c0.29-0.05,0.66-0.14,0.84-0.35
				c1.58-1.93,3.73-3.13,5.75-4.48c3.34-2.24,6.72-4.42,10.09-6.6c1.72-1.11,3.45-2.21,5.21-3.27c2.23-1.34,4.56-2.51,6.72-3.96
				c2.55-1.72,5.19-3.29,7.83-4.86c0.68-0.4,1.34-0.83,1.99-1.27c5.29-3.57,10.57-7.16,15.86-10.73c0.26-0.18,0.53-0.33,0.82-0.47
				c0.37-0.18,0.87,0.07,0.9,0.47c0.02,0.31,0.03,0.63-0.03,0.93c-0.08,0.47-0.23,0.94,0.01,1.39c0.28,0.54,0.83,0.25,1.25,0.37
				c0.51,0.15,0.96,0.51,1.44,0.76c0.63,0.32,0.93,0.8,0.84,1.53c-0.35,2.85,0.98,5.21,2.24,7.58c0.21,0.4,0.53,0.83,0.91,1.05
				c1.16,0.66,2.32,1.38,3.57,1.8c1.86,0.62,3.81,1.23,5.63-0.23c0.36-0.29,0.75-0.15,1.07,0.13c0.47,0.42,0.94,0.84,1.38,1.3
				c0.41,0.43,0.37,0.84-0.07,1.21c-0.47,0.4-1.18,0.51-1.39,1.2c0.2,0.17,0.31,0.33-0.04,0.5l0.04-0.05
				c-0.17,0.17-0.35,0.35-0.52,0.52l0.05-0.04c-0.7,1.11-1.87,1.67-2.87,2.42c-3.17,2.36-6.69,4.13-10.12,6.06
				c-2.67,1.5-5.33,3.04-7.92,4.7c-3.32,2.13-6.66,4.24-10.22,5.91c-3.73,1.74-7.21,3.86-10.77,5.89c-0.75,0.43-1.49,0.87-2.32,1.16
				c-0.59,0.21-1.13,0.55-1.65,0.9c-1.63,1.1-3.28,2.18-4.86,3.35c-1.92,1.41-4.15,2.26-6.13,3.54c-0.19,0.12-0.49,0.13-0.62-0.12
				c-0.12-0.22,0-0.46,0.19-0.61c1.71-1.37,3.34-2.88,5.4-3.75c0.58-0.25,1.21-0.46,1.68-0.85c1.6-1.33,3.47-2.19,5.35-2.98
				c2.26-0.96,4.17-2.51,6.37-3.57c0.78-0.38,1.47-0.91,2.26-1.27c1.66-0.76,3.2-1.69,4.61-2.85c0.68-0.55,1.42-0.98,2.22-1.33
				c1.45-0.64,2.74-1.54,4.04-2.43c0.31-0.21,0.6-0.46,0.7-0.85c-0.29,0.06-0.61,0.07-0.86,0.21c-3.02,1.71-6.11,3.31-9.01,5.2
				c-3.64,2.37-7.43,4.43-11.28,6.41c-1.54,0.79-3.11,1.54-4.58,2.46c-2.94,1.85-5.93,3.58-9.03,5.15c-0.55,0.28-1.43,0.44-1.41,1.1
				c0.02,0.95,1.06,1,1.75,1.26c0.43,0.17,0.94,0.14,1.38,0.29c0.91,0.31,1.72,0.12,2.47-0.39c2.02-1.38,4.25-2.42,6.16-3.97
				c1.72-1.39,3.56-2.58,5.55-3.56c1.55-0.76,2.97-1.77,4.46-2.67c1.75-1.06,3.62-1.9,5.28-3.11c0.13-0.09,0.28-0.18,0.42-0.2
				c1.84-0.34,3.28-1.46,4.82-2.4c1.88-1.15,3.88-2.13,5.69-3.39c4.55-3.15,9.39-5.79,14.27-8.35c1.97-1.03,3.79-2.25,5.6-3.51
				c1.62-1.12,3.22-2.27,4.86-3.35c0.65-0.43,1.42-0.67,2.11-1.04c0.79-0.43,1.49-0.35,2.18,0.21c2.29,1.84,4.97,3.04,7.5,4.49
				c1.09,0.62,2.21,1.23,3.22,1.97c1.52,1.09,3.09,1.83,5.03,1.69c1.1-0.08,2.2,0.12,3.27,0.45c0.71,0.22,1.01,0.66,1.01,1.41
				c0,0.39-0.05,0.79-0.1,1.18c-0.32,2.23-0.08,4.4,0.53,6.55c0.17,0.6,0.22,1.24,0.37,1.85c0.64,2.65,1.68,5.17,3.66,7.04
				c2.5,2.36,5.49,3.92,8.96,4.51c1.65,0.28,3.26,0.43,4.9-0.04c3.17-0.9,5.5-2.98,7.68-5.3c0.16-0.17,0.25-0.4,0.36-0.61
				c1.74-3.11,3.11-6.37,3.89-9.86c0.27-1.18,0.37-2,0.58-3.49c0.44-3.25,0.67-5.03,0.31-6.89c-0.13-0.68-0.21-1.36-0.37-2.03
				c-0.3-1.27-0.58-1.84-0.26-2.24c0.18-0.22,0.36-0.16,1.18-0.64c0.3-0.18,0.5-0.33,0.57-0.36c2.44-0.89,4.88-1.79,7.34-2.65
				c3.19-1.12,6.46-2.06,9.39-3.84c0.68-0.41,1.39-0.77,2.19-0.84c1.27-0.1,2.48-0.41,3.64-0.94c0.53-0.24,0.94,0.06,0.92,0.66
				c-0.02,0.79-0.01,1.59-0.16,2.36c-0.39,1.9-0.09,3.76,0.2,5.63c0.65,4.11,2.49,7.6,5.36,10.58c0.61,0.63,1.26,1.19,2.1,1.49
				c3.4,1.18,6.67,0.62,9.43-1.44c3.71-2.77,6.7-6.21,7.77-10.95c0.1-0.46,0.33-0.89,0.52-1.32c1.38-3.15,1.74-6.52,2.09-9.88
				c0.23-2.21,0.22-4.41-0.22-6.59c-0.14-0.72,0.11-1.22,0.74-1.56c0.28-0.15,0.53-0.36,0.82-0.48c1.4-0.54,2.02-1.64,2.41-3.01
				c0.34-1.21,0.72-2.42,1.21-3.59c1.37-3.29,2.27-6.73,2.96-10.21c0.71-3.58,1.76-7.02,3.3-10.32c0.23-0.49,0.48-1,0.6-1.52
				C197.45,105.3,197.24,104.77,196.58,104.21z M13.87,162.26c0.25-0.53,0.63-0.9,1.25-0.93C14.84,161.83,14.33,162.01,13.87,162.26
				z M15.25,161.25c1.2-1.42,2.74-2.25,4.51-2.73C18.63,159.58,16.87,160.65,15.25,161.25z M29.45,152.31
				c1.31-1.37,1.37-1.41,3.1-1.88C31.47,151.61,31.44,151.62,29.45,152.31z M32.67,150.36c0.31-0.49,0.75-0.8,1.33-0.9
				C33.75,150.06,33.25,150.27,32.67,150.36z M34.08,149.41c0.24-0.31,0.56-0.41,0.94-0.38C34.77,149.32,34.45,149.43,34.08,149.41z
				 M45.45,142.41c-3.07,1.96-5.94,4.24-9.13,6.02c-0.39,0.22-0.81,0.37-1.22,0.55c0.23-0.7,0.86-1.02,1.39-1.43
				c3.06-2.36,6.38-4.32,9.78-6.14C46.14,141.86,45.82,142.17,45.45,142.41z M51.63,138.02c0.33-0.42,0.75-0.71,1.27-0.85
				C52.63,137.69,52.18,137.94,51.63,138.02z M53.01,137.1c0.35-0.49,0.83-0.76,1.42-0.81C53.98,136.59,53.6,137.03,53.01,137.1z
				 M57.69,134.28c-0.96,0.76-2.01,1.39-3.11,1.93c0.76-1.32,2.06-1.91,3.33-2.63C58.06,134.01,57.86,134.14,57.69,134.28z
				 M177.63,94.53c2.29,1.37,4.65,2.61,7.09,3.74c2.92,1.35,5.79,2.86,8.23,5.03c0.23,0.21,0.48,0.41,0.67,0.66
				c0.21,0.28,0.21,0.66-0.14,0.79c-1.53,0.62-3.08,1.19-4.62,1.78c-0.48,0.18-0.91-0.01-1.36-0.18c-0.87-0.32-1.76-0.59-3-1
				c0.3,0.5,0.34,0.57,0.38,0.64c0.32,0.43,1.11,0.64,0.99,1.23c-0.17,0.8-1.02,0.87-1.7,1.01c-0.53,0.11-0.88-0.15-1.09-0.66
				c-0.62-1.53-1.39-2.99-2.13-4.46c-0.64-1.27-1.31-2.51-2.12-3.67c-1.3-1.87-2-4.08-3.58-5.83
				C176.19,93.66,176.91,94.1,177.63,94.53z M109.76,90.68c0.68-0.98,1.59-1.73,2.41-2.57c0.81-0.83,1.08-2.09,1.91-2.96
				c0.98-1.03,1.91-2.09,3.06-2.95c1.45-1.09,2.82-2.28,4.26-3.38c0.94-0.72,1.94-1.31,3.02-1.83c1.41-0.67,2.75-1.51,4.05-2.39
				c2.05-1.37,4.2-1.65,6.54-0.95c1.21,0.36,2.44,0.63,3.66,0.95c0.38,0.1,0.77,0.2,1.11,0.39c2.01,1.08,4.09,1.96,6.25,2.75
				c1.51,0.55,2.81,1.72,4.12,2.72c0.58,0.45,1.11,0.8,1.86,0.89c1.83,0.22,3.49,0.9,5.07,1.86c1.75,1.07,3.54,2.07,5.34,3.05
				c1.27,0.69,2.39,1.54,3.22,2.73c0.57,0.82,1.33,1.26,2.24,1.62c2.52,1,4.78,2.39,6.55,4.51c0.56,0.67,1.14,1.31,1.56,2.07
				c0.94,1.73,1.82,3.5,2.99,5.1c0.59,0.81,0.7,1.74,0.71,2.8c-0.44,0.78-0.04,1.37,0.62,1.95c0.45,0.39,0.27,0.89-0.18,1.19
				c-0.49,0.32-0.88,0.61-0.85,1.28c0.02,0.46-0.42,0.62-0.8,0.75c-2.53,0.89-5.06,1.77-7.59,2.66c-1.64,0.57-3.28,1.12-4.9,1.74
				c-4.19,1.61-8.36,3.29-12.56,4.88c-2.36,0.89-4.77,1.64-7.15,2.48c-7.36,2.59-14.73,5.16-22.07,7.81
				c-5.04,1.82-10.22,3.2-15.33,4.82c-0.9,0.28-1.78,0.64-2.68,0.94c-0.9,0.29-1.8,0.62-2.72,0.8c-1.27,0.25-2.3,0.06-3.4-0.97
				c-1.76-1.67-3.83-3.02-5.84-4.41c-0.82-0.56-1.28-1.01-0.86-2.08c0.25-0.63,0.22-1.4,0.22-2.1c-0.01-2.24,0.46-4.38,1.36-6.42
				c1.06-2.38,2.13-4.75,3.25-7.09c0.29-0.59,0.48-1.11,0.36-1.79c-0.18-1.05,0.12-2.1,0.57-2.98c0.68-1.33,1.19-2.74,2.04-3.99
				c0.75-1.1,1.31-2.33,1.94-3.51c1.21-2.26,2.59-4.42,4.02-6.54c0.05-0.01,0.09-0.03,0.14-0.05c0.25-0.08,0.3-0.31,0.23-0.5
				C108.26,92.85,109.02,91.76,109.76,90.68z M92.28,125.58c-0.01,0.31-0.03,0.63-0.07,0.94c-0.34,2.57-0.53,2.56-2.39,1.19
				c-2.28-1.67-4.57-3.32-6.86-4.98c-0.25-0.18-0.47-0.41-0.69-0.64c-0.31-0.32-0.23-0.77,0.21-0.95c3.77-1.56,7.55-3.11,11.33-4.64
				c0.42-0.17,0.91-0.16,1.8-0.3c-0.65,1.36-1.1,2.35-1.61,3.32C93.01,121.42,92.31,123.4,92.28,125.58z M66.13,107.51
				c1.21-0.55,2.42-1.16,3.68-1.57c2.61-0.86,5.26-1.6,7.9-2.4c0.38-0.11,0.76-0.22,1.12-0.38c3.07-1.4,6.11-2.91,9.22-4.21
				c3.55-1.48,6.91-3.4,10.68-4.38c1.66-0.43,3.21-1.27,4.84-1.85c1.38-0.49,2.79-0.89,4.16-1.32c0.22,0.47-0.01,0.7-0.19,0.94
				c-0.34,0.48-0.67,0.97-1.01,1.45c-6.52,2.2-12.14,6.34-18.92,7.94c-0.1,0.02-0.08,0.17,0.02,0.15c6.39-1.05,12.04-4.66,18.08-6.9
				c-1.55,2.31-3.03,4.66-4.29,7.15c-0.42,0.82-0.96,1.43-1.99,1.35c-0.22-0.02-0.47,0.08-0.67,0.2c-2.17,1.3-4.59,2.07-6.83,3.21
				c-0.18,0.09-0.32,0.25-0.47,0.39c1.52-0.26,2.96-0.8,4.36-1.42c0.86-0.38,1.74-0.74,2.68-0.83c0.37-0.04,0.6,0.25,0.53,0.6
				c-0.1,0.45-0.27,0.91-0.48,1.32c-0.21,0.42-0.42,0.84-0.6,1.27c-0.05,0-0.11,0.01-0.16,0.03c-2.75,1.04-5.5,2.13-8.19,3.33
				c-2.46,1.1-5.18,1.92-7.49,3.31c-0.09,0.05-0.02,0.2,0.08,0.18c2.64-0.59,5.17-1.86,7.71-2.77c2.56-0.91,5.11-1.93,7.62-2.98
				c-0.39,1.1-0.64,2.25-0.62,3.47c0.01,0.72-0.4,1.16-1.03,1.44c-1.72,0.75-3.44,1.52-5.18,2.24c-2.18,0.9-4.36,1.78-6.56,2.63
				c-1.1,0.42-2.25,0.71-3.35,1.12c-0.77,0.29-1.35,0.12-1.92-0.43c-0.68-0.65-1.42-1.23-2.12-1.87c-0.44-0.4-0.42-0.68,0.1-1.15
				c0.22-0.2,0.58-0.26,0.63-0.63c-0.12-0.06-0.28-0.19-0.36-0.16c-1.43,0.63-2.5,0.16-3.55-0.91c-0.25-0.25-0.5-0.49-0.76-0.72
				c2.09-0.58,4.15-1.39,6.19-2.11c2.28-0.81,4.84-1.49,6.92-2.74c0.09-0.05,0.02-0.19-0.08-0.18c-2.3,0.31-4.63,1.34-6.82,2.1
				c-2.24,0.77-4.57,1.48-6.74,2.45c-0.91-0.81-1.85-1.59-2.76-2.4c-0.27-0.24-0.25-0.57,0.03-0.81c0.24-0.2,0.51-0.38,0.78-0.52
				c2.58-1.33,5.02-2.93,7.73-4.03c0.34-0.14,0.63-0.38,0.95-0.58c-0.81-0.14-1.52,0.19-2.23,0.48c-1.74,0.72-3.49,1.44-5.12,2.4
				c-0.67,0.4-1.43,0.65-2.14,0.98c-0.41,0.18-0.74,0.12-1.05-0.22c-0.38-0.43-0.76-0.32-1.25-0.07c-0.48,0.24-1.46-0.5-1.46-1.05
				C65.78,107.86,65.96,107.58,66.13,107.51z M56.91,110.93c-0.25-0.17-0.48-0.42-0.62-0.69c-0.08-0.16-0.04-0.52,0.09-0.63
				c0.98-0.85,2.14-1.3,3.5-1.38c0.26,0.04,0.58,0.04,0.87,0.14c0.84,0.26,2.14,0.37,3.21,0.79c0.46,0.18,1.54,0.94,3.68,2.45
				c0.88,0.62,1.32,0.93,1.47,1.04c1.29,0.95,2.48,2.17,3.63,3.19c0.11,0.09,0.28,0.36,0.58,0.7c0.23,0.27,0.68,0.77,1.2,1.22
				c0.55,0.48,1.01,0.74,1.29,0.92c1.26,0.79,2,1.77,2.7,2.3c5.52,4.19,10.96,8.49,16.69,12.41c1.43,0.98,2.77,2.08,4.13,3.16
				c0.65,0.52,0.64,1.05,0.06,1.59c-0.9,0.83-2.03,1.2-3.18,1.47c-0.64,0.15-1.26-0.06-1.79-0.43c-0.97-0.67-2.02-1.27-2.87-2.07
				c-0.93-0.87-1.95-1.59-2.95-2.35c-2.51-1.89-5.2-3.56-7.42-5.82c-0.16-0.17-0.35-0.33-0.55-0.44c-2.99-1.77-5.57-4.1-8.36-6.15
				c-2.09-1.54-4.07-3.23-6.12-4.83c-0.93-0.73-1.85-1.5-2.88-2.06C60.96,114.19,59.04,112.41,56.91,110.93z M59.7,129.27
				c-0.73-1.91-0.95-3.94-1.34-5.74c-0.01-0.44,0.09-0.65,0.34-0.72c0.13-0.04,0.3,0.01,0.44,0.05c0.07,0.02,0.15,0.07,0.2,0.12
				c1.56,1.54,3.28,2.88,5.2,3.94c0.29,0.16,0.29,0.67,0,0.75c-1.32,0.38-2.29,1.32-3.41,2.02
				C60.37,130.16,59.99,130.05,59.7,129.27z M61.14,131.65c-0.07-0.06-0.09-0.3-0.03-0.39c0.77-1.03,1.86-1.49,3.22-2.04
				c-0.2,0.46-0.21,0.64-0.31,0.71c-0.82,0.6-1.64,1.18-2.48,1.75C61.45,131.74,61.22,131.72,61.14,131.65z M65.49,144.07
				c-0.32-0.87-0.75-1.74-0.64-2.77c0.02-0.1,0.04-0.26,0.07-0.41c0.06-0.3,0.51-0.52,0.73-0.33c1.12,0.98,2.23,1.95,3.31,2.97
				c0.39,0.36,0.3,0.89-0.08,1.24c-0.06,0.05-0.12,0.1-0.18,0.15C66.74,146.52,66.37,146.44,65.49,144.07z M73.94,149.36
				c-0.08,0.01-0.15,0.04-0.23,0.05c-0.23,0.01-0.47,0-0.7,0c-1.51-0.1-2.93-0.51-4.24-1.26c-0.5-0.29-0.6-0.76-0.23-1.17
				c0.37-0.4,0.76-0.79,1.18-1.14c0.87-0.7,1.11-0.71,2.03,0.06c0.89,0.76,1.74,1.57,2.56,2.4C74.7,148.7,74.47,149.28,73.94,149.36
				z M102.24,160.49c-0.47,0.67-1.02,1.2-1.95,1.05c-0.39-0.06-0.78-0.07-1.41-0.11c-2.15,0.27-4.02-1.02-5.9-2.12
				c-2.04-1.19-4.07-2.39-6.17-3.47c-1.19-0.61-2.33-1.32-3.37-2.16c-0.47-0.37-0.43-0.83,0.1-1.12c0.41-0.22,0.85-0.41,1.28-0.6
				c2.01-0.88,4.03-1.75,6.04-2.63c0.36-0.16,0.74-0.3,1.04-0.54c0.31-0.25,0.44-0.66,0.35-1.07c-0.15-0.64-1.79-1.78-2.39-1.68
				c-0.15,0.02-0.33,0.08-0.41,0.19c-1.44,1.9-3.63,2.71-5.6,3.85c-0.68,0.39-1.38,0.75-2.08,1.12c-0.6,0.32-1.18,0.35-1.77-0.08
				c-0.5-0.37-1.05-0.66-1.53-1.09c-2.17-1.94-4.27-3.95-6.57-5.75c-1.79-1.41-3.36-3.08-5.02-4.64c-0.69-0.64-1.39-1.28-2.08-1.92
				c-0.98-0.91-2.04-1.76-2.32-3.18c-0.02-0.12-0.24-0.33-0.3-0.31c-0.51,0.19-0.76-0.04-0.82-0.51c-0.06-0.45,0.25-0.73,0.6-0.94
				c1.08-0.65,2.16-1.3,3.24-1.93c1.41-0.83,1.61-1.32,1.33-2.9c-0.11-0.62-0.46-0.97-0.96-1.25c-0.97-0.54-1.82-1.23-2.67-1.94
				c-1.46-1.21-2.71-2.59-3.89-4.09c-1.5-1.91-1.25-3.96-0.92-6.07c0.07-0.44,0.57-0.64,0.9-0.4c4.33,3.13,8.91,5.93,12.95,9.47
				c1.78,1.56,3.7,2.94,5.6,4.34c1.65,1.21,3.24,2.51,4.85,3.77c2.35,1.84,4.71,3.68,7.05,5.54c1.66,1.32,3.26,2.69,5.14,3.73
				c0.93,0.51,1.64,0.86,2.54,0.08c0.23-0.2,0.55-0.29,0.85-0.4c0.36-0.13,0.8,0.14,0.86,0.56c0.34,2.33,0.69,4.67,0.97,7.01
				c0.08,0.71,0.37,1.63-0.87,1.81c-0.23,0.03-0.15,0.47,0.03,0.59c1.43,0.91,1.59,2.44,1.96,3.88c0.24,0.91,0.53,1.81,0.79,2.72
				c0.09,0.3,0.17,0.67-0.13,0.86c-0.28,0.18-0.61,0.01-0.89-0.15c-2.25-1.31-4.63-2.36-6.73-3.93c-0.6-0.44-1.41-0.45-1.44-0.09
				c-0.04,0.55,0.33,0.89,0.75,1.11c2.15,1.15,4.31,2.28,6.48,3.4c0.77,0.4,1.56,0.74,2.32,1.16
				C102.41,159.84,102.45,160.19,102.24,160.49z M106.42,176.76c-0.69-0.49-0.72-1.43-0.84-2.19c-0.28-1.79-0.56-3.57-0.46-5.65
				c0.04-1.22,0.03-2.71,0.55-4.15c0.23-0.62-0.39-1.51,0.4-1.94c0.52-0.28,1.21-0.24,1.83-0.37c1.15-0.23,2.3-0.47,3.45-0.72
				c0.78-0.17,1.54-0.29,2.29,0.15c0.69,0.41,1.51,0.86,1.72,1.7c0.27,1.1-0.45,1.43-0.09,2.74c0.15,0.53,0.39,0.89,0.4,1.63
				c0,0,0,0.47-0.13,0.93c-0.34,1.22-1.61,1.63-2.79,2.85c-0.71,0.73-1.4,1.49-2.01,2.31c-1.47,1.98-1.95,2.86-2.98,3
				C107.66,177.07,106.98,177.16,106.42,176.76z M118.2,158.57c0.64,1.32,0.61,1.34-0.46,1.94c-0.27,0.15-0.56,0.28-0.83,0.45
				c-0.61,0.38-1.12,0.37-1.69-0.15c-2.14-1.98-4.18-4.03-5.94-6.37c-0.42-0.55-0.57-1.09-0.19-1.73c1.77-3.06,4.54-4.68,7.86-5.51
				c0.53-0.13,0.86,0.19,0.86,0.81c0.01,1.57,0,3.14,0,4.71c0.03,0,0.06,0,0.09,0c0,1.41,0,2.83,0,4.24
				C117.91,157.52,117.95,158.05,118.2,158.57z M120.63,157.97c0.21,0.19,0.43,0.14,0.66,0.1c0.93-0.17,1.86-0.34,2.79-0.5
				c0.34-0.06,0.64,0.29,0.49,0.59c-0.27,0.56-0.55,1.14-0.9,1.65c-0.25,0.36-0.68,0.47-0.99,0.07c-0.53-0.68-1.26-0.92-2.05-1.04
				c-0.55-0.08-0.83-0.44-0.92-0.94c-0.14-0.77-0.29-1.55-0.32-2.34c-0.05-1.34-0.01-2.68-0.01-4.02c-0.06,0-0.11,0-0.17,0
				c0-1.42-0.01-2.83,0-4.25c0-0.7,0.26-1.03,0.88-1.22c2.4-0.72,5.01,0.32,6.27,2.5c0.31,0.54,0.6,1.11,0.85,1.68
				c0.37,0.83,0.4,1.68-0.05,2.5c-0.11,0.21-0.21,0.42-0.3,0.64c-1.23,2.8-1.23,2.79-4.2,3.47c-0.54,0.12-1.07,0.25-1.6,0.4
				C120.73,157.38,120.48,157.83,120.63,157.97z M119.71,161.64c1.47-0.42,1.94-0.7,2.02,1.32c0.01,0.37,0.01,0.64,0,0.71
				c-0.15,2.23-0.24,3.35-0.69,4.05c-0.19,0.29-0.54,0.83-1.21,1.07c-0.09,0.03-0.89,0.49-1.2,0.07c-1.16-1.56-1.32-4.43-0.33-6.03
				C118.64,162.28,119.07,161.82,119.71,161.64z M111.72,160.43c0.29,0.35,0.1,0.83-0.32,0.9c-1.08,0.18-2.16,0.31-2.78,0.4
				c-2.7-0.05-2.97-0.38-2.47-2.49c0.16-0.68,0.36-1.36,0.57-2.03c0.39-1.21,0.99-1.39,1.79-0.5
				C109.62,157.92,110.68,159.17,111.72,160.43z M117.07,184.15c-1.23-0.28-2.45-0.57-3.69-0.81c-2.03-0.39-3.64-1.46-4.99-2.96
				c-0.47-0.52-0.48-0.87,0.03-1.43c1.64-1.81,3.3-3.6,4.97-5.37c0.92-0.98,1.86-1.92,2.82-2.87c0.46-0.45,0.92-0.33,1.01,0.28
				c0.18,1.33,0.34,2.66,0.43,3.99c0.06,0.86,0.01,1.73,0.01,2.29c-0.15,1.73-0.28,3.14,0.05,4.55c0.08,0.34,0.22,0.33,0.49,0.85
				c0.38,0.75,0.56,1.34,0.67,1.71C118.28,184.37,117.68,184.29,117.07,184.15z M123.84,182.41c-1.37,1.26-2.89,1.89-4.55,1.96
				c0.11-0.46,0.2-1.25,0.29-2.1c0.04-0.33,0.12-0.5,0.07-0.71c-0.39-1.86-0.33-3.77-0.57-5.64c-0.04-0.31-0.1-0.62-0.13-0.94
				c-0.23-2.58,0.1-3.13,2.37-4.25c0.49-0.24,0.93-0.19,1.33,0.06c0.4,0.24,0.79,0.53,1.09,0.88c1.55,1.85,2.55,2.18,3.12,3.86
				c0.11,0.33,0.31,0.94,0.29,1.75C127.1,179.73,125.01,181.33,123.84,182.41z M129.77,172.46c-0.19,0.52-0.34,1.05-0.86,1.47
				c-0.9-0.26-1.53-0.93-2.18-1.61c-1.19-1.24-2.01-2.81-3.54-3.74c-0.43-0.26-0.47-0.79-0.4-1.28c0.18-1.24,0.33-2.49,0.57-3.72
				c0.1-0.52,0.33-1.05,0.62-1.51c0.98-1.6,2.01-3.18,3.04-4.75c0.21-0.32,0.5-0.61,0.79-0.86c0.74-0.65,1.56-0.44,1.81,0.52
				C130.95,162.12,131.71,167.28,129.77,172.46z M128.05,148c0.82,0.42,1.11,0.97,1.39,1.52c0.05,0.09-0.07,0.26-0.12,0.39
				c-0.13-0.05-0.33-0.07-0.39-0.16C128.63,149.25,128.33,148.74,128.05,148z M130.33,154.39c-0.03-0.06,0.12-0.29,0.22-0.32
				c0.1-0.03,0.25,0.09,0.36,0.17c0.05,0.04,0.08,0.13,0.09,0.2c0.06,0.66,0.11,1.31,0.16,1.97
				C130.59,155.86,130.66,155.04,130.33,154.39z M131.18,156.58c0.15,0.57,0.3,1.14,0.44,1.7
				C131.1,157.81,131.15,157.19,131.18,156.58z M159.92,153.5c-0.26-0.23-0.44-0.31-0.46-0.42c-0.27-1.69-0.24-3.38,0.16-5.06
				c0.04-0.19,0.17-0.29,0.34-0.21c0.12,0.06,0.27,0.22,0.26,0.33C160.14,149.88,160.03,151.63,159.92,153.5z M161.9,153.88
				c-0.17-2.19-0.29-4.38-0.02-6.57c0.05-0.39,0.07-0.78,0.09-1.17c0.04-0.77-0.17-1.63,0.52-2.21c0.8-0.66,1.75-1.04,2.76-1.23
				c0.26-0.05,0.61,0.12,0.85,0.28c0.31,0.22,0.56,0.54,0.83,0.83c0.59,0.63,1.46,1.17,1.69,1.91c0.29,0.91,0.06,1.99,0.02,3
				c-0.02,0.58-0.36,1.02-0.74,1.44c-1.11,1.21-2.19,2.46-3.58,3.38c-0.71,0.47-1.34,1.01-1.8,1.69
				C161.87,154.84,161.93,154.33,161.9,153.88z M176.06,137.64c-0.58,0.19-0.87-0.05-0.94-0.68c-0.06-0.55-0.1-1.1-0.15-1.8
				c0.24-1.56,0.18-3.3,0.25-5.03c0.06-1.44,0.4-1.63,1.75-1.21c0.38,0.12,0.77,0.19,1.13,0.34c1.05,0.44,1.9,1.09,2.31,2.22
				c0.27,0.74,0.6,1.46,0.91,2.18c0.64,1.54,0.58,1.81-1.02,2.48C178.91,136.72,177.48,137.17,176.06,137.64z M179.09,138.13
				c-0.03,0.15-0.02,0.33-0.11,0.44c-0.66,0.77-1.32,1.54-2.01,2.28c-0.26,0.29-0.61,0.58-1,0.24c-0.68-0.59-0.79-1.47-0.24-1.81
				c0.92-0.58,1.87-1.15,2.97-1.32C178.82,137.93,178.96,138.06,179.09,138.13z M175.12,145.66c0.01,0.23,0,0.47,0,0.88
				c-0.08,0.53-0.12,1.24-0.29,1.92c-0.11,0.44-0.36,0.87-0.63,1.24c-0.33,0.45-1.14,0.68-1.48,0.48c-0.45-0.26-0.55-0.74-0.66-1.2
				c-0.04-0.15-0.1-0.36-0.02-0.46c0.74-1-0.02-2.15,0.32-3.19c0.33-1,1.15-1.87,1.72-1.62
				C174.91,144.07,175.08,144.85,175.12,145.66z M173.4,137.46c-0.01,0.94-0.39,1.41-1.22,1.75c-1.6,0.65-3.17,1.36-4.96,1.34
				c-0.52-0.01-0.89-0.1-1.25-0.47c-0.65-0.67-1.26-1.43-2.58-1.23c1.06-3.03,2.45-5.33,4.53-7.25c1.45-1.34,3.14-2.04,4.95-2.56
				c0.45-0.13,0.73,0.16,0.72,0.66C173.53,132.29,173.42,134.88,173.4,137.46z M170.19,142.76c-0.09,0.25-0.19,0.63-0.36,0.97
				c-0.23,0.45-0.87,0.52-1.18,0.11c-0.28-0.37-0.5-0.78-0.71-1.2c-0.05-0.11-0.02-0.36,0.07-0.43c0.46-0.37,1-0.38,1.56-0.25
				C169.9,142.06,170.06,142.31,170.19,142.76z M164.13,140.99c0.13,0.43-0.23,0.87-0.7,0.93c-0.28,0.02-0.48-0.1-0.54-0.33
				c-0.16-0.61,0.12-1.34,0.49-1.33C163.82,140.29,164.02,140.62,164.13,140.99z M169.48,165.05c-0.07,0.37-0.57,0.67-0.91,0.47
				c-1.26-0.74-2.51-1.5-3.72-2.32c-0.29-0.2-0.45-0.64-0.59-1c-0.59-1.54-1.15-3.09-1.7-4.64c-0.14-0.39-0.13-0.83,0.38-0.94
				c0.92-0.2,1.44-0.88,2.03-1.51c1.07-1.15,2.17-2.26,3.31-3.34c0.64-0.61,1.26-0.57,1.8,0.16c0.59,0.8,1.46,1.5,1.31,2.15
				c-0.28,1.94-0.44,3.34-0.69,4.73C170.31,160.9,169.89,162.97,169.48,165.05z M179.05,158.45c-1.08,1.95-2.39,3.7-4.17,5.08
				c-1.23,0.95-1.21,0.98-3.66,1.67c0.14-1.17,0.17-2.12,0.37-3.03c0.54-2.39,0.95-4.8,1.13-7.24c0.05-0.65,0.15-1.23,0.68-1.7
				c1.22-1.07,1.45-0.86,2.31,0.09c1.01,1.1,2.09,2.14,3.11,3.24C179.55,157.35,179.55,157.56,179.05,158.45z M182.77,142.92
				c-0.36,1.92-0.31,3.9-0.62,5.84c-0.29,1.8-0.9,3.49-1.48,5.2c-0.18,0.54-0.59,0.69-1.12,0.46c-1.67-0.73-2.71-2.11-3.56-3.62
				c-0.33-0.58,0.02-1.24,0.21-1.83c0.34-1.05,0.62-2.11,0.66-3.09c-0.01-0.28,0.02-0.45-0.04-0.59c-0.67-1.75,0.18-2.93,1.34-4.14
				c0.97-1.02,1.81-2.16,2.9-3.07c0.63-0.52,1.28-0.33,1.43,0.42C182.79,139.96,183.06,141.39,182.77,142.92z M195.21,106.61
				c-1.01,1.82-1.2,3.9-1.86,5.83c-0.3,0.88-0.78,1.49-1.62,1.89c-1.64,0.77-3.24,1.62-4.87,2.41c-0.48,0.23-0.95,0.47-1.22,0.94
				c0.42-0.12,0.86-0.21,1.27-0.37c1.47-0.56,2.93-1.15,4.41-1.71c0.73-0.28,1.09-0.01,0.98,0.72c-0.34,2.42-0.98,4.78-1.72,7.11
				c-0.33,1.05-0.82,2.04-1.21,3.08c-0.77,2.07-1.58,4.12-2.25,6.22c-0.3,0.92-0.92,1.21-1.71,1.4c-0.22,0.05-0.48-0.01-0.58-0.27
				c-0.11-0.29-0.23-0.59-0.28-0.9c-0.29-1.67-1.3-2.85-2.62-3.79c-1.09-0.77-2.25-1.45-3.39-2.15c-0.56-0.34-1.21-0.34-1.84-0.33
				c-1.34,0.02-2.68-0.02-4.01-0.24c-1.07-0.17-2.03,0.14-2.94,0.65c-3.56,1.98-6.14,4.87-7.85,8.54c-1.04,2.21-1.96,4.47-2.54,6.85
				c-0.25,1.03-0.8,1.67-1.89,1.82c-0.46,0.06-0.91,0.26-1.36,0.41c-2.4,0.76-4.81,1.51-6.96,2.89c-1.67,1.08-3.5,1.79-5.42,2.29
				c-2.45,0.63-4.81,1.51-7.14,2.47c-0.88,0.36-1.8,0.57-2.75,0.65c-0.69,0.06-1.22-0.16-1.55-0.82c-0.75-1.47-1.59-2.9-2.28-4.4
				c-0.32-0.69-0.74-1.19-1.35-1.58c-3.06-2.02-6.3-2.81-9.85-1.41c-0.59,0.23-1.2,0.37-1.84,0.34c-1.48-0.05-2.79,0.46-3.96,1.32
				c-1.65,1.21-3.3,2.42-4.88,3.72c-1.57,1.29-2.39,3.1-3.15,4.93c-0.27,0.65-0.57,1.29-0.88,1.92c-0.14,0.27-0.65,0.27-0.8,0.02
				c-0.88-1.44-1.28-3.04-1.44-4.69c-0.06-0.59,0.38-1,0.89-1.29c0.5-0.29,1.23-0.22,1.58-0.97c-0.88-0.2-1.63,0.15-2.39,0.21
				c-0.36,0.02-0.6-0.14-0.7-0.48c-0.13-0.45-0.33-0.91-0.33-1.37c-0.02-2.28-0.59-4.53-0.39-6.83c0.06-0.62-0.09-1.26-0.08-1.88
				c0.01-0.54,0.39-0.98,0.88-0.92c1.35,0.18,2.45-0.54,3.53-1.02c3.11-1.38,6.29-2.45,9.6-3.23c2.37-0.56,4.65-1.49,6.95-2.28
				c3.57-1.23,7.1-2.61,10.73-3.68c1.2-0.35,2.34-0.93,3.53-1.34c4.39-1.53,8.8-2.99,13.17-4.56c3.33-1.2,6.61-2.55,9.93-3.81
				c2.14-0.81,4.29-1.58,6.44-2.36c2.89-1.04,5.73-2.25,8.65-3.16c4.81-1.5,9.44-3.53,14.33-4.79c1.43-0.37,2.73-1.2,4.1-1.77
				c0.79-0.33,1.62-0.58,2.45-0.83C195.01,105.92,195.36,106.35,195.21,106.61z"/>
			<path class="st0" d="M51.57,168.36c0,0.02-0.01,0.03-0.02,0.05c0.01,0,0.03,0,0.05-0.01L51.57,168.36z"/>
			<path class="st0" d="M76.69,154.19C76.69,154.19,76.69,154.19,76.69,154.19c-0.01-0.02-0.03-0.03-0.04-0.04L76.69,154.19z"/>
		</g>
		<path class="st0" d="M51.59,168.41c0.14-0.18,0.23-0.43,0.41-0.54c3.97-2.47,7.95-4.93,11.94-7.37c0.86-0.53,1.72-1.1,2.79-1.08
			l-0.02-0.04c-0.42,0.84-1.28,1.1-2.01,1.53c-2.28,1.36-4.63,2.59-6.83,4.07c-1.62,1.09-3.32,2.04-4.98,3.07
			c-0.41,0.25-0.85,0.39-1.34,0.32L51.59,168.41z"/>
		<path class="st0" d="M66.74,159.41c0.28-0.61,0.87-0.86,1.41-1.15c2.4-1.25,4.8-2.49,7.22-3.7c0.4-0.2,0.88-0.25,1.32-0.37
			c0,0-0.04-0.04-0.04-0.04c0,0.18,0,0.36,0,0.53l0.04-0.05c-0.17,0.17-0.35,0.35-0.52,0.52l0.05-0.04
			c-0.58,0.22-1.18,0.39-1.73,0.67c-1.03,0.53-2.02,1.17-3.05,1.7c-1.52,0.76-3,1.63-4.72,1.89L66.74,159.41z"/>
		<path class="st0" d="M128.48,86.17c0-0.23-0.06-0.48,0.01-0.68c0.95-2.59,1.71-5.25,2.98-7.71c0.22-0.42,0.42-0.85,0.71-1.23
			c0.61-0.81,1.45-1.19,2.48-1.07c1.54,0.18,2.73,0.71,3.58,2.23c1.33,2.38,2.24,4.86,2.69,7.52c0.06,0.39,0.08,0.78,0.11,1.18
			c0.02,0.24-0.02,0.52-0.3,0.47c-0.17-0.03-0.38-0.27-0.44-0.46c-0.16-0.52-0.24-1.07-0.38-1.61c-0.55-2.09-1.58-3.94-2.81-5.69
			c-0.32-0.46-0.92-0.34-1.08,0.21c-0.21,0.68-0.37,1.37-0.55,2.05c-0.06,0.22-0.09,0.54-0.37,0.49c-0.41-0.08-0.3-0.46-0.26-0.75
			c0.1-0.62,0.26-1.24,0.33-1.86c0.07-0.54,0.1-1.1,0.05-1.65c-0.05-0.62-0.51-0.97-1.07-1.12c-0.52-0.14-0.96,0.14-1.19,0.57
			c-0.62,1.19-1.2,2.4-1.74,3.62c-0.83,1.86-1.61,3.74-2.41,5.61C128.7,86.25,128.59,86.21,128.48,86.17z"/>
		<path class="st0" d="M114.91,107.95c0-2.65,0.88-5.01,1.66-7.39c0.44-1.34,1.63-1.83,2.65-2.53c0.58-0.4,0.91-0.3,0.91,0.32
			c0,1.5-0.03,2.99-0.08,4.49c-0.01,0.3-0.09,0.64-0.63,0.73c-0.05-0.94-0.09-1.87-0.17-2.79c-0.02-0.3-0.04-0.66-0.43-0.76
			c-0.47-0.13-0.76,0.18-0.95,0.51c-0.31,0.54-0.6,1.11-0.82,1.7c-0.6,1.62-1.15,3.27-1.73,4.9
			C115.21,107.41,115.05,107.67,114.91,107.95z"/>
		<path class="st0" d="M144.64,104.19c-0.52-0.13-0.66-0.61-0.84-1.01c-0.36-0.78-0.66-1.59-1.01-2.38
			c-0.48-1.08-0.59-1.08-1.39-0.15c-0.45,0.52-1,0.41-1.25-0.22c-0.5-1.25-0.1-2.46,0.16-3.67c0.08-0.38,0.66-0.54,0.96-0.32
			c0.64,0.48,1.16,1.07,1.48,1.8c0.79,1.79,1.56,3.59,2.01,5.51C144.79,103.88,144.69,104.04,144.64,104.19z"/>
		<path class="st0" d="M116.14,90.98c0.07-1.1,0.55-1.74,0.9-2.38c0.97-1.79,2-3.55,3.04-5.3c0.52-0.88,1.14-1.69,1.94-2.35
			c0.43-0.35,0.89-0.67,1.48-0.59c0.22,0.03,0.5,0.13,0.61,0.29c0.21,0.31,0.02,0.64-0.28,0.76c-1.56,0.6-2.51,1.82-3.36,3.16
			c-0.88,1.39-1.75,2.79-2.65,4.17C117.37,89.43,117.03,90.22,116.14,90.98z"/>
		<path class="st0" d="M169.03,101.1c-0.5-0.31-0.66-0.86-0.95-1.32c-1.34-2.14-3.08-3.74-5.67-4.21c-0.38-0.07-0.82-0.13-0.79-0.66
			c0.02-0.39,0.61-0.76,1.07-0.7c0.31,0.04,0.62,0.09,0.91,0.21c2.2,0.88,3.8,2.42,4.98,4.44c0.41,0.7,0.5,1.47,0.4,2.27
			L169.03,101.1z"/>
		<path class="st0" d="M156.64,92.97c-3.18-2.02-6.33-4.09-9-6.78c-0.16-0.16-0.33-0.37-0.06-0.56c0.1-0.06,0.33-0.04,0.43,0.04
			C150.98,87.99,154.14,90.07,156.64,92.97z"/>
		<path class="st0" d="M122.36,116.92c-0.3-0.59-0.11-1.05,0.02-1.44c0.61-1.94,1.27-3.85,1.92-5.77c0.26-0.76,0.64-1.44,1.46-1.71
			c0.13-0.04,0.33-0.03,0.43,0.04c0.1,0.07,0.19,0.32,0.14,0.38c-1.6,2.18-2.08,4.87-3.32,7.2
			C122.81,116.02,122.61,116.43,122.36,116.92z"/>
		<path class="st0" d="M150.73,100.96c-0.16,0.09-0.3,0.22-0.41,0.2c-0.98-0.16-1.71-0.8-2.44-1.38c-1.54-1.22-3.02-2.53-4.51-3.81
			c-0.09-0.08-0.16-0.3-0.12-0.41c0.1-0.24,0.4-0.33,0.58-0.21c0.92,0.59,1.89,1.14,2.68,1.87c1.22,1.12,2.46,2.2,3.8,3.18
			C150.5,100.53,150.59,100.77,150.73,100.96z"/>
		<path class="st0" d="M153.75,95.31c-0.11,0.08-0.23,0.22-0.34,0.22c-0.14,0-0.3-0.09-0.42-0.18c-1.84-1.39-3.8-2.49-6.12-2.84
			c-0.24-0.04-0.46-0.24-0.41-0.48c0.04-0.2,0.22-0.43,0.41-0.52c0.77-0.39,1.62-0.32,2.23,0.19c0.99,0.81,2.18,1.23,3.25,1.87
			c0.54,0.32,1.06,0.69,1.34,1.28C153.75,94.98,153.73,95.15,153.75,95.31z"/>
		<path class="st0" d="M152.27,112.06c-0.11,0.19-0.15,0.38-0.26,0.43c-0.28,0.11-0.44-0.11-0.5-0.34
			c-0.45-1.83-0.89-3.66-1.31-5.49c-0.03-0.12,0.07-0.34,0.17-0.4c0.22-0.13,0.43-0.04,0.59,0.16c0.05,0.06,0.09,0.13,0.12,0.2
			C151.69,108.41,151.99,110.26,152.27,112.06z"/>
		<path class="st0" d="M119.21,124.34c0.01,0.31,0.12,0.65,0.03,0.93c-0.56,1.72-1.03,3.44-1.03,5.27c0,0.23-0.19,0.45-0.46,0.38
			c-0.11-0.03-0.2-0.22-0.25-0.35c-0.05-0.14-0.07-0.31-0.05-0.46c0.32-2.01,0.6-4.03,1.81-5.76L119.21,124.34z"/>
		<path class="st0" d="M168.99,108.05c0.18,0.83,0.39,1.66,0.53,2.49c0.05,0.29-0.01,0.63-0.13,0.91c-0.07,0.18-0.35,0.38-0.52,0.37
			c-0.18-0.01-0.44-0.23-0.5-0.42C168.04,110.4,168.13,109.66,168.99,108.05z"/>
		<path class="st0" d="M118.34,114.46c-0.4,1.56-0.56,3.18-1.35,5.09c-0.17-1.74-0.11-3.02,0.37-4.27c0.18-0.47,0.46-0.81,1.02-0.78
			L118.34,114.46z"/>
		<path class="st0" d="M108.85,104.45c0.18-2.02,1.48-3.34,2.77-4.69c0.17,0.15,0.26,0.19,0.27,0.25c0.02,0.07-0.02,0.16-0.06,0.22
			c-1.01,1.4-2.01,2.79-3.02,4.19L108.85,104.45z"/>
		<path class="st0" d="M136.08,120.74c0.09,0.27,0.13,0.34,0.13,0.41c-0.04,0.73,0.3,1.5-0.18,2.19c-0.03,0.04-0.18,0.05-0.2,0.02
			c-0.54-0.76-0.21-1.56-0.06-2.35C135.78,120.96,135.87,120.92,136.08,120.74z"/>
		<path class="st0" d="M108.81,104.42c0.18,1.02-0.61,1.69-0.99,3.03c0.17-1.92,0.16-1.93,1.03-3
			C108.85,104.45,108.81,104.42,108.81,104.42z"/>
		<path class="st0" d="M129.63,101.56c0.16-0.59,0.3-1.18,0.5-1.76c0.06-0.19,0.27-0.36,0.45-0.47c0.22-0.13,0.27,0.28,0.07,0.71
			c-0.26,0.56-0.54,1.1-1.05,1.48L129.63,101.56z"/>
		<path class="st0" d="M118.38,114.49c-0.04-0.38-0.02-0.75,0.32-1c0.09-0.07,0.25-0.04,0.38-0.06c0,0.07,0.03,0.16,0,0.2
			c-0.24,0.28-0.49,0.55-0.73,0.83C118.34,114.46,118.38,114.49,118.38,114.49z"/>
		<path class="st0" d="M129.59,101.53c-0.02,0.13-0.04,0.27-0.05,0.4c-0.01-0.05-0.03-0.11-0.01-0.16c0.02-0.07,0.07-0.13,0.1-0.2
			C129.63,101.56,129.59,101.53,129.59,101.53z"/>
		<path class="st0" d="M168.99,101.13c0.05,0.11,0.11,0.22,0.16,0.33c-0.04-0.04-0.11-0.08-0.12-0.14c-0.02-0.07,0-0.15,0-0.23
			C169.03,101.1,168.99,101.13,168.99,101.13z"/>
		<path class="st0" d="M119.24,124.36c0,0-0.03-0.01-0.04-0.01C119.21,124.34,119.24,124.36,119.24,124.36z"/>
		<path class="st0" d="M167.43,121.89c-0.4,0.77-1.18,1.03-1.89,1.33c-5.45,2.28-10.89,4.59-16.39,6.77
			c-2.63,1.05-5.38,1.8-8.06,2.74c-3.34,1.17-6.77,2.1-10.06,3.43c-1.67,0.67-3.45,1.1-5.19,1.59c-4.7,1.32-9.41,2.62-14.12,3.93
			c-0.91,0.25-1.82,0.5-2.74,0.74c-0.21,0.05-0.5,0.06-0.55-0.22c-0.04-0.27,0.23-0.38,0.45-0.46c0.89-0.3,1.78-0.64,2.7-0.88
			c3.51-0.91,6.98-1.95,10.44-3.04c2.55-0.81,5.19-1.33,7.74-2.14c3.6-1.14,7.16-2.43,10.75-3.63c3.36-1.13,6.73-2.23,10.09-3.35
			c0.45-0.15,0.91-0.29,1.32-0.5c3.84-2.04,7.98-3.37,12.02-4.91c1.18-0.45,2.36-0.89,3.53-1.34L167.43,121.89z"/>
		<path class="st0" d="M149.92,137.05c-0.31,0.61-0.89,0.85-1.49,1.06c-3.41,1.17-6.69,2.68-10.21,3.55
			c-1.2,0.3-2.31,0.95-3.47,1.43c-0.36,0.15-0.72,0.3-1.1,0.4c-0.07,0.02-0.21-0.14-0.29-0.24c-0.03-0.04,0-0.19,0.05-0.21
			c0.61-0.35,1.2-0.75,1.85-1c1.76-0.67,3.54-1.27,5.32-1.89c2.52-0.87,5.04-1.75,7.56-2.6c0.59-0.2,1.21-0.32,1.81-0.48
			L149.92,137.05z"/>
		<path class="st0" d="M149.96,137.08c1.05-0.57,2.15-0.96,3.36-0.89l-0.04-0.04c-1.01,0.71-2.11,1.07-3.36,0.89
			C149.92,137.05,149.96,137.08,149.96,137.08z"/>
		<path class="st0" d="M185.55,117.71c-0.15,0.15-0.29,0.32-0.45,0.46c-0.16,0.15-0.28,0.12-0.27-0.05c0-0.05,0.08-0.13,0.14-0.15
			c0.2-0.08,0.41-0.15,0.62-0.22C185.59,117.75,185.55,117.71,185.55,117.71z"/>
		<path class="st0" d="M167.47,121.92c0.13-0.06,0.25-0.14,0.39-0.17c0.11-0.02,0.22,0.03,0.34,0.05c-0.11,0.05-0.22,0.13-0.34,0.14
			c-0.14,0.01-0.28-0.03-0.42-0.06C167.43,121.89,167.47,121.92,167.47,121.92z"/>
		<path class="st0" d="M153.32,136.2c0.1-0.1,0.19-0.23,0.31-0.28c0.1-0.04,0.24,0.02,0.36,0.03c-0.09,0.06-0.18,0.15-0.29,0.18
			c-0.13,0.04-0.28,0.02-0.42,0.03C153.29,136.16,153.32,136.2,153.32,136.2z"/>
		<path class="st0" d="M90.88,145.16c-0.66-0.05-1.16-0.46-1.7-0.78c-1.36-0.8-2.72-1.59-4.08-2.39c-0.41-0.24-0.84-0.44-1.21-0.73
			c-2.72-2.17-5.8-3.8-8.75-5.61c-2.3-1.4-4.32-3.15-6.22-5.04c-0.15-0.15-0.19-0.41-0.27-0.63c-0.02-0.06,0-0.19,0.05-0.22
			c0.12-0.07,0.31-0.19,0.39-0.14c0.28,0.14,0.53,0.33,0.77,0.52c1.42,1.12,2.84,2.25,4.26,3.38c0.37,0.29,0.71,0.66,1.13,0.85
			c1.96,0.88,3.68,2.15,5.41,3.37c2.58,1.82,5.33,3.36,7.92,5.15c0.88,0.61,1.92,1.14,2.26,2.31L90.88,145.16z"/>
		<path class="st0" d="M85.1,148.02c-1.43-1.08-3.11-1.87-4.63-2.83c-1.53-0.96-3.04-1.98-4.51-3.03c-2.94-2.1-5.78-4.36-8.6-6.62
			c-0.08-0.06-0.19,0.05-0.12,0.13c2.52,2.66,5.27,5,8.23,7.15c2.84,2.06,6.02,4.51,9.32,5.74
			C85.13,148.68,85.39,148.23,85.1,148.02z"/>
		<polygon class="st0" points="90.84,145.2 90.93,145.25 90.88,145.16 		"/>
		<path class="st0" d="M91.37,107.31c-0.95,0.77-0.96,0.76-2.57,1.08c1.02-0.68,1.81-0.86,2.61-1.04
			C91.4,107.35,91.37,107.31,91.37,107.31z"/>
		<polygon class="st0" points="79.06,105.52 79.09,105.42 79.07,105.48 		"/>
		<path class="st0" d="M157.88,139.83c-4.12,1.47-8.21,3.14-12.27,4.77c-4.01,1.61-8.4,2.88-12.2,4.93
			c-0.14,0.07-0.1,0.32,0.08,0.28c4.13-0.85,8.22-2.79,12.13-4.33c4.17-1.64,8.35-3.42,12.33-5.48
			C158.06,139.95,157.99,139.79,157.88,139.83z"/>
		<path class="st0" d="M187.18,129.38c-0.78,0.11-1.57,0.51-2.31,0.78c-0.17,0.06-0.06,0.3,0.1,0.25c0.74-0.21,1.61-0.35,2.29-0.71
			C187.43,129.62,187.38,129.35,187.18,129.38z"/>
		<path class="st0" d="M189.12,122.52c-1.54,0.17-3.04,0.87-4.5,1.38c-1.66,0.57-3.43,1.05-4.97,1.9c-0.1,0.05-0.07,0.22,0.05,0.2
			c1.65-0.27,3.24-0.94,4.81-1.48c1.56-0.54,3.28-0.93,4.68-1.8C189.29,122.65,189.22,122.51,189.12,122.52z"/>
		<path class="st0" d="M111.58,113.67c-3.37,1.05-6.24,4.78-5.88,8.39c0.03,0.33,0.49,0.29,0.55,0c0.71-3.57,2.21-6.2,5.48-8.01
			C111.97,113.92,111.84,113.59,111.58,113.67z"/>
		<path class="st0" d="M101.34,121c-1.4,1.5-2.74,3.36-3.07,5.44c-0.04,0.28,0.34,0.34,0.45,0.12c0.92-1.84,1.68-3.66,3.04-5.24
			C101.98,121.05,101.57,120.75,101.34,121z"/>
		<path class="st0" d="M112.13,122.22c-1.24,2.09-2.02,4.57-1.56,7.01c0.05,0.24,0.44,0.27,0.46,0c0.12-2.4,0.39-4.6,1.5-6.78
			C112.65,122.21,112.27,122,112.13,122.22z"/>
		<path class="st0" d="M140.98,110.53c-0.07-0.16-0.32-0.06-0.25,0.1c0.92,2.16,0.95,4.34,1.08,6.64c0.02,0.3,0.45,0.26,0.5,0
			C142.73,114.94,141.95,112.62,140.98,110.53z"/>
		<path class="st0" d="M131.23,111.68c-1.63,1.55-2.84,4.18-2.44,6.46c0.07,0.37,0.6,0.38,0.66,0c0.17-1.1,0.2-2.15,0.58-3.21
			c0.37-1.05,0.92-1.98,1.56-2.88C131.76,111.81,131.45,111.47,131.23,111.68z"/>
		<path class="st0" d="M129.37,91.01c-1.92,0.41-4.03,2.56-4.33,4.5c-0.04,0.26,0.32,0.4,0.47,0.19c0.57-0.83,0.99-1.71,1.68-2.45
			c0.7-0.74,1.54-1.22,2.35-1.82C129.72,91.29,129.6,90.96,129.37,91.01z"/>
		<path class="st0" d="M111.59,94.55c-1.92,0.7-4.14,2.81-4.5,4.9c-0.05,0.29,0.38,0.47,0.54,0.22c0.58-0.88,0.94-1.84,1.62-2.66
			c0.72-0.87,1.58-1.53,2.48-2.2C111.87,94.7,111.74,94.49,111.59,94.55z"/>
		<path class="st0" d="M104.66,109.19c-1.32,0.82-2.6,2.41-2.99,3.93c-0.06,0.25,0.31,0.36,0.45,0.18c0.47-0.64,0.83-1.35,1.31-1.99
			c0.48-0.64,1.04-1.2,1.56-1.8C105.18,109.3,104.87,109.06,104.66,109.19z"/>
		<path class="st0" d="M156.77,102.43c-0.26-0.19-0.63,0.16-0.41,0.42c2.08,2.31,2.99,4.81,3.06,7.91c0.01,0.27,0.38,0.22,0.44,0
			C160.62,107.74,159.28,104.26,156.77,102.43z"/>
		<path class="st0" d="M172.84,99.27c-0.09-0.12-0.27,0.02-0.18,0.14c1.69,2.4,2.18,4.91,2.35,7.78c0.01,0.24,0.4,0.24,0.42,0
			C175.75,104.35,174.56,101.48,172.84,99.27z"/>
	</g>
</g>
</svg>
