<?xml version="1.0" encoding="utf-8"?>
<!-- Generator: Adobe Illustrator 25.2.1, SVG Export Plug-In . SVG Version: 6.00 Build 0)  -->
<svg version="1.1" id="Capa_1" xmlns="http://www.w3.org/2000/svg" xmlns:xlink="http://www.w3.org/1999/xlink" x="0px" y="0px"
	 viewBox="0 0 200 200" style="enable-background:new 0 0 200 200;" xml:space="preserve">
<style type="text/css">
	.st0{fill:#4D4D4D;}
</style>
<g>
	<g>
		<path class="st0" d="M100,11.7c48.69,0,88.3,39.61,88.3,88.3s-39.61,88.3-88.3,88.3S11.7,148.69,11.7,100S51.31,11.7,100,11.7
			 M100,2.5C46.15,2.5,2.5,46.15,2.5,100s43.65,97.5,97.5,97.5s97.5-43.65,97.5-97.5S153.85,2.5,100,2.5L100,2.5z"/>
	</g>
	<g id="O8aTrj_00000050659413359473685000000004643821960095245958_">
		<g>
			<path class="st0" d="M122.78,51.87c0,2.1,0,3.9,0,5.7c0,4.75-0.07,9.5,0.04,14.25c0.03,1.3,0.37,2.74,1.02,3.85
				c10.61,18.19,21.2,36.39,32.02,54.45c2.21,3.68,2.73,7.3,1.86,11.26c-1.72,7.79-6.36,13.15-13.82,15.99
				c-0.96,0.37-2.07,0.45-3.12,0.45c-26.75,0.03-53.51,0.03-80.26,0c-0.98,0-2-0.21-2.92-0.55c-9.16-3.33-15.01-12.89-13.8-22.55
				c0.1-0.77,0.45-1.56,0.85-2.24c11.15-19.03,22.33-38.04,33.46-57.09c0.56-0.96,0.88-2.21,0.9-3.32
				c0.08-6.62,0.04-13.24,0.04-20.2c-0.91,0-1.7,0.04-2.47-0.01c-1.74-0.1-2.79-1.18-2.84-2.85c-0.05-1.67,0.96-2.84,2.65-3.06
				c0.37-0.05,0.75-0.04,1.12-0.04c15.63,0,31.26,0,46.88,0c0.44,0,0.88-0.02,1.31,0.06c1.5,0.28,2.5,1.57,2.38,3.13
				c-0.12,1.57-0.96,2.56-2.56,2.74C124.72,51.94,123.91,51.87,122.78,51.87z M116.68,52.05c-0.43-0.07-0.67-0.14-0.91-0.14
				c-9.75-0.01-19.51,0.02-29.26-0.03c-1.33-0.01-1.52,0.57-1.52,1.7c0.04,6.32-0.04,12.63,0.05,18.95c0.03,2.08-0.4,3.86-1.52,5.63
				c-2.03,3.2-3.86,6.53-5.92,10.06c1.06,0.19,1.83,0.35,2.61,0.46c7.95,1.12,15.57-0.23,22.98-3.08c4.65-1.79,9.38-3.08,14.43-2.81
				c1.04,0.06,2.08,0.13,3.54,0.22c-0.98-1.68-1.71-3.11-2.63-4.42c-1.34-1.92-1.82-3.96-1.77-6.32c0.13-6,0.05-12,0.04-18.01
				C116.8,53.51,116.72,52.78,116.68,52.05z M114.33,138.6c6.4-2.46,10.55-6.77,12.4-13.22c1.77-6.2,1.15-12.38-0.26-18.54
				c-0.28-1.22-0.59-2.43-0.96-3.62c-0.35-1.12-0.78-2.22-1.18-3.33c-1.26,4.88-4.58,7.74-8.45,10.31c-2.47,1.64-4.84,3.6-6.81,5.81
				c-3.9,4.35-6.14,9.42-4.93,15.47c0.75,3.78,3.42,6.64,6.46,6.94c-0.08-0.44-0.13-0.86-0.23-1.27
				c-2.4-9.96,2.51-20.57,11.79-25.19c-1.1,1.35-2.25,2.65-3.45,3.9c-2.45,2.56-4.44,5.41-5.55,8.81
				C111.62,129.41,112.11,133.99,114.33,138.6z M104.59,139.51c-7.49-5.5-15.47-9.05-24.44-10.27c7.72-0.9,14.61,1.68,21.43,5.46
				c-0.32-1.56-0.87-2.8-0.75-3.97c0.31-2.97-1.49-4.28-3.72-5.35c-1.12-0.54-2.27-1.08-3.46-1.4c-8.9-2.37-17.38-0.29-26.17,2.42
				c5.71,7.78,11.61,14.83,21.09,17.48C94.54,145.57,99.72,143.67,104.59,139.51z M80.3,104.89c1.52,0,2.72-1.2,2.7-2.72
				c-0.02-1.39-1.21-2.6-2.61-2.66c-1.45-0.06-2.77,1.2-2.8,2.66C77.56,103.67,78.78,104.89,80.3,104.89z M115.38,91.44
				c0.01-0.28,0.02-0.56,0.03-0.85c-0.7-0.54-1.33-1.39-2.11-1.54c-1.2-0.23-2.16,0.67-1.95,1.84c0.13,0.72,1.11,1.69,1.81,1.79
				C113.84,92.8,114.64,91.9,115.38,91.44z M135.25,141.13c0.29,0,0.58,0.01,0.87,0.01c0.49-0.73,1.42-1.51,1.34-2.16
				c-0.09-0.71-1.13-1.3-1.76-1.94c-0.64,0.63-1.69,1.21-1.79,1.91C133.83,139.61,134.77,140.4,135.25,141.13z M102.02,105.19
				c-0.76,1.06-1.6,1.71-1.55,2.29c0.05,0.62,0.93,1.18,1.45,1.76c0.6-0.57,1.55-1.07,1.69-1.74
				C103.72,107,102.8,106.27,102.02,105.19z"/>
			<path class="st0" d="M116.72,42.28c-10.71,0-21.07,0-31.6,0c0-2.58-0.13-5.06,0.05-7.53c0.12-1.72,1.74-2.97,3.79-2.99
				c7.94-0.07,15.88-0.1,23.82-0.01c2.62,0.03,3.91,1.6,3.95,4.25C116.75,38.05,116.72,40.1,116.72,42.28z"/>
			<path class="st0" d="M103.15,81.43c-1.48-0.02-2.72-1.28-2.73-2.76c-0.01-1.5,1.21-2.75,2.71-2.76c1.59-0.02,2.88,1.28,2.84,2.84
				C105.92,80.19,104.61,81.45,103.15,81.43z"/>
			<path class="st0" d="M94.94,66.46c1.33,0.19,2.16,0.93,2.13,2.33c-0.03,1.4-0.84,2.18-2.24,2.24c-1.31,0.05-2.41-1.1-2.29-2.4
				C92.68,67.24,93.53,66.55,94.94,66.46z"/>
			<path class="st0" d="M105.96,62.08c-0.58-0.82-1.51-1.58-1.65-2.46c-0.19-1.21,0.67-2.12,2.04-2.13
				c1.42-0.01,2.39,0.83,2.16,2.19c-0.14,0.88-1.09,1.62-1.68,2.43C106.54,62.09,106.25,62.08,105.96,62.08z"/>
		</g>
	</g>
</g>
</svg>
