<?xml version="1.0" encoding="utf-8"?>
<!-- Generator: Adobe Illustrator 25.2.1, SVG Export Plug-In . SVG Version: 6.00 Build 0)  -->
<svg version="1.1" id="Capa_1" xmlns="http://www.w3.org/2000/svg" xmlns:xlink="http://www.w3.org/1999/xlink" x="0px" y="0px"
	 viewBox="0 0 200 200" style="enable-background:new 0 0 200 200;" xml:space="preserve">
<style type="text/css">
	.st10{opacity:0.93;fill:#BAE8DF;}
	.st11{opacity:0.93;fill:#34B29A;}
	.st12{fill:#FFFFFF;}
</style>
<g>
	<circle class="st10" cx="100" cy="100" r="97.5"/>
	<circle class="st11" cx="100" cy="100" r="90.67"/>
	<g>
		<path class="st12" d="M89.18,130.27c14.58-10.38,29.05-20.68,43.61-31.05c0.02,0.38,0.04,0.66,0.04,0.94
			c0.07,6.65,0.13,13.31,0.23,19.96c0.01,0.6-0.18,0.94-0.66,1.28c-7.38,5.24-14.76,10.48-22.12,15.75c-0.48,0.34-0.86,0.4-1.42,0.2
			c-6.23-2.26-12.47-4.48-18.71-6.71C89.88,130.53,89.61,130.42,89.18,130.27z"/>
		<path class="st12" d="M81.44,119.41c14.57-10.37,29.07-20.7,43.63-31.07c2.34,3.28,4.66,6.55,7.01,9.85
			c-14.55,10.36-29.07,20.7-43.63,31.07C86.12,125.98,83.81,122.73,81.44,119.41z"/>
		<path class="st12" d="M110.13,81.99c2.32,3.26,4.62,6.49,6.95,9.76c-2.42,1.73-4.79,3.41-7.24,5.15c-1.81-2.54-3.61-5.07-5.48-7.7
			c-0.34,0.41-0.61,0.71-0.86,1.02c-5.68,7.07-11.36,14.14-17.03,21.21c-1.29,1.6-2.93,2.3-4.95,1.85
			c-1.87-0.42-3.07-1.63-3.56-3.48c-0.43-1.61-0.01-3.05,1.03-4.34c6.34-7.88,12.68-15.77,19.01-23.66
			c2.08-2.59,4.15-5.19,6.25-7.77c1.81-2.23,4.73-2.62,6.83-0.94c2.15,1.72,2.4,4.66,0.6,6.93
			C111.17,80.67,110.67,81.31,110.13,81.99z"/>
		<path class="st12" d="M64.19,82.72c-2.05,1.4-4.67,1.13-6.4-0.7c-1.6-1.69-1.65-4.36-0.07-6.33c3.37-4.21,6.76-8.41,10.13-12.62
			c4.93-6.14,9.87-12.27,14.79-18.42c0.76-0.95,1.57-1.8,2.78-2.17c2.01-0.62,4.14,0.09,5.35,1.8c1.24,1.74,1.18,4.04-0.2,5.78
			c-2.1,2.65-4.23,5.28-6.35,7.92c-6.3,7.84-12.6,15.69-18.91,23.53C64.97,81.94,64.57,82.32,64.19,82.72z"/>
		<path class="st12" d="M91.13,53.03c2.01-1.33,4.56-1.08,6.28,0.66c1.64,1.66,1.79,4.32,0.28,6.24c-2.58,3.28-5.21,6.51-7.82,9.77
			c-5.77,7.19-11.55,14.36-17.3,21.56c-1.36,1.7-2.98,2.62-5.17,2.16c-3.48-0.75-4.92-4.83-2.7-7.66c2.36-3,4.77-5.97,7.17-8.94
			c6.01-7.48,12.02-14.96,18.04-22.43C90.29,53.91,90.72,53.48,91.13,53.03z"/>
		<path class="st12" d="M78.51,102.41c-2.2,1.58-4.8,1.32-6.53-0.47c-1.59-1.64-1.73-4.3-0.24-6.18c3.11-3.93,6.27-7.83,9.41-11.74
			c5.35-6.66,10.7-13.33,16.06-19.98c1.95-2.42,5.25-2.56,7.35-0.33c1.6,1.69,1.68,4.31,0.14,6.25c-4.22,5.29-8.46,10.56-12.7,15.84
			c-4.16,5.19-8.33,10.37-12.5,15.55C79.14,101.79,78.72,102.19,78.51,102.41z"/>
		<path class="st12" d="M57.18,73.02c-2.08,1.49-4.48,1.26-6.1-0.42c-1.5-1.56-1.6-4.05-0.18-5.85c3.57-4.5,7.16-8.98,10.74-13.46
			c0.82-1.02,1.62-2.06,2.46-3.07c1.63-1.94,4.34-2.21,6.26-0.67c1.92,1.55,2.26,4.27,0.69,6.25c-4.38,5.53-8.79,11.03-13.2,16.53
			C57.6,72.65,57.29,72.92,57.18,73.02z"/>
		<path class="st12" d="M138.28,128.55c0,0.72,0.03,1.42-0.03,2.11c-0.02,0.24-0.23,0.53-0.43,0.68
			c-6.63,4.74-13.26,9.46-19.91,14.17c-0.22,0.16-0.6,0.22-0.87,0.16c-0.65-0.15-1.27-0.41-1.92-0.63c0.01-0.72-0.03-1.4,0.05-2.06
			c0.03-0.27,0.23-0.6,0.46-0.76c6.6-4.72,13.21-9.43,19.84-14.12c0.24-0.17,0.65-0.22,0.94-0.15
			C137.03,128.08,137.63,128.33,138.28,128.55z"/>
		<path class="st12" d="M141.54,133.17c0.03,0.12,0.03,0.15,0.04,0.17c0.27,1.63-0.32,2.66-1.74,3.64
			c-6.02,4.13-11.94,8.41-17.85,12.68c-0.85,0.61-1.58,0.87-2.53,0.37c-0.3-0.16-0.65-0.23-1.02-0.35c0-0.73-0.03-1.43,0.03-2.12
			c0.02-0.24,0.24-0.52,0.45-0.67c6.63-4.74,13.26-9.46,19.91-14.17c0.22-0.16,0.6-0.21,0.87-0.15
			C140.31,132.72,140.91,132.96,141.54,133.17z"/>
		<path class="st12" d="M121.73,154.32c0.01-0.74-0.02-1.44,0.04-2.13c0.02-0.24,0.21-0.54,0.42-0.69
			c6.62-4.73,13.25-9.45,19.89-14.16c0.22-0.16,0.6-0.22,0.87-0.15c0.65,0.15,1.27,0.4,1.95,0.63c-0.01,0.73,0.02,1.43-0.04,2.12
			c-0.02,0.24-0.23,0.53-0.43,0.68c-6.62,4.73-13.25,9.46-19.89,14.16c-0.24,0.17-0.65,0.21-0.95,0.14
			C122.96,154.78,122.37,154.53,121.73,154.32z"/>
		<path class="st12" d="M110.69,138.79c7.76-5.52,15.38-10.95,23.13-16.47c0.36,1.32,0.73,2.56,1.03,3.82
			c0.04,0.16-0.18,0.47-0.36,0.6c-6.6,4.72-13.21,9.42-19.82,14.11c-0.19,0.13-0.59,0.21-0.75,0.1
			C112.85,140.3,111.84,139.57,110.69,138.79z"/>
		<path class="st12" d="M125.12,156.47c6.93-4.93,13.73-9.78,20.69-14.73c0.17,1.52,0.34,2.94,0.47,4.37
			c0.01,0.16-0.24,0.38-0.41,0.51c-5.39,3.85-10.78,7.69-16.19,11.52c-0.18,0.13-0.52,0.25-0.69,0.17
			C127.72,157.73,126.47,157.11,125.12,156.47z"/>
		<path class="st12" d="M142.83,150.38c0.3,0.42,0.56,0.79,0.86,1.2c-2.85,2.03-5.66,4.03-8.53,6.08c-0.27-0.38-0.55-0.77-0.86-1.2
			C137.12,154.45,139.93,152.44,142.83,150.38z"/>
		<path class="st12" d="M141.57,154.26c0.3,0.43,0.57,0.8,0.86,1.21c-1.07,0.76-2.1,1.5-3.19,2.27c-0.28-0.39-0.55-0.78-0.86-1.21
			C139.42,155.79,140.46,155.05,141.57,154.26z"/>
	</g>
</g>
</svg>
